<svg width="98" height="31" viewBox="0 0 98 31" fill="none" xmlns="http://www.w3.org/2000/svg">
<path d="M78.6545 30.4667H74.7603V8.36755H78.6545V10.2097C80.1852 8.6791 81.9291 7.9104 83.8864 7.9104C86.1993 7.9104 88.1227 8.75698 89.6229 10.4705C91.1399 12.167 91.9052 14.3004 91.9052 16.8909C91.9052 19.4815 91.1569 21.5201 89.6398 23.2132C88.1396 24.8928 86.2501 25.7225 83.9677 25.7225C81.9968 25.7225 80.236 24.9233 78.6715 23.3419V30.4634H78.6545V30.4667ZM87.9128 16.9079C87.9128 15.296 87.4725 13.9753 86.5921 12.9628C85.6947 11.9367 84.5874 11.4153 83.2362 11.4153C81.8004 11.4153 80.6457 11.9029 79.7652 12.8985C78.8679 13.894 78.4276 15.1978 78.4276 16.8097C78.4276 18.4216 78.8679 19.6948 79.7652 20.7209C80.6457 21.73 81.8038 22.221 83.2193 22.221C84.6348 22.221 85.6812 21.7165 86.5616 20.704C87.4759 19.6948 87.9128 18.4216 87.9128 16.9079Z" fill="#1C4000"/>
<path d="M97.2517 8.36755V25.2349H93.3574V8.36755H97.2517Z" fill="#1C4000"/>
<path d="M95.2945 6.91494C94.5123 6.91494 93.8587 6.67113 93.3542 6.19704C92.8496 5.72296 92.5889 5.12019 92.5889 4.40567C92.5889 3.69116 92.8496 3.085 93.3542 2.62785C93.8587 2.1707 94.5123 1.92688 95.2945 1.92688C96.0768 1.92688 96.7303 2.15376 97.2349 2.62785C97.7395 3.085 98.0002 3.68777 98.0002 4.40567C98.0002 5.12358 97.7395 5.72634 97.2349 6.19704C96.7303 6.67113 96.0768 6.91494 95.2945 6.91494Z" fill="#1C4000"/>
<path d="M55.813 17.145C55.813 14.7711 56.663 12.7529 58.3595 11.0902C60.0561 9.42752 62.1251 8.59448 64.5666 8.59448C67.0082 8.59448 69.0976 9.43091 70.8077 11.1071C72.494 12.7834 73.3372 14.8389 73.3372 17.2804C73.3372 19.722 72.4873 21.8046 70.7907 23.4706C69.0806 25.1232 66.9845 25.9494 64.4989 25.9494C62.0134 25.9494 59.9748 25.1062 58.3087 23.4198C56.646 21.7571 55.813 19.6644 55.813 17.145ZM59.6937 17.2127C59.6937 18.8551 60.1306 20.152 61.0076 21.1104C61.9084 22.0788 63.0936 22.5597 64.5666 22.5597C66.0397 22.5597 67.2385 22.0822 68.1257 21.1273C69.0129 20.1723 69.4565 18.8957 69.4565 17.2973C69.4565 15.699 69.0129 14.4257 68.1257 13.4674C67.2249 12.4989 66.0397 12.0181 64.5666 12.0181C63.0936 12.0181 61.9422 12.5023 61.0415 13.4674C60.1407 14.4359 59.6937 15.6821 59.6937 17.2127Z" fill="#1C4000"/>
<path d="M50.5309 25.2214V10.7144L44.5777 25.2181H41.2219L35.2687 10.8295V25.2181H31.415V4.52759H36.7282L42.9455 19.4715L49.0172 4.52759H54.503V25.2214H50.5343H50.5309Z" fill="#1C4000"/>
<path d="M0 14.1989C0 18.3844 1.41887 21.835 4.22953 24.534C7.01986 27.2329 10.2674 28.5806 13.9246 28.5806C17.9035 28.5806 21.2662 27.2092 23.9854 24.4662C26.7283 21.6759 28.0794 18.293 28.0794 14.2903C28.0794 10.2877 26.7317 6.85732 24.0328 4.11439C21.3576 1.37146 18.0187 0 14.0634 0C10.1082 0 6.78959 1.37146 4.07037 4.11439C1.34776 6.837 0 10.1996 0 14.1989Z" fill="#1C4000"/>
<path d="M25.13 14.3818C25.13 12.096 24.5137 10.22 23.254 8.78077C21.9977 7.31787 20.3959 6.58643 18.4996 6.58643C16.4644 6.58643 14.8187 7.29417 13.5589 8.68934C12.3026 10.1082 11.6626 11.9605 11.6626 14.2463C11.6626 16.5321 12.3026 18.3404 13.5589 19.8033C14.795 21.2221 16.4407 21.9299 18.4759 21.9299C20.3959 21.9299 21.974 21.1984 23.21 19.7592C24.49 18.3641 25.13 16.5592 25.13 14.3851V14.3818Z" fill="#B27D38"/>
<path d="M19.9626 17.7444C18.8654 17.7444 17.9511 17.4024 17.24 16.7387C16.5322 16.075 16.1665 15.2284 16.1665 14.2227C16.1665 13.2169 16.5322 12.3703 17.24 11.7303C17.9477 11.0903 18.862 10.7483 19.9626 10.7483C21.0631 10.7483 21.9741 11.07 22.6852 11.7303C23.3929 12.3703 23.7587 13.2169 23.7587 14.2227C23.7587 15.2284 23.3929 16.075 22.6852 16.7387C21.9774 17.4024 21.0631 17.7444 19.9626 17.7444Z" fill="#F5BD7A"/>
</svg>
