<svg width="148" height="79" viewBox="0 0 148 79" fill="none" xmlns="http://www.w3.org/2000/svg">
<path d="M75.2188 48.2016V41.1953H76.4699L78.8431 45.8597L81.2046 41.1953H82.4557V48.2016H81.3962V43.029L79.2536 47.2007H78.4326L76.2822 43.0368V48.2016H75.2227H75.2188Z" fill="#D49945"/>
<path d="M86.1585 48.323C85.6854 48.323 85.2592 48.2135 84.8839 47.9985C84.5086 47.7835 84.2075 47.4785 83.9886 47.0875C83.7696 46.6966 83.6602 46.243 83.6602 45.723C83.6602 45.203 83.7735 44.7456 83.9964 44.3585C84.2193 43.9676 84.5203 43.6665 84.9035 43.4476C85.2827 43.2325 85.7089 43.123 86.1741 43.123C86.6394 43.123 87.0734 43.2325 87.4487 43.4476C87.824 43.6626 88.1251 43.9676 88.348 44.3585C88.5708 44.7495 88.6842 45.203 88.6842 45.723C88.6842 46.243 88.5708 46.7005 88.348 47.0875C88.1251 47.4746 87.824 47.7796 87.4409 47.9985C87.0577 48.2175 86.6355 48.323 86.1585 48.323ZM86.1585 47.412C86.4126 47.412 86.6472 47.3495 86.8622 47.2205C87.0773 47.0954 87.2532 46.9038 87.3862 46.6536C87.5191 46.4033 87.5856 46.0906 87.5856 45.7191C87.5856 45.3477 87.5191 45.0349 87.3901 44.7847C87.261 44.5345 87.0851 44.3468 86.8701 44.2178C86.6511 44.0927 86.4165 44.0262 86.1663 44.0262C85.9161 44.0262 85.6776 44.0888 85.4626 44.2178C85.2475 44.3429 85.0716 44.5345 84.9386 44.7847C84.8057 45.0349 84.7392 45.3477 84.7392 45.7191C84.7392 46.0906 84.8057 46.4033 84.9386 46.6536C85.0716 46.9038 85.2436 47.0915 85.4586 47.2205C85.6737 47.3456 85.9044 47.412 86.1585 47.412Z" fill="#D49945"/>
<path d="M89.8301 48.2018V43.2364H90.7723L90.8505 44.1083C91.003 43.8033 91.2298 43.5609 91.5269 43.3811C91.8241 43.2052 92.1642 43.1152 92.5513 43.1152C93.1534 43.1152 93.6225 43.3029 93.9666 43.6743C94.3107 44.0497 94.4827 44.6049 94.4827 45.3438V48.194H93.431V45.4533C93.431 44.4915 93.0361 44.0106 92.2502 44.0106C91.8553 44.0106 91.5308 44.1513 91.2728 44.4328C91.0147 44.7143 90.8857 45.1131 90.8857 45.6331V48.194H89.8262L89.8301 48.2018Z" fill="#D49945"/>
<path d="M96.3356 42.298C96.1362 42.298 95.972 42.2355 95.839 42.1143C95.71 41.9892 95.6436 41.8367 95.6436 41.649C95.6436 41.4614 95.71 41.3089 95.839 41.1838C95.9681 41.0586 96.1323 41 96.3356 41C96.5389 41 96.6992 41.0626 96.8321 41.1838C96.9611 41.3089 97.0276 41.4614 97.0276 41.649C97.0276 41.8367 96.9611 41.9892 96.8321 42.1143C96.7031 42.2394 96.535 42.298 96.3356 42.298ZM95.8039 48.2018V43.2364H96.8634V48.2018H95.8039Z" fill="#D49945"/>
<path d="M100.348 48.2009C99.8592 48.2009 99.4721 48.0836 99.1867 47.8451C98.9013 47.6066 98.7566 47.1883 98.7566 46.5784V44.1269H97.9043V43.2355H98.7566L98.8856 41.9727H99.8162V43.2355H101.216V44.1269H99.8162V46.5784C99.8162 46.852 99.8748 47.0397 99.9921 47.1453C100.109 47.2469 100.313 47.3017 100.598 47.3017H101.169V48.2009H100.348Z" fill="#D49945"/>
<path d="M104.499 48.323C104.026 48.323 103.6 48.2135 103.225 47.9985C102.849 47.7835 102.548 47.4785 102.329 47.0875C102.11 46.6966 102.001 46.243 102.001 45.723C102.001 45.203 102.114 44.7456 102.337 44.3585C102.56 43.9676 102.861 43.6665 103.244 43.4476C103.624 43.2325 104.05 43.123 104.515 43.123C104.98 43.123 105.414 43.2325 105.79 43.4476C106.165 43.6626 106.466 43.9676 106.689 44.3585C106.912 44.7495 107.025 45.203 107.025 45.723C107.025 46.243 106.912 46.7005 106.689 47.0875C106.466 47.4785 106.165 47.7796 105.782 47.9985C105.402 48.2135 104.976 48.323 104.499 48.323ZM104.499 47.412C104.753 47.412 104.988 47.3495 105.203 47.2205C105.418 47.0954 105.594 46.9038 105.727 46.6536C105.86 46.4033 105.926 46.0906 105.926 45.7191C105.926 45.3477 105.86 45.0349 105.731 44.7847C105.602 44.5345 105.426 44.3468 105.211 44.2178C104.996 44.0927 104.757 44.0262 104.507 44.0262C104.257 44.0262 104.018 44.0888 103.803 44.2178C103.588 44.3429 103.412 44.5345 103.279 44.7847C103.147 45.0349 103.08 45.3477 103.08 45.7191C103.08 46.0906 103.147 46.4033 103.279 46.6536C103.412 46.9038 103.584 47.0915 103.799 47.2205C104.014 47.3456 104.245 47.412 104.499 47.412Z" fill="#D49945"/>
<path d="M108.174 48.2018V43.2364H109.124L109.214 44.1787C109.386 43.8503 109.628 43.5922 109.941 43.4046C110.254 43.2169 110.625 43.1191 111.067 43.1191V44.2295H110.778C110.484 44.2295 110.223 44.2764 109.992 44.3742C109.761 44.4719 109.577 44.6361 109.441 44.8629C109.304 45.0936 109.233 45.4103 109.233 45.8169V48.1979H108.174V48.2018Z" fill="#D49945"/>
<path d="M113.656 48.323C113.238 48.323 112.89 48.2527 112.616 48.1119C112.342 47.9712 112.139 47.7874 112.006 47.5567C111.873 47.326 111.807 47.0758 111.807 46.8021C111.807 46.3212 111.994 45.942 112.366 45.6605C112.741 45.379 113.273 45.2382 113.965 45.2382H115.267V45.1483C115.267 44.7612 115.161 44.4719 114.95 44.2764C114.739 44.0849 114.469 43.9871 114.133 43.9871C113.84 43.9871 113.586 44.0575 113.367 44.2021C113.152 44.3468 113.019 44.5579 112.972 44.8394H111.912C111.947 44.4797 112.069 44.1709 112.276 43.9128C112.487 43.6548 112.753 43.4593 113.077 43.3224C113.402 43.1856 113.758 43.1191 114.145 43.1191C114.837 43.1191 115.376 43.3029 115.755 43.6626C116.135 44.0262 116.326 44.5227 116.326 45.1483V48.2018H115.408L115.318 47.3495C115.177 47.6232 114.974 47.8539 114.708 48.0415C114.442 48.2292 114.09 48.323 113.656 48.323ZM113.867 47.4629C114.152 47.4629 114.395 47.3964 114.594 47.2596C114.79 47.1227 114.946 46.9429 115.056 46.7161C115.165 46.4894 115.236 46.2391 115.259 45.9654H114.078C113.656 45.9654 113.359 46.0397 113.183 46.1844C113.007 46.333 112.917 46.5128 112.917 46.7357C112.917 46.9585 113.003 47.1423 113.171 47.2713C113.339 47.4003 113.574 47.4668 113.867 47.4668V47.4629Z" fill="#D49945"/>
<path d="M117.569 48.2018V43.2364H118.512L118.602 43.9363C118.762 43.6821 118.973 43.4828 119.239 43.3342C119.501 43.1856 119.806 43.1152 120.154 43.1152C120.94 43.1152 121.487 43.4241 121.796 44.0458C121.976 43.7603 122.218 43.5336 122.523 43.3655C122.828 43.1973 123.156 43.1152 123.508 43.1152C124.13 43.1152 124.615 43.3029 124.971 43.6743C125.322 44.0497 125.502 44.6049 125.502 45.3438V48.194H124.443V45.4533C124.443 44.4915 124.075 44.0106 123.34 44.0106C122.965 44.0106 122.66 44.1513 122.425 44.4328C122.191 44.7143 122.069 45.1131 122.069 45.6331V48.194H121.01V45.4533C121.01 44.4915 120.639 44.0106 119.9 44.0106C119.532 44.0106 119.231 44.1513 118.992 44.4328C118.754 44.7143 118.637 45.1131 118.637 45.6331V48.194H117.577L117.569 48.2018Z" fill="#D49945"/>
<path d="M129.057 48.323C128.568 48.323 128.138 48.2136 127.763 47.9985C127.387 47.7835 127.09 47.4785 126.875 47.0915C126.66 46.7044 126.555 46.2548 126.555 45.7387C126.555 45.2226 126.66 44.7612 126.871 44.3664C127.083 43.9715 127.376 43.6665 127.751 43.4476C128.126 43.2286 128.568 43.1191 129.069 43.1191C129.569 43.1191 129.98 43.2286 130.339 43.4437C130.699 43.6587 130.981 43.948 131.18 44.3077C131.379 44.6674 131.481 45.0662 131.481 45.5002C131.481 45.5667 131.481 45.637 131.477 45.7152C131.477 45.7934 131.469 45.8755 131.461 45.9694H127.599C127.634 46.4503 127.79 46.8139 128.076 47.0641C128.361 47.3143 128.689 47.4394 129.061 47.4394C129.362 47.4394 129.612 47.373 129.815 47.2361C130.019 47.0993 130.171 46.9155 130.269 46.6809H131.328C131.196 47.1462 130.93 47.5372 130.531 47.8499C130.132 48.1627 129.643 48.3191 129.053 48.3191L129.057 48.323ZM129.057 43.991C128.705 43.991 128.388 44.0966 128.115 44.3077C127.841 44.5188 127.673 44.8316 127.614 45.2539H130.418C130.398 44.8668 130.261 44.5618 130.007 44.3351C129.753 44.1083 129.436 43.9949 129.057 43.9949V43.991Z" fill="#D49945"/>
<path d="M132.578 48.2018V43.2364H133.52L133.599 44.1083C133.751 43.8033 133.978 43.5609 134.275 43.3811C134.572 43.2052 134.912 43.1152 135.299 43.1152C135.901 43.1152 136.371 43.3029 136.715 43.6743C137.059 44.0497 137.231 44.6049 137.231 45.3438V48.194H136.179V45.4533C136.179 44.4915 135.784 44.0106 134.998 44.0106C134.603 44.0106 134.279 44.1513 134.021 44.4328C133.763 44.7143 133.634 45.1131 133.634 45.6331V48.194H132.574L132.578 48.2018Z" fill="#D49945"/>
<path d="M140.567 48.2009C140.078 48.2009 139.691 48.0836 139.405 47.8451C139.12 47.6066 138.975 47.1883 138.975 46.5784V44.1269H138.123V43.2355H138.975L139.104 41.9727H140.035V43.2355H141.435V44.1269H140.035V46.5784C140.035 46.852 140.094 47.0397 140.211 47.1453C140.328 47.2469 140.528 47.3017 140.817 47.3017H141.388V48.2009H140.567Z" fill="#D49945"/>
<path d="M144.719 48.323C144.246 48.323 143.82 48.2135 143.444 47.9985C143.069 47.7835 142.768 47.4785 142.549 47.0875C142.33 46.6966 142.221 46.243 142.221 45.723C142.221 45.203 142.334 44.7456 142.557 44.3585C142.78 43.9676 143.081 43.6665 143.464 43.4476C143.843 43.2325 144.269 43.123 144.735 43.123C145.2 43.123 145.634 43.2325 146.009 43.4476C146.385 43.6626 146.686 43.9676 146.908 44.3585C147.131 44.7495 147.245 45.203 147.245 45.723C147.245 46.243 147.131 46.7005 146.908 47.0875C146.686 47.4785 146.385 47.7796 146.001 47.9985C145.622 48.2135 145.196 48.323 144.719 48.323ZM144.719 47.412C144.973 47.412 145.208 47.3495 145.423 47.2205C145.638 47.0954 145.814 46.9038 145.947 46.6536C146.08 46.4033 146.146 46.0906 146.146 45.7191C146.146 45.3477 146.08 45.0349 145.951 44.7847C145.822 44.5345 145.646 44.3468 145.431 44.2178C145.216 44.0927 144.977 44.0262 144.727 44.0262C144.477 44.0262 144.238 44.0888 144.023 44.2178C143.808 44.3429 143.632 44.5345 143.499 44.7847C143.366 45.0349 143.3 45.3477 143.3 45.7191C143.3 46.0906 143.366 46.4033 143.499 46.6536C143.632 46.9038 143.804 47.0915 144.019 47.2205C144.234 47.3456 144.465 47.412 144.719 47.412Z" fill="#D49945"/>
<path d="M77.4397 58.1199C76.9588 58.1199 76.5365 58.0065 76.169 57.7797C75.8015 57.5529 75.5161 57.2441 75.3089 56.8492C75.1017 56.4543 75 56.0086 75 55.5081C75 55.0077 75.1017 54.562 75.3089 54.171C75.5161 53.78 75.8054 53.4751 76.1729 53.2522C76.5444 53.0293 76.9666 52.916 77.4475 52.916C77.8424 52.916 78.1865 52.9942 78.4836 53.1466C78.7807 53.2991 79.0114 53.5181 79.1795 53.7957V50.793H80.2391V57.9986H79.289L79.1795 57.2284C79.0192 57.463 78.8003 57.6702 78.5188 57.8501C78.2373 58.0299 77.8776 58.1199 77.4397 58.1199ZM77.6313 57.2011C78.0848 57.2011 78.4562 57.0447 78.7455 56.7319C79.0349 56.4191 79.1795 56.0164 79.1795 55.5199C79.1795 55.0233 79.0349 54.6128 78.7455 54.3039C78.4562 53.9951 78.0848 53.8387 77.6313 53.8387C77.1777 53.8387 76.8024 53.9951 76.5092 54.3039C76.2159 54.6128 76.0674 55.0194 76.0674 55.5199C76.0674 55.8483 76.1338 56.1376 76.2668 56.3917C76.3997 56.6459 76.5874 56.8453 76.8219 56.986C77.0604 57.1307 77.3263 57.2011 77.6274 57.2011H77.6313Z" fill="#D49945"/>
<path d="M83.9065 58.1199C83.4335 58.1199 83.0073 58.0104 82.632 57.7954C82.2566 57.5804 81.9556 57.2754 81.7366 56.8844C81.5177 56.4934 81.4082 56.0399 81.4082 55.5199C81.4082 54.9999 81.5216 54.5425 81.7444 54.1554C81.9673 53.7644 82.2684 53.4634 82.6515 53.2444C83.0308 53.0294 83.4569 52.9199 83.9222 52.9199C84.3874 52.9199 84.8214 53.0294 85.1968 53.2444C85.5721 53.4595 85.8731 53.7644 86.096 54.1554C86.3189 54.5464 86.4322 54.9999 86.4322 55.5199C86.4322 56.0399 86.3189 56.4973 86.096 56.8844C85.8731 57.2715 85.5721 57.5764 85.1889 57.7954C84.8058 58.0143 84.3835 58.1199 83.9065 58.1199ZM83.9065 57.2089C84.1607 57.2089 84.3953 57.1464 84.6103 57.0173C84.8253 56.8922 85.0013 56.7007 85.1342 56.4504C85.2671 56.2002 85.3336 55.8874 85.3336 55.516C85.3336 55.1446 85.2671 54.8318 85.1381 54.5816C85.0091 54.3313 84.8332 54.1437 84.6181 54.0146C84.3992 53.8895 84.1646 53.8231 83.9144 53.8231C83.6641 53.8231 83.4256 53.8856 83.2106 54.0146C82.9956 54.1398 82.8196 54.3313 82.6867 54.5816C82.5538 54.8318 82.4873 55.1446 82.4873 55.516C82.4873 55.8874 82.5538 56.2002 82.6867 56.4504C82.8196 56.7007 82.9917 56.8883 83.2067 57.0173C83.4217 57.1425 83.6524 57.2089 83.9065 57.2089Z" fill="#D49945"/>
<path d="M89.5606 58.1199C88.9351 58.1199 88.4151 57.9674 88.0084 57.6586C87.6018 57.3536 87.3672 56.9431 87.3086 56.4387H88.3799C88.4346 56.6655 88.5597 56.861 88.7591 57.0252C88.9585 57.1894 89.2244 57.2715 89.5489 57.2715C89.8734 57.2715 90.1041 57.205 90.2487 57.0721C90.3973 56.9392 90.4677 56.7867 90.4677 56.6107C90.4677 56.3566 90.366 56.1846 90.1627 56.0947C89.9594 56.0047 89.6779 55.9226 89.3182 55.8483C89.0367 55.7897 88.7591 55.7076 88.4815 55.6098C88.2039 55.5082 87.9733 55.3674 87.7895 55.1837C87.6057 54.9999 87.5158 54.7536 87.5158 54.4369C87.5158 54.0029 87.6839 53.6432 88.0163 53.35C88.3486 53.0607 88.8178 52.916 89.416 52.916C89.9711 52.916 90.4169 53.0489 90.7609 53.3148C91.105 53.5807 91.3083 53.9599 91.3669 54.4447H90.3465C90.3113 54.2297 90.2135 54.0655 90.0493 53.9443C89.8851 53.8231 89.6662 53.7644 89.3925 53.7644C89.1188 53.7644 88.9194 53.8192 88.7708 53.9286C88.6223 54.0381 88.5519 54.1789 88.5519 54.3548C88.5519 54.5307 88.6536 54.6637 88.8569 54.7653C89.0602 54.867 89.3299 54.9569 89.6623 55.0351C89.9946 55.1094 90.3035 55.1954 90.5889 55.2892C90.8704 55.387 91.1011 55.5277 91.2731 55.7154C91.4451 55.9031 91.535 56.1768 91.535 56.5365C91.5429 56.99 91.3669 57.3653 91.0111 57.6664C90.6553 57.9674 90.1705 58.116 89.5567 58.116L89.5606 58.1199Z" fill="#D49945"/>
<path d="M95.2637 58.0043V50.998H97.7151C98.2625 50.998 98.716 51.088 99.0757 51.2717C99.4354 51.4555 99.7052 51.7057 99.8811 52.0224C100.057 52.3391 100.147 52.6988 100.147 53.0976C100.147 53.4964 100.061 53.8248 99.8928 54.1415C99.7247 54.4582 99.4588 54.7084 99.0991 54.8961C98.7394 55.0837 98.2781 55.1776 97.719 55.1776H96.3271V58.0004H95.2676L95.2637 58.0043ZM96.3232 54.3135H97.6643C98.1647 54.3135 98.5244 54.204 98.7395 53.989C98.9545 53.774 99.064 53.4768 99.064 53.1015C99.064 52.7262 98.9545 52.4134 98.7395 52.1944C98.5244 51.9794 98.1647 51.8699 97.6643 51.8699H96.3232V54.3135Z" fill="#D49945"/>
<path d="M103.209 58.1199C102.736 58.1199 102.31 58.0104 101.935 57.7954C101.559 57.5804 101.258 57.2754 101.039 56.8844C100.82 56.4934 100.711 56.0399 100.711 55.5199C100.711 54.9999 100.824 54.5425 101.047 54.1554C101.27 53.7644 101.571 53.4634 101.954 53.2444C102.333 53.0294 102.76 52.9199 103.225 52.9199C103.69 52.9199 104.124 53.0294 104.499 53.2444C104.875 53.4595 105.176 53.7644 105.399 54.1554C105.622 54.5464 105.735 54.9999 105.735 55.5199C105.735 56.0399 105.622 56.4973 105.399 56.8844C105.176 57.2715 104.875 57.5764 104.492 57.7954C104.109 58.0143 103.686 58.1199 103.209 58.1199ZM103.209 57.2089C103.463 57.2089 103.698 57.1464 103.913 57.0173C104.128 56.8922 104.304 56.7007 104.437 56.4504C104.57 56.2002 104.636 55.8874 104.636 55.516C104.636 55.1446 104.57 54.8318 104.441 54.5816C104.312 54.3313 104.136 54.1437 103.921 54.0146C103.702 53.8895 103.467 53.8231 103.217 53.8231C102.967 53.8231 102.728 53.8856 102.513 54.0146C102.298 54.1398 102.122 54.3313 101.989 54.5816C101.857 54.8318 101.79 55.1446 101.79 55.516C101.79 55.8874 101.857 56.2002 101.989 56.4504C102.122 56.7007 102.294 56.8883 102.509 57.0173C102.724 57.1425 102.955 57.2089 103.209 57.2089Z" fill="#D49945"/>
<path d="M108.021 58.0045L106.16 53.0391H107.271L108.651 56.9918L110.031 53.0391H111.133L109.28 58.0045H108.021Z" fill="#D49945"/>
<path d="M114.078 58.1199C113.605 58.1199 113.179 58.0104 112.804 57.7954C112.428 57.5804 112.127 57.2754 111.908 56.8844C111.69 56.4934 111.58 56.0399 111.58 55.5199C111.58 54.9999 111.693 54.5425 111.916 54.1554C112.139 53.7644 112.44 53.4634 112.823 53.2444C113.203 53.0294 113.629 52.9199 114.094 52.9199C114.559 52.9199 114.993 53.0294 115.369 53.2444C115.744 53.4595 116.045 53.7644 116.268 54.1554C116.491 54.5464 116.604 54.9999 116.604 55.5199C116.604 56.0399 116.491 56.4973 116.268 56.8844C116.045 57.2715 115.744 57.5764 115.361 57.7954C114.978 58.0143 114.555 58.1199 114.078 58.1199ZM114.078 57.2089C114.333 57.2089 114.567 57.1464 114.782 57.0173C114.997 56.8922 115.173 56.7007 115.306 56.4504C115.439 56.2002 115.505 55.8874 115.505 55.516C115.505 55.1446 115.439 54.8318 115.31 54.5816C115.181 54.3313 115.005 54.1437 114.79 54.0146C114.571 53.8895 114.336 53.8231 114.086 53.8231C113.836 53.8231 113.598 53.8856 113.382 54.0146C113.167 54.1398 112.991 54.3313 112.859 54.5816C112.726 54.8318 112.659 55.1446 112.659 55.516C112.659 55.8874 112.726 56.2002 112.859 56.4504C112.991 56.7007 113.164 56.8883 113.379 57.0173C113.594 57.1425 113.824 57.2089 114.078 57.2089Z" fill="#D49945"/>
<path d="M119.732 58.1199C119.107 58.1199 118.587 57.9674 118.18 57.6586C117.774 57.3536 117.539 56.9431 117.48 56.4387H118.552C118.606 56.6655 118.732 56.861 118.931 57.0252C119.13 57.1894 119.396 57.2715 119.721 57.2715C120.045 57.2715 120.276 57.205 120.421 57.0721C120.569 56.9392 120.64 56.7867 120.64 56.6107C120.64 56.3566 120.538 56.1846 120.335 56.0947C120.131 56.0047 119.85 55.9226 119.49 55.8483C119.209 55.7897 118.931 55.7076 118.653 55.6098C118.376 55.5082 118.145 55.3674 117.961 55.1837C117.778 54.9999 117.688 54.7536 117.688 54.4369C117.688 54.0029 117.856 53.6432 118.188 53.35C118.52 53.0607 118.99 52.916 119.588 52.916C120.143 52.916 120.589 53.0489 120.933 53.3148C121.277 53.5807 121.48 53.9599 121.539 54.4447H120.518C120.483 54.2297 120.385 54.0655 120.221 53.9443C120.057 53.8231 119.838 53.7644 119.564 53.7644C119.291 53.7644 119.091 53.8192 118.943 53.9286C118.794 54.0381 118.724 54.1789 118.724 54.3548C118.724 54.5307 118.825 54.6637 119.029 54.7653C119.232 54.867 119.502 54.9569 119.834 55.0351C120.166 55.1094 120.475 55.1954 120.761 55.2892C121.042 55.387 121.273 55.5277 121.445 55.7154C121.617 55.9031 121.707 56.1768 121.707 56.5365C121.715 56.99 121.539 57.3653 121.183 57.6664C120.827 57.9674 120.342 58.116 119.729 58.116L119.732 58.1199Z" fill="#D49945"/>
<path d="M75.2188 67.8012V60.7949H76.2783V67.8012H75.2188Z" fill="#D49945"/>
<path d="M77.6621 67.8014V62.8361H78.6044L78.6826 63.7079C78.835 63.403 79.0618 63.1606 79.359 62.9807C79.6561 62.8048 79.9962 62.7148 80.3833 62.7148C80.9854 62.7148 81.4546 62.9025 81.7986 63.2739C82.1427 63.6493 82.3147 64.2045 82.3147 64.9434V67.7936H81.263V65.0529C81.263 64.0911 80.8681 63.6102 80.0823 63.6102C79.6874 63.6102 79.3629 63.7509 79.1048 64.0324C78.8468 64.3139 78.7178 64.7127 78.7178 65.2327V67.7936H77.6582L77.6621 67.8014Z" fill="#D49945"/>
<path d="M85.8264 67.9226C85.3455 67.9226 84.9233 67.8092 84.5557 67.5824C84.1882 67.3557 83.9028 67.0468 83.6956 66.6519C83.4884 66.257 83.3867 65.8113 83.3867 65.3109C83.3867 64.8104 83.4884 64.3647 83.6956 63.9737C83.9028 63.5828 84.1921 63.2778 84.5596 63.0549C84.9311 62.8321 85.3533 62.7187 85.8342 62.7187C86.2291 62.7187 86.5732 62.7969 86.8703 62.9494C87.1675 63.1019 87.3981 63.3208 87.5663 63.5984V60.5957H88.6258V67.8014H87.6757L87.5663 67.0312C87.406 67.2658 87.187 67.473 86.9055 67.6528C86.624 67.8327 86.2643 67.9226 85.8264 67.9226ZM86.018 67.0038C86.4715 67.0038 86.8429 66.8474 87.1323 66.5346C87.4216 66.2218 87.5663 65.8191 87.5663 65.3226C87.5663 64.8261 87.4216 64.4155 87.1323 64.1067C86.8429 63.7978 86.4715 63.6414 86.018 63.6414C85.5645 63.6414 85.1891 63.7978 84.8959 64.1067C84.6027 64.4155 84.4541 64.8222 84.4541 65.3226C84.4541 65.651 84.5206 65.9403 84.6535 66.1945C84.7864 66.4486 84.9741 66.648 85.2087 66.7888C85.4472 66.9334 85.713 67.0038 86.0141 67.0038H86.018Z" fill="#D49945"/>
<path d="M89.9707 67.8015V62.8361H91.0303V67.8015H89.9707ZM90.2209 62.4295V61.6671L92.4026 60.4277V61.3074L90.2209 62.4295Z" fill="#D49945"/>
<path d="M94.4044 66.2805C94.1425 66.2805 93.904 66.2493 93.685 66.1906L93.255 66.6129C93.3293 66.6598 93.4192 66.6989 93.5247 66.7341C93.6303 66.7693 93.7828 66.7966 93.9744 66.824C94.1659 66.8514 94.4318 66.8787 94.7641 66.9022C95.4249 66.9608 95.9019 67.1211 96.1951 67.3792C96.4883 67.6372 96.6369 67.9774 96.6369 68.4035C96.6369 68.6968 96.5587 68.9743 96.4023 69.2402C96.2459 69.5022 96.0035 69.7172 95.6712 69.8814C95.3428 70.0456 94.9205 70.1277 94.4044 70.1277C93.7124 70.1277 93.1494 69.9948 92.7193 69.7328C92.2893 69.4709 92.0742 69.0721 92.0742 68.5365C92.0742 68.3292 92.129 68.1259 92.2384 67.9226C92.3479 67.7193 92.5238 67.5277 92.7623 67.3479C92.6216 67.2892 92.5004 67.2228 92.3987 67.1524C92.2932 67.082 92.2032 67.0117 92.125 66.9374V66.6989L92.9852 65.8192C92.5981 65.4868 92.4066 65.049 92.4066 64.5094C92.4066 64.181 92.4847 63.8838 92.6411 63.6141C92.7975 63.3443 93.0282 63.1293 93.3253 62.969C93.6225 62.8087 93.9861 62.7305 94.4044 62.7305C94.6859 62.7305 94.944 62.7696 95.1864 62.8517H97.0396V63.5515L96.1599 63.6023C96.3202 63.876 96.3984 64.181 96.3984 64.5133C96.3984 64.8456 96.3202 65.1467 96.1638 65.4126C96.0074 65.6784 95.7807 65.8935 95.4835 66.0538C95.1864 66.2141 94.8267 66.2923 94.4083 66.2923L94.4044 66.2805ZM93.0751 68.4309C93.0751 68.7163 93.2002 68.9313 93.4544 69.076C93.7085 69.2207 94.0252 69.291 94.4044 69.291C94.7837 69.291 95.0691 69.2128 95.2959 69.0565C95.5226 68.9001 95.636 68.6929 95.636 68.4309C95.636 68.2354 95.5578 68.0712 95.4053 67.9344C95.2529 67.7975 94.9596 67.7115 94.5335 67.6802C94.2129 67.6607 93.9314 67.6294 93.6811 67.5903C93.4465 67.7154 93.2862 67.8522 93.2002 68.0008C93.1142 68.1494 93.0712 68.2901 93.0712 68.4309H93.0751ZM94.4044 65.4477C94.7094 65.4477 94.9596 65.3656 95.1512 65.2014C95.3428 65.0372 95.4366 64.8065 95.4366 64.5055C95.4366 64.2044 95.3428 63.966 95.1512 63.8057C94.9596 63.6454 94.7133 63.5672 94.4044 63.5672C94.0956 63.5672 93.8375 63.6454 93.6499 63.8057C93.4622 63.966 93.3644 64.2005 93.3644 64.5055C93.3644 64.8105 93.4583 65.0372 93.6499 65.2014C93.8414 65.3656 94.0917 65.4477 94.4044 65.4477Z" fill="#D49945"/>
<path d="M100.108 67.9226C99.619 67.9226 99.1889 67.8132 98.8136 67.5981C98.4382 67.3831 98.1411 67.0781 97.9261 66.6911C97.711 66.304 97.6055 65.8544 97.6055 65.3383C97.6055 64.8222 97.711 64.3608 97.9222 63.966C98.1333 63.5711 98.4265 63.2661 98.8019 63.0472C99.1772 62.8282 99.619 62.7188 100.119 62.7188C100.62 62.7188 101.03 62.8282 101.39 63.0433C101.75 63.2583 102.031 63.5476 102.231 63.9073C102.43 64.267 102.532 64.6658 102.532 65.0998C102.532 65.1663 102.532 65.2366 102.528 65.3148C102.528 65.393 102.52 65.4751 102.512 65.569H98.6494C98.6846 66.0499 98.841 66.4135 99.1264 66.6637C99.4118 66.9139 99.7402 67.039 100.112 67.039C100.413 67.039 100.663 66.9726 100.866 66.8357C101.07 66.6989 101.222 66.5151 101.32 66.2805H102.379C102.246 66.7458 101.98 67.1368 101.582 67.4496C101.183 67.7623 100.694 67.9187 100.104 67.9187L100.108 67.9226ZM100.108 63.5906C99.7558 63.5906 99.4392 63.6962 99.1655 63.9073C98.8918 64.1184 98.7237 64.4312 98.665 64.8535H101.468C101.449 64.4664 101.312 64.1615 101.058 63.9347C100.804 63.7079 100.487 63.5945 100.108 63.5945V63.5906Z" fill="#D49945"/>
<path d="M103.631 67.8014V62.8361H104.573L104.651 63.7079C104.804 63.403 105.031 63.1606 105.328 62.9807C105.625 62.8048 105.965 62.7148 106.352 62.7148C106.954 62.7148 107.423 62.9025 107.767 63.2739C108.111 63.6493 108.283 64.2045 108.283 64.9434V67.7936H107.232V65.0529C107.232 64.0911 106.837 63.6102 106.051 63.6102C105.656 63.6102 105.332 63.7509 105.074 64.0324C104.816 64.3139 104.686 64.7127 104.686 65.2327V67.7936H103.627L103.631 67.8014Z" fill="#D49945"/>
<path d="M111.216 67.9226C110.798 67.9226 110.45 67.8523 110.177 67.7115C109.903 67.5708 109.7 67.387 109.567 67.1563C109.434 66.9256 109.367 66.6754 109.367 66.4017C109.367 65.9208 109.555 65.5416 109.926 65.2601C110.302 64.9786 110.833 64.8378 111.525 64.8378H112.827V64.7479C112.827 64.3608 112.722 64.0715 112.511 63.876C112.3 63.6845 112.03 63.5867 111.693 63.5867C111.4 63.5867 111.146 63.6571 110.927 63.8018C110.712 63.9464 110.579 64.1575 110.532 64.439H109.473C109.508 64.0793 109.629 63.7705 109.836 63.5124C110.047 63.2544 110.313 63.0589 110.638 62.9221C110.962 62.7852 111.318 62.7188 111.705 62.7188C112.397 62.7188 112.937 62.9025 113.316 63.2622C113.695 63.6258 113.887 64.1224 113.887 64.7479V67.8014H112.968L112.878 66.9491C112.737 67.2228 112.534 67.4535 112.268 67.6411C112.002 67.8288 111.65 67.9226 111.216 67.9226ZM111.428 67.0625C111.713 67.0625 111.955 66.996 112.155 66.8592C112.35 66.7223 112.507 66.5425 112.616 66.3157C112.726 66.089 112.796 65.8387 112.819 65.5651H111.639C111.217 65.5651 110.919 65.6393 110.743 65.784C110.567 65.9326 110.478 66.1124 110.478 66.3353C110.478 66.5581 110.564 66.7419 110.732 66.8709C110.9 66.9999 111.134 67.0664 111.428 67.0664V67.0625Z" fill="#D49945"/>
<path d="M117.108 67.9226C116.483 67.9226 115.963 67.7702 115.556 67.4613C115.15 67.1563 114.915 66.7458 114.856 66.2414H115.928C115.982 66.4682 116.108 66.6637 116.307 66.8279C116.506 66.9921 116.772 67.0742 117.097 67.0742C117.421 67.0742 117.652 67.0078 117.797 66.8748C117.945 66.7419 118.016 66.5894 118.016 66.4135C118.016 66.1593 117.914 65.9873 117.711 65.8974C117.507 65.8075 117.226 65.7254 116.866 65.6511C116.585 65.5924 116.307 65.5103 116.029 65.4126C115.752 65.3148 115.521 65.1702 115.337 64.9864C115.154 64.8027 115.064 64.5563 115.064 64.2396C115.064 63.8057 115.232 63.446 115.564 63.1527C115.896 62.8595 116.366 62.7188 116.964 62.7188C117.519 62.7188 117.965 62.8517 118.309 63.1175C118.653 63.3834 118.856 63.7627 118.915 64.2475H117.894C117.859 64.0324 117.761 63.8682 117.601 63.747C117.437 63.6258 117.218 63.5672 116.944 63.5672C116.671 63.5672 116.471 63.6219 116.323 63.7314C116.174 63.8408 116.104 63.9816 116.104 64.1575C116.104 64.3335 116.205 64.4664 116.409 64.5681C116.612 64.6697 116.882 64.7596 117.214 64.8378C117.546 64.9121 117.855 64.9981 118.141 65.092C118.426 65.1897 118.653 65.3305 118.825 65.5181C118.997 65.7058 119.087 65.9795 119.087 66.3392C119.095 66.7927 118.919 67.1681 118.563 67.4691C118.207 67.7702 117.722 67.9187 117.108 67.9187V67.9226Z" fill="#D49945"/>
<path d="M75.2188 78.0219V71.0156H76.2783V78.0219H75.2188Z" fill="#D49945"/>
<path d="M79.6407 78.1433C79.0151 78.1433 78.4951 77.9909 78.0885 77.682C77.6819 77.377 77.4473 76.9665 77.3887 76.4621H78.4599C78.5147 76.6889 78.6398 76.8844 78.8392 77.0486C79.0386 77.2128 79.3045 77.2949 79.629 77.2949C79.9535 77.2949 80.1842 77.2285 80.3288 77.0955C80.4774 76.9626 80.5478 76.8101 80.5478 76.6342C80.5478 76.38 80.4461 76.208 80.2428 76.1181C80.0395 76.0282 79.758 75.9461 79.3983 75.8718C79.1168 75.8131 78.8392 75.731 78.5616 75.6333C78.284 75.5316 78.0533 75.3909 77.8696 75.2071C77.6858 75.0234 77.5959 74.777 77.5959 74.4603C77.5959 74.0264 77.764 73.6667 78.0963 73.3734C78.4287 73.0841 78.8978 72.9395 79.496 72.9395C80.0512 72.9395 80.4969 73.0724 80.841 73.3383C81.185 73.6041 81.3884 73.9834 81.447 74.4682H80.4266C80.3914 74.2531 80.2936 74.0889 80.1294 73.9677C79.9652 73.8465 79.7463 73.7879 79.4726 73.7879C79.1989 73.7879 78.9995 73.8426 78.8509 73.9521C78.7024 74.0616 78.632 74.2023 78.632 74.3782C78.632 74.5542 78.7336 74.6871 78.9369 74.7888C79.1402 74.8904 79.41 74.9803 79.7423 75.0585C80.0747 75.1328 80.3835 75.2188 80.669 75.3127C80.9505 75.4104 81.1811 75.5512 81.3532 75.7388C81.5252 75.9265 81.6151 76.2002 81.6151 76.5599C81.6229 77.0134 81.447 77.3888 81.0912 77.6898C80.7354 77.9909 80.2506 78.1394 79.6368 78.1394L79.6407 78.1433Z" fill="#D49945"/>
<path d="M85.1067 78.1433C84.6337 78.1433 84.2075 78.0339 83.8321 77.8188C83.4568 77.6038 83.1558 77.2988 82.9368 76.9079C82.7179 76.5169 82.6084 76.0633 82.6084 75.5434C82.6084 75.0234 82.7218 74.5659 82.9446 74.1788C83.1675 73.7879 83.4685 73.4868 83.8517 73.2679C84.2309 73.0528 84.6571 72.9434 85.1224 72.9434C85.5876 72.9434 86.0216 73.0528 86.397 73.2679C86.7723 73.4829 87.0733 73.7879 87.2962 74.1788C87.5191 74.5698 87.6324 75.0234 87.6324 75.5434C87.6324 76.0633 87.5191 76.5208 87.2962 76.9079C87.0733 77.2949 86.7723 77.5999 86.3891 77.8188C86.006 78.0378 85.5837 78.1433 85.1067 78.1433ZM85.1067 77.2324C85.3609 77.2324 85.5955 77.1698 85.8105 77.0408C86.0255 76.9157 86.2015 76.7241 86.3344 76.4739C86.4673 76.2236 86.5338 75.9109 86.5338 75.5394C86.5338 75.168 86.4673 74.8552 86.3383 74.605C86.2093 74.3548 86.0333 74.1671 85.8183 74.0381C85.5994 73.913 85.3648 73.8465 85.1146 73.8465C84.8643 73.8465 84.6258 73.9091 84.4108 74.0381C84.1958 74.1632 84.0198 74.3548 83.8869 74.605C83.754 74.8552 83.6875 75.168 83.6875 75.5394C83.6875 75.9109 83.754 76.2236 83.8869 76.4739C84.0198 76.7241 84.1918 76.9118 84.4069 77.0408C84.6219 77.1659 84.8526 77.2324 85.1067 77.2324Z" fill="#D49945"/>
<path d="M88.7783 78.0221V70.8164H89.8379V78.0221H88.7783Z" fill="#D49945"/>
<path d="M92.8601 78.1433C92.4417 78.1433 92.0937 78.073 91.8201 77.9322C91.5464 77.7915 91.3431 77.6077 91.2101 77.377C91.0772 77.1463 91.0107 76.8961 91.0107 76.6224C91.0107 76.1415 91.1984 75.7623 91.5698 75.4808C91.9452 75.1993 92.4769 75.0585 93.1689 75.0585H94.4709V74.9686C94.4709 74.5816 94.3653 74.2922 94.1542 74.0967C93.9431 73.9052 93.6733 73.8074 93.3371 73.8074C93.0438 73.8074 92.7897 73.8778 92.5707 74.0225C92.3557 74.1671 92.2228 74.3782 92.1759 74.6597H91.1163C91.1515 74.3 91.2727 73.9912 91.4799 73.7331C91.691 73.4751 91.9569 73.2796 92.2814 73.1428C92.6059 73.0059 92.9617 72.9395 93.3488 72.9395C94.0408 72.9395 94.5804 73.1232 94.9596 73.4829C95.3388 73.8465 95.5304 74.3431 95.5304 74.9686V78.0221H94.6116L94.5217 77.1698C94.381 77.4435 94.1777 77.6742 93.9118 77.8618C93.6459 78.0495 93.294 78.1433 92.8601 78.1433ZM93.0712 77.2832C93.3566 77.2832 93.599 77.2167 93.7984 77.0799C93.9939 76.943 94.1503 76.7632 94.2597 76.5364C94.3692 76.3097 94.4396 76.0594 94.4631 75.7858H93.2823C92.8601 75.7858 92.5629 75.86 92.387 76.0047C92.211 76.1533 92.1211 76.3331 92.1211 76.556C92.1211 76.7788 92.2071 76.9626 92.3753 77.0916C92.5434 77.2206 92.778 77.2871 93.0712 77.2871V77.2832Z" fill="#D49945"/>
<path d="M99.0373 78.1433C98.5564 78.1433 98.1342 78.0299 97.7667 77.8031C97.3992 77.5764 97.1137 77.2675 96.9065 76.8726C96.6993 76.4777 96.5977 76.032 96.5977 75.5316C96.5977 75.0311 96.6993 74.5854 96.9065 74.1944C97.1137 73.8035 97.4031 73.4985 97.7706 73.2756C98.142 73.0528 98.5682 72.9394 99.0452 72.9394C99.4401 72.9394 99.7841 73.0176 100.081 73.1701C100.378 73.3226 100.609 73.5415 100.777 73.8191V70.8164H101.837V78.0221H100.887L100.777 77.2519C100.617 77.4865 100.398 77.6937 100.116 77.8735C99.8349 78.0534 99.4752 78.1433 99.0373 78.1433ZM99.2289 77.2245C99.6825 77.2245 100.054 77.0681 100.343 76.7553C100.633 76.4425 100.777 76.0398 100.777 75.5433C100.777 75.0468 100.633 74.6362 100.343 74.3274C100.054 74.0185 99.6825 73.8621 99.2289 73.8621C98.7754 73.8621 98.4 74.0185 98.1068 74.3274C97.8136 74.6362 97.665 75.0429 97.665 75.5433C97.665 75.8717 97.7315 76.161 97.8644 76.4152C97.9973 76.6693 98.1811 76.8687 98.4196 77.0095C98.6581 77.1541 98.924 77.2245 99.225 77.2245H99.2289Z" fill="#D49945"/>
<path d="M105.5 78.1433C105.027 78.1433 104.601 78.0339 104.226 77.8188C103.85 77.6038 103.549 77.2988 103.33 76.9079C103.111 76.5169 103.002 76.0633 103.002 75.5434C103.002 75.0234 103.115 74.5659 103.338 74.1788C103.561 73.7879 103.862 73.4868 104.245 73.2679C104.624 73.0528 105.051 72.9434 105.516 72.9434C105.981 72.9434 106.415 73.0528 106.791 73.2679C107.166 73.4829 107.467 73.7879 107.69 74.1788C107.913 74.5698 108.026 75.0234 108.026 75.5434C108.026 76.0633 107.913 76.5208 107.69 76.9079C107.467 77.2988 107.166 77.5999 106.783 77.8188C106.403 78.0339 105.977 78.1433 105.5 78.1433ZM105.5 77.2324C105.754 77.2324 105.989 77.1698 106.204 77.0408C106.419 76.9157 106.595 76.7241 106.728 76.4739C106.861 76.2236 106.927 75.9109 106.927 75.5394C106.927 75.168 106.861 74.8552 106.732 74.605C106.603 74.3548 106.427 74.1671 106.212 74.0381C105.997 73.913 105.758 73.8465 105.508 73.8465C105.258 73.8465 105.019 73.9091 104.804 74.0381C104.589 74.1632 104.413 74.3548 104.28 74.605C104.148 74.8552 104.081 75.168 104.081 75.5394C104.081 75.9109 104.148 76.2236 104.28 76.4739C104.413 76.7241 104.585 76.9118 104.8 77.0408C105.015 77.1659 105.246 77.2324 105.5 77.2324Z" fill="#D49945"/>
<path d="M111.154 78.1433C110.529 78.1433 110.009 77.9909 109.602 77.682C109.196 77.377 108.961 76.9665 108.902 76.4621H109.974C110.028 76.6889 110.153 76.8844 110.353 77.0486C110.552 77.2128 110.818 77.2949 111.143 77.2949C111.467 77.2949 111.698 77.2285 111.842 77.0955C111.991 76.9626 112.061 76.8101 112.061 76.6342C112.061 76.38 111.96 76.208 111.756 76.1181C111.553 76.0282 111.272 75.9461 110.912 75.8718C110.63 75.8131 110.353 75.731 110.075 75.6333C109.798 75.5355 109.567 75.3909 109.383 75.2071C109.199 75.0234 109.11 74.777 109.11 74.4603C109.11 74.0264 109.278 73.6667 109.61 73.3734C109.942 73.0802 110.412 72.9395 111.01 72.9395C111.565 72.9395 112.011 73.0724 112.355 73.3383C112.699 73.6041 112.902 73.9834 112.961 74.4682H111.94C111.905 74.2531 111.807 74.0889 111.647 73.9677C111.483 73.8465 111.264 73.7879 110.99 73.7879C110.716 73.7879 110.517 73.8426 110.369 73.9521C110.22 74.0616 110.15 74.2023 110.15 74.3782C110.15 74.5542 110.251 74.6871 110.455 74.7888C110.658 74.8904 110.928 74.9803 111.26 75.0585C111.592 75.1328 111.901 75.2188 112.187 75.3127C112.472 75.4104 112.699 75.5512 112.871 75.7388C113.043 75.9265 113.133 76.2002 113.133 76.5599C113.141 77.0134 112.965 77.3888 112.609 77.6898C112.253 77.9909 111.768 78.1394 111.154 78.1394V78.1433Z" fill="#D49945"/>
<path d="M78.654 31.1774H74.7598V9.07825H78.654V10.9204C80.1847 9.38979 81.9286 8.62109 83.8859 8.62109C86.1988 8.62109 88.1222 9.46768 89.6224 11.1812C91.1394 12.8777 91.9047 15.0111 91.9047 17.6016C91.9047 20.1922 91.1564 22.2308 89.6393 23.9239C88.1391 25.6035 86.2496 26.4332 83.9672 26.4332C81.9964 26.4332 80.2355 25.634 78.671 24.0526V31.174H78.654V31.1774ZM87.9123 17.6186C87.9123 16.0067 87.472 14.686 86.5916 13.6735C85.6942 12.6474 84.5869 12.1259 83.2357 12.1259C81.7999 12.1259 80.6452 12.6136 79.7648 13.6092C78.8674 14.6047 78.4272 15.9085 78.4272 17.5204C78.4272 19.1323 78.8674 20.4055 79.7648 21.4316C80.6452 22.4407 81.8033 22.9317 83.2188 22.9317C84.6343 22.9317 85.6807 22.4272 86.5611 21.4146C87.4754 20.4055 87.9123 19.1323 87.9123 17.6186Z" fill="#D49945"/>
<path d="M97.2517 9.07812V25.9454H93.3574V9.07812H97.2517Z" fill="#D49945"/>
<path d="M95.2945 7.62478C94.5123 7.62478 93.8587 7.38097 93.3542 6.90688C92.8496 6.43279 92.5889 5.83003 92.5889 5.11551C92.5889 4.401 92.8496 3.79484 93.3542 3.33769C93.8587 2.88053 94.5123 2.63672 95.2945 2.63672C96.0768 2.63672 96.7303 2.8636 97.2349 3.33769C97.7395 3.79484 98.0002 4.39761 98.0002 5.11551C98.0002 5.83341 97.7395 6.43618 97.2349 6.90688C96.7303 7.38097 96.0768 7.62478 95.2945 7.62478Z" fill="#D49945"/>
<path d="M55.8135 17.8552C55.8135 15.4814 56.6634 13.4631 58.36 11.8004C60.0565 10.1377 62.1256 9.30469 64.5671 9.30469C67.0087 9.30469 69.098 10.1411 70.8081 11.8173C72.4945 13.4936 73.3377 15.5491 73.3377 17.9906C73.3377 20.4322 72.4878 22.5148 70.7912 24.1808C69.0811 25.8334 66.985 26.6596 64.4994 26.6596C62.0138 26.6596 59.9753 25.8164 58.3092 24.13C56.6465 22.4674 55.8135 20.3746 55.8135 17.8552ZM59.6942 17.9229C59.6942 19.5653 60.131 20.8622 61.0081 21.8206C61.9089 22.7891 63.0941 23.2699 64.5671 23.2699C66.0402 23.2699 67.2389 22.7924 68.1262 21.8375C69.0134 20.8825 69.457 19.6059 69.457 18.0076C69.457 16.4092 69.0134 15.1359 68.1262 14.1776C67.2254 13.2091 66.0402 12.7283 64.5671 12.7283C63.0941 12.7283 61.9427 13.2125 61.042 14.1776C60.1412 15.1461 59.6942 16.3923 59.6942 17.9229Z" fill="#D49945"/>
<path d="M50.5309 25.9321V11.4251L44.5777 25.9288H41.2219L35.2687 11.5402V25.9288H31.415V5.23828H36.7282L42.9455 20.1822L49.0172 5.23828H54.503V25.9321H50.5343H50.5309Z" fill="#D49945"/>
<path d="M0 14.9079C0 19.0934 1.41887 22.544 4.22953 25.2429C7.01986 27.9418 10.2674 29.2896 13.9246 29.2896C17.9035 29.2896 21.2662 27.9181 23.9854 25.1752C26.7283 22.3849 28.0794 19.0019 28.0794 14.9993C28.0794 10.9967 26.7317 7.5663 24.0328 4.82337C21.3576 2.08045 18.0187 0.708984 14.0634 0.708984C10.1082 0.708984 6.78959 2.08045 4.07037 4.82337C1.34776 7.54598 0 10.9086 0 14.9079Z" fill="#D49945"/>
<path d="M25.1305 15.0903C25.1305 12.8045 24.5142 10.9285 23.2545 9.48926C21.9982 8.02637 20.3964 7.29492 18.5001 7.29492C16.4649 7.29492 14.8191 8.00266 13.5594 9.39783C12.3031 10.8167 11.6631 12.669 11.6631 14.9548C11.6631 17.2406 12.3031 19.0489 13.5594 20.5118C14.7954 21.9306 16.4412 22.6384 18.4764 22.6384C20.3964 22.6384 21.9745 21.9069 23.2105 20.4677C24.4905 19.0726 25.1305 17.2677 25.1305 15.0936V15.0903Z" fill="#1C4000"/>
<path d="M19.9631 18.4532C18.8659 18.4532 17.9516 18.1112 17.2405 17.4474C16.5327 16.7837 16.167 15.9371 16.167 14.9314C16.167 13.9257 16.5327 13.0791 17.2405 12.4391C17.9482 11.7991 18.8625 11.457 19.9631 11.457C21.0636 11.457 21.9745 11.7787 22.6857 12.4391C23.3934 13.0791 23.7591 13.9257 23.7591 14.9314C23.7591 15.9371 23.3934 16.7837 22.6857 17.4474C21.9779 18.1112 21.0636 18.4532 19.9631 18.4532Z" fill="#F5BD7A"/>
</svg>
