<svg width="228" height="104" viewBox="0 0 228 104" fill="none" xmlns="http://www.w3.org/2000/svg">
<path d="M88.728 23.144C87.896 23.144 87.168 22.96 86.544 22.592C85.92 22.224 85.432 21.716 85.08 21.068C84.728 20.412 84.552 19.656 84.552 18.8C84.552 17.944 84.728 17.192 85.08 16.544C85.432 15.888 85.92 15.376 86.544 15.008C87.168 14.64 87.896 14.456 88.728 14.456C89.56 14.456 90.288 14.64 90.912 15.008C91.536 15.376 92.02 15.888 92.364 16.544C92.716 17.192 92.892 17.944 92.892 18.8C92.892 19.656 92.716 20.412 92.364 21.068C92.02 21.716 91.536 22.224 90.912 22.592C90.288 22.96 89.56 23.144 88.728 23.144ZM88.728 22.004C89.304 22.004 89.804 21.876 90.228 21.62C90.66 21.364 90.996 20.996 91.236 20.516C91.476 20.036 91.596 19.464 91.596 18.8C91.596 18.136 91.476 17.564 91.236 17.084C90.996 16.604 90.66 16.236 90.228 15.98C89.804 15.724 89.304 15.596 88.728 15.596C88.152 15.596 87.648 15.724 87.216 15.98C86.784 16.236 86.448 16.604 86.208 17.084C85.976 17.564 85.86 18.136 85.86 18.8C85.86 19.464 85.976 20.036 86.208 20.516C86.448 20.996 86.784 21.364 87.216 21.62C87.648 21.876 88.152 22.004 88.728 22.004ZM97.609 23.144C97.145 23.144 96.733 23.052 96.373 22.868C96.021 22.684 95.741 22.424 95.533 22.088L95.401 23H94.261V14.36H95.533V17.972C95.725 17.692 95.989 17.444 96.325 17.228C96.661 17.012 97.093 16.904 97.621 16.904C98.197 16.904 98.705 17.04 99.145 17.312C99.585 17.584 99.929 17.956 100.177 18.428C100.433 18.9 100.561 19.436 100.561 20.036C100.561 20.636 100.433 21.172 100.177 21.644C99.929 22.108 99.585 22.476 99.145 22.748C98.705 23.012 98.193 23.144 97.609 23.144ZM97.393 22.04C97.937 22.04 98.385 21.856 98.737 21.488C99.089 21.112 99.265 20.624 99.265 20.024C99.265 19.632 99.185 19.284 99.025 18.98C98.865 18.676 98.645 18.44 98.365 18.272C98.085 18.096 97.761 18.008 97.393 18.008C96.849 18.008 96.401 18.196 96.049 18.572C95.705 18.948 95.533 19.432 95.533 20.024C95.533 20.624 95.705 21.112 96.049 21.488C96.401 21.856 96.849 22.04 97.393 22.04ZM104.313 23.144C103.561 23.144 102.941 22.96 102.453 22.592C101.965 22.224 101.685 21.736 101.613 21.128H102.897C102.961 21.4 103.113 21.636 103.353 21.836C103.593 22.028 103.909 22.124 104.301 22.124C104.685 22.124 104.965 22.044 105.141 21.884C105.317 21.724 105.405 21.54 105.405 21.332C105.405 21.028 105.281 20.824 105.033 20.72C104.793 20.608 104.457 20.508 104.025 20.42C103.689 20.348 103.353 20.252 103.017 20.132C102.689 20.012 102.413 19.844 102.189 19.628C101.973 19.404 101.865 19.104 101.865 18.728C101.865 18.208 102.065 17.776 102.465 17.432C102.865 17.08 103.425 16.904 104.145 16.904C104.809 16.904 105.345 17.064 105.753 17.384C106.169 17.704 106.413 18.156 106.485 18.74H105.261C105.221 18.484 105.101 18.284 104.901 18.14C104.709 17.996 104.449 17.924 104.121 17.924C103.801 17.924 103.553 17.992 103.377 18.128C103.201 18.256 103.113 18.424 103.113 18.632C103.113 18.84 103.233 19.004 103.473 19.124C103.721 19.244 104.045 19.352 104.445 19.448C104.845 19.536 105.213 19.64 105.549 19.76C105.893 19.872 106.169 20.04 106.377 20.264C106.585 20.488 106.689 20.816 106.689 21.248C106.697 21.792 106.485 22.244 106.053 22.604C105.629 22.964 105.049 23.144 104.313 23.144ZM110.861 23.144C110.277 23.144 109.757 23.016 109.301 22.76C108.853 22.496 108.501 22.132 108.245 21.668C107.989 21.204 107.861 20.664 107.861 20.048C107.861 19.424 107.985 18.876 108.233 18.404C108.489 17.932 108.841 17.564 109.289 17.3C109.745 17.036 110.273 16.904 110.873 16.904C111.457 16.904 111.965 17.036 112.397 17.3C112.829 17.556 113.165 17.9 113.405 18.332C113.645 18.764 113.765 19.24 113.765 19.76C113.765 19.84 113.761 19.928 113.753 20.024C113.753 20.112 113.749 20.212 113.741 20.324H109.109C109.149 20.9 109.337 21.34 109.673 21.644C110.017 21.94 110.413 22.088 110.861 22.088C111.221 22.088 111.521 22.008 111.761 21.848C112.009 21.68 112.193 21.456 112.313 21.176H113.585C113.425 21.736 113.105 22.204 112.625 22.58C112.153 22.956 111.565 23.144 110.861 23.144ZM110.861 17.948C110.437 17.948 110.061 18.076 109.733 18.332C109.405 18.58 109.205 18.956 109.133 19.46H112.493C112.469 18.996 112.305 18.628 112.001 18.356C111.697 18.084 111.317 17.948 110.861 17.948ZM115.085 23V17.048H116.225L116.333 18.176C116.541 17.784 116.829 17.476 117.197 17.252C117.573 17.02 118.025 16.904 118.553 16.904V18.236H118.205C117.853 18.236 117.537 18.296 117.257 18.416C116.985 18.528 116.765 18.724 116.597 19.004C116.437 19.276 116.357 19.656 116.357 20.144V23H115.085ZM121.312 23L119.08 17.048H120.412L122.068 21.788L123.724 17.048H125.044L122.824 23H121.312ZM127.765 23.144C127.261 23.144 126.845 23.06 126.517 22.892C126.189 22.724 125.945 22.504 125.785 22.232C125.625 21.952 125.545 21.648 125.545 21.32C125.545 20.744 125.769 20.288 126.217 19.952C126.665 19.616 127.305 19.448 128.137 19.448H129.697V19.34C129.697 18.876 129.569 18.528 129.313 18.296C129.065 18.064 128.741 17.948 128.341 17.948C127.989 17.948 127.681 18.036 127.417 18.212C127.161 18.38 127.005 18.632 126.949 18.968H125.677C125.717 18.536 125.861 18.168 126.109 17.864C126.365 17.552 126.685 17.316 127.069 17.156C127.461 16.988 127.889 16.904 128.353 16.904C129.185 16.904 129.829 17.124 130.285 17.564C130.741 17.996 130.969 18.588 130.969 19.34V23H129.865L129.757 21.98C129.589 22.308 129.345 22.584 129.025 22.808C128.705 23.032 128.285 23.144 127.765 23.144ZM128.017 22.112C128.361 22.112 128.649 22.032 128.881 21.872C129.121 21.704 129.305 21.484 129.433 21.212C129.569 20.94 129.653 20.64 129.685 20.312H128.269C127.765 20.312 127.405 20.4 127.189 20.576C126.981 20.752 126.877 20.972 126.877 21.236C126.877 21.508 126.977 21.724 127.177 21.884C127.385 22.036 127.665 22.112 128.017 22.112ZM134.831 23C134.247 23 133.783 22.86 133.439 22.58C133.095 22.292 132.923 21.784 132.923 21.056V18.116H131.903V17.048H132.923L133.079 15.536H134.195V17.048H135.875V18.116H134.195V21.056C134.195 21.384 134.263 21.612 134.399 21.74C134.543 21.86 134.787 21.92 135.131 21.92H135.815V23H134.831ZM139.818 23.144C139.25 23.144 138.738 23.016 138.282 22.76C137.834 22.496 137.478 22.132 137.214 21.668C136.95 21.196 136.818 20.648 136.818 20.024C136.818 19.4 136.95 18.856 137.214 18.392C137.486 17.92 137.85 17.556 138.306 17.3C138.762 17.036 139.27 16.904 139.83 16.904C140.398 16.904 140.906 17.036 141.354 17.3C141.81 17.556 142.17 17.92 142.434 18.392C142.706 18.856 142.842 19.4 142.842 20.024C142.842 20.648 142.706 21.196 142.434 21.668C142.17 22.132 141.81 22.496 141.354 22.76C140.898 23.016 140.386 23.144 139.818 23.144ZM139.818 22.052C140.122 22.052 140.402 21.976 140.658 21.824C140.922 21.672 141.134 21.448 141.294 21.152C141.454 20.848 141.534 20.472 141.534 20.024C141.534 19.576 141.454 19.204 141.294 18.908C141.142 18.604 140.934 18.376 140.67 18.224C140.414 18.072 140.134 17.996 139.83 17.996C139.526 17.996 139.242 18.072 138.978 18.224C138.722 18.376 138.514 18.604 138.354 18.908C138.194 19.204 138.114 19.576 138.114 20.024C138.114 20.472 138.194 20.848 138.354 21.152C138.514 21.448 138.722 21.672 138.978 21.824C139.234 21.976 139.514 22.052 139.818 22.052ZM139.494 16.556V15.644L142.11 14.156V15.212L139.494 16.556ZM144.218 23V17.048H145.358L145.466 18.176C145.674 17.784 145.962 17.476 146.33 17.252C146.706 17.02 147.158 16.904 147.686 16.904V18.236H147.338C146.986 18.236 146.67 18.296 146.39 18.416C146.118 18.528 145.898 18.724 145.73 19.004C145.57 19.276 145.49 19.656 145.49 20.144V23H144.218ZM149.497 15.92C149.257 15.92 149.057 15.848 148.897 15.704C148.745 15.552 148.669 15.364 148.669 15.14C148.669 14.916 148.745 14.732 148.897 14.588C149.057 14.436 149.257 14.36 149.497 14.36C149.737 14.36 149.933 14.436 150.085 14.588C150.245 14.732 150.325 14.916 150.325 15.14C150.325 15.364 150.245 15.552 150.085 15.704C149.933 15.848 149.737 15.92 149.497 15.92ZM148.861 23V17.048H150.133V23H148.861ZM154.596 23.144C154.028 23.144 153.516 23.016 153.06 22.76C152.612 22.496 152.256 22.132 151.992 21.668C151.728 21.196 151.596 20.648 151.596 20.024C151.596 19.4 151.728 18.856 151.992 18.392C152.264 17.92 152.628 17.556 153.084 17.3C153.54 17.036 154.048 16.904 154.608 16.904C155.176 16.904 155.684 17.036 156.132 17.3C156.588 17.556 156.948 17.92 157.212 18.392C157.484 18.856 157.62 19.4 157.62 20.024C157.62 20.648 157.484 21.196 157.212 21.668C156.948 22.132 156.588 22.496 156.132 22.76C155.676 23.016 155.164 23.144 154.596 23.144ZM154.596 22.052C154.9 22.052 155.18 21.976 155.436 21.824C155.7 21.672 155.912 21.448 156.072 21.152C156.232 20.848 156.312 20.472 156.312 20.024C156.312 19.576 156.232 19.204 156.072 18.908C155.92 18.604 155.712 18.376 155.448 18.224C155.192 18.072 154.912 17.996 154.608 17.996C154.304 17.996 154.02 18.072 153.756 18.224C153.5 18.376 153.292 18.604 153.132 18.908C152.972 19.204 152.892 19.576 152.892 20.024C152.892 20.472 152.972 20.848 153.132 21.152C153.292 21.448 153.5 21.672 153.756 21.824C154.012 21.976 154.292 22.052 154.596 22.052ZM87.516 39.144C86.94 39.144 86.432 39.008 85.992 38.736C85.552 38.464 85.208 38.092 84.96 37.62C84.712 37.148 84.588 36.612 84.588 36.012C84.588 35.412 84.712 34.88 84.96 34.416C85.208 33.944 85.552 33.576 85.992 33.312C86.44 33.04 86.952 32.904 87.528 32.904C88 32.904 88.412 32.996 88.764 33.18C89.124 33.364 89.404 33.624 89.604 33.96V30.36H90.876V39H89.736L89.604 38.076C89.412 38.356 89.148 38.604 88.812 38.82C88.476 39.036 88.044 39.144 87.516 39.144ZM87.744 38.04C88.288 38.04 88.732 37.852 89.076 37.476C89.428 37.1 89.604 36.616 89.604 36.024C89.604 35.424 89.428 34.94 89.076 34.572C88.732 34.196 88.288 34.008 87.744 34.008C87.2 34.008 86.752 34.196 86.4 34.572C86.048 34.94 85.872 35.424 85.872 36.024C85.872 36.416 85.952 36.764 86.112 37.068C86.272 37.372 86.492 37.612 86.772 37.788C87.06 37.956 87.384 38.04 87.744 38.04ZM95.2638 39.144C94.6958 39.144 94.1838 39.016 93.7278 38.76C93.2798 38.496 92.9238 38.132 92.6598 37.668C92.3958 37.196 92.2638 36.648 92.2638 36.024C92.2638 35.4 92.3958 34.856 92.6598 34.392C92.9318 33.92 93.2958 33.556 93.7518 33.3C94.2078 33.036 94.7158 32.904 95.2758 32.904C95.8438 32.904 96.3518 33.036 96.7998 33.3C97.2558 33.556 97.6158 33.92 97.8798 34.392C98.1518 34.856 98.2878 35.4 98.2878 36.024C98.2878 36.648 98.1518 37.196 97.8798 37.668C97.6158 38.132 97.2558 38.496 96.7998 38.76C96.3438 39.016 95.8318 39.144 95.2638 39.144ZM95.2638 38.052C95.5678 38.052 95.8478 37.976 96.1038 37.824C96.3678 37.672 96.5798 37.448 96.7398 37.152C96.8998 36.848 96.9798 36.472 96.9798 36.024C96.9798 35.576 96.8998 35.204 96.7398 34.908C96.5878 34.604 96.3798 34.376 96.1158 34.224C95.8598 34.072 95.5798 33.996 95.2758 33.996C94.9718 33.996 94.6878 34.072 94.4238 34.224C94.1678 34.376 93.9598 34.604 93.7998 34.908C93.6398 35.204 93.5598 35.576 93.5598 36.024C93.5598 36.472 93.6398 36.848 93.7998 37.152C93.9598 37.448 94.1678 37.672 94.4238 37.824C94.6798 37.976 94.9598 38.052 95.2638 38.052ZM102.039 39.144C101.287 39.144 100.667 38.96 100.179 38.592C99.6914 38.224 99.4114 37.736 99.3394 37.128H100.623C100.687 37.4 100.839 37.636 101.079 37.836C101.319 38.028 101.635 38.124 102.027 38.124C102.411 38.124 102.691 38.044 102.867 37.884C103.043 37.724 103.131 37.54 103.131 37.332C103.131 37.028 103.007 36.824 102.759 36.72C102.519 36.608 102.183 36.508 101.751 36.42C101.415 36.348 101.079 36.252 100.743 36.132C100.415 36.012 100.139 35.844 99.9154 35.628C99.6994 35.404 99.5914 35.104 99.5914 34.728C99.5914 34.208 99.7914 33.776 100.191 33.432C100.591 33.08 101.151 32.904 101.871 32.904C102.535 32.904 103.071 33.064 103.479 33.384C103.895 33.704 104.139 34.156 104.211 34.74H102.987C102.947 34.484 102.827 34.284 102.627 34.14C102.435 33.996 102.175 33.924 101.847 33.924C101.527 33.924 101.279 33.992 101.103 34.128C100.927 34.256 100.839 34.424 100.839 34.632C100.839 34.84 100.959 35.004 101.199 35.124C101.447 35.244 101.771 35.352 102.171 35.448C102.571 35.536 102.939 35.64 103.275 35.76C103.619 35.872 103.895 36.04 104.103 36.264C104.311 36.488 104.415 36.816 104.415 37.248C104.423 37.792 104.211 38.244 103.779 38.604C103.355 38.964 102.775 39.144 102.039 39.144ZM108.875 39V30.6H111.599C112.583 30.6 113.391 30.772 114.023 31.116C114.663 31.46 115.135 31.948 115.439 32.58C115.751 33.204 115.907 33.948 115.907 34.812C115.907 35.668 115.751 36.412 115.439 37.044C115.135 37.668 114.663 38.152 114.023 38.496C113.391 38.832 112.583 39 111.599 39H108.875ZM110.147 37.92H111.551C112.311 37.92 112.911 37.796 113.351 37.548C113.799 37.3 114.119 36.944 114.311 36.48C114.511 36.016 114.611 35.46 114.611 34.812C114.611 34.164 114.511 33.604 114.311 33.132C114.119 32.66 113.799 32.3 113.351 32.052C112.911 31.796 112.311 31.668 111.551 31.668H110.147V37.92ZM117.985 31.92C117.745 31.92 117.545 31.848 117.385 31.704C117.233 31.552 117.157 31.364 117.157 31.14C117.157 30.916 117.233 30.732 117.385 30.588C117.545 30.436 117.745 30.36 117.985 30.36C118.225 30.36 118.421 30.436 118.573 30.588C118.733 30.732 118.813 30.916 118.813 31.14C118.813 31.364 118.733 31.552 118.573 31.704C118.421 31.848 118.225 31.92 117.985 31.92ZM117.349 39V33.048H118.621V39H117.349ZM120.3 39V33.048H121.44L121.548 34.176C121.756 33.784 122.044 33.476 122.412 33.252C122.788 33.02 123.24 32.904 123.768 32.904V34.236H123.42C123.068 34.236 122.752 34.296 122.472 34.416C122.2 34.528 121.98 34.724 121.812 35.004C121.652 35.276 121.572 35.656 121.572 36.144V39H120.3ZM127.479 39.144C126.895 39.144 126.375 39.016 125.919 38.76C125.471 38.496 125.119 38.132 124.863 37.668C124.607 37.204 124.479 36.664 124.479 36.048C124.479 35.424 124.603 34.876 124.851 34.404C125.107 33.932 125.459 33.564 125.907 33.3C126.363 33.036 126.891 32.904 127.491 32.904C128.075 32.904 128.583 33.036 129.015 33.3C129.447 33.556 129.783 33.9 130.023 34.332C130.263 34.764 130.383 35.24 130.383 35.76C130.383 35.84 130.379 35.928 130.371 36.024C130.371 36.112 130.367 36.212 130.359 36.324H125.727C125.767 36.9 125.955 37.34 126.291 37.644C126.635 37.94 127.031 38.088 127.479 38.088C127.839 38.088 128.139 38.008 128.379 37.848C128.627 37.68 128.811 37.456 128.931 37.176H130.203C130.043 37.736 129.723 38.204 129.243 38.58C128.771 38.956 128.183 39.144 127.479 39.144ZM127.479 33.948C127.055 33.948 126.679 34.076 126.351 34.332C126.023 34.58 125.823 34.956 125.751 35.46H129.111C129.087 34.996 128.923 34.628 128.619 34.356C128.315 34.084 127.935 33.948 127.479 33.948ZM132.422 31.92C132.182 31.92 131.982 31.848 131.822 31.704C131.67 31.552 131.594 31.364 131.594 31.14C131.594 30.916 131.67 30.732 131.822 30.588C131.982 30.436 132.182 30.36 132.422 30.36C132.662 30.36 132.858 30.436 133.01 30.588C133.17 30.732 133.25 30.916 133.25 31.14C133.25 31.364 133.17 31.552 133.01 31.704C132.858 31.848 132.662 31.92 132.422 31.92ZM131.786 39V33.048H133.058V39H131.786ZM137.234 39C136.65 39 136.186 38.86 135.842 38.58C135.498 38.292 135.326 37.784 135.326 37.056V34.116H134.306V33.048H135.326L135.482 31.536H136.598V33.048H138.278V34.116H136.598V37.056C136.598 37.384 136.666 37.612 136.802 37.74C136.946 37.86 137.19 37.92 137.534 37.92H138.218V39H137.234ZM142.221 39.144C141.653 39.144 141.141 39.016 140.685 38.76C140.237 38.496 139.881 38.132 139.617 37.668C139.353 37.196 139.221 36.648 139.221 36.024C139.221 35.4 139.353 34.856 139.617 34.392C139.889 33.92 140.253 33.556 140.709 33.3C141.165 33.036 141.673 32.904 142.233 32.904C142.801 32.904 143.309 33.036 143.757 33.3C144.213 33.556 144.573 33.92 144.837 34.392C145.109 34.856 145.245 35.4 145.245 36.024C145.245 36.648 145.109 37.196 144.837 37.668C144.573 38.132 144.213 38.496 143.757 38.76C143.301 39.016 142.789 39.144 142.221 39.144ZM142.221 38.052C142.525 38.052 142.805 37.976 143.061 37.824C143.325 37.672 143.537 37.448 143.697 37.152C143.857 36.848 143.937 36.472 143.937 36.024C143.937 35.576 143.857 35.204 143.697 34.908C143.545 34.604 143.337 34.376 143.073 34.224C142.817 34.072 142.537 33.996 142.233 33.996C141.929 33.996 141.645 34.072 141.381 34.224C141.125 34.376 140.917 34.604 140.757 34.908C140.597 35.204 140.517 35.576 140.517 36.024C140.517 36.472 140.597 36.848 140.757 37.152C140.917 37.448 141.125 37.672 141.381 37.824C141.637 37.976 141.917 38.052 142.221 38.052ZM148.996 39.144C148.244 39.144 147.624 38.96 147.136 38.592C146.648 38.224 146.368 37.736 146.296 37.128H147.58C147.644 37.4 147.796 37.636 148.036 37.836C148.276 38.028 148.592 38.124 148.984 38.124C149.368 38.124 149.648 38.044 149.824 37.884C150 37.724 150.088 37.54 150.088 37.332C150.088 37.028 149.964 36.824 149.716 36.72C149.476 36.608 149.14 36.508 148.708 36.42C148.372 36.348 148.036 36.252 147.7 36.132C147.372 36.012 147.096 35.844 146.872 35.628C146.656 35.404 146.548 35.104 146.548 34.728C146.548 34.208 146.748 33.776 147.148 33.432C147.548 33.08 148.108 32.904 148.828 32.904C149.492 32.904 150.028 33.064 150.436 33.384C150.852 33.704 151.096 34.156 151.168 34.74H149.944C149.904 34.484 149.784 34.284 149.584 34.14C149.392 33.996 149.132 33.924 148.804 33.924C148.484 33.924 148.236 33.992 148.06 34.128C147.884 34.256 147.796 34.424 147.796 34.632C147.796 34.84 147.916 35.004 148.156 35.124C148.404 35.244 148.728 35.352 149.128 35.448C149.528 35.536 149.896 35.64 150.232 35.76C150.576 35.872 150.852 36.04 151.06 36.264C151.268 36.488 151.372 36.816 151.372 37.248C151.38 37.792 151.168 38.244 150.736 38.604C150.312 38.964 149.732 39.144 148.996 39.144ZM155.832 39V30.6H157.104V34.2H161.172V30.6H162.444V39H161.172V35.244H157.104V39H155.832ZM166.301 39.144C165.581 39.144 165.013 38.92 164.597 38.472C164.189 38.024 163.985 37.356 163.985 36.468V33.048H165.257V36.336C165.257 37.488 165.729 38.064 166.673 38.064C167.145 38.064 167.533 37.896 167.837 37.56C168.141 37.224 168.293 36.744 168.293 36.12V33.048H169.565V39H168.437L168.341 37.956C168.157 38.324 167.885 38.616 167.525 38.832C167.173 39.04 166.765 39.144 166.301 39.144ZM171.183 39V33.048H172.311L172.419 33.888C172.611 33.584 172.863 33.344 173.175 33.168C173.495 32.992 173.863 32.904 174.279 32.904C175.223 32.904 175.879 33.276 176.247 34.02C176.463 33.676 176.751 33.404 177.111 33.204C177.479 33.004 177.875 32.904 178.299 32.904C179.043 32.904 179.627 33.128 180.051 33.576C180.475 34.024 180.687 34.692 180.687 35.58V39H179.415V35.712C179.415 34.56 178.975 33.984 178.095 33.984C177.647 33.984 177.279 34.152 176.991 34.488C176.711 34.824 176.571 35.304 176.571 35.928V39H175.299V35.712C175.299 34.56 174.855 33.984 173.967 33.984C173.527 33.984 173.163 34.152 172.875 34.488C172.595 34.824 172.455 35.304 172.455 35.928V39H171.183ZM184.191 39.144C183.687 39.144 183.271 39.06 182.943 38.892C182.615 38.724 182.371 38.504 182.211 38.232C182.051 37.952 181.971 37.648 181.971 37.32C181.971 36.744 182.195 36.288 182.643 35.952C183.091 35.616 183.731 35.448 184.563 35.448H186.123V35.34C186.123 34.876 185.995 34.528 185.739 34.296C185.491 34.064 185.167 33.948 184.767 33.948C184.415 33.948 184.107 34.036 183.843 34.212C183.587 34.38 183.431 34.632 183.375 34.968H182.103C182.143 34.536 182.287 34.168 182.535 33.864C182.791 33.552 183.111 33.316 183.495 33.156C183.887 32.988 184.315 32.904 184.779 32.904C185.611 32.904 186.255 33.124 186.711 33.564C187.167 33.996 187.395 34.588 187.395 35.34V39H186.291L186.183 37.98C186.015 38.308 185.771 38.584 185.451 38.808C185.131 39.032 184.711 39.144 184.191 39.144ZM184.443 38.112C184.787 38.112 185.075 38.032 185.307 37.872C185.547 37.704 185.731 37.484 185.859 37.212C185.995 36.94 186.079 36.64 186.111 36.312H184.695C184.191 36.312 183.831 36.4 183.615 36.576C183.407 36.752 183.303 36.972 183.303 37.236C183.303 37.508 183.403 37.724 183.603 37.884C183.811 38.036 184.091 38.112 184.443 38.112ZM188.878 39V33.048H190.006L190.102 34.092C190.286 33.724 190.554 33.436 190.906 33.228C191.266 33.012 191.678 32.904 192.142 32.904C192.862 32.904 193.426 33.128 193.834 33.576C194.25 34.024 194.458 34.692 194.458 35.58V39H193.198V35.712C193.198 34.56 192.726 33.984 191.782 33.984C191.31 33.984 190.918 34.152 190.606 34.488C190.302 34.824 190.15 35.304 190.15 35.928V39H188.878ZM198.74 39.144C198.172 39.144 197.66 39.016 197.204 38.76C196.756 38.496 196.4 38.132 196.136 37.668C195.872 37.196 195.74 36.648 195.74 36.024C195.74 35.4 195.872 34.856 196.136 34.392C196.408 33.92 196.772 33.556 197.228 33.3C197.684 33.036 198.192 32.904 198.752 32.904C199.32 32.904 199.828 33.036 200.276 33.3C200.732 33.556 201.092 33.92 201.356 34.392C201.628 34.856 201.764 35.4 201.764 36.024C201.764 36.648 201.628 37.196 201.356 37.668C201.092 38.132 200.732 38.496 200.276 38.76C199.82 39.016 199.308 39.144 198.74 39.144ZM198.74 38.052C199.044 38.052 199.324 37.976 199.58 37.824C199.844 37.672 200.056 37.448 200.216 37.152C200.376 36.848 200.456 36.472 200.456 36.024C200.456 35.576 200.376 35.204 200.216 34.908C200.064 34.604 199.856 34.376 199.592 34.224C199.336 34.072 199.056 33.996 198.752 33.996C198.448 33.996 198.164 34.072 197.9 34.224C197.644 34.376 197.436 34.604 197.276 34.908C197.116 35.204 197.036 35.576 197.036 36.024C197.036 36.472 197.116 36.848 197.276 37.152C197.436 37.448 197.644 37.672 197.9 37.824C198.156 37.976 198.436 38.052 198.74 38.052ZM205.516 39.144C204.764 39.144 204.144 38.96 203.656 38.592C203.168 38.224 202.888 37.736 202.816 37.128H204.1C204.164 37.4 204.316 37.636 204.556 37.836C204.796 38.028 205.112 38.124 205.504 38.124C205.888 38.124 206.168 38.044 206.344 37.884C206.52 37.724 206.608 37.54 206.608 37.332C206.608 37.028 206.484 36.824 206.236 36.72C205.996 36.608 205.66 36.508 205.228 36.42C204.892 36.348 204.556 36.252 204.22 36.132C203.892 36.012 203.616 35.844 203.392 35.628C203.176 35.404 203.068 35.104 203.068 34.728C203.068 34.208 203.268 33.776 203.668 33.432C204.068 33.08 204.628 32.904 205.348 32.904C206.012 32.904 206.548 33.064 206.956 33.384C207.372 33.704 207.616 34.156 207.688 34.74H206.464C206.424 34.484 206.304 34.284 206.104 34.14C205.912 33.996 205.652 33.924 205.324 33.924C205.004 33.924 204.756 33.992 204.58 34.128C204.404 34.256 204.316 34.424 204.316 34.632C204.316 34.84 204.436 35.004 204.676 35.124C204.924 35.244 205.248 35.352 205.648 35.448C206.048 35.536 206.416 35.64 206.752 35.76C207.096 35.872 207.372 36.04 207.58 36.264C207.788 36.488 207.892 36.816 207.892 37.248C207.9 37.792 207.688 38.244 207.256 38.604C206.832 38.964 206.252 39.144 205.516 39.144ZM87.516 55.144C86.94 55.144 86.432 55.008 85.992 54.736C85.552 54.464 85.208 54.092 84.96 53.62C84.712 53.148 84.588 52.612 84.588 52.012C84.588 51.412 84.712 50.88 84.96 50.416C85.208 49.944 85.552 49.576 85.992 49.312C86.44 49.04 86.952 48.904 87.528 48.904C88 48.904 88.412 48.996 88.764 49.18C89.124 49.364 89.404 49.624 89.604 49.96V46.36H90.876V55H89.736L89.604 54.076C89.412 54.356 89.148 54.604 88.812 54.82C88.476 55.036 88.044 55.144 87.516 55.144ZM87.744 54.04C88.288 54.04 88.732 53.852 89.076 53.476C89.428 53.1 89.604 52.616 89.604 52.024C89.604 51.424 89.428 50.94 89.076 50.572C88.732 50.196 88.288 50.008 87.744 50.008C87.2 50.008 86.752 50.196 86.4 50.572C86.048 50.94 85.872 51.424 85.872 52.024C85.872 52.416 85.952 52.764 86.112 53.068C86.272 53.372 86.492 53.612 86.772 53.788C87.06 53.956 87.384 54.04 87.744 54.04ZM95.2638 55.144C94.6958 55.144 94.1838 55.016 93.7278 54.76C93.2798 54.496 92.9238 54.132 92.6598 53.668C92.3958 53.196 92.2638 52.648 92.2638 52.024C92.2638 51.4 92.3958 50.856 92.6598 50.392C92.9318 49.92 93.2958 49.556 93.7518 49.3C94.2078 49.036 94.7158 48.904 95.2758 48.904C95.8438 48.904 96.3518 49.036 96.7998 49.3C97.2558 49.556 97.6158 49.92 97.8798 50.392C98.1518 50.856 98.2878 51.4 98.2878 52.024C98.2878 52.648 98.1518 53.196 97.8798 53.668C97.6158 54.132 97.2558 54.496 96.7998 54.76C96.3438 55.016 95.8318 55.144 95.2638 55.144ZM95.2638 54.052C95.5678 54.052 95.8478 53.976 96.1038 53.824C96.3678 53.672 96.5798 53.448 96.7398 53.152C96.8998 52.848 96.9798 52.472 96.9798 52.024C96.9798 51.576 96.8998 51.204 96.7398 50.908C96.5878 50.604 96.3798 50.376 96.1158 50.224C95.8598 50.072 95.5798 49.996 95.2758 49.996C94.9718 49.996 94.6878 50.072 94.4238 50.224C94.1678 50.376 93.9598 50.604 93.7998 50.908C93.6398 51.204 93.5598 51.576 93.5598 52.024C93.5598 52.472 93.6398 52.848 93.7998 53.152C93.9598 53.448 94.1678 53.672 94.4238 53.824C94.6798 53.976 94.9598 54.052 95.2638 54.052ZM102.039 55.144C101.287 55.144 100.667 54.96 100.179 54.592C99.6914 54.224 99.4114 53.736 99.3394 53.128H100.623C100.687 53.4 100.839 53.636 101.079 53.836C101.319 54.028 101.635 54.124 102.027 54.124C102.411 54.124 102.691 54.044 102.867 53.884C103.043 53.724 103.131 53.54 103.131 53.332C103.131 53.028 103.007 52.824 102.759 52.72C102.519 52.608 102.183 52.508 101.751 52.42C101.415 52.348 101.079 52.252 100.743 52.132C100.415 52.012 100.139 51.844 99.9154 51.628C99.6994 51.404 99.5914 51.104 99.5914 50.728C99.5914 50.208 99.7914 49.776 100.191 49.432C100.591 49.08 101.151 48.904 101.871 48.904C102.535 48.904 103.071 49.064 103.479 49.384C103.895 49.704 104.139 50.156 104.211 50.74H102.987C102.947 50.484 102.827 50.284 102.627 50.14C102.435 49.996 102.175 49.924 101.847 49.924C101.527 49.924 101.279 49.992 101.103 50.128C100.927 50.256 100.839 50.424 100.839 50.632C100.839 50.84 100.959 51.004 101.199 51.124C101.447 51.244 101.771 51.352 102.171 51.448C102.571 51.536 102.939 51.64 103.275 51.76C103.619 51.872 103.895 52.04 104.103 52.264C104.311 52.488 104.415 52.816 104.415 53.248C104.423 53.792 104.211 54.244 103.779 54.604C103.355 54.964 102.775 55.144 102.039 55.144ZM108.875 55V46.6H111.815C112.471 46.6 113.015 46.712 113.447 46.936C113.879 47.152 114.199 47.452 114.407 47.836C114.623 48.212 114.731 48.64 114.731 49.12C114.731 49.576 114.627 49.996 114.419 50.38C114.219 50.756 113.903 51.056 113.471 51.28C113.039 51.504 112.487 51.616 111.815 51.616H110.147V55H108.875ZM110.147 50.572H111.755C112.355 50.572 112.783 50.444 113.039 50.188C113.303 49.924 113.435 49.568 113.435 49.12C113.435 48.656 113.303 48.296 113.039 48.04C112.783 47.776 112.355 47.644 111.755 47.644H110.147V50.572ZM118.397 55.144C117.829 55.144 117.317 55.016 116.861 54.76C116.413 54.496 116.057 54.132 115.793 53.668C115.529 53.196 115.397 52.648 115.397 52.024C115.397 51.4 115.529 50.856 115.793 50.392C116.065 49.92 116.429 49.556 116.885 49.3C117.341 49.036 117.849 48.904 118.409 48.904C118.977 48.904 119.485 49.036 119.933 49.3C120.389 49.556 120.749 49.92 121.013 50.392C121.285 50.856 121.421 51.4 121.421 52.024C121.421 52.648 121.285 53.196 121.013 53.668C120.749 54.132 120.389 54.496 119.933 54.76C119.477 55.016 118.965 55.144 118.397 55.144ZM118.397 54.052C118.701 54.052 118.981 53.976 119.237 53.824C119.501 53.672 119.713 53.448 119.873 53.152C120.033 52.848 120.113 52.472 120.113 52.024C120.113 51.576 120.033 51.204 119.873 50.908C119.721 50.604 119.513 50.376 119.249 50.224C118.993 50.072 118.713 49.996 118.409 49.996C118.105 49.996 117.821 50.072 117.557 50.224C117.301 50.376 117.093 50.604 116.933 50.908C116.773 51.204 116.693 51.576 116.693 52.024C116.693 52.472 116.773 52.848 116.933 53.152C117.093 53.448 117.301 53.672 117.557 53.824C117.813 53.976 118.093 54.052 118.397 54.052ZM124.16 55L121.928 49.048H123.26L124.916 53.788L126.572 49.048H127.892L125.672 55H124.16ZM131.416 55.144C130.848 55.144 130.336 55.016 129.88 54.76C129.432 54.496 129.076 54.132 128.812 53.668C128.548 53.196 128.416 52.648 128.416 52.024C128.416 51.4 128.548 50.856 128.812 50.392C129.084 49.92 129.448 49.556 129.904 49.3C130.36 49.036 130.868 48.904 131.428 48.904C131.996 48.904 132.504 49.036 132.952 49.3C133.408 49.556 133.768 49.92 134.032 50.392C134.304 50.856 134.44 51.4 134.44 52.024C134.44 52.648 134.304 53.196 134.032 53.668C133.768 54.132 133.408 54.496 132.952 54.76C132.496 55.016 131.984 55.144 131.416 55.144ZM131.416 54.052C131.72 54.052 132 53.976 132.256 53.824C132.52 53.672 132.732 53.448 132.892 53.152C133.052 52.848 133.132 52.472 133.132 52.024C133.132 51.576 133.052 51.204 132.892 50.908C132.74 50.604 132.532 50.376 132.268 50.224C132.012 50.072 131.732 49.996 131.428 49.996C131.124 49.996 130.84 50.072 130.576 50.224C130.32 50.376 130.112 50.604 129.952 50.908C129.792 51.204 129.712 51.576 129.712 52.024C129.712 52.472 129.792 52.848 129.952 53.152C130.112 53.448 130.32 53.672 130.576 53.824C130.832 53.976 131.112 54.052 131.416 54.052ZM138.192 55.144C137.44 55.144 136.82 54.96 136.332 54.592C135.844 54.224 135.564 53.736 135.492 53.128H136.776C136.84 53.4 136.992 53.636 137.232 53.836C137.472 54.028 137.788 54.124 138.18 54.124C138.564 54.124 138.844 54.044 139.02 53.884C139.196 53.724 139.284 53.54 139.284 53.332C139.284 53.028 139.16 52.824 138.912 52.72C138.672 52.608 138.336 52.508 137.904 52.42C137.568 52.348 137.232 52.252 136.896 52.132C136.568 52.012 136.292 51.844 136.068 51.628C135.852 51.404 135.744 51.104 135.744 50.728C135.744 50.208 135.944 49.776 136.344 49.432C136.744 49.08 137.304 48.904 138.024 48.904C138.688 48.904 139.224 49.064 139.632 49.384C140.048 49.704 140.292 50.156 140.364 50.74H139.14C139.1 50.484 138.98 50.284 138.78 50.14C138.588 49.996 138.328 49.924 138 49.924C137.68 49.924 137.432 49.992 137.256 50.128C137.08 50.256 136.992 50.424 136.992 50.632C136.992 50.84 137.112 51.004 137.352 51.124C137.6 51.244 137.924 51.352 138.324 51.448C138.724 51.536 139.092 51.64 139.428 51.76C139.772 51.872 140.048 52.04 140.256 52.264C140.464 52.488 140.568 52.816 140.568 53.248C140.576 53.792 140.364 54.244 139.932 54.604C139.508 54.964 138.928 55.144 138.192 55.144ZM145.028 55V46.6H146.3V55H145.028ZM147.956 55V49.048H149.084L149.18 50.092C149.364 49.724 149.632 49.436 149.984 49.228C150.344 49.012 150.756 48.904 151.22 48.904C151.94 48.904 152.504 49.128 152.912 49.576C153.328 50.024 153.536 50.692 153.536 51.58V55H152.276V51.712C152.276 50.56 151.804 49.984 150.86 49.984C150.388 49.984 149.996 50.152 149.684 50.488C149.38 50.824 149.228 51.304 149.228 51.928V55H147.956ZM157.746 55.144C157.17 55.144 156.662 55.008 156.222 54.736C155.782 54.464 155.438 54.092 155.19 53.62C154.942 53.148 154.818 52.612 154.818 52.012C154.818 51.412 154.942 50.88 155.19 50.416C155.438 49.944 155.782 49.576 156.222 49.312C156.67 49.04 157.182 48.904 157.758 48.904C158.23 48.904 158.642 48.996 158.994 49.18C159.354 49.364 159.634 49.624 159.834 49.96V46.36H161.106V55H159.966L159.834 54.076C159.642 54.356 159.378 54.604 159.042 54.82C158.706 55.036 158.274 55.144 157.746 55.144ZM157.974 54.04C158.518 54.04 158.962 53.852 159.306 53.476C159.658 53.1 159.834 52.616 159.834 52.024C159.834 51.424 159.658 50.94 159.306 50.572C158.962 50.196 158.518 50.008 157.974 50.008C157.43 50.008 156.982 50.196 156.63 50.572C156.278 50.94 156.102 51.424 156.102 52.024C156.102 52.416 156.182 52.764 156.342 53.068C156.502 53.372 156.722 53.612 157.002 53.788C157.29 53.956 157.614 54.04 157.974 54.04ZM162.71 55V49.048H163.982V55H162.71ZM163.01 48.556V47.644L165.626 46.156V47.212L163.01 48.556ZM168.029 53.176C167.717 53.176 167.429 53.14 167.165 53.068L166.649 53.572C166.737 53.628 166.845 53.676 166.973 53.716C167.101 53.756 167.281 53.792 167.513 53.824C167.745 53.856 168.061 53.888 168.461 53.92C169.253 53.992 169.825 54.184 170.177 54.496C170.529 54.8 170.705 55.208 170.705 55.72C170.705 56.072 170.609 56.404 170.417 56.716C170.233 57.036 169.941 57.292 169.541 57.484C169.149 57.684 168.645 57.784 168.029 57.784C167.197 57.784 166.521 57.624 166.001 57.304C165.489 56.992 165.233 56.516 165.233 55.876C165.233 55.628 165.297 55.38 165.425 55.132C165.561 54.892 165.773 54.664 166.061 54.448C165.893 54.376 165.745 54.3 165.617 54.22C165.497 54.132 165.389 54.044 165.293 53.956V53.668L166.325 52.612C165.861 52.212 165.629 51.688 165.629 51.04C165.629 50.648 165.721 50.292 165.905 49.972C166.097 49.644 166.373 49.384 166.733 49.192C167.093 49 167.525 48.904 168.029 48.904C168.365 48.904 168.677 48.952 168.965 49.048H171.185V49.888L170.129 49.948C170.321 50.276 170.417 50.64 170.417 51.04C170.417 51.44 170.321 51.8 170.129 52.12C169.945 52.44 169.673 52.696 169.313 52.888C168.961 53.08 168.533 53.176 168.029 53.176ZM168.029 52.18C168.397 52.18 168.693 52.084 168.917 51.892C169.149 51.692 169.265 51.412 169.265 51.052C169.265 50.684 169.149 50.404 168.917 50.212C168.693 50.02 168.397 49.924 168.029 49.924C167.653 49.924 167.349 50.02 167.117 50.212C166.893 50.404 166.781 50.684 166.781 51.052C166.781 51.412 166.893 51.692 167.117 51.892C167.349 52.084 167.653 52.18 168.029 52.18ZM166.433 55.756C166.433 56.1 166.585 56.356 166.889 56.524C167.193 56.7 167.573 56.788 168.029 56.788C168.469 56.788 168.825 56.692 169.097 56.5C169.369 56.316 169.505 56.068 169.505 55.756C169.505 55.524 169.413 55.324 169.229 55.156C169.045 54.996 168.697 54.896 168.185 54.856C167.801 54.832 167.461 54.796 167.165 54.748C166.885 54.9 166.693 55.064 166.589 55.24C166.485 55.416 166.433 55.588 166.433 55.756ZM174.869 55.144C174.285 55.144 173.765 55.016 173.309 54.76C172.861 54.496 172.509 54.132 172.253 53.668C171.997 53.204 171.869 52.664 171.869 52.048C171.869 51.424 171.993 50.876 172.241 50.404C172.497 49.932 172.849 49.564 173.297 49.3C173.753 49.036 174.281 48.904 174.881 48.904C175.465 48.904 175.973 49.036 176.405 49.3C176.837 49.556 177.173 49.9 177.413 50.332C177.653 50.764 177.773 51.24 177.773 51.76C177.773 51.84 177.769 51.928 177.761 52.024C177.761 52.112 177.757 52.212 177.749 52.324H173.117C173.157 52.9 173.345 53.34 173.681 53.644C174.025 53.94 174.421 54.088 174.869 54.088C175.229 54.088 175.529 54.008 175.769 53.848C176.017 53.68 176.201 53.456 176.321 53.176H177.593C177.433 53.736 177.113 54.204 176.633 54.58C176.161 54.956 175.573 55.144 174.869 55.144ZM174.869 49.948C174.445 49.948 174.069 50.076 173.741 50.332C173.413 50.58 173.213 50.956 173.141 51.46H176.501C176.477 50.996 176.313 50.628 176.009 50.356C175.705 50.084 175.325 49.948 174.869 49.948ZM179.093 55V49.048H180.221L180.317 50.092C180.501 49.724 180.769 49.436 181.121 49.228C181.481 49.012 181.893 48.904 182.357 48.904C183.077 48.904 183.641 49.128 184.049 49.576C184.465 50.024 184.673 50.692 184.673 51.58V55H183.413V51.712C183.413 50.56 182.941 49.984 181.997 49.984C181.525 49.984 181.133 50.152 180.821 50.488C180.517 50.824 180.365 51.304 180.365 51.928V55H179.093ZM188.187 55.144C187.683 55.144 187.267 55.06 186.939 54.892C186.611 54.724 186.367 54.504 186.207 54.232C186.047 53.952 185.967 53.648 185.967 53.32C185.967 52.744 186.191 52.288 186.639 51.952C187.087 51.616 187.727 51.448 188.559 51.448H190.119V51.34C190.119 50.876 189.991 50.528 189.735 50.296C189.487 50.064 189.163 49.948 188.763 49.948C188.411 49.948 188.103 50.036 187.839 50.212C187.583 50.38 187.427 50.632 187.371 50.968H186.099C186.139 50.536 186.283 50.168 186.531 49.864C186.787 49.552 187.107 49.316 187.491 49.156C187.883 48.988 188.311 48.904 188.775 48.904C189.607 48.904 190.251 49.124 190.707 49.564C191.163 49.996 191.391 50.588 191.391 51.34V55H190.287L190.179 53.98C190.011 54.308 189.767 54.584 189.447 54.808C189.127 55.032 188.707 55.144 188.187 55.144ZM188.439 54.112C188.783 54.112 189.071 54.032 189.303 53.872C189.543 53.704 189.727 53.484 189.855 53.212C189.991 52.94 190.075 52.64 190.107 52.312H188.691C188.187 52.312 187.827 52.4 187.611 52.576C187.403 52.752 187.299 52.972 187.299 53.236C187.299 53.508 187.399 53.724 187.599 53.884C187.807 54.036 188.087 54.112 188.439 54.112ZM195.25 55.144C194.498 55.144 193.878 54.96 193.39 54.592C192.902 54.224 192.622 53.736 192.55 53.128H193.834C193.898 53.4 194.05 53.636 194.29 53.836C194.53 54.028 194.846 54.124 195.238 54.124C195.622 54.124 195.902 54.044 196.078 53.884C196.254 53.724 196.342 53.54 196.342 53.332C196.342 53.028 196.218 52.824 195.97 52.72C195.73 52.608 195.394 52.508 194.962 52.42C194.626 52.348 194.29 52.252 193.954 52.132C193.626 52.012 193.35 51.844 193.126 51.628C192.91 51.404 192.802 51.104 192.802 50.728C192.802 50.208 193.002 49.776 193.402 49.432C193.802 49.08 194.362 48.904 195.082 48.904C195.746 48.904 196.282 49.064 196.69 49.384C197.106 49.704 197.35 50.156 197.422 50.74H196.198C196.158 50.484 196.038 50.284 195.838 50.14C195.646 49.996 195.386 49.924 195.058 49.924C194.738 49.924 194.49 49.992 194.314 50.128C194.138 50.256 194.05 50.424 194.05 50.632C194.05 50.84 194.17 51.004 194.41 51.124C194.658 51.244 194.982 51.352 195.382 51.448C195.782 51.536 196.15 51.64 196.486 51.76C196.83 51.872 197.106 52.04 197.314 52.264C197.522 52.488 197.626 52.816 197.626 53.248C197.634 53.792 197.422 54.244 196.99 54.604C196.566 54.964 195.986 55.144 195.25 55.144ZM84.852 71V62.6H86.124V71H84.852ZM90.1566 71.144C89.4046 71.144 88.7846 70.96 88.2966 70.592C87.8086 70.224 87.5286 69.736 87.4566 69.128H88.7406C88.8046 69.4 88.9566 69.636 89.1966 69.836C89.4366 70.028 89.7526 70.124 90.1446 70.124C90.5286 70.124 90.8086 70.044 90.9846 69.884C91.1606 69.724 91.2486 69.54 91.2486 69.332C91.2486 69.028 91.1246 68.824 90.8766 68.72C90.6366 68.608 90.3006 68.508 89.8686 68.42C89.5326 68.348 89.1966 68.252 88.8606 68.132C88.5326 68.012 88.2566 67.844 88.0326 67.628C87.8166 67.404 87.7086 67.104 87.7086 66.728C87.7086 66.208 87.9086 65.776 88.3086 65.432C88.7086 65.08 89.2686 64.904 89.9886 64.904C90.6526 64.904 91.1886 65.064 91.5966 65.384C92.0126 65.704 92.2566 66.156 92.3286 66.74H91.1046C91.0646 66.484 90.9446 66.284 90.7446 66.14C90.5526 65.996 90.2926 65.924 89.9646 65.924C89.6446 65.924 89.3966 65.992 89.2206 66.128C89.0446 66.256 88.9566 66.424 88.9566 66.632C88.9566 66.84 89.0766 67.004 89.3166 67.124C89.5646 67.244 89.8886 67.352 90.2886 67.448C90.6886 67.536 91.0566 67.64 91.3926 67.76C91.7366 67.872 92.0126 68.04 92.2206 68.264C92.4286 68.488 92.5326 68.816 92.5326 69.248C92.5406 69.792 92.3286 70.244 91.8966 70.604C91.4726 70.964 90.8926 71.144 90.1566 71.144ZM96.7052 71.144C96.1372 71.144 95.6252 71.016 95.1692 70.76C94.7212 70.496 94.3652 70.132 94.1012 69.668C93.8372 69.196 93.7052 68.648 93.7052 68.024C93.7052 67.4 93.8372 66.856 94.1012 66.392C94.3732 65.92 94.7372 65.556 95.1932 65.3C95.6492 65.036 96.1572 64.904 96.7172 64.904C97.2852 64.904 97.7932 65.036 98.2412 65.3C98.6972 65.556 99.0572 65.92 99.3212 66.392C99.5932 66.856 99.7292 67.4 99.7292 68.024C99.7292 68.648 99.5932 69.196 99.3212 69.668C99.0572 70.132 98.6972 70.496 98.2412 70.76C97.7852 71.016 97.2732 71.144 96.7052 71.144ZM96.7052 70.052C97.0092 70.052 97.2892 69.976 97.5452 69.824C97.8092 69.672 98.0212 69.448 98.1812 69.152C98.3412 68.848 98.4212 68.472 98.4212 68.024C98.4212 67.576 98.3412 67.204 98.1812 66.908C98.0292 66.604 97.8212 66.376 97.5572 66.224C97.3012 66.072 97.0212 65.996 96.7172 65.996C96.4132 65.996 96.1292 66.072 95.8652 66.224C95.6092 66.376 95.4012 66.604 95.2412 66.908C95.0812 67.204 95.0012 67.576 95.0012 68.024C95.0012 68.472 95.0812 68.848 95.2412 69.152C95.4012 69.448 95.6092 69.672 95.8652 69.824C96.1212 69.976 96.4012 70.052 96.7052 70.052ZM101.105 71V62.36H102.377V71H101.105ZM106.004 71.144C105.5 71.144 105.084 71.06 104.756 70.892C104.428 70.724 104.184 70.504 104.024 70.232C103.864 69.952 103.784 69.648 103.784 69.32C103.784 68.744 104.008 68.288 104.456 67.952C104.904 67.616 105.544 67.448 106.376 67.448H107.936V67.34C107.936 66.876 107.808 66.528 107.552 66.296C107.304 66.064 106.98 65.948 106.58 65.948C106.228 65.948 105.92 66.036 105.656 66.212C105.4 66.38 105.244 66.632 105.188 66.968H103.916C103.956 66.536 104.1 66.168 104.348 65.864C104.604 65.552 104.924 65.316 105.308 65.156C105.7 64.988 106.128 64.904 106.592 64.904C107.424 64.904 108.068 65.124 108.524 65.564C108.98 65.996 109.208 66.588 109.208 67.34V71H108.104L107.996 69.98C107.828 70.308 107.584 70.584 107.264 70.808C106.944 71.032 106.524 71.144 106.004 71.144ZM106.256 70.112C106.6 70.112 106.888 70.032 107.12 69.872C107.36 69.704 107.544 69.484 107.672 69.212C107.808 68.94 107.892 68.64 107.924 68.312H106.508C106.004 68.312 105.644 68.4 105.428 68.576C105.22 68.752 105.116 68.972 105.116 69.236C105.116 69.508 105.216 69.724 105.416 69.884C105.624 70.036 105.904 70.112 106.256 70.112ZM113.403 71.144C112.827 71.144 112.319 71.008 111.879 70.736C111.439 70.464 111.095 70.092 110.847 69.62C110.599 69.148 110.475 68.612 110.475 68.012C110.475 67.412 110.599 66.88 110.847 66.416C111.095 65.944 111.439 65.576 111.879 65.312C112.327 65.04 112.839 64.904 113.415 64.904C113.887 64.904 114.299 64.996 114.651 65.18C115.011 65.364 115.291 65.624 115.491 65.96V62.36H116.763V71H115.623L115.491 70.076C115.299 70.356 115.035 70.604 114.699 70.82C114.363 71.036 113.931 71.144 113.403 71.144ZM113.631 70.04C114.175 70.04 114.619 69.852 114.963 69.476C115.315 69.1 115.491 68.616 115.491 68.024C115.491 67.424 115.315 66.94 114.963 66.572C114.619 66.196 114.175 66.008 113.631 66.008C113.087 66.008 112.639 66.196 112.287 66.572C111.935 66.94 111.759 67.424 111.759 68.024C111.759 68.416 111.839 68.764 111.999 69.068C112.159 69.372 112.379 69.612 112.659 69.788C112.947 69.956 113.271 70.04 113.631 70.04ZM121.151 71.144C120.583 71.144 120.071 71.016 119.615 70.76C119.167 70.496 118.811 70.132 118.547 69.668C118.283 69.196 118.151 68.648 118.151 68.024C118.151 67.4 118.283 66.856 118.547 66.392C118.819 65.92 119.183 65.556 119.639 65.3C120.095 65.036 120.603 64.904 121.163 64.904C121.731 64.904 122.239 65.036 122.687 65.3C123.143 65.556 123.503 65.92 123.767 66.392C124.039 66.856 124.174 67.4 124.174 68.024C124.174 68.648 124.039 69.196 123.767 69.668C123.503 70.132 123.143 70.496 122.687 70.76C122.231 71.016 121.719 71.144 121.151 71.144ZM121.151 70.052C121.455 70.052 121.735 69.976 121.991 69.824C122.255 69.672 122.467 69.448 122.627 69.152C122.787 68.848 122.867 68.472 122.867 68.024C122.867 67.576 122.787 67.204 122.627 66.908C122.475 66.604 122.267 66.376 122.003 66.224C121.747 66.072 121.467 65.996 121.163 65.996C120.859 65.996 120.575 66.072 120.311 66.224C120.055 66.376 119.847 66.604 119.687 66.908C119.527 67.204 119.447 67.576 119.447 68.024C119.447 68.472 119.527 68.848 119.687 69.152C119.847 69.448 120.055 69.672 120.311 69.824C120.567 69.976 120.847 70.052 121.151 70.052ZM127.926 71.144C127.174 71.144 126.554 70.96 126.066 70.592C125.578 70.224 125.298 69.736 125.226 69.128H126.51C126.574 69.4 126.726 69.636 126.966 69.836C127.206 70.028 127.522 70.124 127.914 70.124C128.298 70.124 128.578 70.044 128.754 69.884C128.93 69.724 129.018 69.54 129.018 69.332C129.018 69.028 128.894 68.824 128.646 68.72C128.406 68.608 128.07 68.508 127.638 68.42C127.302 68.348 126.966 68.252 126.63 68.132C126.302 68.012 126.026 67.844 125.802 67.628C125.586 67.404 125.478 67.104 125.478 66.728C125.478 66.208 125.678 65.776 126.078 65.432C126.478 65.08 127.038 64.904 127.758 64.904C128.422 64.904 128.958 65.064 129.366 65.384C129.782 65.704 130.026 66.156 130.098 66.74H128.874C128.834 66.484 128.714 66.284 128.514 66.14C128.322 65.996 128.062 65.924 127.734 65.924C127.414 65.924 127.166 65.992 126.99 66.128C126.814 66.256 126.726 66.424 126.726 66.632C126.726 66.84 126.846 67.004 127.086 67.124C127.334 67.244 127.658 67.352 128.058 67.448C128.458 67.536 128.826 67.64 129.162 67.76C129.506 67.872 129.782 68.04 129.99 68.264C130.198 68.488 130.302 68.816 130.302 69.248C130.31 69.792 130.098 70.244 129.666 70.604C129.242 70.964 128.662 71.144 127.926 71.144ZM137.498 71.144C136.914 71.144 136.394 71.016 135.938 70.76C135.49 70.496 135.138 70.132 134.882 69.668C134.626 69.204 134.498 68.664 134.498 68.048C134.498 67.424 134.622 66.876 134.87 66.404C135.126 65.932 135.478 65.564 135.926 65.3C136.382 65.036 136.91 64.904 137.51 64.904C138.094 64.904 138.602 65.036 139.034 65.3C139.466 65.556 139.802 65.9 140.042 66.332C140.282 66.764 140.402 67.24 140.402 67.76C140.402 67.84 140.398 67.928 140.39 68.024C140.39 68.112 140.386 68.212 140.378 68.324H135.746C135.786 68.9 135.974 69.34 136.31 69.644C136.654 69.94 137.05 70.088 137.498 70.088C137.858 70.088 138.158 70.008 138.398 69.848C138.646 69.68 138.83 69.456 138.95 69.176H140.222C140.062 69.736 139.742 70.204 139.262 70.58C138.79 70.956 138.202 71.144 137.498 71.144ZM137.498 65.948C137.074 65.948 136.698 66.076 136.37 66.332C136.042 66.58 135.842 66.956 135.77 67.46H139.13C139.106 66.996 138.942 66.628 138.638 66.356C138.334 66.084 137.954 65.948 137.498 65.948ZM147.457 71.144C146.881 71.144 146.373 71.008 145.933 70.736C145.493 70.464 145.149 70.092 144.901 69.62C144.653 69.148 144.529 68.612 144.529 68.012C144.529 67.412 144.653 66.88 144.901 66.416C145.149 65.944 145.493 65.576 145.933 65.312C146.381 65.04 146.893 64.904 147.469 64.904C147.941 64.904 148.353 64.996 148.705 65.18C149.065 65.364 149.345 65.624 149.545 65.96V62.36H150.817V71H149.677L149.545 70.076C149.353 70.356 149.089 70.604 148.753 70.82C148.417 71.036 147.985 71.144 147.457 71.144ZM147.685 70.04C148.229 70.04 148.673 69.852 149.017 69.476C149.369 69.1 149.545 68.616 149.545 68.024C149.545 67.424 149.369 66.94 149.017 66.572C148.673 66.196 148.229 66.008 147.685 66.008C147.141 66.008 146.693 66.196 146.341 66.572C145.989 66.94 145.813 67.424 145.813 68.024C145.813 68.416 145.893 68.764 146.053 69.068C146.213 69.372 146.433 69.612 146.713 69.788C147.001 69.956 147.325 70.04 147.685 70.04ZM155.205 71.144C154.621 71.144 154.101 71.016 153.645 70.76C153.197 70.496 152.845 70.132 152.589 69.668C152.333 69.204 152.205 68.664 152.205 68.048C152.205 67.424 152.329 66.876 152.577 66.404C152.833 65.932 153.185 65.564 153.633 65.3C154.089 65.036 154.617 64.904 155.217 64.904C155.801 64.904 156.309 65.036 156.741 65.3C157.173 65.556 157.509 65.9 157.749 66.332C157.989 66.764 158.109 67.24 158.109 67.76C158.109 67.84 158.105 67.928 158.097 68.024C158.097 68.112 158.093 68.212 158.085 68.324H153.453C153.493 68.9 153.681 69.34 154.017 69.644C154.361 69.94 154.757 70.088 155.205 70.088C155.565 70.088 155.865 70.008 156.105 69.848C156.353 69.68 156.537 69.456 156.657 69.176H157.929C157.769 69.736 157.449 70.204 156.969 70.58C156.497 70.956 155.909 71.144 155.205 71.144ZM155.205 65.948C154.781 65.948 154.405 66.076 154.077 66.332C153.749 66.58 153.549 66.956 153.477 67.46H156.837C156.813 66.996 156.649 66.628 156.345 66.356C156.041 66.084 155.661 65.948 155.205 65.948ZM162.5 71V62.6H165.392C166.056 62.6 166.6 62.712 167.024 62.936C167.456 63.16 167.776 63.464 167.984 63.848C168.192 64.224 168.296 64.644 168.296 65.108C168.296 65.628 168.156 66.1 167.876 66.524C167.604 66.948 167.176 67.252 166.592 67.436L168.38 71H166.904L165.272 67.616H163.772V71H162.5ZM163.772 66.656H165.32C165.896 66.656 166.316 66.516 166.58 66.236C166.852 65.956 166.988 65.592 166.988 65.144C166.988 64.696 166.856 64.34 166.592 64.076C166.328 63.804 165.9 63.668 165.308 63.668H163.772V66.656ZM172.174 71.144C171.59 71.144 171.07 71.016 170.614 70.76C170.166 70.496 169.814 70.132 169.558 69.668C169.302 69.204 169.174 68.664 169.174 68.048C169.174 67.424 169.298 66.876 169.546 66.404C169.802 65.932 170.154 65.564 170.602 65.3C171.058 65.036 171.586 64.904 172.186 64.904C172.77 64.904 173.278 65.036 173.71 65.3C174.142 65.556 174.478 65.9 174.718 66.332C174.958 66.764 175.078 67.24 175.078 67.76C175.078 67.84 175.074 67.928 175.066 68.024C175.066 68.112 175.062 68.212 175.054 68.324H170.422C170.462 68.9 170.65 69.34 170.986 69.644C171.33 69.94 171.726 70.088 172.174 70.088C172.534 70.088 172.834 70.008 173.074 69.848C173.322 69.68 173.506 69.456 173.626 69.176H174.898C174.738 69.736 174.418 70.204 173.938 70.58C173.466 70.956 172.878 71.144 172.174 71.144ZM172.174 65.948C171.75 65.948 171.374 66.076 171.046 66.332C170.718 66.58 170.518 66.956 170.446 67.46H173.806C173.782 66.996 173.618 66.628 173.314 66.356C173.01 66.084 172.63 65.948 172.174 65.948ZM179.218 71.144C178.634 71.144 178.11 71.012 177.646 70.748C177.19 70.484 176.83 70.12 176.566 69.656C176.31 69.184 176.182 68.64 176.182 68.024C176.182 67.408 176.31 66.868 176.566 66.404C176.83 65.932 177.19 65.564 177.646 65.3C178.11 65.036 178.634 64.904 179.218 64.904C179.954 64.904 180.57 65.096 181.066 65.48C181.57 65.864 181.894 66.384 182.038 67.04H180.706C180.626 66.712 180.45 66.456 180.178 66.272C179.906 66.088 179.586 65.996 179.218 65.996C178.906 65.996 178.618 66.076 178.354 66.236C178.09 66.388 177.878 66.616 177.718 66.92C177.558 67.216 177.478 67.584 177.478 68.024C177.478 68.464 177.558 68.836 177.718 69.14C177.878 69.436 178.09 69.664 178.354 69.824C178.618 69.984 178.906 70.064 179.218 70.064C179.586 70.064 179.906 69.972 180.178 69.788C180.45 69.604 180.626 69.344 180.706 69.008H182.038C181.902 69.648 181.582 70.164 181.078 70.556C180.574 70.948 179.954 71.144 179.218 71.144ZM186.201 71.144C185.617 71.144 185.097 71.016 184.641 70.76C184.193 70.496 183.841 70.132 183.585 69.668C183.329 69.204 183.201 68.664 183.201 68.048C183.201 67.424 183.325 66.876 183.573 66.404C183.829 65.932 184.181 65.564 184.629 65.3C185.085 65.036 185.613 64.904 186.213 64.904C186.797 64.904 187.305 65.036 187.737 65.3C188.169 65.556 188.505 65.9 188.745 66.332C188.985 66.764 189.105 67.24 189.105 67.76C189.105 67.84 189.101 67.928 189.093 68.024C189.093 68.112 189.089 68.212 189.081 68.324H184.449C184.489 68.9 184.677 69.34 185.013 69.644C185.357 69.94 185.753 70.088 186.201 70.088C186.561 70.088 186.861 70.008 187.101 69.848C187.349 69.68 187.533 69.456 187.653 69.176H188.925C188.765 69.736 188.445 70.204 187.965 70.58C187.493 70.956 186.905 71.144 186.201 71.144ZM186.201 65.948C185.777 65.948 185.401 66.076 185.073 66.332C184.745 66.58 184.545 66.956 184.473 67.46H187.833C187.809 66.996 187.645 66.628 187.341 66.356C187.037 66.084 186.657 65.948 186.201 65.948ZM190.425 71V65.048H191.553L191.649 66.092C191.833 65.724 192.101 65.436 192.453 65.228C192.813 65.012 193.225 64.904 193.689 64.904C194.409 64.904 194.973 65.128 195.381 65.576C195.797 66.024 196.005 66.692 196.005 67.58V71H194.745V67.712C194.745 66.56 194.273 65.984 193.329 65.984C192.857 65.984 192.465 66.152 192.153 66.488C191.849 66.824 191.697 67.304 191.697 67.928V71H190.425ZM199.999 71C199.415 71 198.951 70.86 198.607 70.58C198.263 70.292 198.091 69.784 198.091 69.056V66.116H197.071V65.048H198.091L198.247 63.536H199.363V65.048H201.043V66.116H199.363V69.056C199.363 69.384 199.431 69.612 199.567 69.74C199.711 69.86 199.955 69.92 200.299 69.92H200.983V71H199.999ZM204.986 71.144C204.402 71.144 203.882 71.016 203.426 70.76C202.978 70.496 202.626 70.132 202.37 69.668C202.114 69.204 201.986 68.664 201.986 68.048C201.986 67.424 202.11 66.876 202.358 66.404C202.614 65.932 202.966 65.564 203.414 65.3C203.87 65.036 204.398 64.904 204.998 64.904C205.582 64.904 206.09 65.036 206.522 65.3C206.954 65.556 207.29 65.9 207.53 66.332C207.77 66.764 207.89 67.24 207.89 67.76C207.89 67.84 207.886 67.928 207.878 68.024C207.878 68.112 207.874 68.212 207.866 68.324H203.234C203.274 68.9 203.462 69.34 203.798 69.644C204.142 69.94 204.538 70.088 204.986 70.088C205.346 70.088 205.646 70.008 205.886 69.848C206.134 69.68 206.318 69.456 206.438 69.176H207.71C207.55 69.736 207.23 70.204 206.75 70.58C206.278 70.956 205.69 71.144 204.986 71.144ZM204.986 65.948C204.562 65.948 204.186 66.076 203.858 66.332C203.53 66.58 203.33 66.956 203.258 67.46H206.618C206.594 66.996 206.43 66.628 206.126 66.356C205.822 66.084 205.442 65.948 204.986 65.948ZM88.596 87.144C87.764 87.144 87.044 86.964 86.436 86.604C85.836 86.236 85.372 85.728 85.044 85.08C84.716 84.424 84.552 83.668 84.552 82.812C84.552 81.948 84.716 81.192 85.044 80.544C85.372 79.888 85.836 79.376 86.436 79.008C87.044 78.64 87.764 78.456 88.596 78.456C89.58 78.456 90.384 78.696 91.008 79.176C91.632 79.656 92.028 80.328 92.196 81.192H90.78C90.668 80.704 90.428 80.316 90.06 80.028C89.692 79.74 89.2 79.596 88.584 79.596C87.744 79.596 87.08 79.884 86.592 80.46C86.104 81.028 85.86 81.812 85.86 82.812C85.86 83.804 86.104 84.584 86.592 85.152C87.08 85.72 87.744 86.004 88.584 86.004C89.2 86.004 89.692 85.868 90.06 85.596C90.428 85.324 90.668 84.952 90.78 84.48H92.196C92.028 85.312 91.632 85.964 91.008 86.436C90.384 86.908 89.58 87.144 88.596 87.144ZM96.3302 87.144C95.7622 87.144 95.2502 87.016 94.7942 86.76C94.3462 86.496 93.9902 86.132 93.7262 85.668C93.4622 85.196 93.3302 84.648 93.3302 84.024C93.3302 83.4 93.4622 82.856 93.7262 82.392C93.9982 81.92 94.3622 81.556 94.8182 81.3C95.2742 81.036 95.7822 80.904 96.3422 80.904C96.9102 80.904 97.4182 81.036 97.8662 81.3C98.3222 81.556 98.6822 81.92 98.9462 82.392C99.2182 82.856 99.3542 83.4 99.3542 84.024C99.3542 84.648 99.2182 85.196 98.9462 85.668C98.6822 86.132 98.3222 86.496 97.8662 86.76C97.4102 87.016 96.8982 87.144 96.3302 87.144ZM96.3302 86.052C96.6342 86.052 96.9142 85.976 97.1702 85.824C97.4342 85.672 97.6462 85.448 97.8062 85.152C97.9662 84.848 98.0462 84.472 98.0462 84.024C98.0462 83.576 97.9662 83.204 97.8062 82.908C97.6542 82.604 97.4462 82.376 97.1822 82.224C96.9262 82.072 96.6462 81.996 96.3422 81.996C96.0382 81.996 95.7542 82.072 95.4902 82.224C95.2342 82.376 95.0262 82.604 94.8662 82.908C94.7062 83.204 94.6262 83.576 94.6262 84.024C94.6262 84.472 94.7062 84.848 94.8662 85.152C95.0262 85.448 95.2342 85.672 95.4902 85.824C95.7462 85.976 96.0262 86.052 96.3302 86.052ZM100.73 87V81.048H101.858L101.954 82.092C102.138 81.724 102.406 81.436 102.758 81.228C103.118 81.012 103.53 80.904 103.994 80.904C104.714 80.904 105.278 81.128 105.686 81.576C106.102 82.024 106.31 82.692 106.31 83.58V87H105.05V83.712C105.05 82.56 104.578 81.984 103.634 81.984C103.162 81.984 102.77 82.152 102.458 82.488C102.154 82.824 102.002 83.304 102.002 83.928V87H100.73ZM110.304 87C109.72 87 109.256 86.86 108.912 86.58C108.568 86.292 108.396 85.784 108.396 85.056V82.116H107.376V81.048H108.396L108.552 79.536H109.668V81.048H111.348V82.116H109.668V85.056C109.668 85.384 109.736 85.612 109.872 85.74C110.016 85.86 110.26 85.92 110.604 85.92H111.288V87H110.304ZM114.675 87.144C114.171 87.144 113.755 87.06 113.427 86.892C113.099 86.724 112.855 86.504 112.695 86.232C112.535 85.952 112.455 85.648 112.455 85.32C112.455 84.744 112.679 84.288 113.127 83.952C113.575 83.616 114.215 83.448 115.047 83.448H116.607V83.34C116.607 82.876 116.479 82.528 116.223 82.296C115.975 82.064 115.651 81.948 115.251 81.948C114.899 81.948 114.591 82.036 114.327 82.212C114.071 82.38 113.915 82.632 113.859 82.968H112.587C112.627 82.536 112.771 82.168 113.019 81.864C113.275 81.552 113.595 81.316 113.979 81.156C114.371 80.988 114.799 80.904 115.263 80.904C116.095 80.904 116.739 81.124 117.195 81.564C117.651 81.996 117.879 82.588 117.879 83.34V87H116.775L116.667 85.98C116.499 86.308 116.255 86.584 115.935 86.808C115.615 87.032 115.195 87.144 114.675 87.144ZM114.927 86.112C115.271 86.112 115.559 86.032 115.791 85.872C116.031 85.704 116.215 85.484 116.343 85.212C116.479 84.94 116.563 84.64 116.595 84.312H115.179C114.675 84.312 114.315 84.4 114.099 84.576C113.891 84.752 113.787 84.972 113.787 85.236C113.787 85.508 113.887 85.724 114.087 85.884C114.295 86.036 114.575 86.112 114.927 86.112ZM121.741 87C121.157 87 120.693 86.86 120.349 86.58C120.005 86.292 119.833 85.784 119.833 85.056V82.116H118.813V81.048H119.833L119.989 79.536H121.105V81.048H122.785V82.116H121.105V85.056C121.105 85.384 121.173 85.612 121.309 85.74C121.453 85.86 121.697 85.92 122.041 85.92H122.725V87H121.741ZM126.729 87.144C126.161 87.144 125.649 87.016 125.193 86.76C124.745 86.496 124.389 86.132 124.125 85.668C123.861 85.196 123.729 84.648 123.729 84.024C123.729 83.4 123.861 82.856 124.125 82.392C124.397 81.92 124.761 81.556 125.217 81.3C125.673 81.036 126.181 80.904 126.741 80.904C127.309 80.904 127.817 81.036 128.265 81.3C128.721 81.556 129.081 81.92 129.345 82.392C129.617 82.856 129.753 83.4 129.753 84.024C129.753 84.648 129.617 85.196 129.345 85.668C129.081 86.132 128.721 86.496 128.265 86.76C127.809 87.016 127.297 87.144 126.729 87.144ZM126.729 86.052C127.033 86.052 127.313 85.976 127.569 85.824C127.833 85.672 128.045 85.448 128.205 85.152C128.365 84.848 128.445 84.472 128.445 84.024C128.445 83.576 128.365 83.204 128.205 82.908C128.053 82.604 127.845 82.376 127.581 82.224C127.325 82.072 127.045 81.996 126.741 81.996C126.437 81.996 126.153 82.072 125.889 82.224C125.633 82.376 125.425 82.604 125.265 82.908C125.105 83.204 125.025 83.576 125.025 84.024C125.025 84.472 125.105 84.848 125.265 85.152C125.425 85.448 125.633 85.672 125.889 85.824C126.145 85.976 126.425 86.052 126.729 86.052Z" fill="#E8A857"/>
<g clip-path="url(#clip0_161_56575)">
<path d="M0.57959 20.1684C0.57959 14.8071 2.5503 10.2118 6.46855 6.35909C10.3636 2.50642 15.0701 0.580078 20.5418 0.580078C25.967 0.580078 30.604 2.52962 34.4759 6.40551C38.3709 10.2814 40.3185 14.9464 40.3185 20.3773C40.3185 25.8545 38.3709 30.4963 34.4527 34.3026C30.5344 38.132 25.7815 40.0352 20.2404 40.0352C15.3252 40.0352 10.92 38.3409 7.02498 34.9292C2.73578 31.1926 0.57959 26.2491 0.57959 20.1684ZM6.37581 20.238C6.37581 24.4388 7.79008 27.8969 10.6186 30.6124C13.424 33.3278 16.6699 34.6739 20.3563 34.6739C24.3441 34.6739 27.7059 33.3046 30.4417 30.5427C33.1775 27.7577 34.5454 24.346 34.5454 20.3308C34.5454 16.2693 33.2007 12.8808 30.4881 10.1189C27.7986 7.35707 24.46 5.98775 20.4954 5.98775C16.5308 5.98775 13.1922 7.35707 10.4795 10.1189C7.72053 12.8576 6.37581 16.2229 6.37581 20.238Z" fill="#D49945"/>
<path d="M6.23682 20.2613C6.23682 24.5086 7.67428 28.0131 10.526 30.7518C13.3546 33.4904 16.6468 34.8597 20.3564 34.8597C24.3906 34.8597 27.7987 33.4672 30.5577 30.6821C33.3399 27.8507 34.7078 24.4157 34.7078 20.3542C34.7078 16.2462 33.3399 12.8113 30.6041 10.0262C27.8915 7.24117 24.5065 5.84863 20.4955 5.84863C16.4845 5.84863 13.1227 7.24117 10.3637 10.0262C7.60472 12.8113 6.23682 16.1998 6.23682 20.2613Z" fill="#1C4000"/>
<path d="M31.7169 20.4699C31.7169 18.149 31.0909 16.2459 29.8158 14.7837C28.5406 13.2983 26.9177 12.5557 24.9933 12.5557C22.9299 12.5557 21.2605 13.2751 19.9854 14.6909C18.7102 16.1298 18.061 18.0098 18.061 20.3306C18.061 22.6051 18.7102 24.485 19.9854 25.9704C21.2374 27.4093 22.9067 28.1288 24.9701 28.1288C26.9177 28.1288 28.5174 27.3861 29.7694 25.924C31.0677 24.485 31.7169 22.6515 31.7169 20.4699Z" fill="#B27D38"/>
<path d="M47.9465 45.6055H42.4053V14.1342H47.9465V16.7568C50.1258 14.5752 52.6066 13.4844 55.3888 13.4844C58.6811 13.4844 61.4169 14.6912 63.5499 17.1282C65.7061 19.5419 66.7958 22.5823 66.7958 26.2725C66.7958 29.8698 65.7293 32.8638 63.5731 35.2775C61.4401 37.668 58.7506 38.8517 55.5047 38.8517C52.6994 38.8517 50.1954 37.7144 47.9696 35.4632V45.6055H47.9465ZM61.1155 26.2957C61.1155 23.998 60.4895 22.1181 59.2375 20.6791C57.9623 19.217 56.3857 18.4743 54.4614 18.4743C52.4211 18.4743 50.775 19.1706 49.523 20.5863C48.2479 22.002 47.6219 23.8587 47.6219 26.1564C47.6219 28.4077 48.2479 30.2644 49.523 31.7266C50.775 33.1655 52.4211 33.8618 54.4382 33.8618C56.3626 33.8618 57.9391 33.1423 59.1911 31.7033C60.4895 30.2644 61.1155 28.4541 61.1155 26.2957Z" fill="#D49945"/>
<path d="M74.4001 14.1338V38.155H68.8589V14.1338H74.4001Z" fill="#D49945"/>
<path d="M71.6182 12.0687C70.5053 12.0687 69.578 11.7206 68.8592 11.0475C68.1405 10.3745 67.7695 9.51574 67.7695 8.49455C67.7695 7.47336 68.1405 6.61463 68.8592 5.96478C69.578 5.31493 70.5053 4.9668 71.6182 4.9668C72.7311 4.9668 73.6585 5.29172 74.3772 5.96478C75.096 6.61463 75.4669 7.47336 75.4669 8.49455C75.4669 9.51574 75.096 10.3745 74.3772 11.0475C73.6585 11.7206 72.7311 12.0687 71.6182 12.0687Z" fill="#D39A46"/>
<path d="M26.4771 23.8588C25.3642 23.8588 24.4368 23.5106 23.7181 22.8376C22.9994 22.1645 22.6284 21.3058 22.6284 20.2846C22.6284 19.2634 22.9994 18.4047 23.7181 17.7548C24.4368 17.105 25.3642 16.7568 26.4771 16.7568C27.59 16.7568 28.5174 17.0818 29.2361 17.7548C29.9548 18.4047 30.3258 19.2634 30.3258 20.2846C30.3258 21.3058 29.9548 22.1645 29.2361 22.8376C28.5174 23.5106 27.59 23.8588 26.4771 23.8588Z" fill="#F5BD7A"/>
</g>
<defs>
<clipPath id="clip0_161_56575">
<rect width="76" height="46" fill="white"/>
</clipPath>
</defs>
</svg>
