<svg width="133" height="52" viewBox="0 0 133 52" fill="none" xmlns="http://www.w3.org/2000/svg">
<path d="M3.75227 48L3.75227 38.2H10.1503V39.642H5.54427L5.54427 42.33H9.73027L9.73027 43.73H5.54427L5.54427 46.558H10.1503V48H3.75227ZM11.944 48L11.944 41.056H13.526L13.68 41.994C13.904 41.658 14.198 41.392 14.562 41.196C14.9354 40.9907 15.3647 40.888 15.85 40.888C16.9234 40.888 17.684 41.3033 18.132 42.134C18.384 41.7513 18.72 41.448 19.14 41.224C19.5694 41 20.036 40.888 20.54 40.888C21.4454 40.888 22.1407 41.1587 22.626 41.7C23.1114 42.2413 23.354 43.0347 23.354 44.08V48H21.562V44.248C21.562 43.6507 21.4454 43.1933 21.212 42.876C20.988 42.5587 20.638 42.4 20.162 42.4C19.6767 42.4 19.2847 42.5773 18.986 42.932C18.6967 43.2867 18.552 43.7813 18.552 44.416V48H16.76V44.248C16.76 43.6507 16.6434 43.1933 16.41 42.876C16.1767 42.5587 15.8174 42.4 15.332 42.4C14.856 42.4 14.4687 42.5773 14.17 42.932C13.8807 43.2867 13.736 43.7813 13.736 44.416V48H11.944ZM25.1954 51.08L25.1954 41.056H26.7914L26.9874 42.05C27.2114 41.742 27.5054 41.4713 27.8694 41.238C28.2427 41.0047 28.7234 40.888 29.3114 40.888C29.9647 40.888 30.548 41.0467 31.0614 41.364C31.5747 41.6813 31.9807 42.1153 32.2794 42.666C32.578 43.2167 32.7274 43.842 32.7274 44.542C32.7274 45.242 32.578 45.8673 32.2794 46.418C31.9807 46.9593 31.5747 47.3887 31.0614 47.706C30.548 48.014 29.9647 48.168 29.3114 48.168C28.7887 48.168 28.3314 48.07 27.9394 47.874C27.5474 47.678 27.23 47.4027 26.9874 47.048L26.9874 51.08H25.1954ZM28.9334 46.6C29.5027 46.6 29.974 46.4087 30.3474 46.026C30.7207 45.6433 30.9074 45.1487 30.9074 44.542C30.9074 43.9353 30.7207 43.436 30.3474 43.044C29.974 42.652 29.5027 42.456 28.9334 42.456C28.3547 42.456 27.8787 42.652 27.5054 43.044C27.1414 43.4267 26.9594 43.9213 26.9594 44.528C26.9594 45.1347 27.1414 45.634 27.5054 46.026C27.8787 46.4087 28.3547 46.6 28.9334 46.6ZM34.4682 48V41.056H36.0642L36.2322 42.358C36.4842 41.91 36.8248 41.5553 37.2542 41.294C37.6928 41.0233 38.2062 40.888 38.7942 40.888V42.778H38.2902C37.8982 42.778 37.5482 42.8387 37.2402 42.96C36.9322 43.0813 36.6895 43.2913 36.5122 43.59C36.3442 43.8887 36.2602 44.304 36.2602 44.836V48H34.4682ZM43.4099 48.168C42.7099 48.168 42.0892 48.0187 41.5479 47.72C41.0066 47.4213 40.5819 47.0013 40.2739 46.46C39.9659 45.9187 39.8119 45.2933 39.8119 44.584C39.8119 43.8653 39.9612 43.226 40.2599 42.666C40.5679 42.106 40.9879 41.672 41.5199 41.364C42.0612 41.0467 42.6959 40.888 43.4239 40.888C44.1052 40.888 44.7072 41.0373 45.2299 41.336C45.7526 41.6347 46.1586 42.0453 46.4479 42.568C46.7466 43.0813 46.8959 43.6553 46.8959 44.29C46.8959 44.3927 46.8912 44.5 46.8819 44.612C46.8819 44.724 46.8772 44.8407 46.8679 44.962H41.5899C41.6272 45.5033 41.8139 45.928 42.1499 46.236C42.4952 46.544 42.9106 46.698 43.3959 46.698C43.7599 46.698 44.0632 46.6187 44.3059 46.46C44.5579 46.292 44.7446 46.0773 44.8659 45.816H46.6859C46.5552 46.2547 46.3359 46.656 46.0279 47.02C45.7292 47.3747 45.3559 47.6547 44.9079 47.86C44.4692 48.0653 43.9699 48.168 43.4099 48.168ZM43.4239 42.344C42.9852 42.344 42.5979 42.47 42.2619 42.722C41.9259 42.9647 41.7112 43.338 41.6179 43.842H45.0759C45.0479 43.3847 44.8799 43.0207 44.5719 42.75C44.2639 42.4793 43.8812 42.344 43.4239 42.344ZM51.9171 48.168C51.2171 48.168 50.5964 48.0187 50.0551 47.72C49.5138 47.4213 49.0891 47.0013 48.7811 46.46C48.4731 45.9187 48.3191 45.2933 48.3191 44.584C48.3191 43.8653 48.4684 43.226 48.7671 42.666C49.0751 42.106 49.4951 41.672 50.0271 41.364C50.5684 41.0467 51.2031 40.888 51.9311 40.888C52.6124 40.888 53.2144 41.0373 53.7371 41.336C54.2598 41.6347 54.6658 42.0453 54.9551 42.568C55.2538 43.0813 55.4031 43.6553 55.4031 44.29C55.4031 44.3927 55.3984 44.5 55.3891 44.612C55.3891 44.724 55.3844 44.8407 55.3751 44.962H50.0971C50.1344 45.5033 50.3211 45.928 50.6571 46.236C51.0024 46.544 51.4178 46.698 51.9031 46.698C52.2671 46.698 52.5704 46.6187 52.8131 46.46C53.0651 46.292 53.2518 46.0773 53.3731 45.816H55.1931C55.0624 46.2547 54.8431 46.656 54.5351 47.02C54.2364 47.3747 53.8631 47.6547 53.4151 47.86C52.9764 48.0653 52.4771 48.168 51.9171 48.168ZM51.9311 42.344C51.4924 42.344 51.1051 42.47 50.7691 42.722C50.4331 42.9647 50.2184 43.338 50.1251 43.842H53.5831C53.5551 43.3847 53.3871 43.0207 53.0791 42.75C52.7711 42.4793 52.3884 42.344 51.9311 42.344ZM57.0503 48V41.056H58.6323L58.7723 42.232C58.9869 41.8213 59.2949 41.4947 59.6963 41.252C60.1069 41.0093 60.5876 40.888 61.1383 40.888C61.9969 40.888 62.6643 41.1587 63.1403 41.7C63.6163 42.2413 63.8543 43.0347 63.8543 44.08V48H62.0623V44.248C62.0623 43.6507 61.9409 43.1933 61.6983 42.876C61.4556 42.5587 61.0776 42.4 60.5643 42.4C60.0603 42.4 59.6449 42.5773 59.3183 42.932C59.0009 43.2867 58.8423 43.7813 58.8423 44.416V48H57.0503ZM68.8999 48.168C68.2465 48.168 67.6632 48.0093 67.1499 47.692C66.6365 47.3747 66.2305 46.9407 65.9319 46.39C65.6332 45.8393 65.4839 45.214 65.4839 44.514C65.4839 43.814 65.6332 43.1933 65.9319 42.652C66.2305 42.1013 66.6365 41.672 67.1499 41.364C67.6632 41.0467 68.2465 40.888 68.8999 40.888C69.4225 40.888 69.8799 40.986 70.2719 41.182C70.6639 41.378 70.9812 41.6533 71.2239 42.008V37.92H73.0159V48H71.4199L71.2239 47.006C70.9999 47.314 70.7012 47.5847 70.3279 47.818C69.9639 48.0513 69.4879 48.168 68.8999 48.168ZM69.2779 46.6C69.8565 46.6 70.3279 46.4087 70.6919 46.026C71.0652 45.634 71.2519 45.1347 71.2519 44.528C71.2519 43.9213 71.0652 43.4267 70.6919 43.044C70.3279 42.652 69.8565 42.456 69.2779 42.456C68.7085 42.456 68.2372 42.6473 67.8639 43.03C67.4905 43.4127 67.3039 43.9073 67.3039 44.514C67.3039 45.1207 67.4905 45.62 67.8639 46.012C68.2372 46.404 68.7085 46.6 69.2779 46.6ZM75.9467 39.978C75.62 39.978 75.3493 39.88 75.1347 39.684C74.9293 39.488 74.8267 39.2407 74.8267 38.942C74.8267 38.6433 74.9293 38.4007 75.1347 38.214C75.3493 38.018 75.62 37.92 75.9467 37.92C76.2733 37.92 76.5393 38.018 76.7447 38.214C76.9593 38.4007 77.0667 38.6433 77.0667 38.942C77.0667 39.2407 76.9593 39.488 76.7447 39.684C76.5393 39.88 76.2733 39.978 75.9467 39.978ZM75.0507 48V41.056H76.8427V48H75.0507ZM78.8531 48V41.056H80.4351L80.5891 41.994C80.8131 41.658 81.1071 41.392 81.4711 41.196C81.8444 40.9907 82.2738 40.888 82.7591 40.888C83.8324 40.888 84.5931 41.3033 85.0411 42.134C85.2931 41.7513 85.6291 41.448 86.0491 41.224C86.4784 41 86.9451 40.888 87.4491 40.888C88.3544 40.888 89.0498 41.1587 89.5351 41.7C90.0204 42.2413 90.2631 43.0347 90.2631 44.08V48H88.4711V44.248C88.4711 43.6507 88.3544 43.1933 88.1211 42.876C87.8971 42.5587 87.5471 42.4 87.0711 42.4C86.5858 42.4 86.1938 42.5773 85.8951 42.932C85.6058 43.2867 85.4611 43.7813 85.4611 44.416V48H83.6691V44.248C83.6691 43.6507 83.5524 43.1933 83.3191 42.876C83.0858 42.5587 82.7264 42.4 82.2411 42.4C81.7651 42.4 81.3778 42.5773 81.0791 42.932C80.7898 43.2867 80.6451 43.7813 80.6451 44.416V48H78.8531ZM95.4784 48.168C94.7784 48.168 94.1577 48.0187 93.6164 47.72C93.0751 47.4213 92.6504 47.0013 92.3424 46.46C92.0344 45.9187 91.8804 45.2933 91.8804 44.584C91.8804 43.8653 92.0297 43.226 92.3284 42.666C92.6364 42.106 93.0564 41.672 93.5884 41.364C94.1297 41.0467 94.7644 40.888 95.4924 40.888C96.1737 40.888 96.7757 41.0373 97.2984 41.336C97.8211 41.6347 98.2271 42.0453 98.5164 42.568C98.8151 43.0813 98.9644 43.6553 98.9644 44.29C98.9644 44.3927 98.9597 44.5 98.9504 44.612C98.9504 44.724 98.9457 44.8407 98.9364 44.962H93.6584C93.6957 45.5033 93.8824 45.928 94.2184 46.236C94.5637 46.544 94.9791 46.698 95.4644 46.698C95.8284 46.698 96.1317 46.6187 96.3744 46.46C96.6264 46.292 96.8131 46.0773 96.9344 45.816H98.7544C98.6237 46.2547 98.4044 46.656 98.0964 47.02C97.7977 47.3747 97.4244 47.6547 96.9764 47.86C96.5377 48.0653 96.0384 48.168 95.4784 48.168ZM95.4924 42.344C95.0537 42.344 94.6664 42.47 94.3304 42.722C93.9944 42.9647 93.7797 43.338 93.6864 43.842H97.1444C97.1164 43.3847 96.9484 43.0207 96.6404 42.75C96.3324 42.4793 95.9497 42.344 95.4924 42.344ZM100.612 48V41.056H102.194L102.334 42.232C102.548 41.8213 102.856 41.4947 103.258 41.252C103.668 41.0093 104.149 40.888 104.7 40.888C105.558 40.888 106.226 41.1587 106.702 41.7C107.178 42.2413 107.416 43.0347 107.416 44.08V48H105.624V44.248C105.624 43.6507 105.502 43.1933 105.26 42.876C105.017 42.5587 104.639 42.4 104.126 42.4C103.622 42.4 103.206 42.5773 102.88 42.932C102.562 43.2867 102.404 43.7813 102.404 44.416V48H100.612ZM112.363 48C111.635 48 111.052 47.8227 110.613 47.468C110.175 47.1133 109.955 46.4833 109.955 45.578V42.554H108.765V41.056H109.955L110.165 39.194H111.747V41.056L113.623 41.056V42.554L111.747 42.554V45.592C111.747 45.928 111.817 46.1613 111.957 46.292C112.107 46.4133 112.359 46.474 112.713 46.474H113.581V48H112.363ZM118.456 48.168C117.784 48.168 117.177 48.014 116.636 47.706C116.104 47.398 115.679 46.9733 115.362 46.432C115.054 45.8813 114.9 45.2467 114.9 44.528C114.9 43.8093 115.059 43.1793 115.376 42.638C115.693 42.0873 116.118 41.658 116.65 41.35C117.191 41.042 117.798 40.888 118.47 40.888C119.133 40.888 119.73 41.042 120.262 41.35C120.803 41.658 121.228 42.0873 121.536 42.638C121.853 43.1793 122.012 43.8093 122.012 44.528C122.012 45.2467 121.853 45.8813 121.536 46.432C121.228 46.9733 120.803 47.398 120.262 47.706C119.721 48.014 119.119 48.168 118.456 48.168ZM118.456 46.614C118.923 46.614 119.329 46.4413 119.674 46.096C120.019 45.7413 120.192 45.2187 120.192 44.528C120.192 43.8373 120.019 43.3193 119.674 42.974C119.329 42.6193 118.927 42.442 118.47 42.442C117.994 42.442 117.583 42.6193 117.238 42.974C116.902 43.3193 116.734 43.8373 116.734 44.528C116.734 45.2187 116.902 45.7413 117.238 46.096C117.583 46.4413 117.989 46.614 118.456 46.614ZM126.624 48.168C126.008 48.168 125.467 48.07 125 47.874C124.534 47.6687 124.16 47.3887 123.88 47.034C123.6 46.6793 123.432 46.2687 123.376 45.802H125.182C125.238 46.0727 125.388 46.306 125.63 46.502C125.882 46.6887 126.204 46.782 126.596 46.782C126.988 46.782 127.273 46.7027 127.45 46.544C127.637 46.3853 127.73 46.2033 127.73 45.998C127.73 45.6993 127.6 45.4987 127.338 45.396C127.077 45.284 126.713 45.1767 126.246 45.074C125.948 45.0087 125.644 44.9293 125.336 44.836C125.028 44.7427 124.744 44.626 124.482 44.486C124.23 44.3367 124.025 44.15 123.866 43.926C123.708 43.6927 123.628 43.408 123.628 43.072C123.628 42.456 123.871 41.938 124.356 41.518C124.851 41.098 125.542 40.888 126.428 40.888C127.25 40.888 127.903 41.0793 128.388 41.462C128.883 41.8447 129.177 42.372 129.27 43.044H127.576C127.474 42.5307 127.086 42.274 126.414 42.274C126.078 42.274 125.817 42.3393 125.63 42.47C125.453 42.6007 125.364 42.764 125.364 42.96C125.364 43.1653 125.5 43.3287 125.77 43.45C126.041 43.5713 126.4 43.6833 126.848 43.786C127.334 43.898 127.777 44.024 128.178 44.164C128.589 44.2947 128.916 44.4953 129.158 44.766C129.401 45.0273 129.522 45.4053 129.522 45.9C129.532 46.3293 129.42 46.7167 129.186 47.062C128.953 47.4073 128.617 47.678 128.178 47.874C127.74 48.07 127.222 48.168 126.624 48.168Z" fill="#2D8C2D"/>
<g clip-path="url(#clip0_304_5025)">
<path d="M65.5006 29C57.5043 29 51 22.4957 51 14.5006C51 6.5056 57.5043 0 65.5006 0C73.497 0 80.0013 6.50431 80.0013 14.5006C80.0013 22.497 73.497 29.0013 65.5006 29.0013V29ZM65.5006 1.39708C58.2753 1.39708 52.3971 7.27534 52.3971 14.5006C52.3971 21.7259 58.2753 27.6029 65.4994 27.6029C72.7234 27.6029 78.6016 21.7247 78.6016 14.5006C78.6016 7.27662 72.7247 1.39708 65.5006 1.39708Z" fill="#2D8C2D"/>
<path d="M77.5405 22.8075H71.3787V6.65831H66.9257V22.8075H62.5947V13.2794H58.8999V22.8024H54.1211V21.4053H57.5015V11.8823H63.9917V21.4091H65.5287V5.26123H72.7771V21.4091H77.5405V22.8075Z" fill="#2D8C2D"/>
</g>
<defs>
<clipPath id="clip0_304_5025">
<rect width="29" height="29" fill="white" transform="translate(51)"/>
</clipPath>
</defs>
</svg>
