<svg width="134" height="50" viewBox="0 0 134 50" fill="none" xmlns="http://www.w3.org/2000/svg">
<path d="M39.534 48V39.404H36.636V38.2H43.902V39.404H41.018V48H39.534ZM47.3649 48.168C46.6836 48.168 46.0769 48.0187 45.5449 47.72C45.0223 47.412 44.6116 46.9873 44.3129 46.446C44.0143 45.9047 43.8649 45.2747 43.8649 44.556C43.8649 43.828 44.0096 43.1887 44.2989 42.638C44.5976 42.0873 45.0083 41.658 45.5309 41.35C46.0629 41.042 46.6789 40.888 47.3789 40.888C48.0603 40.888 48.6529 41.042 49.1569 41.35C49.6609 41.6487 50.0529 42.05 50.3329 42.554C50.6129 43.058 50.7529 43.6133 50.7529 44.22C50.7529 44.3133 50.7483 44.416 50.7389 44.528C50.7389 44.6307 50.7343 44.7473 50.7249 44.878H45.3209C45.3676 45.55 45.5869 46.0633 45.9789 46.418C46.3803 46.7633 46.8423 46.936 47.3649 46.936C47.7849 46.936 48.1349 46.8427 48.4149 46.656C48.7043 46.46 48.9189 46.1987 49.0589 45.872H50.5429C50.3563 46.5253 49.9829 47.0713 49.4229 47.51C48.8723 47.9487 48.1863 48.168 47.3649 48.168ZM47.3649 42.106C46.8703 42.106 46.4316 42.2553 46.0489 42.554C45.6663 42.8433 45.4329 43.282 45.3489 43.87H49.2689C49.2409 43.3287 49.0496 42.8993 48.6949 42.582C48.3403 42.2647 47.8969 42.106 47.3649 42.106ZM52.4327 48V41.056H53.7627L53.8887 42.372C54.1314 41.9147 54.4674 41.5553 54.8967 41.294C55.3354 41.0233 55.8627 40.888 56.4787 40.888V42.442H56.0727C55.6621 42.442 55.2934 42.512 54.9667 42.652C54.6494 42.7827 54.3927 43.0113 54.1967 43.338C54.0101 43.6553 53.9167 44.0987 53.9167 44.668V48H52.4327ZM57.8911 48V41.056H59.2211L59.3471 42.372C59.5898 41.9147 59.9258 41.5553 60.3551 41.294C60.7938 41.0233 61.3211 40.888 61.9371 40.888V42.442H61.5311C61.1204 42.442 60.7518 42.512 60.4251 42.652C60.1078 42.7827 59.8511 43.0113 59.6551 43.338C59.4684 43.6553 59.3751 44.0987 59.3751 44.668V48H57.8911ZM64.1894 39.74C63.9094 39.74 63.6761 39.656 63.4894 39.488C63.3121 39.3107 63.2234 39.0913 63.2234 38.83C63.2234 38.5687 63.3121 38.354 63.4894 38.186C63.6761 38.0087 63.9094 37.92 64.1894 37.92C64.4694 37.92 64.6981 38.0087 64.8754 38.186C65.0621 38.354 65.1554 38.5687 65.1554 38.83C65.1554 39.0913 65.0621 39.3107 64.8754 39.488C64.6981 39.656 64.4694 39.74 64.1894 39.74ZM63.4474 48V41.056L64.9314 41.056V48H63.4474ZM69.9425 48C69.2611 48 68.7198 47.8367 68.3185 47.51C67.9171 47.174 67.7165 46.5813 67.7165 45.732V42.302H66.5265V41.056H67.7165L67.8985 39.292H69.2005V41.056H71.1605V42.302H69.2005V45.732C69.2005 46.1147 69.2798 46.3807 69.4385 46.53C69.6065 46.67 69.8911 46.74 70.2925 46.74H71.0905V48H69.9425ZM75.9009 48.168C75.2382 48.168 74.6409 48.0187 74.1089 47.72C73.5862 47.412 73.1709 46.9873 72.8629 46.446C72.5549 45.8953 72.4009 45.256 72.4009 44.528C72.4009 43.8 72.5549 43.1653 72.8629 42.624C73.1802 42.0733 73.6049 41.6487 74.1369 41.35C74.6689 41.042 75.2616 40.888 75.9149 40.888C76.5776 40.888 77.1702 41.042 77.6929 41.35C78.2249 41.6487 78.6449 42.0733 78.9529 42.624C79.2702 43.1653 79.4289 43.8 79.4289 44.528C79.4289 45.256 79.2702 45.8953 78.9529 46.446C78.6449 46.9873 78.2249 47.412 77.6929 47.72C77.1609 48.0187 76.5636 48.168 75.9009 48.168ZM75.9009 46.894C76.2556 46.894 76.5822 46.8053 76.8809 46.628C77.1889 46.4507 77.4362 46.1893 77.6229 45.844C77.8096 45.4893 77.9029 45.0507 77.9029 44.528C77.9029 44.0053 77.8096 43.5713 77.6229 43.226C77.4456 42.8713 77.2029 42.6053 76.8949 42.428C76.5962 42.2507 76.2696 42.162 75.9149 42.162C75.5602 42.162 75.2289 42.2507 74.9209 42.428C74.6222 42.6053 74.3796 42.8713 74.1929 43.226C74.0062 43.5713 73.9129 44.0053 73.9129 44.528C73.9129 45.0507 74.0062 45.4893 74.1929 45.844C74.3796 46.1893 74.6222 46.4507 74.9209 46.628C75.2196 46.8053 75.5462 46.894 75.9009 46.894ZM75.5229 40.482V39.418L78.5749 37.682V38.914L75.5229 40.482ZM81.1737 48V41.056H82.5037L82.6297 42.372C82.8724 41.9147 83.2084 41.5553 83.6377 41.294C84.0764 41.0233 84.6037 40.888 85.2197 40.888V42.442H84.8137C84.4031 42.442 84.0344 42.512 83.7077 42.652C83.3904 42.7827 83.1337 43.0113 82.9377 43.338C82.7511 43.6553 82.6577 44.0987 82.6577 44.668V48H81.1737ZM87.4721 39.74C87.1921 39.74 86.9588 39.656 86.7721 39.488C86.5948 39.3107 86.5061 39.0913 86.5061 38.83C86.5061 38.5687 86.5948 38.354 86.7721 38.186C86.9588 38.0087 87.1921 37.92 87.4721 37.92C87.7521 37.92 87.9808 38.0087 88.1581 38.186C88.3448 38.354 88.4381 38.5687 88.4381 38.83C88.4381 39.0913 88.3448 39.3107 88.1581 39.488C87.9808 39.656 87.7521 39.74 87.4721 39.74ZM86.7301 48V41.056H88.2141V48H86.7301ZM93.5611 48.168C92.8985 48.168 92.3011 48.0187 91.7691 47.72C91.2465 47.412 90.8311 46.9873 90.5231 46.446C90.2151 45.8953 90.0611 45.256 90.0611 44.528C90.0611 43.8 90.2151 43.1653 90.5231 42.624C90.8405 42.0733 91.2651 41.6487 91.7971 41.35C92.3291 41.042 92.9218 40.888 93.5751 40.888C94.2378 40.888 94.8305 41.042 95.3531 41.35C95.8851 41.6487 96.3051 42.0733 96.6131 42.624C96.9305 43.1653 97.0891 43.8 97.0891 44.528C97.0891 45.256 96.9305 45.8953 96.6131 46.446C96.3051 46.9873 95.8851 47.412 95.3531 47.72C94.8211 48.0187 94.2238 48.168 93.5611 48.168ZM93.5611 46.894C93.9158 46.894 94.2425 46.8053 94.5411 46.628C94.8491 46.4507 95.0965 46.1893 95.2831 45.844C95.4698 45.4893 95.5631 45.0507 95.5631 44.528C95.5631 44.0053 95.4698 43.5713 95.2831 43.226C95.1058 42.8713 94.8631 42.6053 94.5551 42.428C94.2565 42.2507 93.9298 42.162 93.5751 42.162C93.2205 42.162 92.8891 42.2507 92.5811 42.428C92.2825 42.6053 92.0398 42.8713 91.8531 43.226C91.6665 43.5713 91.5731 44.0053 91.5731 44.528C91.5731 45.0507 91.6665 45.4893 91.8531 45.844C92.0398 46.1893 92.2825 46.4507 92.5811 46.628C92.8798 46.8053 93.2065 46.894 93.5611 46.894Z" fill="#FFF3E5"/>
<g clip-path="url(#clip0_222_56513)">
<path d="M57.8826 4.38301C57.6823 4.38301 57.4831 4.29537 57.3488 4.12692C57.1132 3.83214 57.161 3.40306 57.4558 3.16746C60.0485 1.0949 63.1762 0 66.4995 0C66.9935 0 67.492 0.0250393 67.9814 0.0751177C68.357 0.112677 68.6302 0.44843 68.5915 0.824019C68.5539 1.19961 68.2204 1.47162 67.8426 1.43407C67.3987 1.38854 66.9468 1.36578 66.4984 1.36578C63.488 1.36578 60.6552 2.3571 58.3072 4.23277C58.1808 4.33293 58.0306 4.38187 57.8815 4.38187L57.8826 4.38301Z" fill="#FFF3E5"/>
<path d="M53.7787 9.78113C53.6899 9.78113 53.5988 9.76406 53.5123 9.7265C53.1652 9.57854 53.0036 9.17792 53.1515 8.83078C54.0894 6.62733 55.5781 4.66858 57.4572 3.16622C57.7519 2.93062 58.1822 2.97843 58.4166 3.27321C58.6522 3.56799 58.6044 3.99707 58.3096 4.23266C56.6058 5.59389 55.2571 7.36826 54.4081 9.36457C54.2977 9.62407 54.045 9.78 53.7798 9.78L53.7787 9.78113Z" fill="#FFF3E5"/>
<path d="M66.5002 28.9999C64.8817 28.9999 63.2906 28.7347 61.7723 28.2101C61.4161 28.0871 61.226 27.6979 61.3489 27.3417C61.4718 26.9854 61.86 26.7953 62.2173 26.9183C63.5922 27.3929 65.0342 27.633 66.5002 27.633C68.6661 27.633 70.8126 27.0947 72.7088 26.0749C73.0411 25.8962 73.4554 26.0214 73.6341 26.3526C73.8128 26.6849 73.6876 27.0992 73.3564 27.2779C71.2622 28.4035 68.8914 28.9988 66.5013 28.9988L66.5002 28.9999Z" fill="#FFF3E5"/>
<path d="M75.0316 4.31479C74.8836 4.31479 74.7357 4.26698 74.6105 4.1691C72.654 2.63147 70.3139 1.68567 67.8442 1.43413C67.4686 1.39658 67.1954 1.06082 67.2341 0.685233C67.2728 0.309645 67.6063 0.0364892 67.983 0.0751862C70.7112 0.351756 73.2948 1.39658 75.4561 3.09469C75.7532 3.32801 75.8044 3.75709 75.5711 4.05301C75.4368 4.22487 75.2364 4.31365 75.0338 4.31365L75.0316 4.31479Z" fill="#FFF3E5"/>
<path d="M78.2339 7.88512C78.0063 7.88512 77.7832 7.7713 77.6534 7.56302C76.8408 6.25871 75.8165 5.11601 74.6089 4.16793C74.3118 3.93461 74.2606 3.50553 74.4939 3.20961C74.7273 2.91369 75.1563 2.86134 75.4523 3.09466C76.7839 4.14175 77.9141 5.40282 78.8109 6.84144C79.0101 7.16126 78.9122 7.58237 78.5924 7.78269C78.4797 7.85325 78.3557 7.88626 78.2316 7.88626L78.2339 7.88512Z" fill="#FFF3E5"/>
<path d="M61.9941 28.2489C61.9201 28.2489 61.845 28.2364 61.771 28.2113C55.9266 26.1957 52 20.6859 52 14.5001C52 12.5333 52.387 10.6258 53.1507 8.83094C53.2986 8.48381 53.6993 8.32219 54.0464 8.47015C54.3935 8.61811 54.5551 9.01874 54.4072 9.36587C53.7163 10.9923 53.3658 12.72 53.3658 14.5012C53.3658 20.1043 56.9225 25.0951 62.2172 26.9207C62.5734 27.0436 62.7635 27.4328 62.6405 27.7891C62.5427 28.0713 62.2786 28.25 61.9952 28.25L61.9941 28.2489Z" fill="#FFF3E5"/>
<path d="M77.477 23.5722C77.3324 23.5722 77.1868 23.5266 77.0627 23.431C76.7634 23.2023 76.7065 22.7732 76.9352 22.4739C77.9152 21.1946 78.6413 19.7651 79.0966 18.2274C79.2036 17.8655 79.5837 17.6583 79.9445 17.7665C80.3064 17.8735 80.5124 18.2536 80.4054 18.6144C79.9035 20.3136 79.1011 21.8911 78.0199 23.3047C77.8856 23.48 77.683 23.5722 77.477 23.5722Z" fill="#FFF3E5"/>
<path d="M80.2522 16.5294C80.2306 16.5294 80.2078 16.5294 80.1862 16.526C79.8106 16.4896 79.5363 16.1561 79.5727 15.7805C79.6137 15.3537 79.6353 14.9223 79.6353 14.5001C79.6353 12.0405 78.9502 9.64247 77.6549 7.56421C77.4558 7.24439 77.5537 6.82328 77.8735 6.62296C78.1933 6.42379 78.6144 6.52167 78.8147 6.84149C80.2454 9.13713 81.0011 11.7845 81.0011 14.5001C81.0011 14.9667 80.9783 15.4425 80.9328 15.9125C80.8987 16.2653 80.6016 16.5294 80.2545 16.5294H80.2522Z" fill="#FFF3E5"/>
<path d="M79.753 19.105C79.6893 19.105 79.6233 19.0959 79.5595 19.0766C79.1976 18.9696 78.9916 18.5894 79.0986 18.2286C79.3342 17.4331 79.4935 16.6102 79.5732 15.7816C79.6096 15.406 79.9419 15.1295 80.3187 15.1682C80.6943 15.2046 80.9686 15.5381 80.9321 15.9137C80.8434 16.8287 80.6669 17.737 80.4074 18.6156C80.3198 18.9127 80.0478 19.105 79.753 19.105Z" fill="#FFF3E5"/>
<path d="M72.9522 19.757C72.1168 19.757 71.2495 19.6136 70.4437 19.4793C70.0545 19.4144 69.6857 19.353 69.3522 19.3143C69.0768 19.2824 68.7422 19.2984 68.3871 19.3154C67.4151 19.3621 66.0835 19.427 65.4654 18.241C64.9715 17.2941 64.8952 16.4678 65.2367 15.7838C65.8831 14.4908 67.7918 14.1767 69.4763 13.9001C70.2297 13.7761 70.9422 13.6588 71.3667 13.4813C71.6205 13.3743 71.9381 13.2093 72.2727 13.0328C73.7273 12.2703 75.9239 11.1173 77.4183 12.7187C78.4369 13.8113 78.4153 15.6267 77.8052 16.75C77.169 17.9235 76.0923 18.8772 74.7732 19.4361C74.2121 19.6739 73.5918 19.7582 72.9522 19.7582V19.757ZM68.9789 17.9303C69.1587 17.9303 69.3374 17.9371 69.5127 17.9576C69.878 18.0009 70.2616 18.0646 70.6679 18.1317C71.9074 18.3378 73.3118 18.5711 74.2406 18.1773C75.2603 17.7448 76.1219 16.9868 76.6045 16.0979C76.9767 15.4116 76.9915 14.2632 76.419 13.6497C75.694 12.8724 74.4534 13.4312 72.9078 14.2416C72.5459 14.4316 72.2033 14.6115 71.8948 14.7401C71.3224 14.9802 70.5336 15.11 69.6982 15.2465C68.4724 15.448 66.7937 15.7234 66.459 16.3938C66.3236 16.6635 66.3976 17.0721 66.6776 17.6093C66.8779 17.9929 67.4322 17.9952 68.3222 17.9519C68.5396 17.9417 68.7604 17.9303 68.98 17.9303H68.9789Z" fill="#FFF3E5"/>
<path d="M57.8827 4.38301C57.6335 4.38301 57.3968 4.24529 57.2761 4.01425C57.1259 3.72516 57.201 3.37005 57.4559 3.16633C60.0486 1.0949 63.1763 0 66.4997 0C66.9936 0 67.4921 0.0250393 67.9815 0.0751177C68.323 0.109262 68.5859 0.392661 68.595 0.735243C68.6052 1.07783 68.3594 1.37488 68.0202 1.42951C66.6146 1.65487 65.3649 1.98607 64.4066 2.3867C63.1945 2.89431 61.559 3.35981 59.6662 3.89929C59.1495 4.04611 58.6157 4.19863 58.074 4.35569C58.0102 4.3739 57.9465 4.38301 57.8827 4.38301Z" fill="#FFF3E5"/>
<path d="M66.4997 29C64.8813 29 63.2901 28.7348 61.7718 28.2101C61.4532 28.1009 61.2631 27.7754 61.3223 27.4442C61.3815 27.113 61.6762 26.8762 62.0097 26.8819C65.2955 26.9582 69.5738 26.6133 72.9086 26.0056C73.241 25.9452 73.5642 26.1342 73.6757 26.4517C73.7873 26.7693 73.6507 27.1198 73.3548 27.2791C71.2606 28.4048 68.8898 29 66.4997 29Z" fill="#FFF3E5"/>
<path d="M53.7793 9.78C53.6166 9.78 53.4561 9.72195 53.3275 9.60928C53.1067 9.41465 53.035 9.10053 53.1499 8.82965C54.0878 6.62619 55.5765 4.66744 57.4556 3.16509C57.525 3.10932 57.6058 3.06834 57.6912 3.0433C58.2363 2.8851 58.7713 2.73259 59.2914 2.58463C61.142 2.05767 62.7411 1.60241 63.8781 1.12666C64.9343 0.683924 66.2921 0.321994 67.8036 0.0795681C67.8616 0.0704629 67.922 0.0681867 67.98 0.0750155C70.7081 0.351585 73.2917 1.3964 75.4531 3.09452C75.6887 3.28004 75.7763 3.59758 75.6682 3.87643C75.5601 4.15641 75.2846 4.33283 74.9842 4.31234C72.651 4.15186 68.9736 4.36242 66.291 5.48577C65.2428 5.92509 63.8394 6.30979 62.213 6.7548C59.502 7.49801 56.429 8.34024 54.1231 9.68667C54.0161 9.74927 53.8966 9.78 53.7782 9.78H53.7793ZM58.2056 4.31689C57.0845 5.23082 56.1205 6.32686 55.358 7.54582C57.4271 6.65123 59.7467 6.01501 61.8545 5.43797C63.4343 5.00547 64.7989 4.63102 65.7652 4.22584C67.5817 3.46442 70.1311 2.99323 72.6863 2.909C71.2158 2.12254 69.6053 1.6229 67.9333 1.44193C66.563 1.66615 65.3463 1.99279 64.4085 2.38546C63.1964 2.89307 61.5609 3.35857 59.6681 3.89805C59.1924 4.03349 58.7041 4.17235 58.2067 4.31689H58.2056Z" fill="#FFF3E5"/>
<path d="M62.9717 28.259C62.6337 28.259 62.3025 28.2556 61.9781 28.2476C61.9076 28.2465 61.8381 28.234 61.771 28.2101C55.9266 26.1956 52 20.6858 52 14.5C52 12.5332 52.387 10.6257 53.1507 8.83085C53.2076 8.69541 53.3077 8.58273 53.4352 8.50875C55.8959 7.07127 59.0611 6.204 61.8541 5.43917C63.4338 5.00667 64.7985 4.63222 65.7648 4.22704C68.1549 3.22661 71.8106 2.72469 75.0805 2.95118C75.2171 2.96028 75.348 3.01036 75.4549 3.09572C76.7866 4.14282 77.9168 5.40388 78.8136 6.8425C78.965 7.08493 78.9491 7.39564 78.7749 7.621C78.6008 7.84635 78.3037 7.94082 78.0317 7.85545C74.6218 6.79242 70.2707 7.71091 68.1776 8.58728C67.2922 8.95832 66.063 9.27472 64.7609 9.6082C61.4648 10.455 57.363 11.5089 56.4957 13.9639C55.9983 15.3695 56.6049 17.2361 58.2974 19.5112C58.4897 19.7696 58.6866 20.0507 58.8938 20.3489C59.9659 21.8854 61.2987 23.7986 63.1834 24.0194C66.6593 24.4269 73.3175 23.8772 76.3723 22.5831C76.6113 22.4818 76.881 22.3782 77.2498 22.2473C77.5343 22.146 77.853 22.2439 78.0306 22.4886C78.2093 22.7333 78.2047 23.0657 78.0215 23.3058C76.7729 24.9368 75.1602 26.3117 73.3562 27.2814C73.2936 27.3155 73.2253 27.3383 73.1559 27.3519C70.0135 27.9244 66.2052 28.2613 62.9729 28.2613L62.9717 28.259ZM62.117 26.8841C65.3527 26.9502 69.5195 26.6144 72.8019 26.0248C73.6089 25.5821 74.3726 25.0506 75.0737 24.4451C71.4896 25.392 66.1426 25.7392 63.023 25.3738C60.5281 25.0813 58.9359 22.7959 57.7727 21.1285C57.5712 20.8394 57.3812 20.5663 57.2013 20.325C55.1925 17.6253 54.5403 15.3957 55.2073 13.5075C56.317 10.3673 60.8104 9.21213 64.4206 8.28454C65.6726 7.96244 66.8551 7.65856 67.6495 7.32622C69.5764 6.51927 73.2743 5.68387 76.6443 6.15506C76.0866 5.47673 75.4618 4.8553 74.7755 4.29874C71.1288 4.0825 67.9386 4.79725 66.2929 5.48583C65.2446 5.92516 63.8413 6.30985 62.2149 6.75487C59.5801 7.47645 56.6038 8.2925 54.3218 9.57406C53.6879 11.139 53.3669 12.7939 53.3669 14.5C53.3669 20.0678 56.8792 25.0312 62.1181 26.8841H62.117Z" fill="#FFF3E5"/>
<path d="M65.8627 25.5172C64.8111 25.5172 63.8402 25.4706 63.023 25.375C60.5282 25.0825 58.936 22.7971 57.7728 21.1297C57.5713 20.8406 57.3812 20.5674 57.2014 20.3261C55.1926 17.6264 54.5404 15.3968 55.2074 13.5086C56.3171 10.3685 60.8105 9.21326 64.4207 8.28567C65.6727 7.96357 66.8552 7.65969 67.6496 7.32735C69.927 6.37358 74.6788 5.37998 78.4381 6.55113C78.594 6.60007 78.7272 6.70251 78.8148 6.84136C80.2455 9.137 81.0012 11.7843 81.0012 14.5C81.0012 14.9666 80.9785 15.4423 80.9329 15.9124C80.8977 16.2743 80.5881 16.5441 80.2239 16.5293C79.8608 16.5133 79.574 16.2163 79.5706 15.8532C79.5558 14.2723 79.467 12.5071 78.5861 11.5635C77.7279 10.6428 76.3496 10.274 74.491 10.4686C72.8191 10.6428 71.1597 11.2278 70.0625 11.6876C69.3329 11.9926 68.3439 12.2157 67.2968 12.4513C65.1446 12.9361 62.4676 13.5394 61.8872 14.9962C61.5594 15.8179 61.8872 16.9709 62.8626 18.422C63.525 19.4088 64.8942 21.0932 66.6321 21.2981C69.0939 21.5872 73.1674 21.2867 75.3082 20.3808C75.5074 20.2965 75.7202 20.2112 75.9399 20.1235C77.1497 19.6387 78.5212 19.089 79.1779 18.0567C79.3805 17.738 79.8028 17.6447 80.1203 17.8461C80.439 18.0487 80.5323 18.471 80.3309 18.7885C79.4385 20.193 77.7803 20.8576 76.4475 21.3914C76.2358 21.4757 76.0321 21.5576 75.8409 21.6384C73.4246 22.6616 69.0973 22.9621 66.4739 22.6548C64.3069 22.401 62.6975 20.6266 61.729 19.1834C60.4713 17.3089 60.1083 15.7735 60.6193 14.4909C61.4661 12.3648 64.4048 11.7024 66.9975 11.1185C67.9842 10.8966 68.9164 10.686 69.5355 10.4265C70.7169 9.93143 72.5118 9.3009 74.3499 9.10969C76.2085 8.91507 77.7143 9.21098 78.8387 9.98606C78.5599 9.2235 78.2094 8.48485 77.7905 7.78261C74.4193 6.83453 70.223 7.73025 68.1789 8.58614C67.2934 8.95718 66.0642 9.27358 64.7621 9.60706C61.4661 10.4538 57.3642 11.5078 56.4969 13.9627C55.9995 15.3684 56.6062 17.2349 58.2986 19.5101C58.4909 19.7684 58.6878 20.0496 58.895 20.3478C59.9671 21.8843 61.2999 23.7975 63.1847 24.0183C66.6606 24.4257 73.3187 23.876 76.3735 22.5819C76.7207 22.4351 77.1213 22.5967 77.2681 22.9439C77.4149 23.291 77.2533 23.6916 76.9062 23.8385C74.3374 24.9265 69.5913 25.5161 65.865 25.5161L65.8627 25.5172Z" fill="#FFF3E5"/>
<path d="M68.6752 22.7687C67.8728 22.7687 67.1205 22.73 66.4718 22.6537C64.3047 22.3999 62.6954 20.6256 61.7268 19.1824C60.4692 17.3079 60.1061 15.7725 60.6171 14.4898C61.4639 12.3638 64.4026 11.7013 66.9953 11.1175C67.9821 10.8955 68.9142 10.685 69.5334 10.4255C70.7148 9.93039 72.5096 9.29986 74.3477 9.10865C76.6559 8.8685 78.4177 9.37953 79.5832 10.6315C80.7976 11.9335 80.9171 14.0027 80.9342 15.8397C80.9376 16.2164 80.6349 16.526 80.2581 16.5294H80.2513C79.8769 16.5294 79.5718 16.2278 79.5684 15.8533C79.5536 14.2724 79.4648 12.5083 78.5839 11.5636C77.7258 10.6429 76.3475 10.2741 74.4889 10.4687C72.8169 10.6429 71.1575 11.2279 70.0603 11.6877C69.3308 11.9927 68.3417 12.2158 67.2946 12.4514C65.1424 12.9362 62.4655 13.5395 61.885 14.9963C61.5572 15.818 61.885 16.971 62.8604 18.4221C63.5228 19.4089 64.892 21.0933 66.63 21.2982C69.0918 21.5873 73.1652 21.2868 75.3061 20.3809C75.5052 20.2966 75.7181 20.2113 75.9377 20.1236C77.1476 19.6388 78.519 19.0891 79.1758 18.0568C79.3783 17.7381 79.8006 17.6448 80.1181 17.8462C80.4368 18.0488 80.5301 18.4711 80.3287 18.7886C79.4364 20.1931 77.7781 20.8577 76.4453 21.3915C76.2336 21.4758 76.0299 21.5577 75.8387 21.6385C74.0199 22.409 71.1177 22.7698 68.6741 22.7698L68.6752 22.7687ZM72.9524 19.7572C72.117 19.7572 71.2497 19.6137 70.4439 19.4794C70.0546 19.4146 69.6859 19.3531 69.3524 19.3144C69.077 19.2825 68.7424 19.2985 68.3873 19.3156C67.4153 19.3622 66.0836 19.4271 65.4656 18.2411C64.9717 17.2942 64.8954 16.4679 65.2369 15.7839C65.8833 14.4909 67.792 14.1768 69.4765 13.9002C70.2299 13.7762 70.9424 13.659 71.3669 13.4814C71.6207 13.3744 71.9383 13.2094 72.2729 13.033C73.7274 12.2704 75.9241 11.1175 77.4185 12.7189C78.4371 13.8115 78.4155 15.6268 77.8054 16.7502C77.1692 17.9236 76.0925 18.8774 74.7734 19.4362C74.2123 19.6741 73.592 19.7583 72.9524 19.7583V19.7572ZM68.9791 17.9304C69.1589 17.9304 69.3376 17.9373 69.5129 17.9577C69.8782 18.001 70.2618 18.0647 70.6681 18.1319C71.9075 18.3379 73.312 18.5712 74.2407 18.1774C75.2605 17.7449 76.1221 16.9869 76.6047 16.098C76.9769 15.4117 76.9916 14.2633 76.4192 13.6499C75.6942 12.8725 74.4536 13.4313 72.908 14.2417C72.546 14.4318 72.2035 14.6116 71.895 14.7402C71.3225 14.9804 70.5338 15.1101 69.6984 15.2467C68.4726 15.4481 66.7938 15.7236 66.4592 16.3939C66.3238 16.6637 66.3978 17.0723 66.6778 17.6095C66.8781 17.993 67.4323 17.9953 68.3224 17.9521C68.5398 17.9418 68.7606 17.9304 68.9802 17.9304H68.9791Z" fill="#FFF3E5"/>
</g>
<defs>
<clipPath id="clip0_222_56513">
<rect width="29" height="29" fill="white" transform="translate(52)"/>
</clipPath>
</defs>
</svg>
