<svg width="134" height="52" viewBox="0 0 134 52" fill="none" xmlns="http://www.w3.org/2000/svg">
<path d="M30.6656 48.168C29.7416 48.168 28.9342 47.958 28.2436 47.538C27.5529 47.118 27.0162 46.5347 26.6336 45.788C26.2509 45.032 26.0596 44.1547 26.0596 43.156C26.0596 42.148 26.2556 41.2613 26.6476 40.496C27.0489 39.7213 27.6136 39.1193 28.3416 38.69C29.0789 38.2513 29.9516 38.032 30.9596 38.032C32.1076 38.032 33.0596 38.3073 33.8156 38.858C34.5716 39.4087 35.0616 40.1693 35.2856 41.14H33.2836C33.1342 40.6827 32.8636 40.328 32.4716 40.076C32.0796 39.8147 31.5756 39.684 30.9596 39.684C29.9796 39.684 29.2236 39.9967 28.6916 40.622C28.1596 41.238 27.8936 42.0873 27.8936 43.17C27.8936 44.2527 28.1549 45.0927 28.6776 45.69C29.2096 46.278 29.9282 46.572 30.8336 46.572C31.7202 46.572 32.3876 46.334 32.8356 45.858C33.2929 45.3727 33.5682 44.738 33.6616 43.954H31.1836V42.61H35.4676V48H33.8156L33.6756 46.712C33.3582 47.1787 32.9616 47.538 32.4856 47.79C32.0096 48.042 31.4029 48.168 30.6656 48.168ZM40.6397 48.168C39.9677 48.168 39.361 48.014 38.8197 47.706C38.2877 47.398 37.863 46.9733 37.5457 46.432C37.2377 45.8813 37.0837 45.2467 37.0837 44.528C37.0837 43.8093 37.2424 43.1793 37.5597 42.638C37.877 42.0873 38.3017 41.658 38.8337 41.35C39.375 41.042 39.9817 40.888 40.6537 40.888C41.3164 40.888 41.9137 41.042 42.4457 41.35C42.987 41.658 43.4117 42.0873 43.7197 42.638C44.037 43.1793 44.1957 43.8093 44.1957 44.528C44.1957 45.2467 44.037 45.8813 43.7197 46.432C43.4117 46.9733 42.987 47.398 42.4457 47.706C41.9044 48.014 41.3024 48.168 40.6397 48.168ZM40.6397 46.614C41.1064 46.614 41.5124 46.4413 41.8577 46.096C42.203 45.7413 42.3757 45.2187 42.3757 44.528C42.3757 43.8373 42.203 43.3193 41.8577 42.974C41.5124 42.6193 41.111 42.442 40.6537 42.442C40.1777 42.442 39.767 42.6193 39.4217 42.974C39.0857 43.3193 38.9177 43.8373 38.9177 44.528C38.9177 45.2187 39.0857 45.7413 39.4217 46.096C39.767 46.4413 40.173 46.614 40.6397 46.614ZM47.4721 48L44.9241 41.056H46.8001L48.5641 46.306L50.3281 41.056H52.2041L49.6421 48H47.4721ZM56.5066 48.168C55.8066 48.168 55.186 48.0187 54.6446 47.72C54.1033 47.4213 53.6786 47.0013 53.3706 46.46C53.0626 45.9187 52.9086 45.2933 52.9086 44.584C52.9086 43.8653 53.058 43.226 53.3566 42.666C53.6646 42.106 54.0846 41.672 54.6166 41.364C55.158 41.0467 55.7926 40.888 56.5206 40.888C57.202 40.888 57.804 41.0373 58.3266 41.336C58.8493 41.6347 59.2553 42.0453 59.5446 42.568C59.8433 43.0813 59.9926 43.6553 59.9926 44.29C59.9926 44.3927 59.988 44.5 59.9786 44.612C59.9786 44.724 59.974 44.8407 59.9646 44.962H54.6866C54.724 45.5033 54.9106 45.928 55.2466 46.236C55.592 46.544 56.0073 46.698 56.4926 46.698C56.8566 46.698 57.16 46.6187 57.4026 46.46C57.6546 46.292 57.8413 46.0773 57.9626 45.816H59.7826C59.652 46.2547 59.4326 46.656 59.1246 47.02C58.826 47.3747 58.4526 47.6547 58.0046 47.86C57.566 48.0653 57.0666 48.168 56.5066 48.168ZM56.5206 42.344C56.082 42.344 55.6946 42.47 55.3586 42.722C55.0226 42.9647 54.808 43.338 54.7146 43.842H58.1726C58.1446 43.3847 57.9766 43.0207 57.6686 42.75C57.3606 42.4793 56.978 42.344 56.5206 42.344ZM61.6398 48V41.056H63.2358L63.4038 42.358C63.6558 41.91 63.9965 41.5553 64.4258 41.294C64.8645 41.0233 65.3778 40.888 65.9658 40.888V42.778H65.4618C65.0698 42.778 64.7198 42.8387 64.4118 42.96C64.1038 43.0813 63.8611 43.2913 63.6838 43.59C63.5158 43.8887 63.4318 44.304 63.4318 44.836V48H61.6398ZM67.3306 48V41.056H68.9126L69.0526 42.232C69.2673 41.8213 69.5753 41.4947 69.9766 41.252C70.3873 41.0093 70.8679 40.888 71.4186 40.888C72.2773 40.888 72.9446 41.1587 73.4206 41.7C73.8966 42.2413 74.1346 43.0347 74.1346 44.08V48H72.3426V44.248C72.3426 43.6507 72.2213 43.1933 71.9786 42.876C71.7359 42.5587 71.3579 42.4 70.8446 42.4C70.3406 42.4 69.9253 42.5773 69.5986 42.932C69.2813 43.2867 69.1226 43.7813 69.1226 44.416V48H67.3306ZM78.3822 48.168C77.7848 48.168 77.2948 48.0747 76.9122 47.888C76.5295 47.692 76.2448 47.4353 76.0582 47.118C75.8715 46.8007 75.7782 46.4507 75.7782 46.068C75.7782 45.424 76.0302 44.9013 76.5342 44.5C77.0382 44.0987 77.7942 43.898 78.8022 43.898H80.5662V43.73C80.5662 43.254 80.4308 42.904 80.1602 42.68C79.8895 42.456 79.5535 42.344 79.1522 42.344C78.7882 42.344 78.4708 42.4327 78.2002 42.61C77.9295 42.778 77.7615 43.03 77.6962 43.366H75.9462C75.9928 42.862 76.1608 42.4233 76.4502 42.05C76.7488 41.6767 77.1315 41.392 77.5982 41.196C78.0648 40.9907 78.5875 40.888 79.1662 40.888C80.1555 40.888 80.9348 41.1353 81.5042 41.63C82.0735 42.1247 82.3582 42.8247 82.3582 43.73V48H80.8322L80.6642 46.88C80.4588 47.2533 80.1695 47.5613 79.7962 47.804C79.4322 48.0467 78.9608 48.168 78.3822 48.168ZM78.7882 46.768C79.3015 46.768 79.6982 46.6 79.9782 46.264C80.2675 45.928 80.4495 45.5127 80.5242 45.018H78.9982C78.5222 45.018 78.1815 45.1067 77.9762 45.284C77.7708 45.452 77.6682 45.662 77.6682 45.914C77.6682 46.1847 77.7708 46.3947 77.9762 46.544C78.1815 46.6933 78.4522 46.768 78.7882 46.768ZM84.2082 48V41.056H85.7902L85.9302 42.232C86.1449 41.8213 86.4529 41.4947 86.8542 41.252C87.2649 41.0093 87.7456 40.888 88.2962 40.888C89.1549 40.888 89.8222 41.1587 90.2982 41.7C90.7742 42.2413 91.0122 43.0347 91.0122 44.08V48H89.2202V44.248C89.2202 43.6507 89.0989 43.1933 88.8562 42.876C88.6136 42.5587 88.2356 42.4 87.7222 42.4C87.2182 42.4 86.8029 42.5773 86.4762 42.932C86.1589 43.2867 86.0002 43.7813 86.0002 44.416V48H84.2082ZM96.2678 48.168C95.5585 48.168 94.9332 48.014 94.3918 47.706C93.8505 47.398 93.4212 46.9687 93.1038 46.418C92.7958 45.8673 92.6418 45.2373 92.6418 44.528C92.6418 43.8187 92.7958 43.1887 93.1038 42.638C93.4212 42.0873 93.8505 41.658 94.3918 41.35C94.9332 41.042 95.5585 40.888 96.2678 40.888C97.1545 40.888 97.9012 41.1213 98.5078 41.588C99.1145 42.0453 99.5018 42.68 99.6698 43.492H97.7798C97.6865 43.156 97.4998 42.8947 97.2198 42.708C96.9492 42.512 96.6272 42.414 96.2538 42.414C95.7592 42.414 95.3392 42.6007 94.9938 42.974C94.6485 43.3473 94.4758 43.8653 94.4758 44.528C94.4758 45.1907 94.6485 45.7087 94.9938 46.082C95.3392 46.4553 95.7592 46.642 96.2538 46.642C96.6272 46.642 96.9492 46.5487 97.2198 46.362C97.4998 46.1753 97.6865 45.9093 97.7798 45.564H99.6698C99.5018 46.348 99.1145 46.978 98.5078 47.454C97.9012 47.93 97.1545 48.168 96.2678 48.168ZM95.0078 51.724V50.688H96.5758C97.0705 50.688 97.3178 50.52 97.3178 50.184C97.3178 49.8573 97.0705 49.694 96.5758 49.694H95.7218V47.944H96.8418V48.742C97.1592 48.7327 97.4532 48.7793 97.7238 48.882C98.0038 48.9847 98.2278 49.1433 98.3958 49.358C98.5732 49.582 98.6618 49.8667 98.6618 50.212C98.6618 50.716 98.4798 51.094 98.1158 51.346C97.7518 51.598 97.3272 51.724 96.8418 51.724H95.0078ZM103.794 48.168C103.197 48.168 102.707 48.0747 102.324 47.888C101.942 47.692 101.657 47.4353 101.47 47.118C101.284 46.8007 101.19 46.4507 101.19 46.068C101.19 45.424 101.442 44.9013 101.946 44.5C102.45 44.0987 103.206 43.898 104.214 43.898H105.978V43.73C105.978 43.254 105.843 42.904 105.572 42.68C105.302 42.456 104.966 42.344 104.564 42.344C104.2 42.344 103.883 42.4327 103.612 42.61C103.342 42.778 103.174 43.03 103.108 43.366H101.358C101.405 42.862 101.573 42.4233 101.862 42.05C102.161 41.6767 102.544 41.392 103.01 41.196C103.477 40.9907 104 40.888 104.578 40.888C105.568 40.888 106.347 41.1353 106.916 41.63C107.486 42.1247 107.77 42.8247 107.77 43.73V48H106.244L106.076 46.88C105.871 47.2533 105.582 47.5613 105.208 47.804C104.844 48.0467 104.373 48.168 103.794 48.168ZM104.2 46.768C104.714 46.768 105.11 46.6 105.39 46.264C105.68 45.928 105.862 45.5127 105.936 45.018H104.41C103.934 45.018 103.594 45.1067 103.388 45.284C103.183 45.452 103.08 45.662 103.08 45.914C103.08 46.1847 103.183 46.3947 103.388 46.544C103.594 46.6933 103.864 46.768 104.2 46.768Z" fill="#FFF3E5"/>
<g clip-path="url(#clip0_304_4747)">
<path d="M66.5006 29C58.5043 29 52 22.4957 52 14.5006C52 6.5056 58.5043 0 66.5006 0C74.497 0 81.0013 6.50431 81.0013 14.5006C81.0013 22.497 74.497 29.0013 66.5006 29.0013V29ZM66.5006 1.39708C59.2753 1.39708 53.3971 7.27534 53.3971 14.5006C53.3971 21.7259 59.2753 27.6029 66.4994 27.6029C73.7234 27.6029 79.6016 21.7247 79.6016 14.5006C79.6016 7.27662 73.7247 1.39708 66.5006 1.39708Z" fill="#FFF3E5"/>
<path d="M66.5787 19.3602C63.9218 19.3602 61.7588 17.1985 61.7588 14.5403C61.7588 11.8821 63.9205 9.72046 66.5787 9.72046C69.2368 9.72046 71.3985 11.8821 71.3985 14.5403C71.3985 17.1985 69.2368 19.3602 66.5787 19.3602ZM66.5787 11.1188C64.6915 11.1188 63.1572 12.6545 63.1572 14.5403C63.1572 16.4262 64.6928 17.9618 66.5787 17.9618C68.4645 17.9618 70.0002 16.4262 70.0002 14.5403C70.0002 12.6545 68.4645 11.1188 66.5787 11.1188Z" fill="#FFF3E5"/>
<path d="M68.0046 25.5335L66.9718 24.0736H66.1007L65.068 25.5335L62.3585 24.8074L62.1943 23.0267L61.44 22.5918L59.8158 23.3397L57.8324 21.3564L58.5804 19.7322L58.1455 18.9779L56.3648 18.8137L55.6387 16.1042L57.0986 15.0714V14.2003L55.6387 13.1676L56.3648 10.4581L58.1455 10.2939L58.5804 9.53956L57.8324 7.91541L59.8158 5.93204L61.44 6.67998L62.1943 6.24507L62.3585 4.4644L65.068 3.73828L66.1007 5.19822H66.9718L68.0046 3.73828L70.7141 4.4644L70.8783 6.24507L71.6326 6.67998L73.2568 5.93204L75.2401 7.91541L74.4922 9.53956L74.9271 10.2939L76.7078 10.4581L77.4339 13.1676L75.9739 14.2003V15.0714L77.4339 16.1042L76.7078 18.8137L74.9271 18.9779L74.4922 19.7322L75.2401 21.3564L73.2568 23.3397L71.6326 22.5918L70.8783 23.0267L70.7141 24.8074L68.0046 25.5335ZM63.6607 23.7092L64.4894 23.9312L65.3772 22.6752H67.6941L68.5819 23.9312L69.4106 23.7092L69.5517 22.1774L71.5582 21.019L72.9553 21.6617L73.5621 21.0549L72.9181 19.6578L74.0765 17.6514L75.6083 17.5102L75.8303 16.6815L74.5743 15.7937V13.4768L75.8303 12.589L75.6083 11.7603L74.0765 11.6191L72.9181 9.61269L73.5621 8.21561L72.9553 7.6088L71.5582 8.25153L69.5517 7.09307L69.4106 5.56128L68.5819 5.33934L67.6941 6.5953H65.3772L64.4894 5.33934L63.6607 5.56128L63.5195 7.09307L61.5131 8.25153L60.116 7.6088L59.5092 8.21561L60.1532 9.61269L58.9947 11.6191L57.463 11.7603L57.241 12.589L58.497 13.4768V15.7937L57.241 16.6815L57.463 17.5102L58.9947 17.6514L60.1532 19.6578L59.5092 21.0549L60.116 21.6617L61.5131 21.019L63.5195 22.1774L63.6607 23.7092Z" fill="#FFF3E5"/>
</g>
<defs>
<clipPath id="clip0_304_4747">
<rect width="29" height="29" fill="white" transform="translate(52)"/>
</clipPath>
</defs>
</svg>
