<svg width="134" height="50" viewBox="0 0 134 50" fill="none" xmlns="http://www.w3.org/2000/svg">
<path d="M38.7794 48V38.2H40.2634V48H38.7794ZM42.336 48V41.056H43.652L43.764 42.274C43.9787 41.8447 44.2914 41.5087 44.702 41.266C45.122 41.014 45.6027 40.888 46.144 40.888C46.984 40.888 47.642 41.1493 48.118 41.672C48.6034 42.1947 48.846 42.974 48.846 44.01V48H47.376V44.164C47.376 42.82 46.8254 42.148 45.724 42.148C45.1734 42.148 44.716 42.344 44.352 42.736C43.9974 43.128 43.82 43.688 43.82 44.416V48H42.336ZM52.5705 48L49.9665 41.056H51.5205L53.4525 46.586L55.3845 41.056H56.9245L54.3345 48H52.5705ZM60.2395 48.168C59.6515 48.168 59.1662 48.07 58.7835 47.874C58.4009 47.678 58.1162 47.4213 57.9295 47.104C57.7429 46.7773 57.6495 46.4227 57.6495 46.04C57.6495 45.368 57.9109 44.836 58.4335 44.444C58.9562 44.052 59.7029 43.856 60.6735 43.856L62.4935 43.856V43.73C62.4935 43.1887 62.3442 42.7827 62.0455 42.512C61.7562 42.2413 61.3782 42.106 60.9115 42.106C60.5009 42.106 60.1415 42.2087 59.8335 42.414C59.5349 42.61 59.3529 42.904 59.2875 43.296H57.8035C57.8502 42.792 58.0182 42.3627 58.3075 42.008C58.6062 41.644 58.9795 41.3687 59.4275 41.182C59.8849 40.986 60.3842 40.888 60.9255 40.888C61.8962 40.888 62.6475 41.1447 63.1795 41.658C63.7115 42.162 63.9775 42.8527 63.9775 43.73V48H62.6895L62.5635 46.81C62.3675 47.1927 62.0829 47.5147 61.7095 47.776C61.3362 48.0373 60.8462 48.168 60.2395 48.168ZM60.5335 46.964C60.9349 46.964 61.2709 46.8707 61.5415 46.684C61.8215 46.488 62.0362 46.2313 62.1855 45.914C62.3442 45.5967 62.4422 45.2467 62.4795 44.864H60.8275C60.2395 44.864 59.8195 44.9667 59.5675 45.172C59.3249 45.3773 59.2035 45.634 59.2035 45.942C59.2035 46.2593 59.3202 46.5113 59.5535 46.698C59.7962 46.8753 60.1229 46.964 60.5335 46.964ZM68.6198 48.168C67.7425 48.168 67.0192 47.9533 66.4498 47.524C65.8805 47.0947 65.5538 46.5253 65.4698 45.816H66.9678C67.0425 46.1333 67.2198 46.4087 67.4998 46.642C67.7798 46.866 68.1485 46.978 68.6058 46.978C69.0538 46.978 69.3805 46.8847 69.5858 46.698C69.7912 46.5113 69.8938 46.2967 69.8938 46.054C69.8938 45.6993 69.7492 45.4613 69.4598 45.34C69.1798 45.2093 68.7878 45.0927 68.2838 44.99C67.8918 44.906 67.4998 44.794 67.1078 44.654C66.7252 44.514 66.4032 44.318 66.1418 44.066C65.8898 43.8047 65.7638 43.4547 65.7638 43.016C65.7638 42.4093 65.9972 41.9053 66.4638 41.504C66.9305 41.0933 67.5838 40.888 68.4238 40.888C69.1985 40.888 69.8238 41.0747 70.2998 41.448C70.7852 41.8213 71.0698 42.3487 71.1538 43.03H69.7258C69.6792 42.7313 69.5392 42.498 69.3058 42.33C69.0818 42.162 68.7785 42.078 68.3958 42.078C68.0225 42.078 67.7332 42.1573 67.5278 42.316C67.3225 42.4653 67.2198 42.6613 67.2198 42.904C67.2198 43.1467 67.3598 43.338 67.6398 43.478C67.9292 43.618 68.3072 43.744 68.7738 43.856C69.2405 43.9587 69.6698 44.08 70.0618 44.22C70.4632 44.3507 70.7852 44.5467 71.0278 44.808C71.2705 45.0693 71.3918 45.452 71.3918 45.956C71.4012 46.5907 71.1538 47.118 70.6498 47.538C70.1552 47.958 69.4785 48.168 68.6198 48.168ZM76.3999 48.168C75.7372 48.168 75.1399 48.0187 74.6079 47.72C74.0852 47.412 73.6699 46.9873 73.3619 46.446C73.0539 45.8953 72.8999 45.256 72.8999 44.528C72.8999 43.8 73.0539 43.1653 73.3619 42.624C73.6792 42.0733 74.1039 41.6487 74.6359 41.35C75.1679 41.042 75.7606 40.888 76.4139 40.888C77.0766 40.888 77.6692 41.042 78.1919 41.35C78.7239 41.6487 79.1439 42.0733 79.4519 42.624C79.7692 43.1653 79.9279 43.8 79.9279 44.528C79.9279 45.256 79.7692 45.8953 79.4519 46.446C79.1439 46.9873 78.7239 47.412 78.1919 47.72C77.6599 48.0187 77.0626 48.168 76.3999 48.168ZM76.3999 46.894C76.7546 46.894 77.0812 46.8053 77.3799 46.628C77.6879 46.4507 77.9352 46.1893 78.1219 45.844C78.3086 45.4893 78.4019 45.0507 78.4019 44.528C78.4019 44.0053 78.3086 43.5713 78.1219 43.226C77.9446 42.8713 77.7019 42.6053 77.3939 42.428C77.0952 42.2507 76.7686 42.162 76.4139 42.162C76.0592 42.162 75.7279 42.2507 75.4199 42.428C75.1212 42.6053 74.8786 42.8713 74.6919 43.226C74.5052 43.5713 74.4119 44.0053 74.4119 44.528C74.4119 45.0507 74.5052 45.4893 74.6919 45.844C74.8786 46.1893 75.1212 46.4507 75.4199 46.628C75.7186 46.8053 76.0452 46.894 76.3999 46.894ZM77.2119 40.3C76.9599 40.3 76.7452 40.2487 76.5679 40.146C76.3906 40.034 76.2226 39.9267 76.0639 39.824C75.9146 39.712 75.7466 39.656 75.5599 39.656C75.2146 39.656 75.0139 39.866 74.9579 40.286H74.1319C74.2159 39.7447 74.3839 39.348 74.6359 39.096C74.8972 38.8347 75.2239 38.704 75.6159 38.704C75.8679 38.704 76.0826 38.76 76.2599 38.872C76.4372 38.9747 76.6006 39.082 76.7499 39.194C76.9086 39.2967 77.0859 39.348 77.2819 39.348C77.4406 39.348 77.5712 39.2967 77.6739 39.194C77.7859 39.0913 77.8559 38.9327 77.8839 38.718H78.7099C78.6352 39.25 78.4626 39.6467 78.1919 39.908C77.9306 40.1693 77.6039 40.3 77.2119 40.3ZM84.9208 48.168C84.2394 48.168 83.6328 48.0187 83.1008 47.72C82.5781 47.412 82.1674 46.9873 81.8688 46.446C81.5701 45.9047 81.4208 45.2747 81.4208 44.556C81.4208 43.828 81.5654 43.1887 81.8548 42.638C82.1534 42.0873 82.5641 41.658 83.0868 41.35C83.6188 41.042 84.2348 40.888 84.9348 40.888C85.6161 40.888 86.2088 41.042 86.7128 41.35C87.2168 41.6487 87.6088 42.05 87.8888 42.554C88.1688 43.058 88.3088 43.6133 88.3088 44.22C88.3088 44.3133 88.3041 44.416 88.2948 44.528C88.2948 44.6307 88.2901 44.7473 88.2808 44.878H82.8768C82.9234 45.55 83.1428 46.0633 83.5348 46.418C83.9361 46.7633 84.3981 46.936 84.9208 46.936C85.3408 46.936 85.6908 46.8427 85.9708 46.656C86.2601 46.46 86.4748 46.1987 86.6148 45.872H88.0988C87.9121 46.5253 87.5388 47.0713 86.9788 47.51C86.4281 47.9487 85.7421 48.168 84.9208 48.168ZM84.9208 42.106C84.4261 42.106 83.9874 42.2553 83.6048 42.554C83.2221 42.8433 82.9888 43.282 82.9048 43.87H86.8248C86.7968 43.3287 86.6054 42.8993 86.2508 42.582C85.8961 42.2647 85.4528 42.106 84.9208 42.106ZM92.7606 48.168C91.8832 48.168 91.1599 47.9533 90.5906 47.524C90.0212 47.0947 89.6946 46.5253 89.6106 45.816H91.1086C91.1832 46.1333 91.3606 46.4087 91.6406 46.642C91.9206 46.866 92.2892 46.978 92.7466 46.978C93.1946 46.978 93.5212 46.8847 93.7266 46.698C93.9319 46.5113 94.0346 46.2967 94.0346 46.054C94.0346 45.6993 93.8899 45.4613 93.6006 45.34C93.3206 45.2093 92.9286 45.0927 92.4246 44.99C92.0326 44.906 91.6406 44.794 91.2486 44.654C90.8659 44.514 90.5439 44.318 90.2826 44.066C90.0306 43.8047 89.9046 43.4547 89.9046 43.016C89.9046 42.4093 90.1379 41.9053 90.6046 41.504C91.0712 41.0933 91.7246 40.888 92.5646 40.888C93.3392 40.888 93.9646 41.0747 94.4406 41.448C94.9259 41.8213 95.2106 42.3487 95.2946 43.03H93.8666C93.8199 42.7313 93.6799 42.498 93.4466 42.33C93.2226 42.162 92.9192 42.078 92.5366 42.078C92.1632 42.078 91.8739 42.1573 91.6686 42.316C91.4632 42.4653 91.3606 42.6613 91.3606 42.904C91.3606 43.1467 91.5006 43.338 91.7806 43.478C92.0699 43.618 92.4479 43.744 92.9146 43.856C93.3812 43.9587 93.8106 44.08 94.2026 44.22C94.6039 44.3507 94.9259 44.5467 95.1686 44.808C95.4112 45.0693 95.5326 45.452 95.5326 45.956C95.5419 46.5907 95.2946 47.118 94.7906 47.538C94.2959 47.958 93.6192 48.168 92.7606 48.168Z" fill="#0b1a00"/>
<g clip-path="url(#clip0_304_4978)">
<path d="M66.5002 27.8504C59.1831 27.8504 53.2305 21.8858 53.2305 14.5539C53.2305 7.22192 59.1831 1.25732 66.5002 1.25732C73.8174 1.25732 79.77 7.22192 79.77 14.5539C79.77 21.8858 73.8174 27.8504 66.5002 27.8504ZM66.5002 2.66214C59.9565 2.66214 54.6325 7.99691 54.6325 14.5539C54.6325 21.1108 59.9565 26.4456 66.5002 26.4456C73.044 26.4456 78.368 21.1108 78.368 14.5539C78.368 7.99691 73.044 2.66214 66.5002 2.66214Z" fill="#0b1a00"/>
<path d="M66.4966 20.0173C63.4765 20.0173 61.0195 17.5553 61.0195 14.5291C61.0195 11.5029 63.4765 9.04102 66.4966 9.04102C69.5167 9.04102 71.9725 11.5029 71.9725 14.5291C71.9725 17.5553 69.5155 20.0173 66.4966 20.0173ZM66.4966 10.447C64.2499 10.447 62.4215 12.2779 62.4215 14.5303C62.4215 16.7827 64.2488 18.6136 66.4966 18.6136C68.7445 18.6136 70.5705 16.7827 70.5705 14.5303C70.5705 12.2779 68.7433 10.447 66.4966 10.447Z" fill="#0b1a00"/>
<path d="M67.2575 0H65.8555V7.58013H67.2575V0Z" fill="#0b1a00"/>
<path d="M67.2926 21.4736H65.8906V28.9999H67.2926V21.4736Z" fill="#0b1a00"/>
<path d="M81.0004 13.8081H73.501V15.2129H81.0004V13.8081Z" fill="#0b1a00"/>
<path d="M52.0012 13.8086L51.999 15.2134L59.4786 15.2252L59.4808 13.8203L52.0012 13.8086Z" fill="#0b1a00"/>
</g>
<defs>
<clipPath id="clip0_304_4978">
<rect width="29" height="29" fill="white" transform="translate(52)"/>
</clipPath>
</defs>
</svg>
