<svg width="19" height="19" viewBox="0 0 19 19" fill="none" xmlns="http://www.w3.org/2000/svg">
<path fill-rule="evenodd" clip-rule="evenodd" d="M6.91266 12.0873C6.80097 11.9757 6.6495 11.9129 6.49157 11.9129C6.33363 11.9129 6.18216 11.9757 6.07047 12.0873L1.19122 16.9666V13.6693C1.19122 13.5113 1.12847 13.3598 1.01677 13.2481C0.905073 13.1364 0.753577 13.0737 0.595611 13.0737C0.437645 13.0737 0.286149 13.1364 0.17445 13.2481C0.0627517 13.3598 0 13.5113 0 13.6693V18.4044C0 18.5624 0.0627517 18.7139 0.17445 18.8256C0.286149 18.9372 0.437645 19 0.595611 19H5.33072C5.48869 19 5.64018 18.9372 5.75188 18.8256C5.86358 18.7139 5.92633 18.5624 5.92633 18.4044C5.92633 18.2464 5.86358 18.0949 5.75188 17.9832C5.64018 17.8715 5.48869 17.8088 5.33072 17.8088H2.03342L6.91266 12.9295C7.02432 12.8178 7.08705 12.6664 7.08705 12.5084C7.08705 12.3505 7.02432 12.199 6.91266 12.0873ZM12.0873 12.0873C12.199 11.9757 12.3505 11.9129 12.5084 11.9129C12.6664 11.9129 12.8178 11.9757 12.9295 12.0873L17.8088 16.9666V13.6693C17.8088 13.5113 17.8715 13.3598 17.9832 13.2481C18.0949 13.1364 18.2464 13.0737 18.4044 13.0737C18.5624 13.0737 18.7139 13.1364 18.8256 13.2481C18.9372 13.3598 19 13.5113 19 13.6693V18.4044C19 18.5624 18.9372 18.7139 18.8256 18.8256C18.7139 18.9372 18.5624 19 18.4044 19H13.6693C13.5113 19 13.3598 18.9372 13.2481 18.8256C13.1364 18.7139 13.0737 18.5624 13.0737 18.4044C13.0737 18.2464 13.1364 18.0949 13.2481 17.9832C13.3598 17.8715 13.5113 17.8088 13.6693 17.8088H16.9666L12.0873 12.9295C11.9757 12.8178 11.9129 12.6664 11.9129 12.5084C11.9129 12.3505 11.9757 12.199 12.0873 12.0873ZM12.0873 6.91266C12.199 7.02432 12.3505 7.08705 12.5084 7.08705C12.6664 7.08705 12.8178 7.02432 12.9295 6.91266L17.8088 2.03342V5.33072C17.8088 5.48869 17.8715 5.64018 17.9832 5.75188C18.0949 5.86358 18.2464 5.92633 18.4044 5.92633C18.5624 5.92633 18.7139 5.86358 18.8256 5.75188C18.9372 5.64018 19 5.48869 19 5.33072V0.595611C19 0.437645 18.9372 0.286149 18.8256 0.17445C18.7139 0.0627517 18.5624 0 18.4044 0H13.6693C13.5113 2.35388e-09 13.3598 0.0627517 13.2481 0.17445C13.1364 0.286149 13.0737 0.437645 13.0737 0.595611C13.0737 0.753577 13.1364 0.905073 13.2481 1.01677C13.3598 1.12847 13.5113 1.19122 13.6693 1.19122H16.9666L12.0873 6.07047C11.9757 6.18216 11.9129 6.33363 11.9129 6.49157C11.9129 6.6495 11.9757 6.80097 12.0873 6.91266ZM6.91266 6.91266C6.80097 7.02432 6.6495 7.08705 6.49157 7.08705C6.33363 7.08705 6.18216 7.02432 6.07047 6.91266L1.19122 2.03342V5.33072C1.19122 5.48869 1.12847 5.64018 1.01677 5.75188C0.905073 5.86358 0.753577 5.92633 0.595611 5.92633C0.437645 5.92633 0.286149 5.86358 0.17445 5.75188C0.0627517 5.64018 0 5.48869 0 5.33072V0.595611C0 0.437645 0.0627517 0.286149 0.17445 0.17445C0.286149 0.0627517 0.437645 0 0.595611 0H5.33072C5.48869 2.35388e-09 5.64018 0.0627517 5.75188 0.17445C5.86358 0.286149 5.92633 0.437645 5.92633 0.595611C5.92633 0.753577 5.86358 0.905073 5.75188 1.01677C5.64018 1.12847 5.48869 1.19122 5.33072 1.19122H2.03342L6.91266 6.07047C7.02432 6.18216 7.08705 6.33363 7.08705 6.49157C7.08705 6.6495 7.02432 6.80097 6.91266 6.91266Z" fill="#6F767E"/>
</svg>
