<svg width="134" height="52" viewBox="0 0 134 52" fill="none" xmlns="http://www.w3.org/2000/svg">
<path d="M30.5805 48V38.2H32.7085L35.8305 44.416L38.9105 38.2H41.0385V48H39.2465V41.238L36.5165 46.6H35.1025L32.3725 41.238V48H30.5805ZM45.4318 48.168C44.8345 48.168 44.3445 48.0747 43.9618 47.888C43.5792 47.692 43.2945 47.4353 43.1078 47.118C42.9212 46.8007 42.8278 46.4507 42.8278 46.068C42.8278 45.424 43.0798 44.9013 43.5838 44.5C44.0878 44.0987 44.8438 43.898 45.8518 43.898H47.6158V43.73C47.6158 43.254 47.4805 42.904 47.2098 42.68C46.9392 42.456 46.6032 42.344 46.2018 42.344C45.8378 42.344 45.5205 42.4327 45.2498 42.61C44.9792 42.778 44.8112 43.03 44.7458 43.366H42.9958C43.0425 42.862 43.2105 42.4233 43.4998 42.05C43.7985 41.6767 44.1812 41.392 44.6478 41.196C45.1145 40.9907 45.6372 40.888 46.2158 40.888C47.2052 40.888 47.9845 41.1353 48.5538 41.63C49.1232 42.1247 49.4079 42.8247 49.4079 43.73V48H47.8818L47.7138 46.88C47.5085 47.2533 47.2192 47.5613 46.8458 47.804C46.4818 48.0467 46.0105 48.168 45.4318 48.168ZM45.8378 46.768C46.3512 46.768 46.7478 46.6 47.0278 46.264C47.3172 45.928 47.4992 45.5127 47.5738 45.018H46.0478C45.5718 45.018 45.2312 45.1067 45.0258 45.284C44.8205 45.452 44.7178 45.662 44.7178 45.914C44.7178 46.1847 44.8205 46.3947 45.0258 46.544C45.2312 46.6933 45.5018 46.768 45.8378 46.768ZM51.2579 51.08V41.056H52.8539L53.0499 42.05C53.2739 41.742 53.5679 41.4713 53.9319 41.238C54.3053 41.0047 54.7859 40.888 55.3739 40.888C56.0273 40.888 56.6106 41.0467 57.1239 41.364C57.6373 41.6813 58.0433 42.1153 58.3419 42.666C58.6406 43.2167 58.7899 43.842 58.7899 44.542C58.7899 45.242 58.6406 45.8673 58.3419 46.418C58.0433 46.9593 57.6373 47.3887 57.1239 47.706C56.6106 48.014 56.0273 48.168 55.3739 48.168C54.8513 48.168 54.3939 48.07 54.0019 47.874C53.6099 47.678 53.2926 47.4027 53.0499 47.048V51.08H51.2579ZM54.9959 46.6C55.5653 46.6 56.0366 46.4087 56.4099 46.026C56.7833 45.6433 56.9699 45.1487 56.9699 44.542C56.9699 43.9353 56.7833 43.436 56.4099 43.044C56.0366 42.652 55.5653 42.456 54.9959 42.456C54.4173 42.456 53.9413 42.652 53.5679 43.044C53.2039 43.4267 53.0219 43.9213 53.0219 44.528C53.0219 45.1347 53.2039 45.634 53.5679 46.026C53.9413 46.4087 54.4173 46.6 54.9959 46.6ZM62.9247 48.168C62.3274 48.168 61.8374 48.0747 61.4547 47.888C61.0721 47.692 60.7874 47.4353 60.6007 47.118C60.4141 46.8007 60.3207 46.4507 60.3207 46.068C60.3207 45.424 60.5727 44.9013 61.0767 44.5C61.5807 44.0987 62.3367 43.898 63.3447 43.898L65.1087 43.898V43.73C65.1087 43.254 64.9734 42.904 64.7027 42.68C64.4321 42.456 64.0961 42.344 63.6947 42.344C63.3307 42.344 63.0134 42.4327 62.7427 42.61C62.4721 42.778 62.3041 43.03 62.2387 43.366H60.4887C60.5354 42.862 60.7034 42.4233 60.9927 42.05C61.2914 41.6767 61.6741 41.392 62.1407 41.196C62.6074 40.9907 63.1301 40.888 63.7087 40.888C64.6981 40.888 65.4774 41.1353 66.0467 41.63C66.6161 42.1247 66.9007 42.8247 66.9007 43.73V48H65.3747L65.2067 46.88C65.0014 47.2533 64.7121 47.5613 64.3387 47.804C63.9747 48.0467 63.5034 48.168 62.9247 48.168ZM63.3307 46.768C63.8441 46.768 64.2407 46.6 64.5207 46.264C64.8101 45.928 64.9921 45.5127 65.0667 45.018H63.5407C63.0647 45.018 62.7241 45.1067 62.5187 45.284C62.3134 45.452 62.2107 45.662 62.2107 45.914C62.2107 46.1847 62.3134 46.3947 62.5187 46.544C62.7241 46.6933 62.9947 46.768 63.3307 46.768ZM72.2688 48V38.2H76.2028C77.2201 38.2 77.9948 38.438 78.5268 38.914C79.0681 39.3807 79.3388 39.9827 79.3388 40.72C79.3388 41.336 79.1708 41.8307 78.8348 42.204C78.5081 42.568 78.1068 42.8153 77.6308 42.946C78.1908 43.058 78.6528 43.338 79.0168 43.786C79.3808 44.2247 79.5628 44.738 79.5628 45.326C79.5628 46.1007 79.2828 46.74 78.7228 47.244C78.1628 47.748 77.3694 48 76.3428 48H72.2688ZM74.0608 42.316H75.9368C76.4408 42.316 76.8281 42.1993 77.0988 41.966C77.3694 41.7327 77.5048 41.4013 77.5048 40.972C77.5048 40.5613 77.3694 40.2393 77.0988 40.006C76.8374 39.7633 76.4408 39.642 75.9088 39.642H74.0608V42.316ZM74.0608 46.544H76.0628C76.5948 46.544 77.0054 46.4227 77.2948 46.18C77.5934 45.928 77.7428 45.578 77.7428 45.13C77.7428 44.6727 77.5888 44.3133 77.2808 44.052C76.9728 43.7907 76.5574 43.66 76.0348 43.66H74.0608V46.544ZM83.5928 48.168C82.9955 48.168 82.5055 48.0747 82.1228 47.888C81.7401 47.692 81.4555 47.4353 81.2688 47.118C81.0821 46.8007 80.9888 46.4507 80.9888 46.068C80.9888 45.424 81.2408 44.9013 81.7448 44.5C82.2488 44.0987 83.0048 43.898 84.0128 43.898H85.7768V43.73C85.7768 43.254 85.6415 42.904 85.3708 42.68C85.1001 42.456 84.7641 42.344 84.3628 42.344C83.9988 42.344 83.6815 42.4327 83.4108 42.61C83.1401 42.778 82.9721 43.03 82.9068 43.366H81.1568C81.2035 42.862 81.3715 42.4233 81.6608 42.05C81.9595 41.6767 82.3421 41.392 82.8088 41.196C83.2755 40.9907 83.7981 40.888 84.3768 40.888C85.3661 40.888 86.1455 41.1353 86.7148 41.63C87.2841 42.1247 87.5688 42.8247 87.5688 43.73V48H86.0428L85.8748 46.88C85.6695 47.2533 85.3801 47.5613 85.0068 47.804C84.6428 48.0467 84.1715 48.168 83.5928 48.168ZM83.9988 46.768C84.5121 46.768 84.9088 46.6 85.1888 46.264C85.4781 45.928 85.6601 45.5127 85.7348 45.018H84.2088C83.7328 45.018 83.3921 45.1067 83.1868 45.284C82.9815 45.452 82.8788 45.662 82.8788 45.914C82.8788 46.1847 82.9815 46.3947 83.1868 46.544C83.3921 46.6933 83.6628 46.768 83.9988 46.768ZM92.2889 48.168C91.6729 48.168 91.1315 48.07 90.6649 47.874C90.1982 47.6687 89.8249 47.3887 89.5449 47.034C89.2649 46.6793 89.0969 46.2687 89.0409 45.802H90.8469C90.9029 46.0727 91.0522 46.306 91.2949 46.502C91.5469 46.6887 91.8689 46.782 92.2609 46.782C92.6529 46.782 92.9375 46.7027 93.1149 46.544C93.3015 46.3853 93.3949 46.2033 93.3949 45.998C93.3949 45.6993 93.2642 45.4987 93.0029 45.396C92.7415 45.284 92.3775 45.1767 91.9109 45.074C91.6122 45.0087 91.3089 44.9293 91.0009 44.836C90.6929 44.7427 90.4082 44.626 90.1469 44.486C89.8949 44.3367 89.6895 44.15 89.5309 43.926C89.3722 43.6927 89.2929 43.408 89.2929 43.072C89.2929 42.456 89.5355 41.938 90.0209 41.518C90.5155 41.098 91.2062 40.888 92.0929 40.888C92.9142 40.888 93.5675 41.0793 94.0529 41.462C94.5475 41.8447 94.8415 42.372 94.9349 43.044H93.2409C93.1382 42.5307 92.7509 42.274 92.0789 42.274C91.7429 42.274 91.4815 42.3393 91.2949 42.47C91.1175 42.6007 91.0289 42.764 91.0289 42.96C91.0289 43.1653 91.1642 43.3287 91.4349 43.45C91.7055 43.5713 92.0649 43.6833 92.5129 43.786C92.9982 43.898 93.4415 44.024 93.8429 44.164C94.2535 44.2947 94.5802 44.4953 94.8229 44.766C95.0655 45.0273 95.1869 45.4053 95.1869 45.9C95.1962 46.3293 95.0842 46.7167 94.8509 47.062C94.6175 47.4073 94.2815 47.678 93.8429 47.874C93.4042 48.07 92.8862 48.168 92.2889 48.168ZM100.288 48.168C99.5883 48.168 98.9677 48.0187 98.4263 47.72C97.885 47.4213 97.4603 47.0013 97.1523 46.46C96.8443 45.9187 96.6903 45.2933 96.6903 44.584C96.6903 43.8653 96.8397 43.226 97.1383 42.666C97.4463 42.106 97.8663 41.672 98.3983 41.364C98.9397 41.0467 99.5743 40.888 100.302 40.888C100.984 40.888 101.586 41.0373 102.108 41.336C102.631 41.6347 103.037 42.0453 103.326 42.568C103.625 43.0813 103.774 43.6553 103.774 44.29C103.774 44.3927 103.77 44.5 103.76 44.612C103.76 44.724 103.756 44.8407 103.746 44.962H98.4683C98.5057 45.5033 98.6923 45.928 99.0283 46.236C99.3737 46.544 99.789 46.698 100.274 46.698C100.638 46.698 100.942 46.6187 101.184 46.46C101.436 46.292 101.623 46.0773 101.744 45.816H103.564C103.434 46.2547 103.214 46.656 102.906 47.02C102.608 47.3747 102.234 47.6547 101.786 47.86C101.348 48.0653 100.848 48.168 100.288 48.168ZM100.302 42.344C99.8637 42.344 99.4763 42.47 99.1403 42.722C98.8043 42.9647 98.5897 43.338 98.4963 43.842H101.954C101.926 43.3847 101.758 43.0207 101.45 42.75C101.142 42.4793 100.76 42.344 100.302 42.344Z" fill="#2D8C2D"/>
<g clip-path="url(#clip0_178_56755)">
<path d="M51.0192 15.6539C51.006 15.4103 51 15.1632 51 14.9185H52.4384C52.4384 15.1387 52.4444 15.3625 52.4564 15.5816L51.0204 15.6539H51.0192Z" fill="#2D8C2D"/>
<path d="M66.2523 29L66.1792 27.6038C66.6335 27.5816 67.0914 27.535 67.5397 27.4674L67.7626 28.8497C67.2652 28.9254 66.757 28.9767 66.2535 29.0012L66.2523 29ZM64.736 29C64.2314 28.9744 63.7244 28.9231 63.227 28.8474L63.4511 27.4662C63.8994 27.535 64.3573 27.5816 64.8116 27.6038L64.7372 29H64.736ZM69.2465 28.5432L68.8762 27.1923C69.3149 27.0781 69.7524 26.9406 70.1767 26.7821L70.6921 28.0874C70.221 28.2634 69.7356 28.4161 69.2477 28.5432H69.2465ZM61.7418 28.5408C61.2552 28.415 60.7697 28.2611 60.2975 28.0851L60.8129 26.7798C61.2372 26.9383 61.6747 27.077 62.1122 27.19L61.7406 28.5408H61.7418ZM72.0789 27.4872L71.4257 26.2413C71.8296 26.0408 72.2288 25.817 72.6099 25.5758L73.3939 26.7483C72.9707 27.0163 72.5284 27.2646 72.0801 27.4872H72.0789ZM58.913 27.4837C58.4647 27.2611 58.0224 27.0129 57.6005 26.7448L58.3844 25.5723C58.7656 25.8136 59.1635 26.0373 59.5675 26.2378L58.913 27.4837ZM74.6213 25.8812L73.7163 24.7949C74.0687 24.5175 74.4103 24.218 74.7327 23.9056L75.7492 24.8951C75.392 25.2425 75.0132 25.5735 74.6213 25.8823V25.8812ZM56.3731 25.8765C55.9823 25.5676 55.6024 25.2355 55.2464 24.8893L56.264 23.901C56.5853 24.2133 56.9269 24.5129 57.2793 24.7914L56.3731 25.8777V25.8765ZM76.7644 23.7984L75.6473 22.9173C75.9338 22.5746 76.2047 22.2133 76.4528 21.8427L77.6574 22.6061C77.3817 23.0164 77.0821 23.4173 76.7644 23.7984ZM54.2299 23.7926C53.9123 23.4115 53.6114 23.0105 53.3369 22.5991L54.5428 21.8369C54.7909 22.2063 55.0606 22.5688 55.3471 22.9126L54.2299 23.7937V23.7926ZM78.4186 21.3299L77.1372 20.6935C77.3434 20.3007 77.5316 19.8928 77.6946 19.4802L79.0371 19.9825C78.8561 20.4394 78.6475 20.8928 78.4186 21.3299ZM52.577 21.3217C52.3469 20.8846 52.1395 20.4313 51.9585 19.9732L53.301 19.4721C53.464 19.8846 53.651 20.2926 53.8571 20.6865L52.5758 21.3229L52.577 21.3217ZM79.5069 18.5793L78.1177 18.2168C78.2352 17.7902 78.3311 17.3532 78.4018 16.9173L79.8222 17.1352C79.7431 17.6201 79.6376 18.1061 79.5069 18.5793ZM51.4898 18.5688C51.3604 18.0956 51.2537 17.6096 51.1758 17.1247L52.5974 16.908C52.6681 17.345 52.7628 17.7821 52.8803 18.2087L51.491 18.57L51.4898 18.5688Z" fill="#2D8C2D"/>
<path d="M79.9809 15.6539L78.5449 15.5816C78.5569 15.3625 78.5629 15.1399 78.5629 14.9185H80.0013C80.0013 15.1632 79.9953 15.4103 79.9821 15.6539H79.9809Z" fill="#2D8C2D"/>
<path d="M65.7923 14.1108C63.4022 14.1108 61.458 12.2203 61.458 9.89634C61.458 7.57233 63.4022 5.68188 65.7923 5.68188C68.1824 5.68188 70.1266 7.57233 70.1266 9.89634C70.1266 12.2203 68.1824 14.1108 65.7923 14.1108ZM65.7923 7.08049C64.1957 7.08049 62.8964 8.34389 62.8964 9.89634C62.8964 11.4488 64.1957 12.7122 65.7923 12.7122C67.3889 12.7122 68.6882 11.4488 68.6882 9.89634C68.6882 8.34389 67.3889 7.08049 65.7923 7.08049Z" fill="#2D8C2D"/>
<path d="M65.7017 27.9277L56.9756 14.8193C56.1065 13.3333 55.6475 11.6399 55.6475 9.92075C55.6475 4.45105 60.2251 0 65.8503 0C71.4756 0 76.0532 4.45105 76.0532 9.92075C76.0532 11.6562 75.5857 13.3636 74.6999 14.8601L74.6735 14.9009L65.6993 27.9277H65.7017ZM58.2162 14.1107L65.7221 25.3846L73.4665 14.1422C74.2181 12.8625 74.616 11.4033 74.616 9.92075C74.616 5.22145 70.6845 1.3986 65.8515 1.3986C61.0186 1.3986 57.0858 5.22145 57.0858 9.92075C57.0858 11.3904 57.4766 12.8392 58.2162 14.1107Z" fill="#2D8C2D"/>
</g>
<defs>
<clipPath id="clip0_178_56755">
<rect width="29" height="29" fill="white" transform="translate(51)"/>
</clipPath>
</defs>
</svg>
