<svg width="134" height="52" viewBox="0 0 134 52" fill="none" xmlns="http://www.w3.org/2000/svg">
<path d="M31.4154 48V38.2H33.1654L36.4834 44.724L39.7874 38.2H41.5374V48H40.0534V40.762L37.0574 46.6H35.9094L32.8994 40.776V48H31.4154ZM45.9647 48.168C45.3767 48.168 44.8914 48.07 44.5087 47.874C44.1261 47.678 43.8414 47.4213 43.6547 47.104C43.4681 46.7773 43.3747 46.4227 43.3747 46.04C43.3747 45.368 43.6361 44.836 44.1587 44.444C44.6814 44.052 45.4281 43.856 46.3987 43.856H48.2187V43.73C48.2187 43.1887 48.0694 42.7827 47.7707 42.512C47.4814 42.2413 47.1034 42.106 46.6367 42.106C46.2261 42.106 45.8667 42.2087 45.5587 42.414C45.2601 42.61 45.0781 42.904 45.0127 43.296H43.5287C43.5754 42.792 43.7434 42.3627 44.0327 42.008C44.3314 41.644 44.7047 41.3687 45.1527 41.182C45.6101 40.986 46.1094 40.888 46.6507 40.888C47.6214 40.888 48.3727 41.1447 48.9047 41.658C49.4367 42.162 49.7027 42.8527 49.7027 43.73V48H48.4147L48.2887 46.81C48.0927 47.1927 47.8081 47.5147 47.4347 47.776C47.0614 48.0373 46.5714 48.168 45.9647 48.168ZM46.2587 46.964C46.6601 46.964 46.9961 46.8707 47.2667 46.684C47.5467 46.488 47.7614 46.2313 47.9107 45.914C48.0694 45.5967 48.1674 45.2467 48.2047 44.864H46.5527C45.9647 44.864 45.5447 44.9667 45.2927 45.172C45.0501 45.3773 44.9287 45.634 44.9287 45.942C44.9287 46.2593 45.0454 46.5113 45.2787 46.698C45.5214 46.8753 45.8481 46.964 46.2587 46.964ZM51.573 51.08V41.056H52.903L53.057 42.134C53.281 41.8073 53.589 41.518 53.981 41.266C54.373 41.014 54.877 40.888 55.493 40.888C56.165 40.888 56.7577 41.0467 57.271 41.364C57.7844 41.6813 58.1857 42.1153 58.475 42.666C58.7737 43.2167 58.923 43.842 58.923 44.542C58.923 45.242 58.7737 45.8673 58.475 46.418C58.1857 46.9593 57.7844 47.3887 57.271 47.706C56.7577 48.014 56.1604 48.168 55.479 48.168C54.9377 48.168 54.457 48.0607 54.037 47.846C53.6264 47.6313 53.2997 47.328 53.057 46.936V51.08H51.573ZM55.227 46.88C55.8617 46.88 56.3844 46.6653 56.795 46.236C57.2057 45.7973 57.411 45.228 57.411 44.528C57.411 44.0707 57.3177 43.6647 57.131 43.31C56.9444 42.9553 56.6877 42.68 56.361 42.484C56.0344 42.2787 55.6564 42.176 55.227 42.176C54.5924 42.176 54.0697 42.3953 53.659 42.834C53.2577 43.2727 53.057 43.8373 53.057 44.528C53.057 45.228 53.2577 45.7973 53.659 46.236C54.0697 46.6653 54.5924 46.88 55.227 46.88ZM63.0201 48.168C62.4321 48.168 61.9468 48.07 61.5641 47.874C61.1815 47.678 60.8968 47.4213 60.7101 47.104C60.5235 46.7773 60.4301 46.4227 60.4301 46.04C60.4301 45.368 60.6915 44.836 61.2141 44.444C61.7368 44.052 62.4835 43.856 63.4541 43.856L65.2741 43.856V43.73C65.2741 43.1887 65.1248 42.7827 64.8261 42.512C64.5368 42.2413 64.1588 42.106 63.6921 42.106C63.2815 42.106 62.9221 42.2087 62.6141 42.414C62.3155 42.61 62.1335 42.904 62.0681 43.296H60.5841C60.6308 42.792 60.7988 42.3627 61.0881 42.008C61.3868 41.644 61.7601 41.3687 62.2081 41.182C62.6655 40.986 63.1648 40.888 63.7061 40.888C64.6768 40.888 65.4281 41.1447 65.9601 41.658C66.4921 42.162 66.7581 42.8527 66.7581 43.73V48H65.4701L65.3441 46.81C65.1481 47.1927 64.8635 47.5147 64.4901 47.776C64.1168 48.0373 63.6268 48.168 63.0201 48.168ZM63.3141 46.964C63.7155 46.964 64.0515 46.8707 64.3221 46.684C64.6021 46.488 64.8168 46.2313 64.9661 45.914C65.1248 45.5967 65.2228 45.2467 65.2601 44.864H63.6081C63.0201 44.864 62.6001 44.9667 62.3481 45.172C62.1055 45.3773 61.9841 45.634 61.9841 45.942C61.9841 46.2593 62.1008 46.5113 62.3341 46.698C62.5768 46.8753 62.9035 46.964 63.3141 46.964ZM72.3518 48V38.2H76.0478C77.0651 38.2 77.8351 38.438 78.3578 38.914C78.8804 39.39 79.1418 39.9873 79.1418 40.706C79.1418 41.3313 78.9738 41.8307 78.6378 42.204C78.3018 42.568 77.8958 42.8153 77.4198 42.946C77.7931 43.0207 78.1244 43.17 78.4138 43.394C78.7124 43.618 78.9458 43.898 79.1138 44.234C79.2818 44.57 79.3658 44.934 79.3658 45.326C79.3658 45.83 79.2398 46.2873 78.9878 46.698C78.7451 47.0993 78.3858 47.4167 77.9098 47.65C77.4338 47.8833 76.8504 48 76.1598 48H72.3518ZM73.8358 42.4H75.8658C76.4351 42.4 76.8691 42.2693 77.1678 42.008C77.4664 41.7373 77.6158 41.3687 77.6158 40.902C77.6158 40.4447 77.4664 40.0807 77.1678 39.81C76.8784 39.5393 76.4351 39.404 75.8378 39.404H73.8358V42.4ZM73.8358 46.782H75.9638C76.5611 46.782 77.0231 46.642 77.3498 46.362C77.6858 46.082 77.8538 45.69 77.8538 45.186C77.8538 44.682 77.6811 44.2853 77.3358 43.996C76.9904 43.6973 76.5238 43.548 75.9358 43.548H73.8358V46.782ZM83.4284 48.168C82.8404 48.168 82.3551 48.07 81.9724 47.874C81.5897 47.678 81.3051 47.4213 81.1184 47.104C80.9317 46.7773 80.8384 46.4227 80.8384 46.04C80.8384 45.368 81.0997 44.836 81.6224 44.444C82.1451 44.052 82.8917 43.856 83.8624 43.856H85.6824V43.73C85.6824 43.1887 85.5331 42.7827 85.2344 42.512C84.9451 42.2413 84.5671 42.106 84.1004 42.106C83.6897 42.106 83.3304 42.2087 83.0224 42.414C82.7237 42.61 82.5417 42.904 82.4764 43.296H80.9924C81.0391 42.792 81.2071 42.3627 81.4964 42.008C81.7951 41.644 82.1684 41.3687 82.6164 41.182C83.0737 40.986 83.5731 40.888 84.1144 40.888C85.0851 40.888 85.8364 41.1447 86.3684 41.658C86.9004 42.162 87.1664 42.8527 87.1664 43.73V48H85.8784L85.7524 46.81C85.5564 47.1927 85.2717 47.5147 84.8984 47.776C84.5251 48.0373 84.0351 48.168 83.4284 48.168ZM83.7224 46.964C84.1237 46.964 84.4597 46.8707 84.7304 46.684C85.0104 46.488 85.2251 46.2313 85.3744 45.914C85.5331 45.5967 85.6311 45.2467 85.6684 44.864H84.0164C83.4284 44.864 83.0084 44.9667 82.7564 45.172C82.5137 45.3773 82.3924 45.634 82.3924 45.942C82.3924 46.2593 82.5091 46.5113 82.7424 46.698C82.9851 46.8753 83.3117 46.964 83.7224 46.964ZM91.8087 48.168C90.9314 48.168 90.208 47.9533 89.6387 47.524C89.0694 47.0947 88.7427 46.5253 88.6587 45.816H90.1567C90.2314 46.1333 90.4087 46.4087 90.6887 46.642C90.9687 46.866 91.3374 46.978 91.7947 46.978C92.2427 46.978 92.5694 46.8847 92.7747 46.698C92.98 46.5113 93.0827 46.2967 93.0827 46.054C93.0827 45.6993 92.938 45.4613 92.6487 45.34C92.3687 45.2093 91.9767 45.0927 91.4727 44.99C91.0807 44.906 90.6887 44.794 90.2967 44.654C89.914 44.514 89.592 44.318 89.3307 44.066C89.0787 43.8047 88.9527 43.4547 88.9527 43.016C88.9527 42.4093 89.186 41.9053 89.6527 41.504C90.1194 41.0933 90.7727 40.888 91.6127 40.888C92.3874 40.888 93.0127 41.0747 93.4887 41.448C93.974 41.8213 94.2587 42.3487 94.3427 43.03H92.9147C92.868 42.7313 92.728 42.498 92.4947 42.33C92.2707 42.162 91.9674 42.078 91.5847 42.078C91.2114 42.078 90.922 42.1573 90.7167 42.316C90.5114 42.4653 90.4087 42.6613 90.4087 42.904C90.4087 43.1467 90.5487 43.338 90.8287 43.478C91.118 43.618 91.496 43.744 91.9627 43.856C92.4294 43.9587 92.8587 44.08 93.2507 44.22C93.652 44.3507 93.974 44.5467 94.2167 44.808C94.4594 45.0693 94.5807 45.452 94.5807 45.956C94.59 46.5907 94.3427 47.118 93.8387 47.538C93.344 47.958 92.6674 48.168 91.8087 48.168ZM99.5888 48.168C98.9074 48.168 98.3008 48.0187 97.7688 47.72C97.2461 47.412 96.8354 46.9873 96.5368 46.446C96.2381 45.9047 96.0888 45.2747 96.0888 44.556C96.0888 43.828 96.2334 43.1887 96.5228 42.638C96.8214 42.0873 97.2321 41.658 97.7548 41.35C98.2868 41.042 98.9028 40.888 99.6028 40.888C100.284 40.888 100.877 41.042 101.381 41.35C101.885 41.6487 102.277 42.05 102.557 42.554C102.837 43.058 102.977 43.6133 102.977 44.22C102.977 44.3133 102.972 44.416 102.963 44.528C102.963 44.6307 102.958 44.7473 102.949 44.878H97.5448C97.5914 45.55 97.8108 46.0633 98.2028 46.418C98.6041 46.7633 99.0661 46.936 99.5888 46.936C100.009 46.936 100.359 46.8427 100.639 46.656C100.928 46.46 101.143 46.1987 101.283 45.872H102.767C102.58 46.5253 102.207 47.0713 101.647 47.51C101.096 47.9487 100.41 48.168 99.5888 48.168ZM99.5888 42.106C99.0941 42.106 98.6554 42.2553 98.2728 42.554C97.8901 42.8433 97.6568 43.282 97.5728 43.87H101.493C101.465 43.3287 101.273 42.8993 100.919 42.582C100.564 42.2647 100.121 42.106 99.5888 42.106Z" fill="#FFF3E5"/>
<g clip-path="url(#clip0_223_56553)">
<path d="M51.0192 15.6539C51.006 15.4103 51 15.1632 51 14.9185H52.4384C52.4384 15.1387 52.4444 15.3625 52.4564 15.5816L51.0204 15.6539H51.0192Z" fill="#FFF3E5"/>
<path d="M66.2523 29L66.1792 27.6038C66.6335 27.5816 67.0914 27.535 67.5397 27.4674L67.7626 28.8497C67.2652 28.9254 66.757 28.9767 66.2535 29.0012L66.2523 29ZM64.736 29C64.2314 28.9744 63.7244 28.9231 63.227 28.8474L63.4511 27.4662C63.8994 27.535 64.3573 27.5816 64.8116 27.6038L64.7372 29H64.736ZM69.2465 28.5432L68.8762 27.1923C69.3149 27.0781 69.7524 26.9406 70.1767 26.7821L70.6921 28.0874C70.221 28.2634 69.7356 28.4161 69.2477 28.5432H69.2465ZM61.7418 28.5408C61.2552 28.415 60.7697 28.2611 60.2975 28.0851L60.8129 26.7798C61.2372 26.9383 61.6747 27.077 62.1122 27.19L61.7406 28.5408H61.7418ZM72.0789 27.4872L71.4257 26.2413C71.8296 26.0408 72.2288 25.817 72.6099 25.5758L73.3939 26.7483C72.9707 27.0163 72.5284 27.2646 72.0801 27.4872H72.0789ZM58.913 27.4837C58.4647 27.2611 58.0224 27.0129 57.6005 26.7448L58.3844 25.5723C58.7656 25.8136 59.1635 26.0373 59.5675 26.2378L58.913 27.4837ZM74.6213 25.8812L73.7163 24.7949C74.0687 24.5175 74.4103 24.218 74.7327 23.9056L75.7492 24.8951C75.392 25.2425 75.0132 25.5735 74.6213 25.8823V25.8812ZM56.3731 25.8765C55.9823 25.5676 55.6024 25.2355 55.2464 24.8893L56.264 23.901C56.5853 24.2133 56.9269 24.5129 57.2793 24.7914L56.3731 25.8777V25.8765ZM76.7644 23.7984L75.6473 22.9173C75.9338 22.5746 76.2047 22.2133 76.4528 21.8427L77.6574 22.6061C77.3817 23.0164 77.0821 23.4173 76.7644 23.7984ZM54.2299 23.7926C53.9123 23.4115 53.6114 23.0105 53.3369 22.5991L54.5428 21.8369C54.7909 22.2063 55.0606 22.5688 55.3471 22.9126L54.2299 23.7937V23.7926ZM78.4186 21.3299L77.1372 20.6935C77.3434 20.3007 77.5316 19.8928 77.6946 19.4802L79.0371 19.9825C78.8561 20.4394 78.6475 20.8928 78.4186 21.3299ZM52.577 21.3217C52.3469 20.8846 52.1395 20.4313 51.9585 19.9732L53.301 19.4721C53.464 19.8846 53.651 20.2926 53.8571 20.6865L52.5758 21.3229L52.577 21.3217ZM79.5069 18.5793L78.1177 18.2168C78.2352 17.7902 78.3311 17.3532 78.4018 16.9173L79.8222 17.1352C79.7431 17.6201 79.6376 18.1061 79.5069 18.5793ZM51.4898 18.5688C51.3604 18.0956 51.2537 17.6096 51.1758 17.1247L52.5974 16.908C52.6681 17.345 52.7628 17.7821 52.8803 18.2087L51.491 18.57L51.4898 18.5688Z" fill="#FFF3E5"/>
<path d="M79.9809 15.6539L78.5449 15.5816C78.5569 15.3625 78.5629 15.1399 78.5629 14.9185H80.0013C80.0013 15.1632 79.9953 15.4103 79.9821 15.6539H79.9809Z" fill="#FFF3E5"/>
<path d="M65.7923 14.1108C63.4022 14.1108 61.458 12.2203 61.458 9.89634C61.458 7.57233 63.4022 5.68188 65.7923 5.68188C68.1824 5.68188 70.1266 7.57233 70.1266 9.89634C70.1266 12.2203 68.1824 14.1108 65.7923 14.1108ZM65.7923 7.08049C64.1957 7.08049 62.8964 8.34389 62.8964 9.89634C62.8964 11.4488 64.1957 12.7122 65.7923 12.7122C67.3889 12.7122 68.6882 11.4488 68.6882 9.89634C68.6882 8.34389 67.3889 7.08049 65.7923 7.08049Z" fill="#FFF3E5"/>
<path d="M65.7017 27.9277L56.9756 14.8193C56.1065 13.3333 55.6475 11.6399 55.6475 9.92075C55.6475 4.45105 60.2251 0 65.8503 0C71.4756 0 76.0532 4.45105 76.0532 9.92075C76.0532 11.6562 75.5857 13.3636 74.6999 14.8601L74.6735 14.9009L65.6993 27.9277H65.7017ZM58.2162 14.1107L65.7221 25.3846L73.4665 14.1422C74.2181 12.8625 74.616 11.4033 74.616 9.92075C74.616 5.22145 70.6845 1.3986 65.8515 1.3986C61.0186 1.3986 57.0858 5.22145 57.0858 9.92075C57.0858 11.3904 57.4766 12.8392 58.2162 14.1107Z" fill="#FFF3E5"/>
</g>
<defs>
<clipPath id="clip0_223_56553">
<rect width="29" height="29" fill="white" transform="translate(51)"/>
</clipPath>
</defs>
</svg>
