<svg width="134" height="50" viewBox="0 0 134 50" fill="none" xmlns="http://www.w3.org/2000/svg">
<path d="M15.5895 48L15.5895 38.2H17.7175L20.8395 44.416L23.9195 38.2H26.0475L26.0475 48H24.2555L24.2555 41.238L21.5255 46.6H20.1115L17.3815 41.238L17.3815 48H15.5895ZM31.4209 48.168C30.7209 48.168 30.1002 48.0187 29.5589 47.72C29.0176 47.4213 28.5929 47.0013 28.2849 46.46C27.9769 45.9187 27.8229 45.2933 27.8229 44.584C27.8229 43.8653 27.9722 43.226 28.2709 42.666C28.5789 42.106 28.9989 41.672 29.5309 41.364C30.0722 41.0467 30.7069 40.888 31.4349 40.888C32.1162 40.888 32.7182 41.0373 33.2409 41.336C33.7636 41.6347 34.1696 42.0453 34.4589 42.568C34.7576 43.0813 34.9069 43.6553 34.9069 44.29C34.9069 44.3927 34.9022 44.5 34.8929 44.612C34.8929 44.724 34.8882 44.8407 34.8789 44.962H29.6009C29.6382 45.5033 29.8249 45.928 30.1609 46.236C30.5062 46.544 30.9216 46.698 31.4069 46.698C31.7709 46.698 32.0742 46.6187 32.3169 46.46C32.5689 46.292 32.7556 46.0773 32.8769 45.816H34.6969C34.5662 46.2547 34.3469 46.656 34.0389 47.02C33.7402 47.3747 33.3669 47.6547 32.9189 47.86C32.4802 48.0653 31.9809 48.168 31.4209 48.168ZM31.4349 42.344C30.9962 42.344 30.6089 42.47 30.2729 42.722C29.9369 42.9647 29.7222 43.338 29.6289 43.842H33.0869C33.0589 43.3847 32.8909 43.0207 32.5829 42.75C32.2749 42.4793 31.8922 42.344 31.4349 42.344ZM37.5201 39.978C37.1934 39.978 36.9228 39.88 36.7081 39.684C36.5028 39.488 36.4001 39.2407 36.4001 38.942C36.4001 38.6433 36.5028 38.4007 36.7081 38.214C36.9228 38.018 37.1934 37.92 37.5201 37.92C37.8468 37.92 38.1128 38.018 38.3181 38.214C38.5328 38.4007 38.6401 38.6433 38.6401 38.942C38.6401 39.2407 38.5328 39.488 38.3181 39.684C38.1128 39.88 37.8468 39.978 37.5201 39.978ZM36.6241 48V41.056H38.4161V48H36.6241ZM43.7585 48.168C43.0865 48.168 42.4799 48.014 41.9385 47.706C41.4065 47.398 40.9819 46.9733 40.6645 46.432C40.3565 45.8813 40.2025 45.2467 40.2025 44.528C40.2025 43.8093 40.3612 43.1793 40.6785 42.638C40.9959 42.0873 41.4205 41.658 41.9525 41.35C42.4939 41.042 43.1005 40.888 43.7725 40.888C44.4352 40.888 45.0325 41.042 45.5645 41.35C46.1059 41.658 46.5305 42.0873 46.8385 42.638C47.1559 43.1793 47.3145 43.8093 47.3145 44.528C47.3145 45.2467 47.1559 45.8813 46.8385 46.432C46.5305 46.9733 46.1059 47.398 45.5645 47.706C45.0232 48.014 44.4212 48.168 43.7585 48.168ZM43.7585 46.614C44.2252 46.614 44.6312 46.4413 44.9765 46.096C45.3219 45.7413 45.4945 45.2187 45.4945 44.528C45.4945 43.8373 45.3219 43.3193 44.9765 42.974C44.6312 42.6193 44.2299 42.442 43.7725 42.442C43.2965 42.442 42.8859 42.6193 42.5405 42.974C42.2045 43.3193 42.0365 43.8373 42.0365 44.528C42.0365 45.2187 42.2045 45.7413 42.5405 46.096C42.8859 46.4413 43.2919 46.614 43.7585 46.614ZM51.9447 48L55.5287 38.2H57.5447L61.1287 48L59.2247 48L58.4407 45.732H54.6187L53.8207 48H51.9447ZM55.1087 44.332H57.9507L56.5227 40.258L55.1087 44.332ZM62.4891 48V41.056L64.0711 41.056L64.2251 41.994C64.4491 41.658 64.7431 41.392 65.1071 41.196C65.4804 40.9907 65.9098 40.888 66.3951 40.888C67.4684 40.888 68.2291 41.3033 68.6771 42.134C68.9291 41.7513 69.2651 41.448 69.6851 41.224C70.1144 41 70.5811 40.888 71.0851 40.888C71.9904 40.888 72.6858 41.1587 73.1711 41.7C73.6564 42.2413 73.8991 43.0347 73.8991 44.08V48H72.1071V44.248C72.1071 43.6507 71.9904 43.1933 71.7571 42.876C71.5331 42.5587 71.1831 42.4 70.7071 42.4C70.2218 42.4 69.8298 42.5773 69.5311 42.932C69.2418 43.2867 69.0971 43.7813 69.0971 44.416V48H67.3051V44.248C67.3051 43.6507 67.1884 43.1933 66.9551 42.876C66.7218 42.5587 66.3624 42.4 65.8771 42.4C65.4011 42.4 65.0138 42.5773 64.7151 42.932C64.4258 43.2867 64.2811 43.7813 64.2811 44.416V48H62.4891ZM79.8564 48.168C79.3338 48.168 78.8764 48.07 78.4844 47.874C78.0924 47.678 77.7751 47.4027 77.5324 47.048L77.3364 48H75.7404V37.92H77.5324V42.05C77.7564 41.742 78.0504 41.4713 78.4144 41.238C78.7878 41.0047 79.2684 40.888 79.8564 40.888C80.5098 40.888 81.0931 41.0467 81.6064 41.364C82.1198 41.6813 82.5258 42.1153 82.8244 42.666C83.1231 43.2167 83.2724 43.842 83.2724 44.542C83.2724 45.242 83.1231 45.8673 82.8244 46.418C82.5258 46.9593 82.1198 47.3887 81.6064 47.706C81.0931 48.014 80.5098 48.168 79.8564 48.168ZM79.4784 46.6C80.0478 46.6 80.5191 46.4087 80.8924 46.026C81.2658 45.6433 81.4524 45.1487 81.4524 44.542C81.4524 43.9353 81.2658 43.436 80.8924 43.044C80.5191 42.652 80.0478 42.456 79.4784 42.456C78.8998 42.456 78.4238 42.652 78.0504 43.044C77.6864 43.4267 77.5044 43.9213 77.5044 44.528C77.5044 45.1347 77.6864 45.634 78.0504 46.026C78.4238 46.4087 78.8998 46.6 79.4784 46.6ZM85.9792 39.978C85.6526 39.978 85.3819 39.88 85.1672 39.684C84.9619 39.488 84.8592 39.2407 84.8592 38.942C84.8592 38.6433 84.9619 38.4007 85.1672 38.214C85.3819 38.018 85.6526 37.92 85.9792 37.92C86.3059 37.92 86.5719 38.018 86.7772 38.214C86.9919 38.4007 87.0992 38.6433 87.0992 38.942C87.0992 39.2407 86.9919 39.488 86.7772 39.684C86.5719 39.88 86.3059 39.978 85.9792 39.978ZM85.0832 48V41.056H86.8752V48H85.0832ZM92.2597 48.168C91.5597 48.168 90.939 48.0187 90.3977 47.72C89.8563 47.4213 89.4317 47.0013 89.1237 46.46C88.8157 45.9187 88.6617 45.2933 88.6617 44.584C88.6617 43.8653 88.811 43.226 89.1097 42.666C89.4177 42.106 89.8377 41.672 90.3697 41.364C90.911 41.0467 91.5457 40.888 92.2737 40.888C92.955 40.888 93.557 41.0373 94.0797 41.336C94.6023 41.6347 95.0083 42.0453 95.2977 42.568C95.5963 43.0813 95.7457 43.6553 95.7457 44.29C95.7457 44.3927 95.741 44.5 95.7317 44.612C95.7317 44.724 95.727 44.8407 95.7177 44.962H90.4397C90.477 45.5033 90.6637 45.928 90.9997 46.236C91.345 46.544 91.7603 46.698 92.2457 46.698C92.6097 46.698 92.913 46.6187 93.1557 46.46C93.4077 46.292 93.5943 46.0773 93.7157 45.816H95.5357C95.405 46.2547 95.1857 46.656 94.8777 47.02C94.579 47.3747 94.2057 47.6547 93.7577 47.86C93.319 48.0653 92.8197 48.168 92.2597 48.168ZM92.2737 42.344C91.835 42.344 91.4477 42.47 91.1117 42.722C90.7757 42.9647 90.561 43.338 90.4677 43.842H93.9257C93.8977 43.3847 93.7297 43.0207 93.4217 42.75C93.1137 42.4793 92.731 42.344 92.2737 42.344ZM97.3928 48V41.056H98.9748L99.1148 42.232C99.3295 41.8213 99.6375 41.4947 100.039 41.252C100.45 41.0093 100.93 40.888 101.481 40.888C102.34 40.888 103.007 41.1587 103.483 41.7C103.959 42.2413 104.197 43.0347 104.197 44.08V48H102.405V44.248C102.405 43.6507 102.284 43.1933 102.041 42.876C101.798 42.5587 101.42 42.4 100.907 42.4C100.403 42.4 99.9875 42.5773 99.6608 42.932C99.3435 43.2867 99.1848 43.7813 99.1848 44.416V48H97.3928ZM109.144 48C108.416 48 107.833 47.8227 107.394 47.468C106.956 47.1133 106.736 46.4833 106.736 45.578V42.554H105.546V41.056H106.736L106.946 39.194H108.528V41.056H110.404V42.554H108.528V45.592C108.528 45.928 108.598 46.1613 108.738 46.292C108.888 46.4133 109.14 46.474 109.494 46.474H110.362V48H109.144ZM115.279 48.168C114.579 48.168 113.959 48.0187 113.417 47.72C112.876 47.4213 112.451 47.0013 112.143 46.46C111.835 45.9187 111.681 45.2933 111.681 44.584C111.681 43.8653 111.831 43.226 112.129 42.666C112.437 42.106 112.857 41.672 113.389 41.364C113.931 41.0467 114.565 40.888 115.293 40.888C115.975 40.888 116.577 41.0373 117.099 41.336C117.622 41.6347 118.028 42.0453 118.317 42.568C118.616 43.0813 118.765 43.6553 118.765 44.29C118.765 44.3927 118.761 44.5 118.751 44.612C118.751 44.724 118.747 44.8407 118.737 44.962L113.459 44.962C113.497 45.5033 113.683 45.928 114.019 46.236C114.365 46.544 114.78 46.698 115.265 46.698C115.629 46.698 115.933 46.6187 116.175 46.46C116.427 46.292 116.614 46.0773 116.735 45.816H118.555C118.425 46.2547 118.205 46.656 117.897 47.02C117.599 47.3747 117.225 47.6547 116.777 47.86C116.339 48.0653 115.839 48.168 115.279 48.168ZM115.293 42.344C114.855 42.344 114.467 42.47 114.131 42.722C113.795 42.9647 113.581 43.338 113.487 43.842H116.945C116.917 43.3847 116.749 43.0207 116.441 42.75C116.133 42.4793 115.751 42.344 115.293 42.344Z" fill="#2D8C2D"/>
<g clip-path="url(#clip0_223_56628)">
<path d="M58.7306 17.9696C57.9534 16.1588 57.5586 14.2354 57.5586 12.2529C57.5586 7.38178 59.9617 3.01488 64.1501 0.273193L64.8976 1.41585C61.1007 3.90147 58.924 7.85068 58.924 12.2529C58.924 14.0499 59.2813 15.7912 59.9856 17.4312L58.7306 17.9707V17.9696Z" fill="#2D8C2D"/>
<path d="M51.3703 14.4994H50.0049C50.0049 14.1933 50.014 13.8837 50.0333 13.5776C50.5112 5.9648 56.866 0 64.4998 0V1.36572C57.5851 1.36572 51.8288 6.7683 51.3965 13.6629C51.3794 13.9406 51.3703 14.2217 51.3703 14.4994Z" fill="#2D8C2D"/>
<path d="M70.2901 17.9273L69.034 17.3924C69.7269 15.7649 70.0785 14.035 70.0785 12.2516C70.0785 7.82775 67.9178 3.87626 64.1504 1.40999L64.8979 0.267334C69.0579 2.99081 71.4439 7.35885 71.4439 12.2516C71.4439 14.2205 71.0559 16.1302 70.2901 17.9273Z" fill="#2D8C2D"/>
<path d="M65.148 29.0001H64.471C61.6537 28.9932 58.924 28.1772 56.5744 26.6396C52.5089 23.9799 50.0546 19.4958 50.0068 14.644L50 13.9543H50.6895C53.946 13.9543 57.174 15.1141 59.7786 17.2184L59.8229 17.2571C59.9561 17.3857 63.0919 20.4154 63.9521 22.7041C64.1456 23.1548 64.3162 23.61 64.4653 24.0675C64.4721 24.0459 64.479 24.0243 64.4858 24.0027C64.6189 23.5907 64.7725 23.1787 64.9432 22.7769L66.1994 23.3118C66.0446 23.676 65.9047 24.0493 65.7852 24.4215C65.4268 25.5357 65.2185 26.7 65.1685 27.8813C65.1617 28.052 65.1571 28.192 65.156 28.3218L65.1491 28.9989L65.148 29.0001ZM51.3984 15.3394C51.6601 19.4593 53.8391 23.2174 57.322 25.497C59.2586 26.7637 61.4808 27.4898 63.7883 27.6139C63.6927 26.1924 63.3149 24.6832 62.6903 23.2287L62.6778 23.1969C61.9677 21.286 59.1641 18.5227 58.8967 18.2621C56.695 16.4912 54.1167 15.4885 51.3973 15.3394H51.3984Z" fill="#2D8C2D"/>
<path d="M63.8141 28.3227C63.813 28.1759 63.8084 28.0279 63.8027 27.8823L65.167 27.8242C65.1738 27.9847 65.1784 28.1486 65.1795 28.3102L63.8141 28.3227Z" fill="#2D8C2D"/>
<path d="M64.501 28.9989H63.8252L63.8161 28.3229C63.8149 28.1761 63.8104 28.0281 63.8047 27.8824V27.8529V27.8233C63.8604 26.519 64.0903 25.2341 64.4863 24.0027C64.6194 23.5907 64.773 23.1787 64.9437 22.7769C65.879 20.5792 67.3638 18.6263 69.2356 17.1274C71.8287 15.0515 74.9577 13.9543 78.2848 13.9543H78.3109H79.0005L78.9959 14.644C78.9481 19.4946 76.4927 23.9788 72.4272 26.6396C70.0696 28.1829 67.3286 28.9989 64.501 28.9989ZM77.6044 15.3371C74.844 15.476 72.2599 16.4559 70.089 18.1938C68.3924 19.5515 67.0475 21.3224 66.1998 23.313C66.0451 23.6772 65.9051 24.0505 65.7857 24.4226C65.4534 25.4526 65.2509 26.5258 65.1826 27.6161C67.5027 27.4966 69.7351 26.7705 71.6796 25.4981C75.1648 23.2174 77.3438 19.4582 77.6044 15.3383V15.3371Z" fill="#2D8C2D"/>
<path d="M67.9714 19.8883L69.033 17.3936C69.7259 15.7661 70.0775 14.0362 70.0775 12.2528H71.4429C71.4429 13.507 71.2859 14.7362 70.973 15.9289C72.9915 14.7418 75.249 14.0749 77.6202 13.9702C77.3414 6.97316 71.5635 1.36686 64.501 1.36686V0C72.4943 0 78.9959 6.5054 78.9959 14.4994C78.9959 14.5313 78.9959 14.5632 78.9959 14.595L78.989 15.32H78.287C75.2717 15.32 72.4374 16.3136 70.0889 18.1937L67.9725 19.8883H67.9714Z" fill="#2D8C2D"/>
</g>
<defs>
<clipPath id="clip0_223_56628">
<rect width="29" height="29" fill="white" transform="translate(50)"/>
</clipPath>
</defs>
</svg>
