<svg width="134" height="50" viewBox="0 0 134 50" fill="none" xmlns="http://www.w3.org/2000/svg">
<path d="M16.8005 48L16.8005 38.2H18.5505L21.8685 44.724L25.1725 38.2H26.9225L26.9225 48H25.4385L25.4385 40.762L22.4425 46.6H21.2945L18.2845 40.776L18.2845 48H16.8005ZM32.2458 48.168C31.5644 48.168 30.9578 48.0187 30.4258 47.72C29.9031 47.412 29.4924 46.9873 29.1938 46.446C28.8951 45.9047 28.7458 45.2747 28.7458 44.556C28.7458 43.828 28.8904 43.1887 29.1798 42.638C29.4784 42.0873 29.8891 41.658 30.4118 41.35C30.9438 41.042 31.5598 40.888 32.2598 40.888C32.9411 40.888 33.5338 41.042 34.0378 41.35C34.5418 41.6487 34.9338 42.05 35.2138 42.554C35.4938 43.058 35.6338 43.6133 35.6338 44.22C35.6338 44.3133 35.6291 44.416 35.6198 44.528C35.6198 44.6307 35.6151 44.7473 35.6058 44.878H30.2018C30.2484 45.55 30.4678 46.0633 30.8598 46.418C31.2611 46.7633 31.7231 46.936 32.2458 46.936C32.6658 46.936 33.0158 46.8427 33.2958 46.656C33.5851 46.46 33.7998 46.1987 33.9398 45.872H35.4238C35.2371 46.5253 34.8638 47.0713 34.3038 47.51C33.7531 47.9487 33.0671 48.168 32.2458 48.168ZM32.2458 42.106C31.7511 42.106 31.3124 42.2553 30.9298 42.554C30.5471 42.8433 30.3138 43.282 30.2298 43.87H34.1498C34.1218 43.3287 33.9304 42.8993 33.5758 42.582C33.2211 42.2647 32.7778 42.106 32.2458 42.106ZM38.1535 39.74C37.8735 39.74 37.6402 39.656 37.4535 39.488C37.2762 39.3107 37.1875 39.0913 37.1875 38.83C37.1875 38.5687 37.2762 38.354 37.4535 38.186C37.6402 38.0087 37.8735 37.92 38.1535 37.92C38.4335 37.92 38.6622 38.0087 38.8395 38.186C39.0262 38.354 39.1195 38.5687 39.1195 38.83C39.1195 39.0913 39.0262 39.3107 38.8395 39.488C38.6622 39.656 38.4335 39.74 38.1535 39.74ZM37.4115 48V41.056H38.8955V48H37.4115ZM44.2426 48.168C43.5799 48.168 42.9826 48.0187 42.4506 47.72C41.9279 47.412 41.5126 46.9873 41.2046 46.446C40.8966 45.8953 40.7426 45.256 40.7426 44.528C40.7426 43.8 40.8966 43.1653 41.2046 42.624C41.5219 42.0733 41.9466 41.6487 42.4786 41.35C43.0106 41.042 43.6032 40.888 44.2566 40.888C44.9192 40.888 45.5119 41.042 46.0346 41.35C46.5666 41.6487 46.9866 42.0733 47.2946 42.624C47.6119 43.1653 47.7706 43.8 47.7706 44.528C47.7706 45.256 47.6119 45.8953 47.2946 46.446C46.9866 46.9873 46.5666 47.412 46.0346 47.72C45.5026 48.0187 44.9052 48.168 44.2426 48.168ZM44.2426 46.894C44.5972 46.894 44.9239 46.8053 45.2226 46.628C45.5306 46.4507 45.7779 46.1893 45.9646 45.844C46.1512 45.4893 46.2446 45.0507 46.2446 44.528C46.2446 44.0053 46.1512 43.5713 45.9646 43.226C45.7872 42.8713 45.5446 42.6053 45.2366 42.428C44.9379 42.2507 44.6112 42.162 44.2566 42.162C43.9019 42.162 43.5706 42.2507 43.2626 42.428C42.9639 42.6053 42.7212 42.8713 42.5346 43.226C42.3479 43.5713 42.2546 44.0053 42.2546 44.528C42.2546 45.0507 42.3479 45.4893 42.5346 45.844C42.7212 46.1893 42.9639 46.4507 43.2626 46.628C43.5612 46.8053 43.8879 46.894 44.2426 46.894ZM52.6088 48L56.2208 38.2H57.8448L61.4288 48L59.8608 48L59.0208 45.606H55.0168L54.1768 48H52.6088ZM55.4368 44.43H58.6008L57.0188 39.964L55.4368 44.43ZM62.8794 48V41.056L64.1954 41.056L64.3214 42.036C64.5454 41.6813 64.8394 41.4013 65.2034 41.196C65.5767 40.9907 66.0061 40.888 66.4914 40.888C67.5927 40.888 68.3581 41.322 68.7874 42.19C69.0394 41.7887 69.3754 41.4713 69.7954 41.238C70.2247 41.0047 70.6867 40.888 71.1814 40.888C72.0494 40.888 72.7307 41.1493 73.2254 41.672C73.7201 42.1947 73.9674 42.974 73.9674 44.01V48H72.4834V44.164C72.4834 42.82 71.9701 42.148 70.9434 42.148C70.4207 42.148 69.9914 42.344 69.6554 42.736C69.3287 43.128 69.1654 43.688 69.1654 44.416V48H67.6814V44.164C67.6814 42.82 67.1634 42.148 66.1274 42.148C65.6141 42.148 65.1894 42.344 64.8534 42.736C64.5267 43.128 64.3634 43.688 64.3634 44.416V48H62.8794ZM79.7496 48.168C79.2083 48.168 78.7276 48.0607 78.3076 47.846C77.897 47.6313 77.5703 47.328 77.3276 46.936L77.1736 48H75.8436V37.92H77.3276V42.134C77.5516 41.8073 77.8596 41.518 78.2516 41.266C78.6436 41.014 79.1476 40.888 79.7636 40.888C80.4356 40.888 81.0283 41.0467 81.5416 41.364C82.055 41.6813 82.4563 42.1153 82.7456 42.666C83.0443 43.2167 83.1936 43.842 83.1936 44.542C83.1936 45.242 83.0443 45.8673 82.7456 46.418C82.4563 46.9593 82.055 47.3887 81.5416 47.706C81.0283 48.014 80.431 48.168 79.7496 48.168ZM79.4976 46.88C80.1323 46.88 80.655 46.6653 81.0656 46.236C81.4763 45.7973 81.6816 45.228 81.6816 44.528C81.6816 44.0707 81.5883 43.6647 81.4016 43.31C81.215 42.9553 80.9583 42.68 80.6316 42.484C80.305 42.2787 79.927 42.176 79.4976 42.176C78.863 42.176 78.3403 42.3953 77.9296 42.834C77.5283 43.2727 77.3276 43.8373 77.3276 44.528C77.3276 45.228 77.5283 45.7973 77.9296 46.236C78.3403 46.6653 78.863 46.88 79.4976 46.88ZM85.7787 39.74C85.4987 39.74 85.2654 39.656 85.0787 39.488C84.9014 39.3107 84.8127 39.0913 84.8127 38.83C84.8127 38.5687 84.9014 38.354 85.0787 38.186C85.2654 38.0087 85.4987 37.92 85.7787 37.92C86.0587 37.92 86.2874 38.0087 86.4647 38.186C86.6514 38.354 86.7447 38.5687 86.7447 38.83C86.7447 39.0913 86.6514 39.3107 86.4647 39.488C86.2874 39.656 86.0587 39.74 85.7787 39.74ZM85.0367 48V41.056H86.5207V48H85.0367ZM91.8677 48.168C91.1864 48.168 90.5797 48.0187 90.0477 47.72C89.5251 47.412 89.1144 46.9873 88.8157 46.446C88.5171 45.9047 88.3677 45.2747 88.3677 44.556C88.3677 43.828 88.5124 43.1887 88.8017 42.638C89.1004 42.0873 89.5111 41.658 90.0337 41.35C90.5657 41.042 91.1817 40.888 91.8817 40.888C92.5631 40.888 93.1557 41.042 93.6597 41.35C94.1637 41.6487 94.5557 42.05 94.8357 42.554C95.1157 43.058 95.2557 43.6133 95.2557 44.22C95.2557 44.3133 95.2511 44.416 95.2417 44.528C95.2417 44.6307 95.2371 44.7473 95.2277 44.878H89.8237C89.8704 45.55 90.0897 46.0633 90.4817 46.418C90.8831 46.7633 91.3451 46.936 91.8677 46.936C92.2877 46.936 92.6377 46.8427 92.9177 46.656C93.2071 46.46 93.4217 46.1987 93.5617 45.872H95.0457C94.8591 46.5253 94.4857 47.0713 93.9257 47.51C93.3751 47.9487 92.6891 48.168 91.8677 48.168ZM91.8677 42.106C91.3731 42.106 90.9344 42.2553 90.5517 42.554C90.1691 42.8433 89.9357 43.282 89.8517 43.87H93.7717C93.7437 43.3287 93.5524 42.8993 93.1977 42.582C92.8431 42.2647 92.3997 42.106 91.8677 42.106ZM96.9355 48V41.056H98.2515L98.3635 42.274C98.5782 41.8447 98.8908 41.5087 99.3015 41.266C99.7215 41.014 100.202 40.888 100.743 40.888C101.583 40.888 102.241 41.1493 102.717 41.672C103.203 42.1947 103.445 42.974 103.445 44.01V48H101.975V44.164C101.975 42.82 101.425 42.148 100.323 42.148C99.7728 42.148 99.3155 42.344 98.9515 42.736C98.5968 43.128 98.4195 43.688 98.4195 44.416V48H96.9355ZM108.245 48C107.564 48 107.023 47.8367 106.621 47.51C106.22 47.174 106.019 46.5813 106.019 45.732V42.302H104.829V41.056H106.019L106.201 39.292H107.503V41.056H109.463V42.302H107.503V45.732C107.503 46.1147 107.583 46.3807 107.741 46.53C107.909 46.67 108.194 46.74 108.595 46.74H109.393V48H108.245ZM114.204 48.168C113.522 48.168 112.916 48.0187 112.384 47.72C111.861 47.412 111.45 46.9873 111.152 46.446C110.853 45.9047 110.704 45.2747 110.704 44.556C110.704 43.828 110.848 43.1887 111.138 42.638C111.436 42.0873 111.847 41.658 112.37 41.35C112.902 41.042 113.518 40.888 114.218 40.888C114.899 40.888 115.492 41.042 115.996 41.35C116.5 41.6487 116.892 42.05 117.172 42.554C117.452 43.058 117.592 43.6133 117.592 44.22C117.592 44.3133 117.587 44.416 117.578 44.528C117.578 44.6307 117.573 44.7473 117.564 44.878L112.16 44.878C112.206 45.55 112.426 46.0633 112.818 46.418C113.219 46.7633 113.681 46.936 114.204 46.936C114.624 46.936 114.974 46.8427 115.254 46.656C115.543 46.46 115.758 46.1987 115.898 45.872L117.382 45.872C117.195 46.5253 116.822 47.0713 116.262 47.51C115.711 47.9487 115.025 48.168 114.204 48.168ZM114.204 42.106C113.709 42.106 113.27 42.2553 112.888 42.554C112.505 42.8433 112.272 43.282 112.188 43.87L116.108 43.87C116.08 43.3287 115.888 42.8993 115.534 42.582C115.179 42.2647 114.736 42.106 114.204 42.106Z" fill="#FFF3E5"/>
<g clip-path="url(#clip0_222_56517)">
<path d="M58.7306 17.9696C57.9534 16.1588 57.5586 14.2354 57.5586 12.2529C57.5586 7.38178 59.9617 3.01488 64.1501 0.273193L64.8976 1.41585C61.1007 3.90147 58.924 7.85068 58.924 12.2529C58.924 14.0499 59.2813 15.7912 59.9856 17.4312L58.7306 17.9707V17.9696Z" fill="#FFF3E5"/>
<path d="M51.3703 14.4994H50.0049C50.0049 14.1933 50.014 13.8837 50.0333 13.5776C50.5112 5.9648 56.866 0 64.4998 0V1.36572C57.5851 1.36572 51.8288 6.7683 51.3965 13.6629C51.3794 13.9406 51.3703 14.2217 51.3703 14.4994Z" fill="#FFF3E5"/>
<path d="M70.2901 17.9273L69.034 17.3924C69.7269 15.7649 70.0785 14.035 70.0785 12.2516C70.0785 7.82775 67.9178 3.87626 64.1504 1.40999L64.8979 0.267334C69.0579 2.99081 71.4439 7.35885 71.4439 12.2516C71.4439 14.2205 71.0559 16.1302 70.2901 17.9273Z" fill="#FFF3E5"/>
<path d="M65.148 29.0001H64.471C61.6537 28.9932 58.924 28.1772 56.5744 26.6396C52.5089 23.9799 50.0546 19.4958 50.0068 14.644L50 13.9543H50.6895C53.946 13.9543 57.174 15.1141 59.7786 17.2184L59.8229 17.2571C59.9561 17.3857 63.0919 20.4154 63.9521 22.7041C64.1456 23.1548 64.3162 23.61 64.4653 24.0675C64.4721 24.0459 64.479 24.0243 64.4858 24.0027C64.6189 23.5907 64.7725 23.1787 64.9432 22.7769L66.1994 23.3118C66.0446 23.676 65.9047 24.0493 65.7852 24.4215C65.4268 25.5357 65.2185 26.7 65.1685 27.8813C65.1617 28.052 65.1571 28.192 65.156 28.3218L65.1491 28.9989L65.148 29.0001ZM51.3984 15.3394C51.6601 19.4593 53.8391 23.2174 57.322 25.497C59.2586 26.7637 61.4808 27.4898 63.7883 27.6139C63.6927 26.1924 63.3149 24.6832 62.6903 23.2287L62.6778 23.1969C61.9677 21.286 59.1641 18.5227 58.8967 18.2621C56.695 16.4912 54.1167 15.4885 51.3973 15.3394H51.3984Z" fill="#FFF3E5"/>
<path d="M63.8141 28.3227C63.813 28.1759 63.8084 28.0279 63.8027 27.8823L65.167 27.8242C65.1738 27.9847 65.1784 28.1486 65.1795 28.3102L63.8141 28.3227Z" fill="#FFF3E5"/>
<path d="M64.501 28.9989H63.8252L63.8161 28.3229C63.8149 28.1761 63.8104 28.0281 63.8047 27.8824V27.8529V27.8233C63.8604 26.519 64.0903 25.2341 64.4863 24.0027C64.6194 23.5907 64.773 23.1787 64.9437 22.7769C65.879 20.5792 67.3638 18.6263 69.2356 17.1274C71.8287 15.0515 74.9577 13.9543 78.2848 13.9543H78.3109H79.0005L78.9959 14.644C78.9481 19.4946 76.4927 23.9788 72.4272 26.6396C70.0696 28.1829 67.3286 28.9989 64.501 28.9989ZM77.6044 15.3371C74.844 15.476 72.2599 16.4559 70.089 18.1938C68.3924 19.5515 67.0475 21.3224 66.1998 23.313C66.0451 23.6772 65.9051 24.0505 65.7857 24.4226C65.4534 25.4526 65.2509 26.5258 65.1826 27.6161C67.5027 27.4966 69.7351 26.7705 71.6796 25.4981C75.1648 23.2174 77.3438 19.4582 77.6044 15.3383V15.3371Z" fill="#FFF3E5"/>
<path d="M67.9714 19.8883L69.033 17.3936C69.7259 15.7661 70.0775 14.0362 70.0775 12.2528H71.4429C71.4429 13.507 71.2859 14.7362 70.973 15.9289C72.9915 14.7418 75.249 14.0749 77.6202 13.9702C77.3414 6.97316 71.5635 1.36686 64.501 1.36686V0C72.4943 0 78.9959 6.5054 78.9959 14.4994C78.9959 14.5313 78.9959 14.5632 78.9959 14.595L78.989 15.32H78.287C75.2717 15.32 72.4374 16.3136 70.0889 18.1937L67.9725 19.8883H67.9714Z" fill="#FFF3E5"/>
</g>
<defs>
<clipPath id="clip0_222_56517">
<rect width="29" height="29" fill="white" transform="translate(50)"/>
</clipPath>
</defs>
</svg>
