<svg width="134" height="50" viewBox="0 0 134 50" fill="none" xmlns="http://www.w3.org/2000/svg">
<path d="M18.6445 48V38.2H22.0745C22.8399 38.2 23.4745 38.3307 23.9785 38.592C24.4825 38.844 24.8559 39.194 25.0985 39.642C25.3505 40.0807 25.4765 40.58 25.4765 41.14C25.4765 41.672 25.3552 42.162 25.1125 42.61C24.8792 43.0487 24.5105 43.3987 24.0065 43.66C23.5025 43.9213 22.8585 44.052 22.0745 44.052H20.1285V48H18.6445ZM20.1285 42.834H22.0045C22.7045 42.834 23.2039 42.6847 23.5025 42.386C23.8105 42.078 23.9645 41.6627 23.9645 41.14C23.9645 40.5987 23.8105 40.1787 23.5025 39.88C23.2039 39.572 22.7045 39.418 22.0045 39.418H20.1285V42.834ZM29.8926 48.168C29.2299 48.168 28.6326 48.0187 28.1006 47.72C27.5779 47.412 27.1626 46.9873 26.8546 46.446C26.5466 45.8953 26.3926 45.256 26.3926 44.528C26.3926 43.8 26.5466 43.1653 26.8546 42.624C27.1719 42.0733 27.5966 41.6487 28.1286 41.35C28.6606 41.042 29.2532 40.888 29.9066 40.888C30.5692 40.888 31.1619 41.042 31.6846 41.35C32.2166 41.6487 32.6366 42.0733 32.9446 42.624C33.2619 43.1653 33.4206 43.8 33.4206 44.528C33.4206 45.256 33.2619 45.8953 32.9446 46.446C32.6366 46.9873 32.2166 47.412 31.6846 47.72C31.1526 48.0187 30.5552 48.168 29.8926 48.168ZM29.8926 46.894C30.2472 46.894 30.5739 46.8053 30.8726 46.628C31.1806 46.4507 31.4279 46.1893 31.6146 45.844C31.8012 45.4893 31.8946 45.0507 31.8946 44.528C31.8946 44.0053 31.8012 43.5713 31.6146 43.226C31.4372 42.8713 31.1946 42.6053 30.8866 42.428C30.5879 42.2507 30.2612 42.162 29.9066 42.162C29.5519 42.162 29.2206 42.2507 28.9126 42.428C28.6139 42.6053 28.3712 42.8713 28.1846 43.226C27.9979 43.5713 27.9046 44.0053 27.9046 44.528C27.9046 45.0507 27.9979 45.4893 28.1846 45.844C28.3712 46.1893 28.6139 46.4507 28.9126 46.628C29.2112 46.8053 29.5379 46.894 29.8926 46.894ZM36.756 48L34.152 41.056H35.706L37.638 46.586L39.57 41.056H41.11L38.52 48H36.756ZM45.362 48.168C44.6994 48.168 44.102 48.0187 43.57 47.72C43.0474 47.412 42.632 46.9873 42.324 46.446C42.016 45.8953 41.862 45.256 41.862 44.528C41.862 43.8 42.016 43.1653 42.324 42.624C42.6414 42.0733 43.066 41.6487 43.598 41.35C44.13 41.042 44.7227 40.888 45.376 40.888C46.0387 40.888 46.6314 41.042 47.154 41.35C47.686 41.6487 48.106 42.0733 48.414 42.624C48.7314 43.1653 48.89 43.8 48.89 44.528C48.89 45.256 48.7314 45.8953 48.414 46.446C48.106 46.9873 47.686 47.412 47.154 47.72C46.622 48.0187 46.0247 48.168 45.362 48.168ZM45.362 46.894C45.7167 46.894 46.0434 46.8053 46.342 46.628C46.65 46.4507 46.8974 46.1893 47.084 45.844C47.2707 45.4893 47.364 45.0507 47.364 44.528C47.364 44.0053 47.2707 43.5713 47.084 43.226C46.9067 42.8713 46.664 42.6053 46.356 42.428C46.0574 42.2507 45.7307 42.162 45.376 42.162C45.0214 42.162 44.69 42.2507 44.382 42.428C44.0834 42.6053 43.8407 42.8713 43.654 43.226C43.4674 43.5713 43.374 44.0053 43.374 44.528C43.374 45.0507 43.4674 45.4893 43.654 45.844C43.8407 46.1893 44.0834 46.4507 44.382 46.628C44.6807 46.8053 45.0074 46.894 45.362 46.894ZM53.4069 48.168C52.5295 48.168 51.8062 47.9533 51.2369 47.524C50.6675 47.0947 50.3409 46.5253 50.2569 45.816H51.7549C51.8295 46.1333 52.0069 46.4087 52.2869 46.642C52.5669 46.866 52.9355 46.978 53.3929 46.978C53.8409 46.978 54.1675 46.8847 54.3729 46.698C54.5782 46.5113 54.6809 46.2967 54.6809 46.054C54.6809 45.6993 54.5362 45.4613 54.2469 45.34C53.9669 45.2093 53.5749 45.0927 53.0709 44.99C52.6789 44.906 52.2869 44.794 51.8949 44.654C51.5122 44.514 51.1902 44.318 50.9289 44.066C50.6769 43.8047 50.5509 43.4547 50.5509 43.016C50.5509 42.4093 50.7842 41.9053 51.2509 41.504C51.7175 41.0933 52.3709 40.888 53.2109 40.888C53.9855 40.888 54.6109 41.0747 55.0869 41.448C55.5722 41.8213 55.8569 42.3487 55.9409 43.03H54.5129C54.4662 42.7313 54.3262 42.498 54.0929 42.33C53.8689 42.162 53.5655 42.078 53.1829 42.078C52.8095 42.078 52.5202 42.1573 52.3149 42.316C52.1095 42.4653 52.0069 42.6613 52.0069 42.904C52.0069 43.1467 52.1469 43.338 52.4269 43.478C52.7162 43.618 53.0942 43.744 53.5609 43.856C54.0275 43.9587 54.4569 44.08 54.8489 44.22C55.2502 44.3507 55.5722 44.5467 55.8149 44.808C56.0575 45.0693 56.1789 45.452 56.1789 45.956C56.1882 46.5907 55.9409 47.118 55.4369 47.538C54.9422 47.958 54.2655 48.168 53.4069 48.168ZM61.6623 48V38.2H63.1463V48H61.6623ZM67.9909 48.168C67.1136 48.168 66.3903 47.9533 65.8209 47.524C65.2516 47.0947 64.9249 46.5253 64.8409 45.816H66.3389C66.4136 46.1333 66.5909 46.4087 66.8709 46.642C67.1509 46.866 67.5196 46.978 67.9769 46.978C68.4249 46.978 68.7516 46.8847 68.9569 46.698C69.1623 46.5113 69.2649 46.2967 69.2649 46.054C69.2649 45.6993 69.1203 45.4613 68.8309 45.34C68.5509 45.2093 68.1589 45.0927 67.6549 44.99C67.2629 44.906 66.8709 44.794 66.4789 44.654C66.0963 44.514 65.7743 44.318 65.5129 44.066C65.2609 43.8047 65.1349 43.4547 65.1349 43.016C65.1349 42.4093 65.3683 41.9053 65.8349 41.504C66.3016 41.0933 66.9549 40.888 67.7949 40.888C68.5696 40.888 69.1949 41.0747 69.6709 41.448C70.1563 41.8213 70.4409 42.3487 70.5249 43.03H69.0969C69.0503 42.7313 68.9103 42.498 68.6769 42.33C68.4529 42.162 68.1496 42.078 67.7669 42.078C67.3936 42.078 67.1043 42.1573 66.8989 42.316C66.6936 42.4653 66.5909 42.6613 66.5909 42.904C66.5909 43.1467 66.7309 43.338 67.0109 43.478C67.3003 43.618 67.6783 43.744 68.1449 43.856C68.6116 43.9587 69.0409 44.08 69.4329 44.22C69.8343 44.3507 70.1563 44.5467 70.3989 44.808C70.6416 45.0693 70.7629 45.452 70.7629 45.956C70.7723 46.5907 70.5249 47.118 70.0209 47.538C69.5263 47.958 68.8496 48.168 67.9909 48.168ZM75.771 48.168C75.1083 48.168 74.511 48.0187 73.979 47.72C73.4563 47.412 73.041 46.9873 72.733 46.446C72.425 45.8953 72.271 45.256 72.271 44.528C72.271 43.8 72.425 43.1653 72.733 42.624C73.0503 42.0733 73.475 41.6487 74.007 41.35C74.539 41.042 75.1317 40.888 75.785 40.888C76.4477 40.888 77.0403 41.042 77.563 41.35C78.095 41.6487 78.515 42.0733 78.823 42.624C79.1403 43.1653 79.299 43.8 79.299 44.528C79.299 45.256 79.1403 45.8953 78.823 46.446C78.515 46.9873 78.095 47.412 77.563 47.72C77.031 48.0187 76.4337 48.168 75.771 48.168ZM75.771 46.894C76.1257 46.894 76.4523 46.8053 76.751 46.628C77.059 46.4507 77.3063 46.1893 77.493 45.844C77.6797 45.4893 77.773 45.0507 77.773 44.528C77.773 44.0053 77.6797 43.5713 77.493 43.226C77.3157 42.8713 77.073 42.6053 76.765 42.428C76.4663 42.2507 76.1397 42.162 75.785 42.162C75.4303 42.162 75.099 42.2507 74.791 42.428C74.4923 42.6053 74.2497 42.8713 74.063 43.226C73.8763 43.5713 73.783 44.0053 73.783 44.528C73.783 45.0507 73.8763 45.4893 74.063 45.844C74.2497 46.1893 74.4923 46.4507 74.791 46.628C75.0897 46.8053 75.4163 46.894 75.771 46.894ZM81.0439 48V37.92H82.5279V48H81.0439ZM86.8991 48.168C86.3111 48.168 85.8258 48.07 85.4431 47.874C85.0605 47.678 84.7758 47.4213 84.5891 47.104C84.4025 46.7773 84.3091 46.4227 84.3091 46.04C84.3091 45.368 84.5705 44.836 85.0931 44.444C85.6158 44.052 86.3625 43.856 87.3331 43.856H89.1531V43.73C89.1531 43.1887 89.0038 42.7827 88.7051 42.512C88.4158 42.2413 88.0378 42.106 87.5711 42.106C87.1605 42.106 86.8011 42.2087 86.4931 42.414C86.1945 42.61 86.0125 42.904 85.9471 43.296H84.4631C84.5098 42.792 84.6778 42.3627 84.9671 42.008C85.2658 41.644 85.6391 41.3687 86.0871 41.182C86.5445 40.986 87.0438 40.888 87.5851 40.888C88.5558 40.888 89.3071 41.1447 89.8391 41.658C90.3711 42.162 90.6371 42.8527 90.6371 43.73V48H89.3491L89.2231 46.81C89.0271 47.1927 88.7425 47.5147 88.3691 47.776C87.9958 48.0373 87.5058 48.168 86.8991 48.168ZM87.1931 46.964C87.5945 46.964 87.9305 46.8707 88.2011 46.684C88.4811 46.488 88.6958 46.2313 88.8451 45.914C89.0038 45.5967 89.1018 45.2467 89.1391 44.864H87.4871C86.8991 44.864 86.4791 44.9667 86.2271 45.172C85.9845 45.3773 85.8631 45.634 85.8631 45.942C85.8631 46.2593 85.9798 46.5113 86.2131 46.698C86.4558 46.8753 86.7825 46.964 87.1931 46.964ZM95.6715 48.168C94.9995 48.168 94.4068 48.0093 93.8935 47.692C93.3801 47.3747 92.9788 46.9407 92.6895 46.39C92.4001 45.8393 92.2555 45.214 92.2555 44.514C92.2555 43.814 92.4001 43.1933 92.6895 42.652C92.9788 42.1013 93.3801 41.672 93.8935 41.364C94.4161 41.0467 95.0135 40.888 95.6855 40.888C96.2361 40.888 96.7168 40.9953 97.1275 41.21C97.5475 41.4247 97.8741 41.728 98.1075 42.12V37.92H99.5915V48H98.2615L98.1075 46.922C97.8835 47.2487 97.5755 47.538 97.1835 47.79C96.7915 48.042 96.2875 48.168 95.6715 48.168ZM95.9375 46.88C96.5721 46.88 97.0901 46.6607 97.4915 46.222C97.9021 45.7833 98.1075 45.2187 98.1075 44.528C98.1075 43.828 97.9021 43.2633 97.4915 42.834C97.0901 42.3953 96.5721 42.176 95.9375 42.176C95.3028 42.176 94.7801 42.3953 94.3695 42.834C93.9588 43.2633 93.7535 43.828 93.7535 44.528C93.7535 44.9853 93.8468 45.3913 94.0335 45.746C94.2201 46.1007 94.4768 46.3807 94.8035 46.586C95.1395 46.782 95.5175 46.88 95.9375 46.88ZM104.851 48.168C104.188 48.168 103.591 48.0187 103.059 47.72C102.536 47.412 102.121 46.9873 101.813 46.446C101.505 45.8953 101.351 45.256 101.351 44.528C101.351 43.8 101.505 43.1653 101.813 42.624C102.13 42.0733 102.555 41.6487 103.087 41.35C103.619 41.042 104.211 40.888 104.865 40.888C105.527 40.888 106.12 41.042 106.643 41.35C107.175 41.6487 107.595 42.0733 107.903 42.624C108.22 43.1653 108.379 43.8 108.379 44.528C108.379 45.256 108.22 45.8953 107.903 46.446C107.595 46.9873 107.175 47.412 106.643 47.72C106.111 48.0187 105.513 48.168 104.851 48.168ZM104.851 46.894C105.205 46.894 105.532 46.8053 105.831 46.628C106.139 46.4507 106.386 46.1893 106.573 45.844C106.759 45.4893 106.853 45.0507 106.853 44.528C106.853 44.0053 106.759 43.5713 106.573 43.226C106.395 42.8713 106.153 42.6053 105.845 42.428C105.546 42.2507 105.219 42.162 104.865 42.162C104.51 42.162 104.179 42.2507 103.871 42.428C103.572 42.6053 103.329 42.8713 103.143 43.226C102.956 43.5713 102.863 44.0053 102.863 44.528C102.863 45.0507 102.956 45.4893 103.143 45.844C103.329 46.1893 103.572 46.4507 103.871 46.628C104.169 46.8053 104.496 46.894 104.851 46.894ZM112.895 48.168C112.018 48.168 111.295 47.9533 110.725 47.524C110.156 47.0947 109.829 46.5253 109.745 45.816H111.243C111.318 46.1333 111.495 46.4087 111.775 46.642C112.055 46.866 112.424 46.978 112.881 46.978C113.329 46.978 113.656 46.8847 113.861 46.698C114.067 46.5113 114.169 46.2967 114.169 46.054C114.169 45.6993 114.025 45.4613 113.735 45.34C113.455 45.2093 113.063 45.0927 112.559 44.99C112.167 44.906 111.775 44.794 111.383 44.654C111.001 44.514 110.679 44.318 110.417 44.066C110.165 43.8047 110.039 43.4547 110.039 43.016C110.039 42.4093 110.273 41.9053 110.739 41.504C111.206 41.0933 111.859 40.888 112.699 40.888C113.474 40.888 114.099 41.0747 114.575 41.448C115.061 41.8213 115.345 42.3487 115.429 43.03H114.001C113.955 42.7313 113.815 42.498 113.581 42.33C113.357 42.162 113.054 42.078 112.671 42.078C112.298 42.078 112.009 42.1573 111.803 42.316C111.598 42.4653 111.495 42.6613 111.495 42.904C111.495 43.1467 111.635 43.338 111.915 43.478C112.205 43.618 112.583 43.744 113.049 43.856C113.516 43.9587 113.945 44.08 114.337 44.22C114.739 44.3507 115.061 44.5467 115.303 44.808C115.546 45.0693 115.667 45.452 115.667 45.956C115.677 46.5907 115.429 47.118 114.925 47.538C114.431 47.958 113.754 48.168 112.895 48.168Z" fill="#FFF3E5"/>
<g clip-path="url(#clip0_223_56548)">
<path d="M64.5 29C56.5045 29 50 22.4955 50 14.5C50 6.50451 56.5045 0 64.5 0C72.4955 0 79 6.50451 79 14.5C79 22.4955 72.4955 29 64.5 29ZM64.5 1.36578C57.258 1.36578 51.3658 7.25797 51.3658 14.5C51.3658 21.742 57.258 27.6342 64.5 27.6342C71.742 27.6342 77.6342 21.742 77.6342 14.5C77.6342 7.25797 71.742 1.36578 64.5 1.36578Z" fill="#FFF3E5"/>
<path d="M70.161 20.3785C67.0698 20.3785 64.5557 17.8643 64.5557 14.7731C64.5557 11.6819 67.0698 9.16772 70.161 9.16772C73.2522 9.16772 75.7664 11.6819 75.7664 14.7731C75.7664 17.8643 73.2522 20.3785 70.161 20.3785ZM70.161 10.5335C67.8233 10.5335 65.9214 12.4353 65.9214 14.7731C65.9214 17.1109 67.8233 19.0127 70.161 19.0127C72.4988 19.0127 74.4006 17.1109 74.4006 14.7731C74.4006 12.4353 72.4988 10.5335 70.161 10.5335Z" fill="#FFF3E5"/>
</g>
<defs>
<clipPath id="clip0_223_56548">
<rect width="29" height="29" fill="white" transform="translate(50)"/>
</clipPath>
</defs>
</svg>
