<svg width="134" height="50" viewBox="0 0 134 50" fill="none" xmlns="http://www.w3.org/2000/svg">
<path d="M17.4951 48V38.2H21.1211C21.9051 38.2 22.5538 38.3307 23.0671 38.592C23.5805 38.8533 23.9631 39.2127 24.2151 39.67C24.4671 40.1273 24.5931 40.6407 24.5931 41.21C24.5931 41.7513 24.4718 42.2507 24.2291 42.708C23.9865 43.156 23.6085 43.52 23.0951 43.8C22.5818 44.0707 21.9238 44.206 21.1211 44.206H19.2871V48H17.4951ZM19.2871 42.75H21.0091C21.6345 42.75 22.0825 42.6147 22.3531 42.344C22.6331 42.064 22.7731 41.686 22.7731 41.21C22.7731 40.7247 22.6331 40.3467 22.3531 40.076C22.0825 39.796 21.6345 39.656 21.0091 39.656H19.2871V42.75ZM29.0736 48.168C28.4016 48.168 27.7949 48.014 27.2536 47.706C26.7216 47.398 26.2969 46.9733 25.9796 46.432C25.6716 45.8813 25.5176 45.2467 25.5176 44.528C25.5176 43.8093 25.6762 43.1793 25.9936 42.638C26.3109 42.0873 26.7356 41.658 27.2676 41.35C27.8089 41.042 28.4156 40.888 29.0876 40.888C29.7502 40.888 30.3476 41.042 30.8796 41.35C31.4209 41.658 31.8456 42.0873 32.1536 42.638C32.4709 43.1793 32.6296 43.8093 32.6296 44.528C32.6296 45.2467 32.4709 45.8813 32.1536 46.432C31.8456 46.9733 31.4209 47.398 30.8796 47.706C30.3382 48.014 29.7362 48.168 29.0736 48.168ZM29.0736 46.614C29.5402 46.614 29.9462 46.4413 30.2916 46.096C30.6369 45.7413 30.8096 45.2187 30.8096 44.528C30.8096 43.8373 30.6369 43.3193 30.2916 42.974C29.9462 42.6193 29.5449 42.442 29.0876 42.442C28.6116 42.442 28.2009 42.6193 27.8556 42.974C27.5196 43.3193 27.3516 43.8373 27.3516 44.528C27.3516 45.2187 27.5196 45.7413 27.8556 46.096C28.2009 46.4413 28.6069 46.614 29.0736 46.614ZM35.906 48L33.358 41.056H35.234L36.998 46.306L38.762 41.056H40.638L38.076 48H35.906ZM44.8985 48.168C44.2265 48.168 43.6198 48.014 43.0785 47.706C42.5465 47.398 42.1218 46.9733 41.8045 46.432C41.4965 45.8813 41.3425 45.2467 41.3425 44.528C41.3425 43.8093 41.5012 43.1793 41.8185 42.638C42.1358 42.0873 42.5605 41.658 43.0925 41.35C43.6338 41.042 44.2405 40.888 44.9125 40.888C45.5752 40.888 46.1725 41.042 46.7045 41.35C47.2458 41.658 47.6705 42.0873 47.9785 42.638C48.2958 43.1793 48.4545 43.8093 48.4545 44.528C48.4545 45.2467 48.2958 45.8813 47.9785 46.432C47.6705 46.9733 47.2458 47.398 46.7045 47.706C46.1632 48.014 45.5612 48.168 44.8985 48.168ZM44.8985 46.614C45.3652 46.614 45.7712 46.4413 46.1165 46.096C46.4618 45.7413 46.6345 45.2187 46.6345 44.528C46.6345 43.8373 46.4618 43.3193 46.1165 42.974C45.7712 42.6193 45.3698 42.442 44.9125 42.442C44.4365 42.442 44.0258 42.6193 43.6805 42.974C43.3445 43.3193 43.1765 43.8373 43.1765 44.528C43.1765 45.2187 43.3445 45.7413 43.6805 46.096C44.0258 46.4413 44.4318 46.614 44.8985 46.614ZM53.0667 48.168C52.4507 48.168 51.9094 48.07 51.4427 47.874C50.9761 47.6687 50.6027 47.3887 50.3227 47.034C50.0427 46.6793 49.8747 46.2687 49.8187 45.802H51.6247C51.6807 46.0727 51.8301 46.306 52.0727 46.502C52.3247 46.6887 52.6467 46.782 53.0387 46.782C53.4307 46.782 53.7154 46.7027 53.8927 46.544C54.0794 46.3853 54.1727 46.2033 54.1727 45.998C54.1727 45.6993 54.0421 45.4987 53.7807 45.396C53.5194 45.284 53.1554 45.1767 52.6887 45.074C52.3901 45.0087 52.0867 44.9293 51.7787 44.836C51.4707 44.7427 51.1861 44.626 50.9247 44.486C50.6727 44.3367 50.4674 44.15 50.3087 43.926C50.1501 43.6927 50.0707 43.408 50.0707 43.072C50.0707 42.456 50.3134 41.938 50.7987 41.518C51.2934 41.098 51.9841 40.888 52.8707 40.888C53.6921 40.888 54.3454 41.0793 54.8307 41.462C55.3254 41.8447 55.6194 42.372 55.7127 43.044H54.0187C53.9161 42.5307 53.5287 42.274 52.8567 42.274C52.5207 42.274 52.2594 42.3393 52.0727 42.47C51.8954 42.6007 51.8067 42.764 51.8067 42.96C51.8067 43.1653 51.9421 43.3287 52.2127 43.45C52.4834 43.5713 52.8427 43.6833 53.2907 43.786C53.7761 43.898 54.2194 44.024 54.6207 44.164C55.0314 44.2947 55.3581 44.4953 55.6007 44.766C55.8434 45.0273 55.9647 45.4053 55.9647 45.9C55.9741 46.3293 55.8621 46.7167 55.6287 47.062C55.3954 47.4073 55.0594 47.678 54.6207 47.874C54.1821 48.07 53.6641 48.168 53.0667 48.168ZM61.2101 48V38.2H63.0021V48H61.2101ZM67.8695 48.168C67.2535 48.168 66.7122 48.07 66.2455 47.874C65.7789 47.6687 65.4055 47.3887 65.1255 47.034C64.8455 46.6793 64.6775 46.2687 64.6215 45.802H66.4275C66.4835 46.0727 66.6329 46.306 66.8755 46.502C67.1275 46.6887 67.4495 46.782 67.8415 46.782C68.2335 46.782 68.5182 46.7027 68.6955 46.544C68.8822 46.3853 68.9755 46.2033 68.9755 45.998C68.9755 45.6993 68.8449 45.4987 68.5835 45.396C68.3222 45.284 67.9582 45.1767 67.4915 45.074C67.1929 45.0087 66.8895 44.9293 66.5815 44.836C66.2735 44.7427 65.9889 44.626 65.7275 44.486C65.4755 44.3367 65.2702 44.15 65.1115 43.926C64.9529 43.6927 64.8735 43.408 64.8735 43.072C64.8735 42.456 65.1162 41.938 65.6015 41.518C66.0962 41.098 66.7869 40.888 67.6735 40.888C68.4949 40.888 69.1482 41.0793 69.6335 41.462C70.1282 41.8447 70.4222 42.372 70.5155 43.044H68.8215C68.7189 42.5307 68.3315 42.274 67.6595 42.274C67.3235 42.274 67.0622 42.3393 66.8755 42.47C66.6982 42.6007 66.6095 42.764 66.6095 42.96C66.6095 43.1653 66.7449 43.3287 67.0155 43.45C67.2862 43.5713 67.6455 43.6833 68.0935 43.786C68.5789 43.898 69.0222 44.024 69.4235 44.164C69.8342 44.2947 70.1609 44.4953 70.4035 44.766C70.6462 45.0273 70.7675 45.4053 70.7675 45.9C70.7769 46.3293 70.6649 46.7167 70.4315 47.062C70.1982 47.4073 69.8622 47.678 69.4235 47.874C68.9849 48.07 68.4669 48.168 67.8695 48.168ZM75.827 48.168C75.155 48.168 74.5483 48.014 74.007 47.706C73.475 47.398 73.0503 46.9733 72.733 46.432C72.425 45.8813 72.271 45.2467 72.271 44.528C72.271 43.8093 72.4297 43.1793 72.747 42.638C73.0643 42.0873 73.489 41.658 74.021 41.35C74.5623 41.042 75.169 40.888 75.841 40.888C76.5037 40.888 77.101 41.042 77.633 41.35C78.1743 41.658 78.599 42.0873 78.907 42.638C79.2243 43.1793 79.383 43.8093 79.383 44.528C79.383 45.2467 79.2243 45.8813 78.907 46.432C78.599 46.9733 78.1743 47.398 77.633 47.706C77.0917 48.014 76.4897 48.168 75.827 48.168ZM75.827 46.614C76.2937 46.614 76.6997 46.4413 77.045 46.096C77.3903 45.7413 77.563 45.2187 77.563 44.528C77.563 43.8373 77.3903 43.3193 77.045 42.974C76.6997 42.6193 76.2983 42.442 75.841 42.442C75.365 42.442 74.9543 42.6193 74.609 42.974C74.273 43.3193 74.105 43.8373 74.105 44.528C74.105 45.2187 74.273 45.7413 74.609 46.096C74.9543 46.4413 75.3603 46.614 75.827 46.614ZM81.1252 48V37.92H82.9172V48H81.1252ZM87.2823 48.168C86.685 48.168 86.195 48.0747 85.8123 47.888C85.4296 47.692 85.145 47.4353 84.9583 47.118C84.7716 46.8007 84.6783 46.4507 84.6783 46.068C84.6783 45.424 84.9303 44.9013 85.4343 44.5C85.9383 44.0987 86.6943 43.898 87.7023 43.898H89.4663V43.73C89.4663 43.254 89.331 42.904 89.0603 42.68C88.7896 42.456 88.4536 42.344 88.0523 42.344C87.6883 42.344 87.371 42.4327 87.1003 42.61C86.8296 42.778 86.6616 43.03 86.5963 43.366H84.8463C84.893 42.862 85.061 42.4233 85.3503 42.05C85.649 41.6767 86.0316 41.392 86.4983 41.196C86.965 40.9907 87.4876 40.888 88.0663 40.888C89.0556 40.888 89.835 41.1353 90.4043 41.63C90.9736 42.1247 91.2583 42.8247 91.2583 43.73V48H89.7323L89.5643 46.88C89.359 47.2533 89.0696 47.5613 88.6963 47.804C88.3323 48.0467 87.861 48.168 87.2823 48.168ZM87.6883 46.768C88.2016 46.768 88.5983 46.6 88.8783 46.264C89.1676 45.928 89.3496 45.5127 89.4243 45.018H87.8983C87.4223 45.018 87.0816 45.1067 86.8763 45.284C86.671 45.452 86.5683 45.662 86.5683 45.914C86.5683 46.1847 86.671 46.3947 86.8763 46.544C87.0816 46.6933 87.3523 46.768 87.6883 46.768ZM96.3004 48.168C95.647 48.168 95.0637 48.0093 94.5504 47.692C94.037 47.3747 93.631 46.9407 93.3324 46.39C93.0337 45.8393 92.8844 45.214 92.8844 44.514C92.8844 43.814 93.0337 43.1933 93.3324 42.652C93.631 42.1013 94.037 41.672 94.5504 41.364C95.0637 41.0467 95.647 40.888 96.3004 40.888C96.823 40.888 97.2804 40.986 97.6724 41.182C98.0644 41.378 98.3817 41.6533 98.6244 42.008V37.92H100.416V48H98.8204L98.6244 47.006C98.4004 47.314 98.1017 47.5847 97.7284 47.818C97.3644 48.0513 96.8884 48.168 96.3004 48.168ZM96.6784 46.6C97.257 46.6 97.7284 46.4087 98.0924 46.026C98.4657 45.634 98.6524 45.1347 98.6524 44.528C98.6524 43.9213 98.4657 43.4267 98.0924 43.044C97.7284 42.652 97.257 42.456 96.6784 42.456C96.109 42.456 95.6377 42.6473 95.2644 43.03C94.891 43.4127 94.7044 43.9073 94.7044 44.514C94.7044 45.1207 94.891 45.62 95.2644 46.012C95.6377 46.404 96.109 46.6 96.6784 46.6ZM105.713 48.168C105.041 48.168 104.435 48.014 103.893 47.706C103.361 47.398 102.937 46.9733 102.619 46.432C102.311 45.8813 102.157 45.2467 102.157 44.528C102.157 43.8093 102.316 43.1793 102.633 42.638C102.951 42.0873 103.375 41.658 103.907 41.35C104.449 41.042 105.055 40.888 105.727 40.888C106.39 40.888 106.987 41.042 107.519 41.35C108.061 41.658 108.485 42.0873 108.793 42.638C109.111 43.1793 109.269 43.8093 109.269 44.528C109.269 45.2467 109.111 45.8813 108.793 46.432C108.485 46.9733 108.061 47.398 107.519 47.706C106.978 48.014 106.376 48.168 105.713 48.168ZM105.713 46.614C106.18 46.614 106.586 46.4413 106.931 46.096C107.277 45.7413 107.449 45.2187 107.449 44.528C107.449 43.8373 107.277 43.3193 106.931 42.974C106.586 42.6193 106.185 42.442 105.727 42.442C105.251 42.442 104.841 42.6193 104.495 42.974C104.159 43.3193 103.991 43.8373 103.991 44.528C103.991 45.2187 104.159 45.7413 104.495 46.096C104.841 46.4413 105.247 46.614 105.713 46.614ZM113.881 48.168C113.265 48.168 112.724 48.07 112.257 47.874C111.791 47.6687 111.417 47.3887 111.137 47.034C110.857 46.6793 110.689 46.2687 110.633 45.802H112.439C112.495 46.0727 112.645 46.306 112.887 46.502C113.139 46.6887 113.461 46.782 113.853 46.782C114.245 46.782 114.53 46.7027 114.707 46.544C114.894 46.3853 114.987 46.2033 114.987 45.998C114.987 45.6993 114.857 45.4987 114.595 45.396C114.334 45.284 113.97 45.1767 113.503 45.074C113.205 45.0087 112.901 44.9293 112.593 44.836C112.285 44.7427 112.001 44.626 111.739 44.486C111.487 44.3367 111.282 44.15 111.123 43.926C110.965 43.6927 110.885 43.408 110.885 43.072C110.885 42.456 111.128 41.938 111.613 41.518C112.108 41.098 112.799 40.888 113.685 40.888C114.507 40.888 115.16 41.0793 115.645 41.462C116.14 41.8447 116.434 42.372 116.527 43.044H114.833C114.731 42.5307 114.343 42.274 113.671 42.274C113.335 42.274 113.074 42.3393 112.887 42.47C112.71 42.6007 112.621 42.764 112.621 42.96C112.621 43.1653 112.757 43.3287 113.027 43.45C113.298 43.5713 113.657 43.6833 114.105 43.786C114.591 43.898 115.034 44.024 115.435 44.164C115.846 44.2947 116.173 44.4953 116.415 44.766C116.658 45.0273 116.779 45.4053 116.779 45.9C116.789 46.3293 116.677 46.7167 116.443 47.062C116.21 47.4073 115.874 47.678 115.435 47.874C114.997 48.07 114.479 48.168 113.881 48.168Z" fill="#0b1a00"/>
<g clip-path="url(#clip0_178_56754)">
<path d="M64.5 29C56.5045 29 50 22.4955 50 14.5C50 6.50451 56.5045 0 64.5 0C72.4955 0 79 6.50451 79 14.5C79 22.4955 72.4955 29 64.5 29ZM64.5 1.36578C57.258 1.36578 51.3658 7.25797 51.3658 14.5C51.3658 21.742 57.258 27.6342 64.5 27.6342C71.742 27.6342 77.6342 21.742 77.6342 14.5C77.6342 7.25797 71.742 1.36578 64.5 1.36578Z" fill="#0b1a00"/>
<path d="M70.161 20.3785C67.0698 20.3785 64.5557 17.8643 64.5557 14.7731C64.5557 11.6819 67.0698 9.16772 70.161 9.16772C73.2522 9.16772 75.7664 11.6819 75.7664 14.7731C75.7664 17.8643 73.2522 20.3785 70.161 20.3785ZM70.161 10.5335C67.8233 10.5335 65.9214 12.4353 65.9214 14.7731C65.9214 17.1109 67.8233 19.0127 70.161 19.0127C72.4988 19.0127 74.4006 17.1109 74.4006 14.7731C74.4006 12.4353 72.4988 10.5335 70.161 10.5335Z" fill="#0b1a00"/>
</g>
<defs>
<clipPath id="clip0_178_56754">
<rect width="29" height="29" fill="white" transform="translate(50)"/>
</clipPath>
</defs>
</svg>
