<svg width="134" height="50" viewBox="0 0 134 50" fill="none" xmlns="http://www.w3.org/2000/svg">
<path d="M50.2283 48.168C49.5096 48.168 48.8796 48.042 48.3383 47.79C47.7969 47.538 47.3723 47.1787 47.0643 46.712C46.7656 46.2453 46.6116 45.69 46.6023 45.046H48.1703C48.1796 45.5687 48.3616 46.012 48.7163 46.376C49.0709 46.74 49.5703 46.922 50.2143 46.922C50.7836 46.922 51.2269 46.7867 51.5443 46.516C51.8709 46.236 52.0343 45.8813 52.0343 45.452C52.0343 45.1067 51.9549 44.8267 51.7963 44.612C51.6469 44.3973 51.4369 44.22 51.1663 44.08C50.9049 43.94 50.6016 43.814 50.2563 43.702C49.9109 43.59 49.5469 43.4687 49.1643 43.338C48.4083 43.086 47.8389 42.7593 47.4563 42.358C47.0829 41.9567 46.8963 41.4293 46.8963 40.776C46.8869 40.2253 47.0129 39.7447 47.2743 39.334C47.5449 38.9233 47.9183 38.606 48.3943 38.382C48.8796 38.1487 49.4443 38.032 50.0883 38.032C50.7229 38.032 51.2783 38.1487 51.7543 38.382C52.2396 38.6153 52.6176 38.942 52.8883 39.362C53.1589 39.7727 53.2989 40.2533 53.3083 40.804H51.7403C51.7403 40.552 51.6749 40.314 51.5443 40.09C51.4136 39.8567 51.2223 39.6653 50.9703 39.516C50.7183 39.3667 50.4103 39.292 50.0463 39.292C49.5796 39.2827 49.1923 39.3993 48.8843 39.642C48.5856 39.8847 48.4363 40.2207 48.4363 40.65C48.4363 41.0327 48.5483 41.3267 48.7723 41.532C48.9963 41.7373 49.3043 41.91 49.6963 42.05C50.0883 42.1807 50.5363 42.3347 51.0403 42.512C51.5256 42.6707 51.9596 42.862 52.3423 43.086C52.7249 43.31 53.0283 43.604 53.2523 43.968C53.4856 44.332 53.6023 44.794 53.6023 45.354C53.6023 45.8487 53.4763 46.3107 53.2243 46.74C52.9723 47.16 52.5943 47.5053 52.0903 47.776C51.5863 48.0373 50.9656 48.168 50.2283 48.168ZM57.6607 48.168C57.0727 48.168 56.5874 48.07 56.2047 47.874C55.8221 47.678 55.5374 47.4213 55.3507 47.104C55.1641 46.7773 55.0707 46.4227 55.0707 46.04C55.0707 45.368 55.3321 44.836 55.8547 44.444C56.3774 44.052 57.1241 43.856 58.0947 43.856H59.9147V43.73C59.9147 43.1887 59.7654 42.7827 59.4667 42.512C59.1774 42.2413 58.7994 42.106 58.3327 42.106C57.9221 42.106 57.5627 42.2087 57.2547 42.414C56.9561 42.61 56.7741 42.904 56.7087 43.296H55.2247C55.2714 42.792 55.4394 42.3627 55.7287 42.008C56.0274 41.644 56.4007 41.3687 56.8487 41.182C57.3061 40.986 57.8054 40.888 58.3467 40.888C59.3174 40.888 60.0687 41.1447 60.6007 41.658C61.1327 42.162 61.3987 42.8527 61.3987 43.73V48L60.1107 48L59.9847 46.81C59.7887 47.1927 59.5041 47.5147 59.1307 47.776C58.7574 48.0373 58.2674 48.168 57.6607 48.168ZM57.9547 46.964C58.3561 46.964 58.6921 46.8707 58.9627 46.684C59.2427 46.488 59.4574 46.2313 59.6067 45.914C59.7654 45.5967 59.8634 45.2467 59.9007 44.864H58.2487C57.6607 44.864 57.2407 44.9667 56.9887 45.172C56.7461 45.3773 56.6247 45.634 56.6247 45.942C56.6247 46.2593 56.7414 46.5113 56.9747 46.698C57.2174 46.8753 57.5441 46.964 57.9547 46.964ZM65.8311 48.168C64.9911 48.168 64.3284 47.9067 63.8431 47.384C63.3671 46.8613 63.1291 46.082 63.1291 45.046V41.056H64.6131V44.892C64.6131 46.236 65.1637 46.908 66.2651 46.908C66.8157 46.908 67.2684 46.712 67.6231 46.32C67.9777 45.928 68.1551 45.368 68.1551 44.64V41.056H69.6391V48H68.3231L68.2111 46.782C67.9964 47.2113 67.6791 47.552 67.2591 47.804C66.8484 48.0467 66.3724 48.168 65.8311 48.168ZM65.6911 40.482V39.418L68.7431 37.682V38.914L65.6911 40.482ZM74.8309 48.168C74.1589 48.168 73.5662 48.0093 73.0529 47.692C72.5395 47.3747 72.1382 46.9407 71.8489 46.39C71.5595 45.8393 71.4149 45.214 71.4149 44.514C71.4149 43.814 71.5595 43.1933 71.8489 42.652C72.1382 42.1013 72.5395 41.672 73.0529 41.364C73.5755 41.0467 74.1729 40.888 74.8449 40.888C75.3955 40.888 75.8762 40.9953 76.2869 41.21C76.7069 41.4247 77.0335 41.728 77.2669 42.12V37.92H78.7509V48H77.4209L77.2669 46.922C77.0429 47.2487 76.7349 47.538 76.3429 47.79C75.9509 48.042 75.4469 48.168 74.8309 48.168ZM75.0969 46.88C75.7315 46.88 76.2495 46.6607 76.6509 46.222C77.0615 45.7833 77.2669 45.2187 77.2669 44.528C77.2669 43.828 77.0615 43.2633 76.6509 42.834C76.2495 42.3953 75.7315 42.176 75.0969 42.176C74.4622 42.176 73.9395 42.3953 73.5289 42.834C73.1182 43.2633 72.9129 43.828 72.9129 44.528C72.9129 44.9853 73.0062 45.3913 73.1929 45.746C73.3795 46.1007 73.6362 46.3807 73.9629 46.586C74.2989 46.782 74.6769 46.88 75.0969 46.88ZM84.0099 48.168C83.3286 48.168 82.7219 48.0187 82.1899 47.72C81.6673 47.412 81.2566 46.9873 80.9579 46.446C80.6593 45.9047 80.5099 45.2747 80.5099 44.556C80.5099 43.828 80.6546 43.1887 80.9439 42.638C81.2426 42.0873 81.6533 41.658 82.1759 41.35C82.7079 41.042 83.3239 40.888 84.0239 40.888C84.7053 40.888 85.2979 41.042 85.8019 41.35C86.3059 41.6487 86.6979 42.05 86.9779 42.554C87.2579 43.058 87.3979 43.6133 87.3979 44.22C87.3979 44.3133 87.3933 44.416 87.3839 44.528C87.3839 44.6307 87.3793 44.7473 87.3699 44.878H81.9659C82.0126 45.55 82.2319 46.0633 82.6239 46.418C83.0253 46.7633 83.4873 46.936 84.0099 46.936C84.4299 46.936 84.7799 46.8427 85.0599 46.656C85.3493 46.46 85.5639 46.1987 85.7039 45.872H87.1879C87.0013 46.5253 86.6279 47.0713 86.0679 47.51C85.5173 47.9487 84.8313 48.168 84.0099 48.168ZM84.0099 42.106C83.5153 42.106 83.0766 42.2553 82.6939 42.554C82.3113 42.8433 82.0779 43.282 81.9939 43.87H85.9139C85.8859 43.3287 85.6946 42.8993 85.3399 42.582C84.9853 42.2647 84.5419 42.106 84.0099 42.106Z" fill="#FFF3E5"/>
<g clip-path="url(#clip0_222_56519)">
<path d="M64.5 29C56.5053 29 50 22.4959 50 14.5C50 6.5041 56.5053 0 64.5 0C72.4947 0 79 6.5041 79 14.5C79 22.4959 72.4947 29 64.5 29ZM64.5 1.39748C57.275 1.39748 51.3975 7.27504 51.3975 14.5C51.3975 21.725 57.275 27.6025 64.5 27.6025C71.725 27.6025 77.6025 21.725 77.6025 14.5C77.6025 7.27504 71.725 1.39748 64.5 1.39748Z" fill="#FFF3E5"/>
<path d="M68.6322 23.5965H60.3812V18.6261H55.4609V10.3751H60.3812V5.6377H68.6322V10.3751H73.4209V18.6261H68.6322V23.5965ZM61.7787 22.199H67.2347V17.2286H72.0234V11.7726H67.2347V7.03517H61.7787V11.7726H56.8584V17.2286H61.7787V22.199Z" fill="#FFF3E5"/>
</g>
<defs>
<clipPath id="clip0_222_56519">
<rect width="29" height="29" fill="white" transform="translate(50)"/>
</clipPath>
</defs>
</svg>
