<svg width="134" height="50" viewBox="0 0 134 50" fill="none" xmlns="http://www.w3.org/2000/svg">
<path d="M49.7924 48.168C49.0737 48.168 48.4391 48.0467 47.8884 47.804C47.3377 47.552 46.9037 47.1973 46.5864 46.74C46.2691 46.2733 46.1057 45.7087 46.0964 45.046H47.9864C48.0051 45.5033 48.1684 45.8907 48.4764 46.208C48.7937 46.516 49.2277 46.67 49.7784 46.67C50.2544 46.67 50.6324 46.558 50.9124 46.334C51.1924 46.1007 51.3324 45.7927 51.3324 45.41C51.3324 45.0087 51.2064 44.696 50.9544 44.472C50.7117 44.248 50.3851 44.066 49.9744 43.926C49.5637 43.786 49.1251 43.6367 48.6584 43.478C47.9024 43.2167 47.3237 42.8807 46.9224 42.47C46.5304 42.0593 46.3344 41.5133 46.3344 40.832C46.3251 40.2533 46.4604 39.7587 46.7404 39.348C47.0297 38.928 47.4217 38.606 47.9164 38.382C48.4111 38.1487 48.9804 38.032 49.6244 38.032C50.2777 38.032 50.8517 38.1487 51.3464 38.382C51.8504 38.6153 52.2424 38.942 52.5224 39.362C52.8117 39.782 52.9657 40.2813 52.9844 40.86H51.0664C51.0571 40.5147 50.9217 40.2113 50.6604 39.95C50.4084 39.6793 50.0537 39.544 49.5964 39.544C49.2044 39.5347 48.8731 39.6327 48.6024 39.838C48.3411 40.034 48.2104 40.3233 48.2104 40.706C48.2104 41.0327 48.3131 41.294 48.5184 41.49C48.7237 41.6767 49.0037 41.8353 49.3584 41.966C49.7131 42.0967 50.1191 42.2367 50.5764 42.386C51.0617 42.554 51.5051 42.75 51.9064 42.974C52.3077 43.198 52.6297 43.4967 52.8724 43.87C53.1151 44.234 53.2364 44.7053 53.2364 45.284C53.2364 45.7973 53.1057 46.2733 52.8444 46.712C52.5831 47.1507 52.1957 47.5053 51.6824 47.776C51.1691 48.0373 50.5391 48.168 49.7924 48.168ZM57.2919 48.168C56.6946 48.168 56.2046 48.0747 55.8219 47.888C55.4393 47.692 55.1546 47.4353 54.9679 47.118C54.7813 46.8007 54.6879 46.4507 54.6879 46.068C54.6879 45.424 54.9399 44.9013 55.4439 44.5C55.9479 44.0987 56.7039 43.898 57.7119 43.898H59.4759V43.73C59.4759 43.254 59.3406 42.904 59.0699 42.68C58.7993 42.456 58.4633 42.344 58.0619 42.344C57.6979 42.344 57.3806 42.4327 57.1099 42.61C56.8393 42.778 56.6713 43.03 56.6059 43.366H54.8559C54.9026 42.862 55.0706 42.4233 55.3599 42.05C55.6586 41.6767 56.0413 41.392 56.5079 41.196C56.9746 40.9907 57.4973 40.888 58.0759 40.888C59.0653 40.888 59.8446 41.1353 60.4139 41.63C60.9833 42.1247 61.2679 42.8247 61.2679 43.73V48L59.7419 48L59.5739 46.88C59.3686 47.2533 59.0793 47.5613 58.7059 47.804C58.3419 48.0467 57.8706 48.168 57.2919 48.168ZM57.6979 46.768C58.2113 46.768 58.6079 46.6 58.8879 46.264C59.1773 45.928 59.3593 45.5127 59.4339 45.018H57.9079C57.4319 45.018 57.0913 45.1067 56.8859 45.284C56.6806 45.452 56.5779 45.662 56.5779 45.914C56.5779 46.1847 56.6806 46.3947 56.8859 46.544C57.0913 46.6933 57.3619 46.768 57.6979 46.768ZM65.722 48.168C64.854 48.168 64.182 47.8973 63.706 47.356C63.2393 46.8147 63.006 46.0213 63.006 44.976V41.056H64.784V44.808C64.784 45.4053 64.9053 45.8627 65.148 46.18C65.3907 46.4973 65.7733 46.656 66.296 46.656C66.7907 46.656 67.1967 46.4787 67.514 46.124C67.8407 45.7693 68.004 45.2747 68.004 44.64V41.056H69.796V48H68.214L68.074 46.824C67.8593 47.2347 67.5467 47.5613 67.136 47.804C66.7347 48.0467 66.2633 48.168 65.722 48.168ZM65.68 40.496V39.236L68.844 37.528V38.984L65.68 40.496ZM74.9676 48.168C74.3143 48.168 73.7309 48.0093 73.2176 47.692C72.7043 47.3747 72.2983 46.9407 71.9996 46.39C71.7009 45.8393 71.5516 45.214 71.5516 44.514C71.5516 43.814 71.7009 43.1933 71.9996 42.652C72.2983 42.1013 72.7043 41.672 73.2176 41.364C73.7309 41.0467 74.3143 40.888 74.9676 40.888C75.4903 40.888 75.9476 40.986 76.3396 41.182C76.7316 41.378 77.0489 41.6533 77.2916 42.008V37.92H79.0836V48H77.4876L77.2916 47.006C77.0676 47.314 76.7689 47.5847 76.3956 47.818C76.0316 48.0513 75.5556 48.168 74.9676 48.168ZM75.3456 46.6C75.9243 46.6 76.3956 46.4087 76.7596 46.026C77.1329 45.634 77.3196 45.1347 77.3196 44.528C77.3196 43.9213 77.1329 43.4267 76.7596 43.044C76.3956 42.652 75.9243 42.456 75.3456 42.456C74.7763 42.456 74.3049 42.6473 73.9316 43.03C73.5583 43.4127 73.3716 43.9073 73.3716 44.514C73.3716 45.1207 73.5583 45.62 73.9316 46.012C74.3049 46.404 74.7763 46.6 75.3456 46.6ZM84.4224 48.168C83.7224 48.168 83.1017 48.0187 82.5604 47.72C82.0191 47.4213 81.5944 47.0013 81.2864 46.46C80.9784 45.9187 80.8244 45.2933 80.8244 44.584C80.8244 43.8653 80.9737 43.226 81.2724 42.666C81.5804 42.106 82.0004 41.672 82.5324 41.364C83.0737 41.0467 83.7084 40.888 84.4364 40.888C85.1177 40.888 85.7197 41.0373 86.2424 41.336C86.7651 41.6347 87.1711 42.0453 87.4604 42.568C87.7591 43.0813 87.9084 43.6553 87.9084 44.29C87.9084 44.3927 87.9037 44.5 87.8944 44.612C87.8944 44.724 87.8897 44.8407 87.8804 44.962H82.6024C82.6397 45.5033 82.8264 45.928 83.1624 46.236C83.5077 46.544 83.9231 46.698 84.4084 46.698C84.7724 46.698 85.0757 46.6187 85.3184 46.46C85.5704 46.292 85.7571 46.0773 85.8784 45.816H87.6984C87.5677 46.2547 87.3484 46.656 87.0404 47.02C86.7417 47.3747 86.3684 47.6547 85.9204 47.86C85.4817 48.0653 84.9824 48.168 84.4224 48.168ZM84.4364 42.344C83.9977 42.344 83.6104 42.47 83.2744 42.722C82.9384 42.9647 82.7237 43.338 82.6304 43.842H86.0884C86.0604 43.3847 85.8924 43.0207 85.5844 42.75C85.2764 42.4793 84.8937 42.344 84.4364 42.344Z" fill="#2D8C2D"/>
<g clip-path="url(#clip0_223_56618)">
<path d="M64.5 29C56.5053 29 50 22.4959 50 14.5C50 6.5041 56.5053 0 64.5 0C72.4947 0 79 6.5041 79 14.5C79 22.4959 72.4947 29 64.5 29ZM64.5 1.39748C57.275 1.39748 51.3975 7.27504 51.3975 14.5C51.3975 21.725 57.275 27.6025 64.5 27.6025C71.725 27.6025 77.6025 21.725 77.6025 14.5C77.6025 7.27504 71.725 1.39748 64.5 1.39748Z" fill="#2D8C2D"/>
<path d="M68.6322 23.5965H60.3812V18.6261H55.4609V10.3751H60.3812V5.6377H68.6322V10.3751H73.4209V18.6261H68.6322V23.5965ZM61.7787 22.199H67.2347V17.2286H72.0234V11.7726H67.2347V7.03517H61.7787V11.7726H56.8584V17.2286H61.7787V22.199Z" fill="#2D8C2D"/>
</g>
<defs>
<clipPath id="clip0_223_56618">
<rect width="29" height="29" fill="white" transform="translate(50)"/>
</clipPath>
</defs>
</svg>
