<svg width="12" height="12" viewBox="0 0 12 12" fill="none" xmlns="http://www.w3.org/2000/svg">
<g clip-path="url(#clip0_223_56669)">
<path d="M6 0C9.31413 0 12 2.68587 12 6C12 9.31413 9.31413 12 6 12C2.68587 12 0 9.31413 0 6C0 2.68587 2.68587 0 6 0ZM4.82423 10.4398H7.21131V4.86945H4.82423V10.4398ZM6 4.12651C6.70417 4.12651 7.27429 3.55639 7.27429 2.85222C7.27429 2.14805 6.70417 1.57793 6 1.57793C5.29583 1.57793 4.72571 2.14805 4.72571 2.85222C4.72571 3.55639 5.29583 4.12651 6 4.12651Z" fill="#F5BD7A"/>
</g>
<defs>
<clipPath id="clip0_223_56669">
<rect width="12" height="12" fill="white" transform="matrix(-1 0 0 1 12 0)"/>
</clipPath>
</defs>
</svg>
