<svg width="133" height="52" viewBox="0 0 133 52" fill="none" xmlns="http://www.w3.org/2000/svg">
<path d="M27.8829 48V38.2H34.2809V39.642H29.6749V42.33H33.8609V43.73H29.6749V46.558H34.2809V48H27.8829ZM36.0746 48V41.056H37.6566L37.7966 42.232C38.0113 41.8213 38.3193 41.4947 38.7206 41.252C39.1313 41.0093 39.6119 40.888 40.1626 40.888C41.0213 40.888 41.6886 41.1587 42.1646 41.7C42.6406 42.2413 42.8786 43.0347 42.8786 44.08V48H41.0866V44.248C41.0866 43.6507 40.9653 43.1933 40.7226 42.876C40.4799 42.5587 40.1019 42.4 39.5886 42.4C39.0846 42.4 38.6693 42.5773 38.3426 42.932C38.0253 43.2867 37.8666 43.7813 37.8666 44.416V48H36.0746ZM47.8262 48C47.0982 48 46.5149 47.8227 46.0762 47.468C45.6375 47.1133 45.4182 46.4833 45.4182 45.578V42.554H44.2282V41.056H45.4182L45.6282 39.194H47.2102V41.056H49.0862V42.554H47.2102V45.592C47.2102 45.928 47.2802 46.1613 47.4202 46.292C47.5695 46.4133 47.8215 46.474 48.1762 46.474H49.0442V48H47.8262ZM53.961 48.168C53.261 48.168 52.6404 48.0187 52.099 47.72C51.5577 47.4213 51.133 47.0013 50.825 46.46C50.517 45.9187 50.363 45.2933 50.363 44.584C50.363 43.8653 50.5124 43.226 50.811 42.666C51.119 42.106 51.539 41.672 52.071 41.364C52.6124 41.0467 53.247 40.888 53.975 40.888C54.6564 40.888 55.2584 41.0373 55.781 41.336C56.3037 41.6347 56.7097 42.0453 56.999 42.568C57.2977 43.0813 57.447 43.6553 57.447 44.29C57.447 44.3927 57.4424 44.5 57.433 44.612C57.433 44.724 57.4284 44.8407 57.419 44.962H52.141C52.1784 45.5033 52.365 45.928 52.701 46.236C53.0464 46.544 53.4617 46.698 53.947 46.698C54.311 46.698 54.6144 46.6187 54.857 46.46C55.109 46.292 55.2957 46.0773 55.417 45.816H57.237C57.1064 46.2547 56.887 46.656 56.579 47.02C56.2804 47.3747 55.907 47.6547 55.459 47.86C55.0204 48.0653 54.521 48.168 53.961 48.168ZM53.975 42.344C53.5364 42.344 53.149 42.47 52.813 42.722C52.477 42.9647 52.2624 43.338 52.169 43.842H55.627C55.599 43.3847 55.431 43.0207 55.123 42.75C54.815 42.4793 54.4324 42.344 53.975 42.344ZM59.0942 48V41.056H60.6902L60.8582 42.358C61.1102 41.91 61.4509 41.5553 61.8802 41.294C62.3189 41.0233 62.8322 40.888 63.4202 40.888V42.778H62.9162C62.5242 42.778 62.1742 42.8387 61.8662 42.96C61.5582 43.0813 61.3156 43.2913 61.1382 43.59C60.9702 43.8887 60.8862 44.304 60.8862 44.836V48L59.0942 48ZM64.785 51.08V41.056H66.381L66.577 42.05C66.801 41.742 67.095 41.4713 67.459 41.238C67.8323 41.0047 68.313 40.888 68.901 40.888C69.5543 40.888 70.1377 41.0467 70.651 41.364C71.1643 41.6813 71.5703 42.1153 71.869 42.666C72.1677 43.2167 72.317 43.842 72.317 44.542C72.317 45.242 72.1677 45.8673 71.869 46.418C71.5703 46.9593 71.1643 47.3887 70.651 47.706C70.1377 48.014 69.5543 48.168 68.901 48.168C68.3783 48.168 67.921 48.07 67.529 47.874C67.137 47.678 66.8197 47.4027 66.577 47.048V51.08H64.785ZM68.523 46.6C69.0923 46.6 69.5637 46.4087 69.937 46.026C70.3103 45.6433 70.497 45.1487 70.497 44.542C70.497 43.9353 70.3103 43.436 69.937 43.044C69.5637 42.652 69.0923 42.456 68.523 42.456C67.9443 42.456 67.4683 42.652 67.095 43.044C66.731 43.4267 66.549 43.9213 66.549 44.528C66.549 45.1347 66.731 45.634 67.095 46.026C67.4683 46.4087 67.9443 46.6 68.523 46.6ZM74.0578 48V41.056H75.6538L75.8218 42.358C76.0738 41.91 76.4145 41.5553 76.8438 41.294C77.2825 41.0233 77.7958 40.888 78.3838 40.888V42.778H77.8798C77.4878 42.778 77.1378 42.8387 76.8298 42.96C76.5218 43.0813 76.2791 43.2913 76.1018 43.59C75.9338 43.8887 75.8498 44.304 75.8498 44.836V48H74.0578ZM80.7146 39.978C80.3879 39.978 80.1173 39.88 79.9026 39.684C79.6973 39.488 79.5946 39.2407 79.5946 38.942C79.5946 38.6433 79.6973 38.4007 79.9026 38.214C80.1173 38.018 80.3879 37.92 80.7146 37.92C81.0413 37.92 81.3073 38.018 81.5126 38.214C81.7273 38.4007 81.8346 38.6433 81.8346 38.942C81.8346 39.2407 81.7273 39.488 81.5126 39.684C81.3073 39.88 81.0413 39.978 80.7146 39.978ZM79.8186 48V41.056H81.6106V48H79.8186ZM86.491 48.168C85.875 48.168 85.3337 48.07 84.867 47.874C84.4003 47.6687 84.027 47.3887 83.747 47.034C83.467 46.6793 83.299 46.2687 83.243 45.802H85.049C85.105 46.0727 85.2543 46.306 85.497 46.502C85.749 46.6887 86.071 46.782 86.463 46.782C86.855 46.782 87.1397 46.7027 87.317 46.544C87.5037 46.3853 87.597 46.2033 87.597 45.998C87.597 45.6993 87.4663 45.4987 87.205 45.396C86.9437 45.284 86.5797 45.1767 86.113 45.074C85.8143 45.0087 85.511 44.9293 85.203 44.836C84.895 44.7427 84.6103 44.626 84.349 44.486C84.097 44.3367 83.8917 44.15 83.733 43.926C83.5743 43.6927 83.495 43.408 83.495 43.072C83.495 42.456 83.7377 41.938 84.223 41.518C84.7177 41.098 85.4083 40.888 86.295 40.888C87.1163 40.888 87.7697 41.0793 88.255 41.462C88.7497 41.8447 89.0437 42.372 89.137 43.044H87.443C87.3403 42.5307 86.953 42.274 86.281 42.274C85.945 42.274 85.6837 42.3393 85.497 42.47C85.3197 42.6007 85.231 42.764 85.231 42.96C85.231 43.1653 85.3663 43.3287 85.637 43.45C85.9077 43.5713 86.267 43.6833 86.715 43.786C87.2003 43.898 87.6437 44.024 88.045 44.164C88.4557 44.2947 88.7823 44.4953 89.025 44.766C89.2677 45.0273 89.389 45.4053 89.389 45.9C89.3983 46.3293 89.2863 46.7167 89.053 47.062C88.8197 47.4073 88.4837 47.678 88.045 47.874C87.6063 48.07 87.0883 48.168 86.491 48.168ZM94.4905 48.168C93.7905 48.168 93.1698 48.0187 92.6285 47.72C92.0871 47.4213 91.6625 47.0013 91.3545 46.46C91.0465 45.9187 90.8925 45.2933 90.8925 44.584C90.8925 43.8653 91.0418 43.226 91.3405 42.666C91.6485 42.106 92.0685 41.672 92.6005 41.364C93.1418 41.0467 93.7765 40.888 94.5045 40.888C95.1858 40.888 95.7878 41.0373 96.3105 41.336C96.8331 41.6347 97.2391 42.0453 97.5285 42.568C97.8271 43.0813 97.9765 43.6553 97.9765 44.29C97.9765 44.3927 97.9718 44.5 97.9625 44.612C97.9625 44.724 97.9578 44.8407 97.9485 44.962H92.6705C92.7078 45.5033 92.8945 45.928 93.2305 46.236C93.5758 46.544 93.9911 46.698 94.4765 46.698C94.8405 46.698 95.1438 46.6187 95.3865 46.46C95.6385 46.292 95.8251 46.0773 95.9465 45.816H97.7665C97.6358 46.2547 97.4165 46.656 97.1085 47.02C96.8098 47.3747 96.4365 47.6547 95.9885 47.86C95.5498 48.0653 95.0505 48.168 94.4905 48.168ZM94.5045 42.344C94.0658 42.344 93.6785 42.47 93.3425 42.722C93.0065 42.9647 92.7918 43.338 92.6985 43.842H96.1565C96.1285 43.3847 95.9605 43.0207 95.6525 42.75C95.3445 42.4793 94.9618 42.344 94.5045 42.344ZM102.494 48.168C101.878 48.168 101.336 48.07 100.87 47.874C100.403 47.6687 100.03 47.3887 99.7497 47.034C99.4697 46.6793 99.3017 46.2687 99.2457 45.802H101.052C101.108 46.0727 101.257 46.306 101.5 46.502C101.752 46.6887 102.074 46.782 102.466 46.782C102.858 46.782 103.142 46.7027 103.32 46.544C103.506 46.3853 103.6 46.2033 103.6 45.998C103.6 45.6993 103.469 45.4987 103.208 45.396C102.946 45.284 102.582 45.1767 102.116 45.074C101.817 45.0087 101.514 44.9293 101.206 44.836C100.898 44.7427 100.613 44.626 100.352 44.486C100.1 44.3367 99.8943 44.15 99.7357 43.926C99.577 43.6927 99.4977 43.408 99.4977 43.072C99.4977 42.456 99.7403 41.938 100.226 41.518C100.72 41.098 101.411 40.888 102.298 40.888C103.119 40.888 103.772 41.0793 104.258 41.462C104.752 41.8447 105.046 42.372 105.14 43.044H103.446C103.343 42.5307 102.956 42.274 102.284 42.274C101.948 42.274 101.686 42.3393 101.5 42.47C101.322 42.6007 101.234 42.764 101.234 42.96C101.234 43.1653 101.369 43.3287 101.64 43.45C101.91 43.5713 102.27 43.6833 102.718 43.786C103.203 43.898 103.646 44.024 104.048 44.164C104.458 44.2947 104.785 44.4953 105.028 44.766C105.27 45.0273 105.392 45.4053 105.392 45.9C105.401 46.3293 105.289 46.7167 105.056 47.062C104.822 47.4073 104.486 47.678 104.048 47.874C103.609 48.07 103.091 48.168 102.494 48.168Z" fill="#0b1a00"/>
<g clip-path="url(#clip0_304_5092)">
<path d="M65.5006 29C57.5043 29 51 22.4957 51 14.5006C51 6.5056 57.5043 0 65.5006 0C73.497 0 80.0013 6.50431 80.0013 14.5006C80.0013 22.497 73.497 29.0013 65.5006 29.0013V29ZM65.5006 1.39708C58.2753 1.39708 52.3971 7.27534 52.3971 14.5006C52.3971 21.7259 58.2753 27.6029 65.4994 27.6029C72.7234 27.6029 78.6016 21.7247 78.6016 14.5006C78.6016 7.27662 72.7247 1.39708 65.5006 1.39708Z" fill="#0b1a00"/>
<path d="M77.5405 22.8075H71.3787V6.65831H66.9257V22.8075H62.5947V13.2794H58.8999V22.8024H54.1211V21.4053H57.5015V11.8823H63.9917V21.4091H65.5287V5.26123H72.7771V21.4091H77.5405V22.8075Z" fill="#0b1a00"/>
</g>
<defs>
<clipPath id="clip0_304_5092">
<rect width="29" height="29" fill="white" transform="translate(51)"/>
</clipPath>
</defs>
</svg>
