<svg width="134" height="50" viewBox="0 0 134 50" fill="none" xmlns="http://www.w3.org/2000/svg">
<path d="M30.522 48.168C29.598 48.168 28.7907 47.958 28.1 47.538C27.4093 47.118 26.8727 46.5347 26.49 45.788C26.1073 45.032 25.916 44.1547 25.916 43.156C25.916 42.148 26.112 41.2613 26.504 40.496C26.9053 39.7213 27.47 39.1193 28.198 38.69C28.9353 38.2513 29.808 38.032 30.816 38.032C31.964 38.032 32.916 38.3073 33.672 38.858C34.428 39.4087 34.918 40.1693 35.142 41.14H33.14C32.9907 40.6827 32.72 40.328 32.328 40.076C31.936 39.8147 31.432 39.684 30.816 39.684C29.836 39.684 29.08 39.9967 28.548 40.622C28.016 41.238 27.75 42.0873 27.75 43.17C27.75 44.2527 28.0113 45.0927 28.534 45.69C29.066 46.278 29.7847 46.572 30.69 46.572C31.5767 46.572 32.244 46.334 32.692 45.858C33.1493 45.3727 33.4247 44.738 33.518 43.954H31.04V42.61H35.324V48H33.672L33.532 46.712C33.2147 47.1787 32.818 47.538 32.342 47.79C31.866 48.042 31.2593 48.168 30.522 48.168ZM40.4961 48.168C39.8241 48.168 39.2175 48.014 38.6761 47.706C38.1441 47.398 37.7195 46.9733 37.4021 46.432C37.0941 45.8813 36.9401 45.2467 36.9401 44.528C36.9401 43.8093 37.0988 43.1793 37.4161 42.638C37.7335 42.0873 38.1581 41.658 38.6901 41.35C39.2315 41.042 39.8381 40.888 40.5101 40.888C41.1728 40.888 41.7701 41.042 42.3021 41.35C42.8435 41.658 43.2681 42.0873 43.5761 42.638C43.8935 43.1793 44.0521 43.8093 44.0521 44.528C44.0521 45.2467 43.8935 45.8813 43.5761 46.432C43.2681 46.9733 42.8435 47.398 42.3021 47.706C41.7608 48.014 41.1588 48.168 40.4961 48.168ZM40.4961 46.614C40.9628 46.614 41.3688 46.4413 41.7141 46.096C42.0595 45.7413 42.2321 45.2187 42.2321 44.528C42.2321 43.8373 42.0595 43.3193 41.7141 42.974C41.3688 42.6193 40.9675 42.442 40.5101 42.442C40.0341 42.442 39.6235 42.6193 39.2781 42.974C38.9421 43.3193 38.7741 43.8373 38.7741 44.528C38.7741 45.2187 38.9421 45.7413 39.2781 46.096C39.6235 46.4413 40.0295 46.614 40.4961 46.614ZM47.3286 48L44.7806 41.056H46.6566L48.4206 46.306L50.1846 41.056H52.0606L49.4986 48H47.3286ZM56.3631 48.168C55.6631 48.168 55.0424 48.0187 54.5011 47.72C53.9597 47.4213 53.5351 47.0013 53.2271 46.46C52.9191 45.9187 52.7651 45.2933 52.7651 44.584C52.7651 43.8653 52.9144 43.226 53.2131 42.666C53.5211 42.106 53.9411 41.672 54.4731 41.364C55.0144 41.0467 55.6491 40.888 56.3771 40.888C57.0584 40.888 57.6604 41.0373 58.1831 41.336C58.7057 41.6347 59.1117 42.0453 59.4011 42.568C59.6997 43.0813 59.8491 43.6553 59.8491 44.29C59.8491 44.3927 59.8444 44.5 59.8351 44.612C59.8351 44.724 59.8304 44.8407 59.8211 44.962H54.5431C54.5804 45.5033 54.7671 45.928 55.1031 46.236C55.4484 46.544 55.8637 46.698 56.3491 46.698C56.7131 46.698 57.0164 46.6187 57.2591 46.46C57.5111 46.292 57.6977 46.0773 57.8191 45.816H59.6391C59.5084 46.2547 59.2891 46.656 58.9811 47.02C58.6824 47.3747 58.3091 47.6547 57.8611 47.86C57.4224 48.0653 56.9231 48.168 56.3631 48.168ZM56.3771 42.344C55.9384 42.344 55.5511 42.47 55.2151 42.722C54.8791 42.9647 54.6644 43.338 54.5711 43.842H58.0291C58.0011 43.3847 57.8331 43.0207 57.5251 42.75C57.2171 42.4793 56.8344 42.344 56.3771 42.344ZM61.4963 48V41.056H63.0923L63.2603 42.358C63.5123 41.91 63.8529 41.5553 64.2823 41.294C64.7209 41.0233 65.2343 40.888 65.8223 40.888V42.778H65.3183C64.9263 42.778 64.5763 42.8387 64.2683 42.96C63.9603 43.0813 63.7176 43.2913 63.5403 43.59C63.3723 43.8887 63.2883 44.304 63.2883 44.836V48H61.4963ZM67.187 48V41.056H68.769L68.909 42.232C69.1237 41.8213 69.4317 41.4947 69.833 41.252C70.2437 41.0093 70.7244 40.888 71.275 40.888C72.1337 40.888 72.801 41.1587 73.277 41.7C73.753 42.2413 73.991 43.0347 73.991 44.08V48H72.199V44.248C72.199 43.6507 72.0777 43.1933 71.835 42.876C71.5924 42.5587 71.2144 42.4 70.701 42.4C70.197 42.4 69.7817 42.5773 69.455 42.932C69.1377 43.2867 68.979 43.7813 68.979 44.416V48H67.187ZM78.2386 48.168C77.6413 48.168 77.1513 48.0747 76.7686 47.888C76.3859 47.692 76.1013 47.4353 75.9146 47.118C75.7279 46.8007 75.6346 46.4507 75.6346 46.068C75.6346 45.424 75.8866 44.9013 76.3906 44.5C76.8946 44.0987 77.6506 43.898 78.6586 43.898H80.4226V43.73C80.4226 43.254 80.2873 42.904 80.0166 42.68C79.7459 42.456 79.4099 42.344 79.0086 42.344C78.6446 42.344 78.3273 42.4327 78.0566 42.61C77.7859 42.778 77.6179 43.03 77.5526 43.366H75.8026C75.8493 42.862 76.0173 42.4233 76.3066 42.05C76.6053 41.6767 76.9879 41.392 77.4546 41.196C77.9213 40.9907 78.4439 40.888 79.0226 40.888C80.0119 40.888 80.7913 41.1353 81.3606 41.63C81.9299 42.1247 82.2146 42.8247 82.2146 43.73V48H80.6886L80.5206 46.88C80.3153 47.2533 80.0259 47.5613 79.6526 47.804C79.2886 48.0467 78.8173 48.168 78.2386 48.168ZM78.6446 46.768C79.1579 46.768 79.5546 46.6 79.8346 46.264C80.1239 45.928 80.3059 45.5127 80.3806 45.018H78.8546C78.3786 45.018 78.0379 45.1067 77.8326 45.284C77.6273 45.452 77.5246 45.662 77.5246 45.914C77.5246 46.1847 77.6273 46.3947 77.8326 46.544C78.0379 46.6933 78.3086 46.768 78.6446 46.768ZM84.0647 48V41.056H85.6467L85.7867 42.232C86.0014 41.8213 86.3094 41.4947 86.7107 41.252C87.1214 41.0093 87.602 40.888 88.1527 40.888C89.0114 40.888 89.6787 41.1587 90.1547 41.7C90.6307 42.2413 90.8687 43.0347 90.8687 44.08V48H89.0767V44.248C89.0767 43.6507 88.9554 43.1933 88.7127 42.876C88.47 42.5587 88.092 42.4 87.5787 42.4C87.0747 42.4 86.6594 42.5773 86.3327 42.932C86.0154 43.2867 85.8567 43.7813 85.8567 44.416V48H84.0647ZM96.1243 48.168C95.4149 48.168 94.7896 48.014 94.2483 47.706C93.7069 47.398 93.2776 46.9687 92.9603 46.418C92.6523 45.8673 92.4983 45.2373 92.4983 44.528C92.4983 43.8187 92.6523 43.1887 92.9603 42.638C93.2776 42.0873 93.7069 41.658 94.2483 41.35C94.7896 41.042 95.4149 40.888 96.1243 40.888C97.0109 40.888 97.7576 41.1213 98.3643 41.588C98.9709 42.0453 99.3583 42.68 99.5263 43.492H97.6363C97.5429 43.156 97.3563 42.8947 97.0763 42.708C96.8056 42.512 96.4836 42.414 96.1103 42.414C95.6156 42.414 95.1956 42.6007 94.8503 42.974C94.5049 43.3473 94.3323 43.8653 94.3323 44.528C94.3323 45.1907 94.5049 45.7087 94.8503 46.082C95.1956 46.4553 95.6156 46.642 96.1103 46.642C96.4836 46.642 96.8056 46.5487 97.0763 46.362C97.3563 46.1753 97.5429 45.9093 97.6363 45.564H99.5263C99.3583 46.348 98.9709 46.978 98.3643 47.454C97.7576 47.93 97.0109 48.168 96.1243 48.168ZM104.631 48.168C103.931 48.168 103.31 48.0187 102.769 47.72C102.227 47.4213 101.803 47.0013 101.495 46.46C101.187 45.9187 101.033 45.2933 101.033 44.584C101.033 43.8653 101.182 43.226 101.481 42.666C101.789 42.106 102.209 41.672 102.741 41.364C103.282 41.0467 103.917 40.888 104.645 40.888C105.326 40.888 105.928 41.0373 106.451 41.336C106.973 41.6347 107.379 42.0453 107.669 42.568C107.967 43.0813 108.117 43.6553 108.117 44.29C108.117 44.3927 108.112 44.5 108.103 44.612C108.103 44.724 108.098 44.8407 108.089 44.962H102.811C102.848 45.5033 103.035 45.928 103.371 46.236C103.716 46.544 104.131 46.698 104.617 46.698C104.981 46.698 105.284 46.6187 105.527 46.46C105.779 46.292 105.965 46.0773 106.087 45.816H107.907C107.776 46.2547 107.557 46.656 107.249 47.02C106.95 47.3747 106.577 47.6547 106.129 47.86C105.69 48.0653 105.191 48.168 104.631 48.168ZM104.645 42.344C104.206 42.344 103.819 42.47 103.483 42.722C103.147 42.9647 102.932 43.338 102.839 43.842H106.297C106.269 43.3847 106.101 43.0207 105.793 42.75C105.485 42.4793 105.102 42.344 104.645 42.344Z" fill="#FFF3E5"/>
<g clip-path="url(#clip0_304_5153)">
<path d="M66.5006 29C58.5043 29 52 22.4957 52 14.5006C52 6.5056 58.5043 0 66.5006 0C74.497 0 81.0013 6.50431 81.0013 14.5006C81.0013 22.497 74.497 29.0013 66.5006 29.0013V29ZM66.5006 1.39708C59.2753 1.39708 53.3971 7.27534 53.3971 14.5006C53.3971 21.7259 59.2753 27.6029 66.4994 27.6029C73.7234 27.6029 79.6016 21.7247 79.6016 14.5006C79.6016 7.27662 73.7247 1.39708 66.5006 1.39708Z" fill="#FFF3E5"/>
<path d="M66.5787 19.3603C63.9218 19.3603 61.7588 17.1986 61.7588 14.5404C61.7588 11.8823 63.9205 9.72058 66.5787 9.72058C69.2368 9.72058 71.3985 11.8823 71.3985 14.5404C71.3985 17.1986 69.2368 19.3603 66.5787 19.3603ZM66.5787 11.1189C64.6915 11.1189 63.1572 12.6546 63.1572 14.5404C63.1572 16.4263 64.6928 17.9619 66.5787 17.9619C68.4645 17.9619 70.0002 16.4263 70.0002 14.5404C70.0002 12.6546 68.4645 11.1189 66.5787 11.1189Z" fill="#FFF3E5"/>
<path d="M68.0046 25.5336L66.9718 24.0737H66.1007L65.068 25.5336L62.3585 24.8075L62.1943 23.0268L61.44 22.5919L59.8158 23.3399L57.8324 21.3565L58.5804 19.7323L58.1455 18.978L56.3648 18.8138L55.6387 16.1043L57.0986 15.0716V14.2005L55.6387 13.1677L56.3648 10.4582L58.1455 10.294L58.5804 9.53969L57.8324 7.91553L59.8158 5.93217L61.44 6.6801L62.1943 6.24519L62.3585 4.46453L65.068 3.7384L66.1007 5.19835H66.9718L68.0046 3.7384L70.7141 4.46453L70.8783 6.24519L71.6326 6.6801L73.2568 5.93217L75.2401 7.91553L74.4922 9.53969L74.9271 10.294L76.7078 10.4582L77.4339 13.1677L75.9739 14.2005V15.0716L77.4339 16.1043L76.7078 18.8138L74.9271 18.978L74.4922 19.7323L75.2401 21.3565L73.2568 23.3399L71.6326 22.5919L70.8783 23.0268L70.7141 24.8075L68.0046 25.5336ZM63.6607 23.7093L64.4894 23.9313L65.3772 22.6753H67.6941L68.5819 23.9313L69.4106 23.7093L69.5517 22.1776L71.5582 21.0191L72.9553 21.6618L73.5621 21.055L72.9181 19.6579L74.0765 17.6515L75.6083 17.5104L75.8303 16.6816L74.5743 15.7938V13.4769L75.8303 12.5891L75.6083 11.7604L74.0765 11.6193L72.9181 9.61281L73.5621 8.21573L72.9553 7.60892L71.5582 8.25165L69.5517 7.09319L69.4106 5.56141L68.5819 5.33946L67.6941 6.59543H65.3772L64.4894 5.33946L63.6607 5.56141L63.5195 7.09319L61.5131 8.25165L60.116 7.60892L59.5092 8.21573L60.1532 9.61281L58.9947 11.6193L57.463 11.7604L57.241 12.5891L58.497 13.4769V15.7938L57.241 16.6816L57.463 17.5104L58.9947 17.6515L60.1532 19.6579L59.5092 21.055L60.116 21.6618L61.5131 21.0191L63.5195 22.1776L63.6607 23.7093Z" fill="#FFF3E5"/>
</g>
<defs>
<clipPath id="clip0_304_5153">
<rect width="29" height="29" fill="white" transform="translate(52)"/>
</clipPath>
</defs>
</svg>
