<svg width="134" height="50" viewBox="0 0 134 50" fill="none" xmlns="http://www.w3.org/2000/svg">
<path d="M40.5499 48V38.2H42.0339V48H40.5499ZM44.1066 48V41.056H45.4226L45.5346 42.274C45.7492 41.8447 46.0619 41.5087 46.4726 41.266C46.8926 41.014 47.3732 40.888 47.9146 40.888C48.7546 40.888 49.4126 41.1493 49.8886 41.672C50.3739 42.1947 50.6166 42.974 50.6166 44.01V48H49.1466V44.164C49.1466 42.82 48.5959 42.148 47.4946 42.148C46.9439 42.148 46.4866 42.344 46.1226 42.736C45.7679 43.128 45.5906 43.688 45.5906 44.416V48H44.1066ZM54.341 48L51.737 41.056H53.291L55.223 46.586L57.155 41.056H58.695L56.105 48H54.341ZM62.01 48.168C61.422 48.168 60.9367 48.07 60.554 47.874C60.1714 47.678 59.8867 47.4213 59.7 47.104C59.5134 46.7773 59.42 46.4227 59.42 46.04C59.42 45.368 59.6814 44.836 60.204 44.444C60.7267 44.052 61.4734 43.856 62.444 43.856H64.264V43.73C64.264 43.1887 64.1147 42.7827 63.816 42.512C63.5267 42.2413 63.1487 42.106 62.682 42.106C62.2714 42.106 61.912 42.2087 61.604 42.414C61.3054 42.61 61.1234 42.904 61.058 43.296L59.574 43.296C59.6207 42.792 59.7887 42.3627 60.078 42.008C60.3767 41.644 60.75 41.3687 61.198 41.182C61.6554 40.986 62.1547 40.888 62.696 40.888C63.6667 40.888 64.418 41.1447 64.95 41.658C65.482 42.162 65.748 42.8527 65.748 43.73V48H64.46L64.334 46.81C64.138 47.1927 63.8534 47.5147 63.48 47.776C63.1067 48.0373 62.6167 48.168 62.01 48.168ZM62.304 46.964C62.7054 46.964 63.0414 46.8707 63.312 46.684C63.592 46.488 63.8067 46.2313 63.956 45.914C64.1147 45.5967 64.2127 45.2467 64.25 44.864H62.598C62.01 44.864 61.59 44.9667 61.338 45.172C61.0954 45.3773 60.974 45.634 60.974 45.942C60.974 46.2593 61.0907 46.5113 61.324 46.698C61.5667 46.8753 61.8934 46.964 62.304 46.964ZM70.3904 48.168C69.513 48.168 68.7897 47.9533 68.2204 47.524C67.651 47.0947 67.3244 46.5253 67.2404 45.816H68.7384C68.813 46.1333 68.9904 46.4087 69.2704 46.642C69.5504 46.866 69.919 46.978 70.3764 46.978C70.8244 46.978 71.151 46.8847 71.3564 46.698C71.5617 46.5113 71.6644 46.2967 71.6644 46.054C71.6644 45.6993 71.5197 45.4613 71.2304 45.34C70.9504 45.2093 70.5584 45.0927 70.0544 44.99C69.6624 44.906 69.2704 44.794 68.8784 44.654C68.4957 44.514 68.1737 44.318 67.9124 44.066C67.6604 43.8047 67.5344 43.4547 67.5344 43.016C67.5344 42.4093 67.7677 41.9053 68.2344 41.504C68.701 41.0933 69.3544 40.888 70.1944 40.888C70.969 40.888 71.5944 41.0747 72.0704 41.448C72.5557 41.8213 72.8404 42.3487 72.9244 43.03H71.4964C71.4497 42.7313 71.3097 42.498 71.0764 42.33C70.8524 42.162 70.549 42.078 70.1664 42.078C69.793 42.078 69.5037 42.1573 69.2984 42.316C69.093 42.4653 68.9904 42.6613 68.9904 42.904C68.9904 43.1467 69.1304 43.338 69.4104 43.478C69.6997 43.618 70.0777 43.744 70.5444 43.856C71.011 43.9587 71.4404 44.08 71.8324 44.22C72.2337 44.3507 72.5557 44.5467 72.7984 44.808C73.041 45.0693 73.1624 45.452 73.1624 45.956C73.1717 46.5907 72.9244 47.118 72.4204 47.538C71.9257 47.958 71.249 48.168 70.3904 48.168ZM75.7624 39.74C75.4824 39.74 75.2491 39.656 75.0624 39.488C74.8851 39.3107 74.7964 39.0913 74.7964 38.83C74.7964 38.5687 74.8851 38.354 75.0624 38.186C75.2491 38.0087 75.4824 37.92 75.7624 37.92C76.0424 37.92 76.2711 38.0087 76.4484 38.186C76.6351 38.354 76.7284 38.5687 76.7284 38.83C76.7284 39.0913 76.6351 39.3107 76.4484 39.488C76.2711 39.656 76.0424 39.74 75.7624 39.74ZM75.0204 48V41.056H76.5044V48H75.0204ZM81.8514 48.168C81.1888 48.168 80.5914 48.0187 80.0594 47.72C79.5368 47.412 79.1214 46.9873 78.8134 46.446C78.5054 45.8953 78.3514 45.256 78.3514 44.528C78.3514 43.8 78.5054 43.1653 78.8134 42.624C79.1308 42.0733 79.5554 41.6487 80.0874 41.35C80.6194 41.042 81.2121 40.888 81.8654 40.888C82.5281 40.888 83.1208 41.042 83.6434 41.35C84.1754 41.6487 84.5954 42.0733 84.9034 42.624C85.2208 43.1653 85.3794 43.8 85.3794 44.528C85.3794 45.256 85.2208 45.8953 84.9034 46.446C84.5954 46.9873 84.1754 47.412 83.6434 47.72C83.1114 48.0187 82.5141 48.168 81.8514 48.168ZM81.8514 46.894C82.2061 46.894 82.5328 46.8053 82.8314 46.628C83.1394 46.4507 83.3868 46.1893 83.5734 45.844C83.7601 45.4893 83.8534 45.0507 83.8534 44.528C83.8534 44.0053 83.7601 43.5713 83.5734 43.226C83.3961 42.8713 83.1534 42.6053 82.8454 42.428C82.5468 42.2507 82.2201 42.162 81.8654 42.162C81.5108 42.162 81.1794 42.2507 80.8714 42.428C80.5728 42.6053 80.3301 42.8713 80.1434 43.226C79.9568 43.5713 79.8634 44.0053 79.8634 44.528C79.8634 45.0507 79.9568 45.4893 80.1434 45.844C80.3301 46.1893 80.5728 46.4507 80.8714 46.628C81.1701 46.8053 81.4968 46.894 81.8514 46.894ZM87.1243 48V41.056H88.4403L88.5523 42.274C88.767 41.8447 89.0796 41.5087 89.4903 41.266C89.9103 41.014 90.391 40.888 90.9323 40.888C91.7723 40.888 92.4303 41.1493 92.9063 41.672C93.3916 42.1947 93.6343 42.974 93.6343 44.01V48H92.1643V44.164C92.1643 42.82 91.6136 42.148 90.5123 42.148C89.9616 42.148 89.5043 42.344 89.1403 42.736C88.7856 43.128 88.6083 43.688 88.6083 44.416V48H87.1243Z" fill="#0b1a00"/>
<g clip-path="url(#clip0_304_5045)">
<path d="M66.5002 27.8504C59.1831 27.8504 53.2305 21.8858 53.2305 14.5539C53.2305 7.22192 59.1831 1.25732 66.5002 1.25732C73.8174 1.25732 79.77 7.22192 79.77 14.5539C79.77 21.8858 73.8174 27.8504 66.5002 27.8504ZM66.5002 2.66214C59.9565 2.66214 54.6325 7.99691 54.6325 14.5539C54.6325 21.1108 59.9565 26.4456 66.5002 26.4456C73.044 26.4456 78.368 21.1108 78.368 14.5539C78.368 7.99691 73.044 2.66214 66.5002 2.66214Z" fill="#0b1a00"/>
<path d="M66.4966 20.0174C63.4765 20.0174 61.0195 17.5555 61.0195 14.5293C61.0195 11.5031 63.4765 9.04114 66.4966 9.04114C69.5167 9.04114 71.9725 11.5031 71.9725 14.5293C71.9725 17.5555 69.5155 20.0174 66.4966 20.0174ZM66.4966 10.4471C64.2499 10.4471 62.4215 12.2781 62.4215 14.5304C62.4215 16.7828 64.2488 18.6138 66.4966 18.6138C68.7445 18.6138 70.5705 16.7828 70.5705 14.5304C70.5705 12.2781 68.7433 10.4471 66.4966 10.4471Z" fill="#0b1a00"/>
<path d="M67.2575 0H65.8555V7.58013H67.2575V0Z" fill="#0b1a00"/>
<path d="M67.2926 21.4736H65.8906V28.9999H67.2926V21.4736Z" fill="#0b1a00"/>
<path d="M81.0004 13.8081H73.501V15.2129H81.0004V13.8081Z" fill="#0b1a00"/>
<path d="M52.0012 13.8087L51.999 15.2135L59.4786 15.2253L59.4808 13.8205L52.0012 13.8087Z" fill="#0b1a00"/>
</g>
<defs>
<clipPath id="clip0_304_5045">
<rect width="29" height="29" fill="white" transform="translate(52)"/>
</clipPath>
</defs>
</svg>
