<svg width="134" height="52" viewBox="0 0 134 52" fill="none" xmlns="http://www.w3.org/2000/svg">
<path d="M34.3145 48V38.2H38.2485C39.2659 38.2 40.0405 38.438 40.5725 38.914C41.1139 39.3807 41.3845 39.9827 41.3845 40.72C41.3845 41.336 41.2165 41.8307 40.8805 42.204C40.5539 42.568 40.1525 42.8153 39.6765 42.946C40.2365 43.058 40.6985 43.338 41.0625 43.786C41.4265 44.2247 41.6085 44.738 41.6085 45.326C41.6085 46.1007 41.3285 46.74 40.7685 47.244C40.2085 47.748 39.4152 48 38.3885 48H34.3145ZM36.1065 42.316H37.9825C38.4865 42.316 38.8739 42.1993 39.1445 41.966C39.4152 41.7327 39.5505 41.4013 39.5505 40.972C39.5505 40.5613 39.4152 40.2393 39.1445 40.006C38.8832 39.7633 38.4865 39.642 37.9545 39.642H36.1065V42.316ZM36.1065 46.544H38.1085C38.6405 46.544 39.0512 46.4227 39.3405 46.18C39.6392 45.928 39.7885 45.578 39.7885 45.13C39.7885 44.6727 39.6345 44.3133 39.3265 44.052C39.0185 43.7907 38.6032 43.66 38.0805 43.66H36.1065V46.544ZM45.6386 48.168C45.0412 48.168 44.5512 48.0747 44.1686 47.888C43.7859 47.692 43.5012 47.4353 43.3146 47.118C43.1279 46.8007 43.0346 46.4507 43.0346 46.068C43.0346 45.424 43.2866 44.9013 43.7906 44.5C44.2946 44.0987 45.0506 43.898 46.0586 43.898H47.8226V43.73C47.8226 43.254 47.6872 42.904 47.4166 42.68C47.1459 42.456 46.8099 42.344 46.4086 42.344C46.0446 42.344 45.7272 42.4327 45.4566 42.61C45.1859 42.778 45.0179 43.03 44.9526 43.366H43.2026C43.2492 42.862 43.4172 42.4233 43.7066 42.05C44.0052 41.6767 44.3879 41.392 44.8546 41.196C45.3212 40.9907 45.8439 40.888 46.4226 40.888C47.4119 40.888 48.1912 41.1353 48.7606 41.63C49.3299 42.1247 49.6146 42.8247 49.6146 43.73V48H48.0886L47.9206 46.88C47.7152 47.2533 47.4259 47.5613 47.0526 47.804C46.6886 48.0467 46.2172 48.168 45.6386 48.168ZM46.0446 46.768C46.5579 46.768 46.9546 46.6 47.2346 46.264C47.5239 45.928 47.7059 45.5127 47.7806 45.018H46.2546C45.7786 45.018 45.4379 45.1067 45.2326 45.284C45.0272 45.452 44.9246 45.662 44.9246 45.914C44.9246 46.1847 45.0272 46.3947 45.2326 46.544C45.4379 46.6933 45.7086 46.768 46.0446 46.768ZM54.3346 48.168C53.7186 48.168 53.1773 48.07 52.7106 47.874C52.244 47.6687 51.8706 47.3887 51.5906 47.034C51.3106 46.6793 51.1426 46.2687 51.0866 45.802H52.8926C52.9486 46.0727 53.098 46.306 53.3406 46.502C53.5926 46.6887 53.9146 46.782 54.3066 46.782C54.6986 46.782 54.9833 46.7027 55.1606 46.544C55.3473 46.3853 55.4406 46.2033 55.4406 45.998C55.4406 45.6993 55.31 45.4987 55.0486 45.396C54.7873 45.284 54.4233 45.1767 53.9566 45.074C53.658 45.0087 53.3546 44.9293 53.0466 44.836C52.7386 44.7427 52.454 44.626 52.1926 44.486C51.9406 44.3367 51.7353 44.15 51.5766 43.926C51.418 43.6927 51.3386 43.408 51.3386 43.072C51.3386 42.456 51.5813 41.938 52.0666 41.518C52.5613 41.098 53.252 40.888 54.1386 40.888C54.96 40.888 55.6133 41.0793 56.0986 41.462C56.5933 41.8447 56.8873 42.372 56.9806 43.044H55.2866C55.184 42.5307 54.7966 42.274 54.1246 42.274C53.7886 42.274 53.5273 42.3393 53.3406 42.47C53.1633 42.6007 53.0746 42.764 53.0746 42.96C53.0746 43.1653 53.21 43.3287 53.4806 43.45C53.7513 43.5713 54.1106 43.6833 54.5586 43.786C55.044 43.898 55.4873 44.024 55.8886 44.164C56.2993 44.2947 56.626 44.4953 56.8686 44.766C57.1113 45.0273 57.2326 45.4053 57.2326 45.9C57.242 46.3293 57.13 46.7167 56.8966 47.062C56.6633 47.4073 56.3273 47.678 55.8886 47.874C55.45 48.07 54.932 48.168 54.3346 48.168ZM62.3341 48.168C61.6341 48.168 61.0135 48.0187 60.4721 47.72C59.9308 47.4213 59.5061 47.0013 59.1981 46.46C58.8901 45.9187 58.7361 45.2933 58.7361 44.584C58.7361 43.8653 58.8855 43.226 59.1841 42.666C59.4921 42.106 59.9121 41.672 60.4441 41.364C60.9855 41.0467 61.6201 40.888 62.3481 40.888C63.0295 40.888 63.6315 41.0373 64.1541 41.336C64.6768 41.6347 65.0828 42.0453 65.3721 42.568C65.6708 43.0813 65.8201 43.6553 65.8201 44.29C65.8201 44.3927 65.8155 44.5 65.8061 44.612C65.8061 44.724 65.8015 44.8407 65.7921 44.962L60.5141 44.962C60.5515 45.5033 60.7381 45.928 61.0741 46.236C61.4195 46.544 61.8348 46.698 62.3201 46.698C62.6841 46.698 62.9875 46.6187 63.2301 46.46C63.4821 46.292 63.6688 46.0773 63.7901 45.816H65.6101C65.4795 46.2547 65.2601 46.656 64.9521 47.02C64.6535 47.3747 64.2801 47.6547 63.8321 47.86C63.3935 48.0653 62.8941 48.168 62.3341 48.168ZM62.3481 42.344C61.9095 42.344 61.5221 42.47 61.1861 42.722C60.8501 42.9647 60.6355 43.338 60.5421 43.842L64.0001 43.842C63.9721 43.3847 63.8041 43.0207 63.4961 42.75C63.1881 42.4793 62.8055 42.344 62.3481 42.344ZM70.9432 48V41.056H72.5252L72.6792 41.994C72.9032 41.658 73.1972 41.392 73.5612 41.196C73.9346 40.9907 74.3639 40.888 74.8492 40.888C75.9226 40.888 76.6832 41.3033 77.1312 42.134C77.3832 41.7513 77.7192 41.448 78.1392 41.224C78.5686 41 79.0352 40.888 79.5392 40.888C80.4446 40.888 81.1399 41.1587 81.6252 41.7C82.1106 42.2413 82.3532 43.0347 82.3532 44.08V48H80.5612V44.248C80.5612 43.6507 80.4446 43.1933 80.2112 42.876C79.9872 42.5587 79.6372 42.4 79.1612 42.4C78.6759 42.4 78.2839 42.5773 77.9852 42.932C77.6959 43.2867 77.5512 43.7813 77.5512 44.416V48H75.7592V44.248C75.7592 43.6507 75.6426 43.1933 75.4092 42.876C75.1759 42.5587 74.8166 42.4 74.3312 42.4C73.8552 42.4 73.4679 42.5773 73.1692 42.932C72.8799 43.2867 72.7352 43.7813 72.7352 44.416V48H70.9432ZM86.5886 48.168C85.9912 48.168 85.5012 48.0747 85.1186 47.888C84.7359 47.692 84.4512 47.4353 84.2646 47.118C84.0779 46.8007 83.9846 46.4507 83.9846 46.068C83.9846 45.424 84.2366 44.9013 84.7406 44.5C85.2446 44.0987 86.0006 43.898 87.0086 43.898H88.7726V43.73C88.7726 43.254 88.6372 42.904 88.3666 42.68C88.0959 42.456 87.7599 42.344 87.3586 42.344C86.9946 42.344 86.6772 42.4327 86.4066 42.61C86.1359 42.778 85.9679 43.03 85.9026 43.366H84.1526C84.1992 42.862 84.3672 42.4233 84.6566 42.05C84.9552 41.6767 85.3379 41.392 85.8046 41.196C86.2712 40.9907 86.7939 40.888 87.3726 40.888C88.3619 40.888 89.1412 41.1353 89.7106 41.63C90.2799 42.1247 90.5646 42.8247 90.5646 43.73V48H89.0386L88.8706 46.88C88.6652 47.2533 88.3759 47.5613 88.0026 47.804C87.6386 48.0467 87.1672 48.168 86.5886 48.168ZM86.9946 46.768C87.5079 46.768 87.9046 46.6 88.1846 46.264C88.4739 45.928 88.6559 45.5127 88.7306 45.018H87.2046C86.7286 45.018 86.3879 45.1067 86.1826 45.284C85.9772 45.452 85.8746 45.662 85.8746 45.914C85.8746 46.1847 85.9772 46.3947 86.1826 46.544C86.3879 46.6933 86.6586 46.768 86.9946 46.768ZM92.4146 51.08V41.056H94.0106L94.2066 42.05C94.4306 41.742 94.7246 41.4713 95.0886 41.238C95.462 41.0047 95.9426 40.888 96.5306 40.888C97.184 40.888 97.7673 41.0467 98.2806 41.364C98.794 41.6813 99.2 42.1153 99.4986 42.666C99.7973 43.2167 99.9466 43.842 99.9466 44.542C99.9466 45.242 99.7973 45.8673 99.4986 46.418C99.2 46.9593 98.794 47.3887 98.2806 47.706C97.7673 48.014 97.184 48.168 96.5306 48.168C96.008 48.168 95.5506 48.07 95.1586 47.874C94.7666 47.678 94.4493 47.4027 94.2066 47.048V51.08H92.4146ZM96.1526 46.6C96.722 46.6 97.1933 46.4087 97.5666 46.026C97.94 45.6433 98.1266 45.1487 98.1266 44.542C98.1266 43.9353 97.94 43.436 97.5666 43.044C97.1933 42.652 96.722 42.456 96.1526 42.456C95.574 42.456 95.098 42.652 94.7246 43.044C94.3606 43.4267 94.1786 43.9213 94.1786 44.528C94.1786 45.1347 94.3606 45.634 94.7246 46.026C95.098 46.4087 95.574 46.6 96.1526 46.6Z" fill="#2D8C2D"/>
<g clip-path="url(#clip0_304_5073)">
<path d="M52.0192 15.6539C52.006 15.4103 52 15.1632 52 14.9185H53.4384C53.4384 15.1387 53.4444 15.3625 53.4564 15.5816L52.0204 15.6539H52.0192Z" fill="#2D8C2D"/>
<path d="M67.2523 29L67.1792 27.6038C67.6335 27.5816 68.0914 27.535 68.5397 27.4674L68.7626 28.8497C68.2652 28.9254 67.757 28.9767 67.2535 29.0012L67.2523 29ZM65.736 29C65.2314 28.9744 64.7244 28.9231 64.227 28.8474L64.4511 27.4662C64.8994 27.535 65.3573 27.5816 65.8116 27.6038L65.7372 29H65.736ZM70.2465 28.5432L69.8762 27.1923C70.3149 27.0781 70.7524 26.9406 71.1767 26.7821L71.6921 28.0874C71.221 28.2634 70.7356 28.4161 70.2477 28.5432H70.2465ZM62.7418 28.5408C62.2552 28.415 61.7697 28.2611 61.2975 28.0851L61.8129 26.7798C62.2372 26.9383 62.6747 27.077 63.1122 27.19L62.7406 28.5408H62.7418ZM73.0789 27.4872L72.4257 26.2413C72.8296 26.0408 73.2288 25.817 73.6099 25.5758L74.3939 26.7483C73.9707 27.0163 73.5284 27.2646 73.0801 27.4872H73.0789ZM59.913 27.4837C59.4647 27.2611 59.0224 27.0129 58.6005 26.7448L59.3844 25.5723C59.7656 25.8136 60.1635 26.0373 60.5675 26.2378L59.913 27.4837ZM75.6213 25.8812L74.7163 24.7949C75.0687 24.5175 75.4103 24.218 75.7327 23.9056L76.7492 24.8951C76.392 25.2425 76.0132 25.5735 75.6213 25.8823V25.8812ZM57.3731 25.8765C56.9823 25.5676 56.6024 25.2355 56.2464 24.8893L57.264 23.901C57.5853 24.2133 57.9269 24.5129 58.2793 24.7914L57.3731 25.8777V25.8765ZM77.7644 23.7984L76.6473 22.9173C76.9338 22.5746 77.2047 22.2133 77.4528 21.8427L78.6574 22.6061C78.3817 23.0164 78.0821 23.4173 77.7644 23.7984ZM55.2299 23.7926C54.9123 23.4115 54.6114 23.0105 54.3369 22.5991L55.5428 21.8369C55.7909 22.2063 56.0606 22.5688 56.3471 22.9126L55.2299 23.7937V23.7926ZM79.4186 21.3299L78.1372 20.6935C78.3434 20.3007 78.5316 19.8928 78.6946 19.4802L80.0371 19.9825C79.8561 20.4394 79.6475 20.8928 79.4186 21.3299ZM53.577 21.3217C53.3469 20.8846 53.1395 20.4313 52.9585 19.9732L54.301 19.4721C54.464 19.8846 54.651 20.2926 54.8571 20.6865L53.5758 21.3229L53.577 21.3217ZM80.5069 18.5793L79.1177 18.2168C79.2352 17.7902 79.3311 17.3532 79.4018 16.9173L80.8222 17.1352C80.7431 17.6201 80.6376 18.1061 80.5069 18.5793ZM52.4898 18.5688C52.3604 18.0956 52.2537 17.6096 52.1758 17.1247L53.5974 16.908C53.6681 17.345 53.7628 17.7821 53.8803 18.2087L52.491 18.57L52.4898 18.5688Z" fill="#2D8C2D"/>
<path d="M80.9809 15.6539L79.5449 15.5816C79.5569 15.3625 79.5629 15.1399 79.5629 14.9185H81.0013C81.0013 15.1632 80.9953 15.4103 80.9821 15.6539H80.9809Z" fill="#2D8C2D"/>
<path d="M66.7923 14.1107C64.4022 14.1107 62.458 12.2202 62.458 9.89622C62.458 7.57221 64.4022 5.68176 66.7923 5.68176C69.1824 5.68176 71.1266 7.57221 71.1266 9.89622C71.1266 12.2202 69.1824 14.1107 66.7923 14.1107ZM66.7923 7.08036C65.1957 7.08036 63.8964 8.34377 63.8964 9.89622C63.8964 11.4487 65.1957 12.7121 66.7923 12.7121C68.3889 12.7121 69.6882 11.4487 69.6882 9.89622C69.6882 8.34377 68.3889 7.08036 66.7923 7.08036Z" fill="#2D8C2D"/>
<path d="M66.7017 27.9277L57.9756 14.8193C57.1065 13.3333 56.6475 11.6399 56.6475 9.92075C56.6475 4.45105 61.2251 0 66.8503 0C72.4756 0 77.0532 4.45105 77.0532 9.92075C77.0532 11.6562 76.5857 13.3636 75.6999 14.8601L75.6735 14.9009L66.6993 27.9277H66.7017ZM59.2162 14.1107L66.7221 25.3846L74.4665 14.1422C75.2181 12.8625 75.616 11.4033 75.616 9.92075C75.616 5.22145 71.6845 1.3986 66.8515 1.3986C62.0186 1.3986 58.0858 5.22145 58.0858 9.92075C58.0858 11.3904 58.4766 12.8392 59.2162 14.1107Z" fill="#2D8C2D"/>
</g>
<defs>
<clipPath id="clip0_304_5073">
<rect width="29" height="29" fill="white" transform="translate(52)"/>
</clipPath>
</defs>
</svg>
