<svg width="134" height="50" viewBox="0 0 134 50" fill="none" xmlns="http://www.w3.org/2000/svg">
<path d="M25.3487 48L25.3487 38.2H31.5787V39.404H26.8327V42.456H31.1587V43.632H26.8327V46.796L31.5787 46.796L31.5787 48L25.3487 48ZM33.4307 48V41.056H34.7467L34.8587 42.274C35.0734 41.8447 35.3861 41.5087 35.7967 41.266C36.2167 41.014 36.6974 40.888 37.2387 40.888C38.0787 40.888 38.7367 41.1493 39.2127 41.672C39.6981 42.1947 39.9407 42.974 39.9407 44.01V48H38.4707V44.164C38.4707 42.82 37.9201 42.148 36.8187 42.148C36.2681 42.148 35.8107 42.344 35.4467 42.736C35.0921 43.128 34.9147 43.688 34.9147 44.416V48H33.4307ZM43.6652 48L41.0612 41.056H42.6152L44.5472 46.586L46.4792 41.056H48.0192L45.4292 48H43.6652ZM50.2187 39.74C49.9387 39.74 49.7054 39.656 49.5187 39.488C49.3414 39.3107 49.2527 39.0913 49.2527 38.83C49.2527 38.5687 49.3414 38.354 49.5187 38.186C49.7054 38.0087 49.9387 37.92 50.2187 37.92C50.4987 37.92 50.7274 38.0087 50.9047 38.186C51.0914 38.354 51.1847 38.5687 51.1847 38.83C51.1847 39.0913 51.0914 39.3107 50.9047 39.488C50.7274 39.656 50.4987 39.74 50.2187 39.74ZM49.4767 48V41.056H50.9607V48H49.4767ZM53.0597 48V41.056H54.3897L54.5157 42.372C54.7584 41.9147 55.0944 41.5553 55.5237 41.294C55.9624 41.0233 56.4897 40.888 57.1057 40.888V42.442H56.6997C56.2891 42.442 55.9204 42.512 55.5937 42.652C55.2764 42.7827 55.0197 43.0113 54.8237 43.338C54.6371 43.6553 54.5437 44.0987 54.5437 44.668V48H53.0597ZM61.5747 48.168C60.912 48.168 60.3147 48.0187 59.7827 47.72C59.26 47.412 58.8447 46.9873 58.5367 46.446C58.2287 45.8953 58.0747 45.256 58.0747 44.528C58.0747 43.8 58.2287 43.1653 58.5367 42.624C58.854 42.0733 59.2787 41.6487 59.8107 41.35C60.3427 41.042 60.9353 40.888 61.5887 40.888C62.2513 40.888 62.844 41.042 63.3667 41.35C63.8987 41.6487 64.3187 42.0733 64.6267 42.624C64.944 43.1653 65.1027 43.8 65.1027 44.528C65.1027 45.256 64.944 45.8953 64.6267 46.446C64.3187 46.9873 63.8987 47.412 63.3667 47.72C62.8347 48.0187 62.2373 48.168 61.5747 48.168ZM61.5747 46.894C61.9293 46.894 62.256 46.8053 62.5547 46.628C62.8627 46.4507 63.11 46.1893 63.2967 45.844C63.4833 45.4893 63.5767 45.0507 63.5767 44.528C63.5767 44.0053 63.4833 43.5713 63.2967 43.226C63.1193 42.8713 62.8767 42.6053 62.5687 42.428C62.27 42.2507 61.9433 42.162 61.5887 42.162C61.234 42.162 60.9027 42.2507 60.5947 42.428C60.296 42.6053 60.0533 42.8713 59.8667 43.226C59.68 43.5713 59.5867 44.0053 59.5867 44.528C59.5867 45.0507 59.68 45.4893 59.8667 45.844C60.0533 46.1893 60.296 46.4507 60.5947 46.628C60.8933 46.8053 61.22 46.894 61.5747 46.894ZM66.8475 48V41.056H68.1635L68.2755 42.274C68.4902 41.8447 68.8029 41.5087 69.2135 41.266C69.6335 41.014 70.1142 40.888 70.6555 40.888C71.4955 40.888 72.1535 41.1493 72.6295 41.672C73.1149 42.1947 73.3575 42.974 73.3575 44.01V48H71.8875V44.164C71.8875 42.82 71.3369 42.148 70.2355 42.148C69.6849 42.148 69.2275 42.344 68.8635 42.736C68.5089 43.128 68.3315 43.688 68.3315 44.416V48H66.8475ZM75.2453 48V41.056H76.5613L76.6873 42.036C76.9113 41.6813 77.2053 41.4013 77.5693 41.196C77.9427 40.9907 78.372 40.888 78.8573 40.888C79.9587 40.888 80.724 41.322 81.1533 42.19C81.4053 41.7887 81.7413 41.4713 82.1613 41.238C82.5907 41.0047 83.0527 40.888 83.5473 40.888C84.4153 40.888 85.0967 41.1493 85.5913 41.672C86.086 42.1947 86.3333 42.974 86.3333 44.01V48H84.8493V44.164C84.8493 42.82 84.336 42.148 83.3093 42.148C82.7867 42.148 82.3573 42.344 82.0213 42.736C81.6947 43.128 81.5313 43.688 81.5313 44.416V48H80.0473V44.164C80.0473 42.82 79.5293 42.148 78.4933 42.148C77.98 42.148 77.5553 42.344 77.2193 42.736C76.8927 43.128 76.7293 43.688 76.7293 44.416V48H75.2453ZM91.4576 48.168C90.7762 48.168 90.1696 48.0187 89.6376 47.72C89.1149 47.412 88.7042 46.9873 88.4056 46.446C88.1069 45.9047 87.9576 45.2747 87.9576 44.556C87.9576 43.828 88.1022 43.1887 88.3916 42.638C88.6902 42.0873 89.1009 41.658 89.6236 41.35C90.1556 41.042 90.7716 40.888 91.4716 40.888C92.1529 40.888 92.7456 41.042 93.2496 41.35C93.7536 41.6487 94.1456 42.05 94.4256 42.554C94.7056 43.058 94.8456 43.6133 94.8456 44.22C94.8456 44.3133 94.8409 44.416 94.8316 44.528C94.8316 44.6307 94.8269 44.7473 94.8176 44.878H89.4136C89.4602 45.55 89.6796 46.0633 90.0716 46.418C90.4729 46.7633 90.9349 46.936 91.4576 46.936C91.8776 46.936 92.2276 46.8427 92.5076 46.656C92.7969 46.46 93.0116 46.1987 93.1516 45.872H94.6356C94.4489 46.5253 94.0756 47.0713 93.5156 47.51C92.9649 47.9487 92.2789 48.168 91.4576 48.168ZM91.4576 42.106C90.9629 42.106 90.5242 42.2553 90.1416 42.554C89.7589 42.8433 89.5256 43.282 89.4416 43.87H93.3616C93.3336 43.3287 93.1422 42.8993 92.7876 42.582C92.4329 42.2647 91.9896 42.106 91.4576 42.106ZM96.5253 48V41.056H97.8413L97.9533 42.274C98.168 41.8447 98.4807 41.5087 98.8913 41.266C99.3113 41.014 99.792 40.888 100.333 40.888C101.173 40.888 101.831 41.1493 102.307 41.672C102.793 42.1947 103.035 42.974 103.035 44.01V48H101.565V44.164C101.565 42.82 101.015 42.148 99.9133 42.148C99.3627 42.148 98.9053 42.344 98.5413 42.736C98.1867 43.128 98.0093 43.688 98.0093 44.416V48H96.5253ZM107.835 48C107.154 48 106.612 47.8367 106.211 47.51C105.81 47.174 105.609 46.5813 105.609 45.732V42.302H104.419V41.056H105.609L105.791 39.292H107.093V41.056H109.053V42.302H107.093V45.732C107.093 46.1147 107.172 46.3807 107.331 46.53C107.499 46.67 107.784 46.74 108.185 46.74H108.983V48H107.835Z" fill="#FFF3E5"/>
<g clip-path="url(#clip0_304_5102)">
<path d="M60.7306 17.9696C59.9534 16.1588 59.5586 14.2354 59.5586 12.2529C59.5586 7.38178 61.9617 3.01488 66.1501 0.273193L66.8976 1.41585C63.1007 3.90147 60.924 7.85068 60.924 12.2529C60.924 14.0499 61.2813 15.7912 61.9856 17.4312L60.7306 17.9707V17.9696Z" fill="#FFF3E5"/>
<path d="M53.3703 14.4994H52.0049C52.0049 14.1933 52.014 13.8837 52.0333 13.5776C52.5112 5.9648 58.866 0 66.4998 0V1.36572C59.5851 1.36572 53.8288 6.7683 53.3965 13.6629C53.3794 13.9406 53.3703 14.2217 53.3703 14.4994Z" fill="#FFF3E5"/>
<path d="M72.2901 17.9273L71.034 17.3924C71.7269 15.7649 72.0785 14.035 72.0785 12.2516C72.0785 7.82775 69.9178 3.87626 66.1504 1.40999L66.8979 0.267334C71.0579 2.99081 73.4439 7.35885 73.4439 12.2516C73.4439 14.2205 73.0559 16.1302 72.2901 17.9273Z" fill="#FFF3E5"/>
<path d="M67.148 28.9999H66.471C63.6537 28.9931 60.924 28.1771 58.5744 26.6395C54.5089 23.9798 52.0546 19.4956 52.0068 14.6439L52 13.9542H52.6895C55.946 13.9542 59.174 15.1139 61.7786 17.2183L61.8229 17.257C61.9561 17.3856 65.0919 20.4152 65.9521 22.704C66.1456 23.1546 66.3162 23.6099 66.4653 24.0674C66.4721 24.0458 66.479 24.0242 66.4858 24.0025C66.6189 23.5905 66.7725 23.1785 66.9432 22.7768L68.1994 23.3117C68.0446 23.6759 67.9047 24.0492 67.7852 24.4214C67.4268 25.5356 67.2185 26.6998 67.1685 27.8812C67.1617 28.0519 67.1571 28.1919 67.156 28.3216L67.1491 28.9988L67.148 28.9999ZM53.3984 15.3393C53.6601 19.4592 55.8391 23.2172 59.322 25.4969C61.2586 26.7636 63.4808 27.4897 65.7883 27.6137C65.6927 26.1922 65.3149 24.6831 64.6903 23.2286L64.6778 23.1968C63.9677 21.2859 61.1641 18.5226 60.8967 18.2619C58.695 16.4911 56.1167 15.4884 53.3973 15.3393H53.3984Z" fill="#FFF3E5"/>
<path d="M65.8141 28.3227C65.813 28.1759 65.8084 28.0279 65.8027 27.8823L67.167 27.8242C67.1738 27.9847 67.1784 28.1486 67.1795 28.3102L65.8141 28.3227Z" fill="#FFF3E5"/>
<path d="M66.501 28.9989H65.8252L65.8161 28.3229C65.8149 28.1761 65.8104 28.0281 65.8047 27.8824V27.8529V27.8233C65.8604 26.519 66.0903 25.2341 66.4863 24.0027C66.6194 23.5907 66.773 23.1787 66.9437 22.7769C67.879 20.5792 69.3638 18.6263 71.2356 17.1274C73.8287 15.0515 76.9577 13.9543 80.2848 13.9543H80.3109H81.0005L80.9959 14.644C80.9481 19.4946 78.4927 23.9788 74.4272 26.6396C72.0696 28.1829 69.3286 28.9989 66.501 28.9989ZM79.6044 15.3371C76.844 15.476 74.2599 16.4559 72.089 18.1938C70.3924 19.5515 69.0475 21.3224 68.1998 23.313C68.0451 23.6772 67.9051 24.0505 67.7857 24.4226C67.4534 25.4526 67.2509 26.5258 67.1826 27.6161C69.5027 27.4966 71.7351 26.7705 73.6796 25.4981C77.1648 23.2174 79.3438 19.4582 79.6044 15.3383V15.3371Z" fill="#FFF3E5"/>
<path d="M69.9714 19.8883L71.033 17.3936C71.7259 15.7661 72.0775 14.0362 72.0775 12.2528H73.4429C73.4429 13.507 73.2859 14.7362 72.973 15.9289C74.9915 14.7418 77.249 14.0749 79.6202 13.9702C79.3414 6.97316 73.5635 1.36686 66.501 1.36686V0C74.4943 0 80.9959 6.5054 80.9959 14.4994C80.9959 14.5313 80.9959 14.5632 80.9959 14.595L80.989 15.32H80.287C77.2717 15.32 74.4374 16.3136 72.0889 18.1937L69.9725 19.8883H69.9714Z" fill="#FFF3E5"/>
</g>
<defs>
<clipPath id="clip0_304_5102">
<rect width="29" height="29" fill="white" transform="translate(52)"/>
</clipPath>
</defs>
</svg>
