<svg width="134" height="51" viewBox="0 0 134 51" fill="none" xmlns="http://www.w3.org/2000/svg">
<path d="M11.3122 47L11.3122 37.2H13.1042L13.1042 47H11.3122ZM17.9716 47.168C17.3556 47.168 16.8142 47.07 16.3476 46.874C15.8809 46.6687 15.5076 46.3887 15.2276 46.034C14.9476 45.6793 14.7796 45.2687 14.7236 44.802H16.5296C16.5856 45.0727 16.7349 45.306 16.9776 45.502C17.2296 45.6887 17.5516 45.782 17.9436 45.782C18.3356 45.782 18.6202 45.7027 18.7976 45.544C18.9842 45.3853 19.0776 45.2033 19.0776 44.998C19.0776 44.6993 18.9469 44.4987 18.6856 44.396C18.4242 44.284 18.0602 44.1767 17.5936 44.074C17.2949 44.0087 16.9916 43.9293 16.6836 43.836C16.3756 43.7427 16.0909 43.626 15.8296 43.486C15.5776 43.3367 15.3722 43.15 15.2136 42.926C15.0549 42.6927 14.9756 42.408 14.9756 42.072C14.9756 41.456 15.2182 40.938 15.7036 40.518C16.1982 40.098 16.8889 39.888 17.7756 39.888C18.5969 39.888 19.2502 40.0793 19.7356 40.462C20.2302 40.8447 20.5242 41.372 20.6176 42.044H18.9236C18.8209 41.5307 18.4336 41.274 17.7616 41.274C17.4256 41.274 17.1642 41.3393 16.9776 41.47C16.8002 41.6007 16.7116 41.764 16.7116 41.96C16.7116 42.1653 16.8469 42.3287 17.1176 42.45C17.3882 42.5713 17.7476 42.6833 18.1956 42.786C18.6809 42.898 19.1242 43.024 19.5256 43.164C19.9362 43.2947 20.2629 43.4953 20.5056 43.766C20.7482 44.0273 20.8696 44.4053 20.8696 44.9C20.8789 45.3293 20.7669 45.7167 20.5336 46.062C20.3002 46.4073 19.9642 46.678 19.5256 46.874C19.0869 47.07 18.5689 47.168 17.9716 47.168ZM25.929 47.168C25.257 47.168 24.6504 47.014 24.109 46.706C23.577 46.398 23.1524 45.9733 22.835 45.432C22.527 44.8813 22.373 44.2467 22.373 43.528C22.373 42.8093 22.5317 42.1793 22.849 41.638C23.1664 41.0873 23.591 40.658 24.123 40.35C24.6644 40.042 25.271 39.888 25.943 39.888C26.6057 39.888 27.203 40.042 27.735 40.35C28.2764 40.658 28.701 41.0873 29.009 41.638C29.3264 42.1793 29.485 42.8093 29.485 43.528C29.485 44.2467 29.3264 44.8813 29.009 45.432C28.701 45.9733 28.2764 46.398 27.735 46.706C27.1937 47.014 26.5917 47.168 25.929 47.168ZM25.929 45.614C26.3957 45.614 26.8017 45.4413 27.147 45.096C27.4924 44.7413 27.665 44.2187 27.665 43.528C27.665 42.8373 27.4924 42.3193 27.147 41.974C26.8017 41.6193 26.4004 41.442 25.943 41.442C25.467 41.442 25.0564 41.6193 24.711 41.974C24.375 42.3193 24.207 42.8373 24.207 43.528C24.207 44.2187 24.375 44.7413 24.711 45.096C25.0564 45.4413 25.4624 45.614 25.929 45.614ZM31.2273 47V36.92H33.0193V47H31.2273ZM37.3843 47.168C36.787 47.168 36.297 47.0747 35.9143 46.888C35.5316 46.692 35.247 46.4353 35.0603 46.118C34.8736 45.8007 34.7803 45.4507 34.7803 45.068C34.7803 44.424 35.0323 43.9013 35.5363 43.5C36.0403 43.0987 36.7963 42.898 37.8043 42.898H39.5683V42.73C39.5683 42.254 39.433 41.904 39.1623 41.68C38.8916 41.456 38.5556 41.344 38.1543 41.344C37.7903 41.344 37.473 41.4327 37.2023 41.61C36.9316 41.778 36.7636 42.03 36.6983 42.366H34.9483C34.995 41.862 35.163 41.4233 35.4523 41.05C35.751 40.6767 36.1336 40.392 36.6003 40.196C37.067 39.9907 37.5896 39.888 38.1683 39.888C39.1576 39.888 39.937 40.1353 40.5063 40.63C41.0756 41.1247 41.3603 41.8247 41.3603 42.73V47H39.8343L39.6663 45.88C39.461 46.2533 39.1716 46.5613 38.7983 46.804C38.4343 47.0467 37.963 47.168 37.3843 47.168ZM37.7903 45.768C38.3036 45.768 38.7003 45.6 38.9803 45.264C39.2696 44.928 39.4516 44.5127 39.5263 44.018H38.0003C37.5243 44.018 37.1836 44.1067 36.9783 44.284C36.773 44.452 36.6703 44.662 36.6703 44.914C36.6703 45.1847 36.773 45.3947 36.9783 45.544C37.1836 45.6933 37.4543 45.768 37.7903 45.768ZM46.2087 47C45.4807 47 44.8974 46.8227 44.4587 46.468C44.02 46.1133 43.8007 45.4833 43.8007 44.578V41.554H42.6107V40.056H43.8007L44.0107 38.194H45.5927V40.056H47.4687V41.554H45.5927V44.592C45.5927 44.928 45.6627 45.1613 45.8027 45.292C45.952 45.4133 46.204 45.474 46.5587 45.474H47.4267V47H46.2087ZM52.3435 47.168C51.6435 47.168 51.0229 47.0187 50.4815 46.72C49.9402 46.4213 49.5155 46.0013 49.2075 45.46C48.8995 44.9187 48.7455 44.2933 48.7455 43.584C48.7455 42.8653 48.8949 42.226 49.1935 41.666C49.5015 41.106 49.9215 40.672 50.4535 40.364C50.9949 40.0467 51.6295 39.888 52.3575 39.888C53.0389 39.888 53.6409 40.0373 54.1635 40.336C54.6862 40.6347 55.0922 41.0453 55.3815 41.568C55.6802 42.0813 55.8295 42.6553 55.8295 43.29C55.8295 43.3927 55.8249 43.5 55.8155 43.612C55.8155 43.724 55.8109 43.8407 55.8015 43.962H50.5235C50.5609 44.5033 50.7475 44.928 51.0835 45.236C51.4289 45.544 51.8442 45.698 52.3295 45.698C52.6935 45.698 52.9969 45.6187 53.2395 45.46C53.4915 45.292 53.6782 45.0773 53.7995 44.816H55.6195C55.4889 45.2547 55.2695 45.656 54.9615 46.02C54.6629 46.3747 54.2895 46.6547 53.8415 46.86C53.4029 47.0653 52.9035 47.168 52.3435 47.168ZM52.3575 41.344C51.9189 41.344 51.5315 41.47 51.1955 41.722C50.8595 41.9647 50.6449 42.338 50.5515 42.842H54.0095C53.9815 42.3847 53.8135 42.0207 53.5055 41.75C53.1975 41.4793 52.8149 41.344 52.3575 41.344ZM60.6687 47.168C60.0154 47.168 59.4321 47.0093 58.9187 46.692C58.4054 46.3747 57.9994 45.9407 57.7007 45.39C57.4021 44.8393 57.2527 44.214 57.2527 43.514C57.2527 42.814 57.4021 42.1933 57.7007 41.652C57.9994 41.1013 58.4054 40.672 58.9187 40.364C59.4321 40.0467 60.0154 39.888 60.6687 39.888C61.1914 39.888 61.6487 39.986 62.0407 40.182C62.4327 40.378 62.7501 40.6533 62.9927 41.008V36.92H64.7847V47H63.1887L62.9927 46.006C62.7687 46.314 62.4701 46.5847 62.0967 46.818C61.7327 47.0513 61.2567 47.168 60.6687 47.168ZM61.0467 45.6C61.6254 45.6 62.0967 45.4087 62.4607 45.026C62.8341 44.634 63.0207 44.1347 63.0207 43.528C63.0207 42.9213 62.8341 42.4267 62.4607 42.044C62.0967 41.652 61.6254 41.456 61.0467 41.456C60.4774 41.456 60.0061 41.6473 59.6327 42.03C59.2594 42.4127 59.0727 42.9073 59.0727 43.514C59.0727 44.1207 59.2594 44.62 59.6327 45.012C60.0061 45.404 60.4774 45.6 61.0467 45.6ZM70.2675 47V37.2H73.8935C74.6775 37.2 75.3261 37.3307 75.8395 37.592C76.3528 37.8533 76.7355 38.2127 76.9875 38.67C77.2395 39.1273 77.3655 39.6407 77.3655 40.21C77.3655 40.7513 77.2441 41.2507 77.0015 41.708C76.7588 42.156 76.3808 42.52 75.8675 42.8C75.3541 43.0707 74.6961 43.206 73.8935 43.206H72.0595V47H70.2675ZM72.0595 41.75H73.7815C74.4068 41.75 74.8548 41.6147 75.1255 41.344C75.4055 41.064 75.5455 40.686 75.5455 40.21C75.5455 39.7247 75.4055 39.3467 75.1255 39.076C74.8548 38.796 74.4068 38.656 73.7815 38.656H72.0595V41.75ZM81.8879 47.168C81.1879 47.168 80.5672 47.0187 80.0259 46.72C79.4846 46.4213 79.0599 46.0013 78.7519 45.46C78.4439 44.9187 78.2899 44.2933 78.2899 43.584C78.2899 42.8653 78.4392 42.226 78.7379 41.666C79.0459 41.106 79.4659 40.672 79.9979 40.364C80.5392 40.0467 81.1739 39.888 81.9019 39.888C82.5832 39.888 83.1852 40.0373 83.7079 40.336C84.2306 40.6347 84.6366 41.0453 84.9259 41.568C85.2246 42.0813 85.3739 42.6553 85.3739 43.29C85.3739 43.3927 85.3692 43.5 85.3599 43.612C85.3599 43.724 85.3552 43.8407 85.3459 43.962H80.0679C80.1052 44.5033 80.2919 44.928 80.6279 45.236C80.9732 45.544 81.3886 45.698 81.8739 45.698C82.2379 45.698 82.5412 45.6187 82.7839 45.46C83.0359 45.292 83.2226 45.0773 83.3439 44.816H85.1639C85.0332 45.2547 84.8139 45.656 84.5059 46.02C84.2072 46.3747 83.8339 46.6547 83.3859 46.86C82.9472 47.0653 82.4479 47.168 81.8879 47.168ZM81.9019 41.344C81.4632 41.344 81.0759 41.47 80.7399 41.722C80.4039 41.9647 80.1892 42.338 80.0959 42.842H83.5539C83.5259 42.3847 83.3579 42.0207 83.0499 41.75C82.7419 41.4793 82.3592 41.344 81.9019 41.344ZM90.3531 47.168C89.6811 47.168 89.0744 47.014 88.5331 46.706C88.0011 46.398 87.5764 45.9733 87.2591 45.432C86.9511 44.8813 86.7971 44.2467 86.7971 43.528C86.7971 42.8093 86.9558 42.1793 87.2731 41.638C87.5904 41.0873 88.0151 40.658 88.5471 40.35C89.0884 40.042 89.6951 39.888 90.3671 39.888C91.0298 39.888 91.6271 40.042 92.1591 40.35C92.7004 40.658 93.1251 41.0873 93.4331 41.638C93.7504 42.1793 93.9091 42.8093 93.9091 43.528C93.9091 44.2467 93.7504 44.8813 93.4331 45.432C93.1251 45.9733 92.7004 46.398 92.1591 46.706C91.6178 47.014 91.0158 47.168 90.3531 47.168ZM90.3531 45.614C90.8198 45.614 91.2258 45.4413 91.5711 45.096C91.9164 44.7413 92.0891 44.2187 92.0891 43.528C92.0891 42.8373 91.9164 42.3193 91.5711 41.974C91.2258 41.6193 90.8244 41.442 90.3671 41.442C89.8911 41.442 89.4804 41.6193 89.1351 41.974C88.7991 42.3193 88.6311 42.8373 88.6311 43.528C88.6311 44.2187 88.7991 44.7413 89.1351 45.096C89.4804 45.4413 89.8864 45.614 90.3531 45.614ZM95.6513 50.08V40.056H97.2473L97.4433 41.05C97.6673 40.742 97.9613 40.4713 98.3253 40.238C98.6987 40.0047 99.1793 39.888 99.7673 39.888C100.421 39.888 101.004 40.0467 101.517 40.364C102.031 40.6813 102.437 41.1153 102.735 41.666C103.034 42.2167 103.183 42.842 103.183 43.542C103.183 44.242 103.034 44.8673 102.735 45.418C102.437 45.9593 102.031 46.3887 101.517 46.706C101.004 47.014 100.421 47.168 99.7673 47.168C99.2447 47.168 98.7873 47.07 98.3953 46.874C98.0033 46.678 97.686 46.4027 97.4433 46.048V50.08H95.6513ZM99.3893 45.6C99.9587 45.6 100.43 45.4087 100.803 45.026C101.177 44.6433 101.363 44.1487 101.363 43.542C101.363 42.9353 101.177 42.436 100.803 42.044C100.43 41.652 99.9587 41.456 99.3893 41.456C98.8107 41.456 98.3347 41.652 97.9613 42.044C97.5973 42.4267 97.4153 42.9213 97.4153 43.528C97.4153 44.1347 97.5973 44.634 97.9613 45.026C98.3347 45.4087 98.8107 45.6 99.3893 45.6ZM104.924 47V36.92H106.716V47H104.924ZM112.061 47.168C111.361 47.168 110.741 47.0187 110.199 46.72C109.658 46.4213 109.233 46.0013 108.925 45.46C108.617 44.9187 108.463 44.2933 108.463 43.584C108.463 42.8653 108.613 42.226 108.911 41.666C109.219 41.106 109.639 40.672 110.171 40.364C110.713 40.0467 111.347 39.888 112.075 39.888C112.757 39.888 113.359 40.0373 113.881 40.336C114.404 40.6347 114.81 41.0453 115.099 41.568C115.398 42.0813 115.547 42.6553 115.547 43.29C115.547 43.3927 115.543 43.5 115.533 43.612C115.533 43.724 115.529 43.8407 115.519 43.962L110.241 43.962C110.279 44.5033 110.465 44.928 110.801 45.236C111.147 45.544 111.562 45.698 112.047 45.698C112.411 45.698 112.715 45.6187 112.957 45.46C113.209 45.292 113.396 45.0773 113.517 44.816H115.337C115.207 45.2547 114.987 45.656 114.679 46.02C114.381 46.3747 114.007 46.6547 113.559 46.86C113.121 47.0653 112.621 47.168 112.061 47.168ZM112.075 41.344C111.637 41.344 111.249 41.47 110.913 41.722C110.577 41.9647 110.363 42.338 110.269 42.842L113.727 42.842C113.699 42.3847 113.531 42.0207 113.223 41.75C112.915 41.4793 112.533 41.344 112.075 41.344ZM120.064 47.168C119.448 47.168 118.907 47.07 118.44 46.874C117.974 46.6687 117.6 46.3887 117.32 46.034C117.04 45.6793 116.872 45.2687 116.816 44.802H118.622C118.678 45.0727 118.828 45.306 119.07 45.502C119.322 45.6887 119.644 45.782 120.036 45.782C120.428 45.782 120.713 45.7027 120.89 45.544C121.077 45.3853 121.17 45.2033 121.17 44.998C121.17 44.6993 121.04 44.4987 120.778 44.396C120.517 44.284 120.153 44.1767 119.686 44.074C119.388 44.0087 119.084 43.9293 118.776 43.836C118.468 43.7427 118.184 43.626 117.922 43.486C117.67 43.3367 117.465 43.15 117.306 42.926C117.148 42.6927 117.068 42.408 117.068 42.072C117.068 41.456 117.311 40.938 117.796 40.518C118.291 40.098 118.982 39.888 119.868 39.888C120.69 39.888 121.343 40.0793 121.828 40.462C122.323 40.8447 122.617 41.372 122.71 42.044H121.016C120.914 41.5307 120.526 41.274 119.854 41.274C119.518 41.274 119.257 41.3393 119.07 41.47C118.893 41.6007 118.804 41.764 118.804 41.96C118.804 42.1653 118.94 42.3287 119.21 42.45C119.481 42.5713 119.84 42.6833 120.288 42.786C120.774 42.898 121.217 43.024 121.618 43.164C122.029 43.2947 122.356 43.4953 122.598 43.766C122.841 44.0273 122.962 44.4053 122.962 44.9C122.972 45.3293 122.86 45.7167 122.626 46.062C122.393 46.4073 122.057 46.678 121.618 46.874C121.18 47.07 120.662 47.168 120.064 47.168Z" fill="#0b1a00"/>
<g clip-path="url(#clip0_304_5081)">
<path d="M67.5 29C59.5045 29 53 22.4955 53 14.5C53 6.50451 59.5045 0 67.5 0C75.4955 0 82 6.50451 82 14.5C82 22.4955 75.4955 29 67.5 29ZM67.5 1.36578C60.258 1.36578 54.3658 7.25797 54.3658 14.5C54.3658 21.742 60.258 27.6342 67.5 27.6342C74.742 27.6342 80.6342 21.742 80.6342 14.5C80.6342 7.25797 74.742 1.36578 67.5 1.36578Z" fill="#0b1a00"/>
<path d="M73.161 20.3785C70.0698 20.3785 67.5557 17.8643 67.5557 14.7731C67.5557 11.6819 70.0698 9.16772 73.161 9.16772C76.2522 9.16772 78.7664 11.6819 78.7664 14.7731C78.7664 17.8643 76.2522 20.3785 73.161 20.3785ZM73.161 10.5335C70.8233 10.5335 68.9214 12.4353 68.9214 14.7731C68.9214 17.1109 70.8233 19.0127 73.161 19.0127C75.4988 19.0127 77.4006 17.1109 77.4006 14.7731C77.4006 12.4353 75.4988 10.5335 73.161 10.5335Z" fill="#0b1a00"/>
</g>
<defs>
<clipPath id="clip0_304_5081">
<rect width="29" height="29" fill="white" transform="translate(53)"/>
</clipPath>
</defs>
</svg>
