<svg width="134" height="50" viewBox="0 0 134 50" fill="none" xmlns="http://www.w3.org/2000/svg">
<path d="M46.1518 48V38.2H47.6358V42.4H52.3818V38.2H53.8658V48H52.3818V43.618H47.6358V48H46.1518ZM59.1908 48.168C58.5095 48.168 57.9028 48.0187 57.3708 47.72C56.8482 47.412 56.4375 46.9873 56.1388 46.446C55.8402 45.9047 55.6908 45.2747 55.6908 44.556C55.6908 43.828 55.8355 43.1887 56.1248 42.638C56.4235 42.0873 56.8342 41.658 57.3568 41.35C57.8888 41.042 58.5048 40.888 59.2048 40.888C59.8862 40.888 60.4788 41.042 60.9828 41.35C61.4868 41.6487 61.8788 42.05 62.1588 42.554C62.4388 43.058 62.5788 43.6133 62.5788 44.22C62.5788 44.3133 62.5742 44.416 62.5648 44.528C62.5648 44.6307 62.5602 44.7473 62.5508 44.878L57.1468 44.878C57.1935 45.55 57.4128 46.0633 57.8048 46.418C58.2062 46.7633 58.6682 46.936 59.1908 46.936C59.6108 46.936 59.9608 46.8427 60.2408 46.656C60.5302 46.46 60.7448 46.1987 60.8848 45.872H62.3688C62.1822 46.5253 61.8088 47.0713 61.2488 47.51C60.6982 47.9487 60.0122 48.168 59.1908 48.168ZM59.1908 42.106C58.6962 42.106 58.2575 42.2553 57.8748 42.554C57.4922 42.8433 57.2588 43.282 57.1748 43.87L61.0948 43.87C61.0668 43.3287 60.8755 42.8993 60.5208 42.582C60.1662 42.2647 59.7228 42.106 59.1908 42.106ZM66.6106 48.168C66.0226 48.168 65.5373 48.07 65.1546 47.874C64.772 47.678 64.4873 47.4213 64.3006 47.104C64.114 46.7773 64.0206 46.4227 64.0206 46.04C64.0206 45.368 64.282 44.836 64.8046 44.444C65.3273 44.052 66.074 43.856 67.0446 43.856H68.8646V43.73C68.8646 43.1887 68.7153 42.7827 68.4166 42.512C68.1273 42.2413 67.7493 42.106 67.2826 42.106C66.872 42.106 66.5126 42.2087 66.2046 42.414C65.906 42.61 65.724 42.904 65.6586 43.296H64.1746C64.2213 42.792 64.3893 42.3627 64.6786 42.008C64.9773 41.644 65.3506 41.3687 65.7986 41.182C66.256 40.986 66.7553 40.888 67.2966 40.888C68.2673 40.888 69.0186 41.1447 69.5506 41.658C70.0826 42.162 70.3486 42.8527 70.3486 43.73V48H69.0606L68.9346 46.81C68.7386 47.1927 68.454 47.5147 68.0806 47.776C67.7073 48.0373 67.2173 48.168 66.6106 48.168ZM66.9046 46.964C67.306 46.964 67.642 46.8707 67.9126 46.684C68.1926 46.488 68.4073 46.2313 68.5566 45.914C68.7153 45.5967 68.8133 45.2467 68.8506 44.864H67.1986C66.6106 44.864 66.1906 44.9667 65.9386 45.172C65.696 45.3773 65.5746 45.634 65.5746 45.942C65.5746 46.2593 65.6913 46.5113 65.9246 46.698C66.1673 46.8753 66.494 46.964 66.9046 46.964ZM72.2189 48V37.92H73.7029V48H72.2189ZM78.6342 48C77.9529 48 77.4116 47.8367 77.0102 47.51C76.6089 47.174 76.4082 46.5813 76.4082 45.732V42.302H75.2182V41.056H76.4082L76.5902 39.292H77.8922V41.056H79.8522V42.302H77.8922V45.732C77.8922 46.1147 77.9716 46.3807 78.1302 46.53C78.2982 46.67 78.5829 46.74 78.9842 46.74H79.7822V48H78.6342ZM81.5224 48V37.92H83.0064V42.176C83.2397 41.7747 83.5617 41.462 83.9724 41.238C84.3924 41.0047 84.8544 40.888 85.3584 40.888C86.189 40.888 86.8424 41.1493 87.3184 41.672C87.7944 42.1947 88.0324 42.974 88.0324 44.01V48H86.5624V44.164C86.5624 42.82 86.0257 42.148 84.9524 42.148C84.3924 42.148 83.9257 42.344 83.5524 42.736C83.1884 43.128 83.0064 43.688 83.0064 44.416V48H81.5224Z" fill="#2D8C2D"/>
<g clip-path="url(#clip0_304_5030)">
<path d="M66.5 29C58.5053 29 52 22.4959 52 14.5C52 6.5041 58.5053 0 66.5 0C74.4947 0 81 6.5041 81 14.5C81 22.4959 74.4947 29 66.5 29ZM66.5 1.39748C59.275 1.39748 53.3975 7.27504 53.3975 14.5C53.3975 21.725 59.275 27.6025 66.5 27.6025C73.725 27.6025 79.6025 21.725 79.6025 14.5C79.6025 7.27504 73.725 1.39748 66.5 1.39748Z" fill="#2D8C2D"/>
<path d="M70.6322 23.5965H62.3812V18.6261H57.4609V10.3751H62.3812V5.6377H70.6322V10.3751H75.4209V18.6261H70.6322V23.5965ZM63.7787 22.199H69.2347V17.2286H74.0234V11.7726H69.2347V7.03517H63.7787V11.7726H58.8584V17.2286H63.7787V22.199Z" fill="#2D8C2D"/>
</g>
<defs>
<clipPath id="clip0_304_5030">
<rect width="29" height="29" fill="white" transform="translate(52)"/>
</clipPath>
</defs>
</svg>
